G04 #@! TF.GenerationSoftware,KiCad,Pcbnew,(5.1.12)-1*
G04 #@! TF.CreationDate,2023-02-12T19:07:51-08:00*
G04 #@! TF.ProjectId,GB-BRK-CART,47422d42-524b-42d4-9341-52542e6b6963,v1.0*
G04 #@! TF.SameCoordinates,Original*
G04 #@! TF.FileFunction,Copper,L1,Top*
G04 #@! TF.FilePolarity,Positive*
%FSLAX46Y46*%
G04 Gerber Fmt 4.6, Leading zero omitted, Abs format (unit mm)*
G04 Created by KiCad (PCBNEW (5.1.12)-1) date 2023-02-12 19:07:51*
%MOMM*%
%LPD*%
G01*
G04 APERTURE LIST*
G04 #@! TA.AperFunction,SMDPad,CuDef*
%ADD10R,1.000000X3.150000*%
G04 #@! TD*
G04 #@! TA.AperFunction,SMDPad,CuDef*
%ADD11R,0.820000X1.000000*%
G04 #@! TD*
G04 #@! TA.AperFunction,SMDPad,CuDef*
%ADD12R,1.000000X0.820000*%
G04 #@! TD*
G04 #@! TA.AperFunction,ConnectorPad*
%ADD13R,1.300000X6.000000*%
G04 #@! TD*
G04 #@! TA.AperFunction,ConnectorPad*
%ADD14R,1.000000X5.500000*%
G04 #@! TD*
G04 #@! TA.AperFunction,ViaPad*
%ADD15C,0.600000*%
G04 #@! TD*
G04 #@! TA.AperFunction,ViaPad*
%ADD16C,1.000000*%
G04 #@! TD*
G04 #@! TA.AperFunction,Conductor*
%ADD17C,0.400000*%
G04 #@! TD*
G04 #@! TA.AperFunction,Conductor*
%ADD18C,0.800000*%
G04 #@! TD*
G04 #@! TA.AperFunction,Conductor*
%ADD19C,0.254000*%
G04 #@! TD*
G04 #@! TA.AperFunction,Conductor*
%ADD20C,0.100000*%
G04 #@! TD*
G04 APERTURE END LIST*
D10*
X119050000Y-45475000D03*
X119050000Y-50525000D03*
X116510000Y-45475000D03*
X116510000Y-50525000D03*
X113970000Y-45475000D03*
X113970000Y-50525000D03*
X111430000Y-45475000D03*
X111430000Y-50525000D03*
X108890000Y-45475000D03*
X108890000Y-50525000D03*
X106350000Y-45475000D03*
X106350000Y-50525000D03*
X103810000Y-45475000D03*
X103810000Y-50525000D03*
X101270000Y-45475000D03*
X101270000Y-50525000D03*
X98730000Y-45475000D03*
X98730000Y-50525000D03*
X96190000Y-45475000D03*
X96190000Y-50525000D03*
X93650000Y-45475000D03*
X93650000Y-50525000D03*
X91110000Y-45475000D03*
X91110000Y-50525000D03*
X88570000Y-45475000D03*
X88570000Y-50525000D03*
X86030000Y-45475000D03*
X86030000Y-50525000D03*
X83490000Y-45475000D03*
X83490000Y-50525000D03*
X80950000Y-45475000D03*
X80950000Y-50525000D03*
D11*
X72848000Y-24054000D03*
X74448000Y-24054000D03*
D12*
X70448000Y-24154000D03*
X70448000Y-25754000D03*
D13*
X123400000Y-96000000D03*
D14*
X121750000Y-95750000D03*
X120250000Y-95750000D03*
X118750000Y-95750000D03*
X117250000Y-95750000D03*
X115750000Y-95750000D03*
X114250000Y-95750000D03*
X112750000Y-95750000D03*
X111250000Y-95750000D03*
X109750000Y-95750000D03*
X108250000Y-95750000D03*
X106750000Y-95750000D03*
X105250000Y-95750000D03*
X103750000Y-95750000D03*
X102250000Y-95750000D03*
X100750000Y-95750000D03*
X99250000Y-95750000D03*
X97750000Y-95750000D03*
X96250000Y-95750000D03*
X94750000Y-95750000D03*
X93250000Y-95750000D03*
X91750000Y-95750000D03*
X90250000Y-95750000D03*
X88750000Y-95750000D03*
X87250000Y-95750000D03*
X85750000Y-95750000D03*
X84250000Y-95750000D03*
X82750000Y-95750000D03*
X81250000Y-95750000D03*
X79750000Y-95750000D03*
D13*
X76600000Y-96000000D03*
D14*
X78250000Y-95750000D03*
D11*
X74448000Y-25954000D03*
X72848000Y-25954000D03*
D15*
X96520000Y-79502000D03*
X101092000Y-79502000D03*
X97536000Y-76962000D03*
X101600000Y-78994000D03*
X98044000Y-77470000D03*
X97536000Y-75438000D03*
X98044000Y-76454000D03*
X101092000Y-72390000D03*
X97536000Y-72390000D03*
X96520000Y-71374000D03*
X101092000Y-76454000D03*
X96520000Y-71374000D03*
X98552000Y-76962000D03*
X99568000Y-73914000D03*
X100584000Y-76962000D03*
X102108000Y-78486000D03*
X102108000Y-71374000D03*
X101092000Y-75438000D03*
X95504010Y-73914000D03*
X103124024Y-73914000D03*
X98806000Y-78486000D03*
X100076000Y-78486000D03*
X99822000Y-6350000D03*
X99314000Y-5842000D03*
X102362000Y-1778000D03*
X98806000Y-1778000D03*
X97790000Y-762000D03*
X97790000Y-762000D03*
X98806000Y-4826000D03*
X97790000Y-8890000D03*
X98806000Y-6350000D03*
X102362000Y-8890000D03*
X102870000Y-8382000D03*
X99314000Y-6858000D03*
X102362000Y-5842000D03*
X100838000Y-3302000D03*
X103378000Y-762000D03*
X104394024Y-3302000D03*
X102362000Y-4826000D03*
X101854000Y-6350000D03*
X103378000Y-7874000D03*
X96774010Y-3302000D03*
X100076000Y-7874000D03*
X101346000Y-7874000D03*
D16*
X74448000Y-21056028D03*
D15*
X123400000Y-92600000D03*
D16*
X123400000Y-90200000D03*
X123900000Y-84000000D03*
X120300000Y-86100000D03*
X122300000Y-48800000D03*
X123300000Y-54900000D03*
X120300000Y-59000000D03*
X123000000Y-63200000D03*
X123300000Y-74500000D03*
X120300000Y-78300000D03*
X120700000Y-68500000D03*
D15*
X118110000Y-3302000D03*
X108458000Y-3302000D03*
X84300000Y-92600000D03*
X80950000Y-54782002D03*
X84300000Y-64131998D03*
X114807990Y-30480000D03*
X104648001Y-30480001D03*
X78300000Y-92600000D03*
X116332000Y-29464000D03*
X79502000Y-34544000D03*
X94798819Y-30125134D03*
X85700000Y-92600000D03*
X83490000Y-54822002D03*
X113792000Y-31496004D03*
X105156000Y-31380010D03*
X87250000Y-92600000D03*
X87400000Y-54332000D03*
X104648000Y-33528000D03*
X112522000Y-37846000D03*
X88800000Y-92600000D03*
X88392000Y-48006000D03*
X111506000Y-38862000D03*
X105156000Y-34544000D03*
X90200000Y-92600000D03*
X91140902Y-57231902D03*
X105154093Y-36344011D03*
X109728000Y-41148000D03*
X108250000Y-92600000D03*
X101556164Y-57115219D03*
X93976523Y-47800000D03*
X92075000Y-41275000D03*
X92202000Y-26670000D03*
X93472000Y-31103990D03*
X91800000Y-92600000D03*
X94996000Y-48006000D03*
X104394000Y-38356808D03*
X107790595Y-41815405D03*
X109750000Y-92600000D03*
X101911759Y-56180566D03*
X96284915Y-47704199D03*
X91186000Y-40259000D03*
X90678000Y-26670000D03*
X91948000Y-31103990D03*
X93300000Y-92600000D03*
X97536000Y-48006000D03*
X105916596Y-42927404D03*
X104011596Y-41022404D03*
X104100000Y-56800000D03*
X111250000Y-92600000D03*
X98679000Y-47879000D03*
X90208011Y-39204989D03*
X89154000Y-26670000D03*
X90932000Y-31103990D03*
X94700000Y-92600000D03*
X99822000Y-48006000D03*
X104400000Y-55800000D03*
X112750000Y-92600000D03*
X89408000Y-38100000D03*
X87630000Y-26670000D03*
X100838000Y-48006000D03*
X89916000Y-31103990D03*
X96200000Y-92600000D03*
X102362000Y-48006000D03*
X113422010Y-34290000D03*
X104140000Y-20320000D03*
X114250000Y-92600000D03*
X88392000Y-37084000D03*
X86106000Y-26670000D03*
X88900000Y-31103990D03*
X97700000Y-92600000D03*
X103301000Y-53009000D03*
X114425718Y-34257749D03*
X102616000Y-20320000D03*
X115750000Y-92600000D03*
X87376000Y-36068000D03*
X84582000Y-26670000D03*
X87630000Y-31103990D03*
X106300000Y-52800000D03*
X99300000Y-92600000D03*
X104394000Y-61849000D03*
X115570000Y-34290030D03*
X101092000Y-20320000D03*
X117250000Y-92600000D03*
X86487000Y-35052000D03*
X83312000Y-26670000D03*
X86614000Y-31103990D03*
X108900000Y-52800000D03*
X100800000Y-92600000D03*
X105346500Y-62484000D03*
X121412000Y-29718000D03*
X99568000Y-20320000D03*
X118750000Y-92600000D03*
X85350813Y-34096006D03*
X81788000Y-26670000D03*
X85598000Y-31103990D03*
X111400000Y-52800000D03*
X102300000Y-92600000D03*
X106172004Y-63119000D03*
X98044000Y-20320000D03*
X122084525Y-30645581D03*
X114000000Y-52800000D03*
X103800000Y-92600000D03*
X107061000Y-63817500D03*
X96774000Y-20320000D03*
X122795840Y-31348471D03*
X121750000Y-92600000D03*
X78740000Y-26670000D03*
X119000000Y-52800000D03*
X106800000Y-92600000D03*
X109002605Y-64980790D03*
X93726000Y-20320000D03*
X124206000Y-32766000D03*
X120250000Y-92600000D03*
X84375752Y-33296011D03*
X84328000Y-31103990D03*
X80010000Y-26670000D03*
X82800000Y-92600000D03*
X84499996Y-62600000D03*
X91110000Y-47955006D03*
X94711737Y-26843300D03*
X115824425Y-26763979D03*
X79373596Y-29338404D03*
X81300000Y-92600000D03*
X84582000Y-59943998D03*
X94739789Y-27973980D03*
X89662000Y-48006000D03*
X116840000Y-27663980D03*
X79501998Y-30988002D03*
X79800000Y-92600000D03*
X84582000Y-58039000D03*
X86106000Y-48006000D03*
X115824000Y-28563990D03*
X79502000Y-32766000D03*
X94902068Y-29084508D03*
X116500000Y-52800000D03*
X105300000Y-92600000D03*
X107961010Y-64389004D03*
X95251404Y-20321404D03*
X123484460Y-32073610D03*
D17*
X97536000Y-72390000D02*
X101092000Y-72390000D01*
X101092000Y-72390000D02*
X101092000Y-75438000D01*
X101092000Y-75438000D02*
X97536000Y-75438000D01*
X97536000Y-75438000D02*
X97536000Y-72390000D01*
X101092000Y-79502000D02*
X96520000Y-79502000D01*
X97536000Y-76962000D02*
X98552000Y-76962000D01*
X98044000Y-76454000D02*
X98044000Y-77470000D01*
X96520000Y-71374000D02*
X96520000Y-73914000D01*
X96520000Y-71374000D02*
X102108000Y-71374000D01*
X102108000Y-71374000D02*
X102108000Y-78486000D01*
X96520000Y-73914000D02*
X96520000Y-79502000D01*
X96520000Y-73914000D02*
X95504010Y-73914000D01*
X99568000Y-73914000D02*
X103124024Y-73914000D01*
X98806000Y-1778000D02*
X102362000Y-1778000D01*
X97790000Y-762000D02*
X97790000Y-3302000D01*
X102362000Y-8890000D02*
X97790000Y-8890000D01*
X98806000Y-4826000D02*
X98806000Y-1778000D01*
X97790000Y-3302000D02*
X96774010Y-3302000D01*
X102362000Y-4826000D02*
X98806000Y-4826000D01*
X100838000Y-3302000D02*
X104394024Y-3302000D01*
X102362000Y-1778000D02*
X102362000Y-4826000D01*
X97790000Y-3302000D02*
X97790000Y-8890000D01*
X97790000Y-762000D02*
X103378000Y-762000D01*
X99314000Y-5842000D02*
X99314000Y-6858000D01*
X103378000Y-762000D02*
X103378000Y-7874000D01*
X98806000Y-6350000D02*
X99822000Y-6350000D01*
D18*
X74448000Y-24054000D02*
X74448000Y-21056028D01*
X123400000Y-92600000D02*
X123400000Y-90200000D01*
X123400000Y-96000000D02*
X123400000Y-92600000D01*
X123400000Y-89792894D02*
X123400000Y-90200000D01*
X123400000Y-89700000D02*
X123400000Y-89792894D01*
X123900000Y-84000000D02*
X123400000Y-84500000D01*
X123400000Y-84500000D02*
X123400000Y-89792894D01*
X123900000Y-84000000D02*
X123900000Y-83800000D01*
D17*
X119050000Y-45230000D02*
X119050000Y-46230000D01*
X70548000Y-24054000D02*
X70448000Y-24154000D01*
X72748000Y-24154000D02*
X72848000Y-24054000D01*
X70448000Y-24154000D02*
X72748000Y-24154000D01*
X84250000Y-95750000D02*
X84250000Y-92650000D01*
X84250000Y-92650000D02*
X84300000Y-92600000D01*
X80950000Y-54782002D02*
X80950000Y-50525000D01*
X84300000Y-64131998D02*
X84300000Y-64131998D01*
X80950000Y-54782002D02*
X80950000Y-54782002D01*
X84300000Y-92600000D02*
X84300000Y-66576000D01*
X84300000Y-66576000D02*
X84300000Y-64131998D01*
X114807990Y-30480000D02*
X114383725Y-30480001D01*
X114383725Y-30480001D02*
X104648001Y-30480001D01*
X78250000Y-95750000D02*
X78250000Y-92650000D01*
X78250000Y-92650000D02*
X78300000Y-92600000D01*
X78300000Y-92600000D02*
X80300000Y-90600000D01*
X82200000Y-48740000D02*
X83490000Y-47450000D01*
X83490000Y-47450000D02*
X83490000Y-45475000D01*
X80300000Y-90600000D02*
X80300000Y-60670000D01*
X80300000Y-60670000D02*
X82200000Y-58770000D01*
X82200000Y-58770000D02*
X82200000Y-48740000D01*
X83490000Y-45475000D02*
X83490000Y-38532000D01*
X83490000Y-38532000D02*
X79502000Y-34544000D01*
X95884217Y-29464000D02*
X95223083Y-30125134D01*
X116332000Y-29464000D02*
X95884217Y-29464000D01*
X95223083Y-30125134D02*
X94798819Y-30125134D01*
X85750000Y-95750000D02*
X85750000Y-92650000D01*
X85750000Y-92650000D02*
X85700000Y-92600000D01*
X83490000Y-50525000D02*
X83490000Y-54822002D01*
X83490000Y-54822002D02*
X85700007Y-57032009D01*
X85700000Y-57032016D02*
X85700007Y-57032009D01*
X85700000Y-92600000D02*
X85700000Y-57032016D01*
X83490000Y-54822002D02*
X83490000Y-54822002D01*
X113676006Y-31380010D02*
X113792000Y-31496004D01*
X105156000Y-31380010D02*
X113676006Y-31380010D01*
X87250000Y-95750000D02*
X87250000Y-92600000D01*
X86030000Y-52777232D02*
X87400000Y-54147232D01*
X86030000Y-50525000D02*
X86030000Y-52777232D01*
X87400000Y-54147232D02*
X87400000Y-54332000D01*
X87400000Y-54332000D02*
X87400000Y-66524000D01*
X87400000Y-66524000D02*
X87400000Y-92450000D01*
X87400000Y-92450000D02*
X87250000Y-92600000D01*
X104648000Y-33528000D02*
X107950000Y-33528000D01*
X107950000Y-33528000D02*
X112268000Y-37846000D01*
X112268000Y-37846000D02*
X112522000Y-37846000D01*
X112522000Y-37846000D02*
X112522000Y-37846000D01*
X88750000Y-95750000D02*
X88750000Y-92650000D01*
X88750000Y-92650000D02*
X88800000Y-92600000D01*
X89378065Y-53308065D02*
X89378065Y-54914132D01*
X88800000Y-92600000D02*
X89378065Y-92021935D01*
X88570000Y-52500000D02*
X89378065Y-53308065D01*
X89378065Y-92021935D02*
X89378065Y-54914132D01*
X88570000Y-50525000D02*
X88570000Y-52500000D01*
X88570000Y-50525000D02*
X88570000Y-48184000D01*
X88570000Y-48184000D02*
X88392000Y-48006000D01*
X88392000Y-48006000D02*
X88392000Y-48006000D01*
X111506000Y-38862000D02*
X111506000Y-38862000D01*
X106426000Y-34544000D02*
X105156000Y-34544000D01*
X110744000Y-38862000D02*
X106426000Y-34544000D01*
X111506000Y-38862000D02*
X110744000Y-38862000D01*
X90250000Y-95750000D02*
X90250000Y-92650000D01*
X90250000Y-92650000D02*
X90200000Y-92600000D01*
X91046500Y-57137500D02*
X91140902Y-57231902D01*
X90200000Y-58172804D02*
X91140902Y-57231902D01*
X90200000Y-92600000D02*
X90200000Y-58172804D01*
X91110000Y-50525000D02*
X91110000Y-57201000D01*
X91110000Y-57201000D02*
X91140902Y-57231902D01*
X105154093Y-36344011D02*
X109728000Y-40917918D01*
X109728000Y-40917918D02*
X109728000Y-41148000D01*
X108250000Y-92600000D02*
X108250000Y-95750000D01*
X93650000Y-45475000D02*
X93650000Y-47473477D01*
X93650000Y-47473477D02*
X93976523Y-47800000D01*
X103340945Y-58900000D02*
X101556164Y-57115219D01*
X108250000Y-92600000D02*
X109902607Y-90947393D01*
X109902607Y-63902607D02*
X104900000Y-58900000D01*
X104900000Y-58900000D02*
X103340945Y-58900000D01*
X109902607Y-90947393D02*
X109902607Y-63902607D01*
X93650000Y-43510000D02*
X93650000Y-45475000D01*
X93650000Y-43510000D02*
X93650000Y-42850000D01*
X93650000Y-42850000D02*
X92075000Y-41275000D01*
X92075000Y-41275000D02*
X92075000Y-41275000D01*
X92075000Y-41275000D02*
X92075000Y-41275000D01*
X92202000Y-26670000D02*
X92202000Y-26670000D01*
X93472000Y-27940000D02*
X93472000Y-31103990D01*
X92202000Y-26670000D02*
X93472000Y-27940000D01*
X93650000Y-50525000D02*
X93650000Y-55194000D01*
X91750000Y-95750000D02*
X91750000Y-92650000D01*
X91750000Y-92650000D02*
X91800000Y-92600000D01*
X93650000Y-56950000D02*
X91033959Y-59566041D01*
X91033959Y-59566041D02*
X91033959Y-91833959D01*
X93650000Y-55194000D02*
X93650000Y-56950000D01*
X91033959Y-91833959D02*
X91800000Y-92600000D01*
X93650000Y-50525000D02*
X94996000Y-49179000D01*
X94996000Y-49179000D02*
X94996000Y-48006000D01*
X94996000Y-48006000D02*
X94996000Y-48006000D01*
X104394000Y-38356808D02*
X107790595Y-41753403D01*
X107790595Y-41753403D02*
X107790595Y-41815405D01*
X110700000Y-63400006D02*
X110700000Y-63400000D01*
X109750000Y-92600000D02*
X109750000Y-95750000D01*
X103731193Y-58000000D02*
X101911759Y-56180566D01*
X105299994Y-58000000D02*
X103731193Y-58000000D01*
X110700000Y-63400006D02*
X105299994Y-58000000D01*
X96190000Y-45475000D02*
X96190000Y-47609284D01*
X96190000Y-47609284D02*
X96284915Y-47704199D01*
X110702617Y-63402623D02*
X110700000Y-63400006D01*
X109750000Y-92600000D02*
X110702617Y-91647383D01*
X110702617Y-91647383D02*
X110702617Y-63402623D01*
X92939000Y-40259000D02*
X91186000Y-40259000D01*
X96190000Y-43510000D02*
X92939000Y-40259000D01*
X96190000Y-45475000D02*
X96190000Y-43510000D01*
X91186000Y-40259000D02*
X91186000Y-40259000D01*
X90678000Y-26670000D02*
X90678000Y-26670000D01*
X90678000Y-26670000D02*
X91948000Y-27940000D01*
X91948000Y-27940000D02*
X91948000Y-31103990D01*
X93250000Y-95750000D02*
X93250000Y-92650000D01*
X93250000Y-92650000D02*
X93300000Y-92600000D01*
X96190000Y-55194000D02*
X96190000Y-50525000D01*
X91833969Y-59974295D02*
X96190000Y-55618264D01*
X96190000Y-55618264D02*
X96190000Y-55194000D01*
X91833969Y-91133969D02*
X91833969Y-59974295D01*
X93300000Y-92600000D02*
X91833969Y-91133969D01*
X96190000Y-50525000D02*
X96795000Y-50525000D01*
X96795000Y-50525000D02*
X97536000Y-49784000D01*
X97536000Y-49784000D02*
X97536000Y-48006000D01*
X97536000Y-48006000D02*
X97536000Y-48006000D01*
X105916596Y-42927404D02*
X104011596Y-41022404D01*
X105500014Y-56800000D02*
X104100000Y-56800000D01*
X111549999Y-62849985D02*
X105500014Y-56800000D01*
X111549999Y-92300001D02*
X111549999Y-62849985D01*
X111250000Y-92600000D02*
X111549999Y-92300001D01*
X98700000Y-45505000D02*
X98730000Y-45475000D01*
X111250000Y-92600000D02*
X111250000Y-95750000D01*
X98730000Y-45475000D02*
X98730000Y-47828000D01*
X98730000Y-47828000D02*
X98679000Y-47879000D01*
X90208011Y-39204989D02*
X90208011Y-39204989D01*
X89154000Y-26670000D02*
X89154000Y-26670000D01*
X94434989Y-39204989D02*
X94399011Y-39204989D01*
X94399011Y-39204989D02*
X90208011Y-39204989D01*
X98730000Y-45475000D02*
X98730000Y-43500000D01*
X98730000Y-43500000D02*
X94434989Y-39204989D01*
X90932000Y-28448000D02*
X90932000Y-31103990D01*
X89154000Y-26670000D02*
X90932000Y-28448000D01*
X98730000Y-50525000D02*
X98730000Y-54178000D01*
X94750000Y-95750000D02*
X94750000Y-92650000D01*
X94750000Y-92650000D02*
X94700000Y-92600000D01*
X98730000Y-54534000D02*
X98730000Y-50525000D01*
X98730000Y-54178000D02*
X98730000Y-54534000D01*
X92633980Y-90533980D02*
X94700000Y-92600000D01*
X92633980Y-60630020D02*
X92633980Y-90533980D01*
X98730000Y-54534000D02*
X92633980Y-60630020D01*
X98730000Y-50525000D02*
X99822000Y-49433000D01*
X99822000Y-49433000D02*
X99822000Y-48006000D01*
X99822000Y-48006000D02*
X99822000Y-48006000D01*
X105899996Y-55800000D02*
X104400000Y-55800000D01*
X112450001Y-62350005D02*
X105899996Y-55800000D01*
X112450001Y-92300001D02*
X112450001Y-62350005D01*
X112750000Y-92600000D02*
X112450001Y-92300001D01*
X112750000Y-92600000D02*
X112750000Y-95750000D01*
X89408000Y-38100000D02*
X89408000Y-38100000D01*
X87630000Y-26670000D02*
X87630000Y-26670000D01*
X101270000Y-47574000D02*
X100838000Y-48006000D01*
X101270000Y-45475000D02*
X101270000Y-47574000D01*
X94488000Y-38100000D02*
X89408000Y-38100000D01*
X94742000Y-38100000D02*
X94488000Y-38100000D01*
X101270000Y-44628000D02*
X94742000Y-38100000D01*
X101270000Y-45475000D02*
X101270000Y-44628000D01*
X89916000Y-28956000D02*
X89916000Y-31103990D01*
X87630000Y-26670000D02*
X89916000Y-28956000D01*
X101270000Y-50525000D02*
X101270000Y-53630000D01*
X101270000Y-53630000D02*
X100056000Y-54844000D01*
X96250000Y-95750000D02*
X96250000Y-92650000D01*
X96250000Y-92650000D02*
X96200000Y-92600000D01*
X100056000Y-54844000D02*
X93433990Y-61466010D01*
X93433990Y-89833990D02*
X96200000Y-92600000D01*
X93433990Y-61466010D02*
X93433990Y-89833990D01*
X102108000Y-48006000D02*
X102108000Y-48006000D01*
X101270000Y-49098000D02*
X102362000Y-48006000D01*
X101270000Y-50525000D02*
X101270000Y-49098000D01*
X104140000Y-20320000D02*
X104140000Y-20320000D01*
X111251993Y-13208007D02*
X114508305Y-13208007D01*
X114508305Y-13208007D02*
X119379991Y-18079693D01*
X119379991Y-18079693D02*
X119379991Y-27907755D01*
X119379991Y-27907755D02*
X113422010Y-33865736D01*
X113422010Y-33865736D02*
X113422010Y-34290000D01*
X104140000Y-20320000D02*
X111251993Y-13208007D01*
X114250000Y-92600000D02*
X114250000Y-95750000D01*
X105100000Y-48740000D02*
X103810000Y-47450000D01*
X105100000Y-53411000D02*
X105100000Y-48740000D01*
X113400000Y-61711000D02*
X105100000Y-53411000D01*
X103810000Y-47450000D02*
X103810000Y-45475000D01*
X113400000Y-91750000D02*
X113400000Y-61711000D01*
X114250000Y-92600000D02*
X113400000Y-91750000D01*
X86106000Y-26670000D02*
X86106000Y-26670000D01*
X94488000Y-37084000D02*
X88392000Y-37084000D01*
X95250000Y-37084000D02*
X94488000Y-37084000D01*
X102250001Y-43299999D02*
X101465999Y-43299999D01*
X102370001Y-43419999D02*
X102250001Y-43299999D01*
X102370001Y-44204001D02*
X102370001Y-43419999D01*
X101465999Y-43299999D02*
X95250000Y-37084000D01*
X103641000Y-45475000D02*
X102370001Y-44204001D01*
X103810000Y-45475000D02*
X103641000Y-45475000D01*
X88900000Y-29464000D02*
X88900000Y-31103990D01*
X86106000Y-26670000D02*
X88900000Y-29464000D01*
X103810000Y-52500000D02*
X103301000Y-53009000D01*
X103810000Y-50525000D02*
X103810000Y-52500000D01*
X97750000Y-95750000D02*
X97750000Y-92650000D01*
X97750000Y-92650000D02*
X97700000Y-92600000D01*
X94234000Y-89134000D02*
X97700000Y-92600000D01*
X94234000Y-62076000D02*
X94234000Y-89134000D01*
X103301000Y-53009000D02*
X94234000Y-62076000D01*
X102616000Y-20320000D02*
X102616000Y-20320000D01*
X110528004Y-12407996D02*
X114839680Y-12407996D01*
X102616000Y-20320000D02*
X110528004Y-12407996D01*
X120180002Y-17748318D02*
X120180002Y-28333388D01*
X120180002Y-28333388D02*
X114425718Y-34087672D01*
X114839680Y-12407996D02*
X120180002Y-17748318D01*
X114425718Y-34087672D02*
X114425718Y-34257749D01*
X115750000Y-92600000D02*
X115750000Y-95750000D01*
X107450001Y-48550001D02*
X106350000Y-47450000D01*
X107450001Y-54364001D02*
X107450001Y-48550001D01*
X114300000Y-61214000D02*
X107450001Y-54364001D01*
X114300000Y-91150000D02*
X114300000Y-61214000D01*
X106350000Y-47450000D02*
X106350000Y-45475000D01*
X115750000Y-92600000D02*
X114300000Y-91150000D01*
X94488000Y-36068000D02*
X87376000Y-36068000D01*
X96520000Y-36068000D02*
X94488000Y-36068000D01*
X103751999Y-43299999D02*
X96520000Y-36068000D01*
X104790001Y-43299999D02*
X103751999Y-43299999D01*
X104910001Y-43419999D02*
X104790001Y-43299999D01*
X104910001Y-44458001D02*
X104910001Y-43419999D01*
X105927000Y-45475000D02*
X104910001Y-44458001D01*
X106350000Y-45475000D02*
X105927000Y-45475000D01*
X84582000Y-26670000D02*
X87630000Y-29718000D01*
X87630000Y-29718000D02*
X87630000Y-31103990D01*
X106350000Y-50525000D02*
X106350000Y-52750000D01*
X106350000Y-52750000D02*
X106300000Y-52800000D01*
X99250000Y-95750000D02*
X99250000Y-92650000D01*
X99250000Y-92650000D02*
X99300000Y-92600000D01*
X104394000Y-87506000D02*
X104394000Y-61849000D01*
X99300000Y-92600000D02*
X104394000Y-87506000D01*
X101092000Y-20320000D02*
X101092000Y-20320000D01*
X120980013Y-28664763D02*
X115570000Y-34074776D01*
X109804015Y-11607985D02*
X115171055Y-11607985D01*
X120980013Y-17416943D02*
X120980013Y-28664763D01*
X115570000Y-34074776D02*
X115570000Y-34290030D01*
X101092000Y-20320000D02*
X109804015Y-11607985D01*
X115171055Y-11607985D02*
X120980013Y-17416943D01*
X117250000Y-92600000D02*
X117250000Y-95750000D01*
X108890000Y-47450000D02*
X108890000Y-45475000D01*
X109990001Y-48550001D02*
X108890000Y-47450000D01*
X109990001Y-55507001D02*
X109990001Y-48550001D01*
X115200000Y-60717000D02*
X109990001Y-55507001D01*
X115200000Y-90550000D02*
X115200000Y-60717000D01*
X117250000Y-92600000D02*
X115200000Y-90550000D01*
X83312000Y-26670000D02*
X83312000Y-26670000D01*
X94488000Y-35052000D02*
X86487000Y-35052000D01*
X99314000Y-35052000D02*
X94488000Y-35052000D01*
X108890000Y-45475000D02*
X108890000Y-44628000D01*
X108890000Y-44628000D02*
X99314000Y-35052000D01*
X86614000Y-30034004D02*
X86614000Y-31103990D01*
X83312000Y-26670000D02*
X83312000Y-26732004D01*
X83312000Y-26732004D02*
X86614000Y-30034004D01*
X108890000Y-50525000D02*
X108890000Y-52790000D01*
X108890000Y-52790000D02*
X108900000Y-52800000D01*
X100750000Y-95750000D02*
X100750000Y-92650000D01*
X100750000Y-92650000D02*
X100800000Y-92600000D01*
X105219500Y-62611000D02*
X105346500Y-62484000D01*
X105219500Y-88180500D02*
X105219500Y-62611000D01*
X100800000Y-92600000D02*
X105219500Y-88180500D01*
X99568000Y-20320000D02*
X99568000Y-20320000D01*
X121780024Y-29349976D02*
X121412000Y-29718000D01*
X115502430Y-10807974D02*
X121780024Y-17085568D01*
X121780024Y-17085568D02*
X121780024Y-29349976D01*
X109080026Y-10807974D02*
X115502430Y-10807974D01*
X99568000Y-20320000D02*
X109080026Y-10807974D01*
X118750000Y-92600000D02*
X118750000Y-95750000D01*
X111430000Y-47450000D02*
X111430000Y-45475000D01*
X112700000Y-48720000D02*
X111430000Y-47450000D01*
X112700000Y-56820000D02*
X112700000Y-48720000D01*
X116100000Y-60220000D02*
X112700000Y-56820000D01*
X116100000Y-89950000D02*
X116100000Y-60220000D01*
X118750000Y-92600000D02*
X116100000Y-89950000D01*
X81788000Y-26670000D02*
X81788000Y-26670000D01*
X94427994Y-34096006D02*
X85350813Y-34096006D01*
X111430000Y-44182002D02*
X108319999Y-41072001D01*
X108319999Y-41072001D02*
X108319999Y-41009999D01*
X111430000Y-45475000D02*
X111430000Y-44182002D01*
X101406006Y-34096006D02*
X94427994Y-34096006D01*
X108319999Y-41009999D02*
X101406006Y-34096006D01*
X85598000Y-30480000D02*
X85598000Y-31103990D01*
X81788000Y-26670000D02*
X85598000Y-30480000D01*
X111430000Y-50525000D02*
X111430000Y-52770000D01*
X111430000Y-52770000D02*
X111400000Y-52800000D01*
X102250000Y-95750000D02*
X102250000Y-92650000D01*
X102250000Y-92650000D02*
X102300000Y-92600000D01*
X106108500Y-88791500D02*
X106108500Y-63182504D01*
X102300000Y-92600000D02*
X106108500Y-88791500D01*
X106108500Y-63182504D02*
X106172004Y-63119000D01*
X98044000Y-20320000D02*
X98044000Y-20320000D01*
X115833805Y-10007963D02*
X122580035Y-16754193D01*
X98044000Y-20320000D02*
X108356037Y-10007963D01*
X122580035Y-16754193D02*
X122580035Y-30150071D01*
X122580035Y-30150071D02*
X122084525Y-30645581D01*
X108356037Y-10007963D02*
X115833805Y-10007963D01*
X113970000Y-50525000D02*
X113970000Y-52770000D01*
X113970000Y-52770000D02*
X114000000Y-52800000D01*
X103750000Y-95750000D02*
X103750000Y-92650000D01*
X103750000Y-92650000D02*
X103800000Y-92600000D01*
X107061000Y-89339000D02*
X107061000Y-63817500D01*
X103800000Y-92600000D02*
X107061000Y-89339000D01*
X96774000Y-20320000D02*
X96774000Y-20320000D01*
X107309118Y-9207952D02*
X116165180Y-9207952D01*
X123380046Y-16422818D02*
X123380046Y-30764265D01*
X96774000Y-19743070D02*
X107309118Y-9207952D01*
X96774000Y-20320000D02*
X96774000Y-19743070D01*
X116165180Y-9207952D02*
X123380046Y-16422818D01*
X123380046Y-30764265D02*
X122795840Y-31348471D01*
X121750000Y-92600000D02*
X117900000Y-88750000D01*
X117900000Y-48840000D02*
X116510000Y-47450000D01*
X117900000Y-88750000D02*
X117900000Y-48840000D01*
X116510000Y-47450000D02*
X116510000Y-45475000D01*
X121750000Y-92600000D02*
X121750000Y-95750000D01*
X78740000Y-26670000D02*
X78740000Y-26670000D01*
X104723999Y-32396001D02*
X104331998Y-32004000D01*
X116510000Y-39610002D02*
X109295999Y-32396001D01*
X116510000Y-45475000D02*
X116510000Y-39610002D01*
X104331998Y-32004000D02*
X94488000Y-32004000D01*
X109295999Y-32396001D02*
X104723999Y-32396001D01*
X94488000Y-32004000D02*
X83312000Y-32004000D01*
X83312000Y-32004000D02*
X78740000Y-27432000D01*
X78740000Y-27432000D02*
X78740000Y-26670000D01*
X119050000Y-50525000D02*
X119050000Y-52750000D01*
X119050000Y-52750000D02*
X119000000Y-52800000D01*
X106750000Y-95750000D02*
X106750000Y-92650000D01*
X106750000Y-92650000D02*
X106800000Y-92600000D01*
X109002605Y-90397395D02*
X109002605Y-64980790D01*
X106800000Y-92600000D02*
X109002605Y-90397395D01*
X93726000Y-20320000D02*
X93726000Y-20320000D01*
X93726000Y-20320000D02*
X106438070Y-7607930D01*
X124980070Y-31991930D02*
X124206000Y-32766000D01*
X124980070Y-15760070D02*
X124980070Y-31991930D01*
X116827930Y-7607930D02*
X124980070Y-15760070D01*
X106438070Y-7607930D02*
X116827930Y-7607930D01*
X114520000Y-48000000D02*
X113970000Y-47450000D01*
X113970000Y-47450000D02*
X113970000Y-45475000D01*
X120250000Y-92600000D02*
X120250000Y-95750000D01*
X115300000Y-48780000D02*
X114520000Y-48000000D01*
X115300000Y-58150000D02*
X115300000Y-48780000D01*
X117000000Y-59850000D02*
X115300000Y-58150000D01*
X117000000Y-89350000D02*
X117000000Y-59850000D01*
X120250000Y-92600000D02*
X117000000Y-89350000D01*
X84938492Y-33157535D02*
X94712762Y-33157535D01*
X113970000Y-45475000D02*
X113970000Y-43500000D01*
X104469999Y-35444001D02*
X102183533Y-33157535D01*
X113970000Y-43500000D02*
X105914001Y-35444001D01*
X105914001Y-35444001D02*
X104469999Y-35444001D01*
X102183533Y-33157535D02*
X94712762Y-33157535D01*
X84375752Y-33296011D02*
X84800016Y-33296011D01*
X84800016Y-33296011D02*
X84938492Y-33157535D01*
X84328000Y-31103990D02*
X80010000Y-26785990D01*
X80010000Y-26785990D02*
X80010000Y-26670000D01*
X82750000Y-95750000D02*
X82750000Y-92650000D01*
X82750000Y-92650000D02*
X82800000Y-92600000D01*
X91110000Y-45475000D02*
X91110000Y-47955000D01*
X83300000Y-63799996D02*
X84499996Y-62600000D01*
X82800000Y-92600000D02*
X83300000Y-92100000D01*
X83300000Y-92100000D02*
X83300000Y-63799996D01*
X115745104Y-26843300D02*
X115824425Y-26763979D01*
X94711737Y-26843300D02*
X115745104Y-26843300D01*
X82042000Y-32512000D02*
X82042000Y-32006808D01*
X91110000Y-41580000D02*
X82042000Y-32512000D01*
X91110000Y-45475000D02*
X91110000Y-41580000D01*
X82042000Y-32006808D02*
X79373596Y-29338404D01*
X81250000Y-95750000D02*
X81250000Y-92650000D01*
X81250000Y-92650000D02*
X81300000Y-92600000D01*
X82300000Y-62225998D02*
X84582000Y-59943998D01*
X81300000Y-92600000D02*
X82300000Y-91600000D01*
X82300000Y-91600000D02*
X82300000Y-62225998D01*
X89662000Y-46567000D02*
X88570000Y-45475000D01*
X89662000Y-48006000D02*
X89662000Y-46567000D01*
X115392008Y-27663980D02*
X116840000Y-27663980D01*
X115369988Y-27686000D02*
X115392008Y-27663980D01*
X94739789Y-27973980D02*
X95027769Y-27686000D01*
X95027769Y-27686000D02*
X115369988Y-27686000D01*
X88570000Y-45475000D02*
X88570000Y-40309990D01*
X88570000Y-40309990D02*
X79501998Y-31241988D01*
X79501998Y-31241988D02*
X79501998Y-30988002D01*
X79750000Y-95750000D02*
X79750000Y-92650000D01*
X79750000Y-92650000D02*
X79800000Y-92600000D01*
X81100010Y-91299990D02*
X81100010Y-61520990D01*
X81100010Y-61520990D02*
X84582000Y-58039000D01*
X79800000Y-92600000D02*
X81100010Y-91299990D01*
X86106000Y-45551000D02*
X86030000Y-45475000D01*
X86106000Y-48006000D02*
X86106000Y-45551000D01*
X86030000Y-39294000D02*
X79502000Y-32766000D01*
X86030000Y-45475000D02*
X86030000Y-39294000D01*
X95422586Y-28563990D02*
X94902068Y-29084508D01*
X115824000Y-28563990D02*
X95422586Y-28563990D01*
X116510000Y-50525000D02*
X116510000Y-52790000D01*
X116510000Y-52790000D02*
X116500000Y-52800000D01*
X105250000Y-95750000D02*
X105250000Y-92650000D01*
X105250000Y-92650000D02*
X105300000Y-92600000D01*
X107961010Y-89938990D02*
X107961010Y-64389004D01*
X105300000Y-92600000D02*
X107961010Y-89938990D01*
X95250000Y-20320000D02*
X95250000Y-20320000D01*
X106977743Y-8407941D02*
X116496555Y-8407941D01*
X116496555Y-8407941D02*
X124180057Y-16091443D01*
X124180057Y-31378013D02*
X123484460Y-32073610D01*
X95251404Y-20134280D02*
X106977743Y-8407941D01*
X124180057Y-16091443D02*
X124180057Y-31378013D01*
X95251404Y-20321404D02*
X95251404Y-20134280D01*
D19*
X77597000Y-39116000D02*
X77599440Y-39140776D01*
X77606667Y-39164601D01*
X77618403Y-39186557D01*
X77629825Y-39201206D01*
X81305684Y-43263997D01*
X81235750Y-43265000D01*
X81077000Y-43423750D01*
X81077000Y-45348000D01*
X81926250Y-45348000D01*
X82085000Y-45189250D01*
X82087528Y-44128142D01*
X82351928Y-44420373D01*
X82351928Y-46922154D01*
X82087977Y-47010137D01*
X82085000Y-45760750D01*
X81926250Y-45602000D01*
X81077000Y-45602000D01*
X81077000Y-45622000D01*
X80823000Y-45622000D01*
X80823000Y-45602000D01*
X79973750Y-45602000D01*
X79815000Y-45760750D01*
X79811928Y-47050000D01*
X79824188Y-47174482D01*
X79860498Y-47294180D01*
X79919463Y-47404494D01*
X79998815Y-47501185D01*
X80095506Y-47580537D01*
X80203540Y-47638283D01*
X78699839Y-48139517D01*
X78677106Y-48149667D01*
X78656789Y-48164057D01*
X78639671Y-48182134D01*
X78626408Y-48203204D01*
X78617510Y-48226456D01*
X78613000Y-48260000D01*
X78613000Y-90260639D01*
X77195259Y-92328178D01*
X77183260Y-92349992D01*
X77179293Y-92362524D01*
X76885750Y-92365000D01*
X76727000Y-92523750D01*
X76727000Y-95873000D01*
X76747000Y-95873000D01*
X76747000Y-96127000D01*
X76727000Y-96127000D01*
X76727000Y-96147000D01*
X76473000Y-96147000D01*
X76473000Y-96127000D01*
X76453000Y-96127000D01*
X76453000Y-95873000D01*
X76473000Y-95873000D01*
X76473000Y-92523750D01*
X76314250Y-92365000D01*
X76110000Y-92363277D01*
X76110000Y-91434876D01*
X76113435Y-91400000D01*
X76099727Y-91260816D01*
X76059128Y-91126980D01*
X75993200Y-91003637D01*
X75904475Y-90895525D01*
X75796363Y-90806800D01*
X75673020Y-90740872D01*
X75539184Y-90700273D01*
X75434877Y-90690000D01*
X75400000Y-90686565D01*
X75365123Y-90690000D01*
X75010000Y-90690000D01*
X75010000Y-43900000D01*
X79811928Y-43900000D01*
X79815000Y-45189250D01*
X79973750Y-45348000D01*
X80823000Y-45348000D01*
X80823000Y-43423750D01*
X80664250Y-43265000D01*
X80450000Y-43261928D01*
X80325518Y-43274188D01*
X80205820Y-43310498D01*
X80095506Y-43369463D01*
X79998815Y-43448815D01*
X79919463Y-43545506D01*
X79860498Y-43655820D01*
X79824188Y-43775518D01*
X79811928Y-43900000D01*
X75010000Y-43900000D01*
X75010000Y-28482877D01*
X75013435Y-28448000D01*
X74999727Y-28308816D01*
X74959128Y-28174980D01*
X74893200Y-28051637D01*
X74804475Y-27943525D01*
X74696363Y-27854800D01*
X74573020Y-27788872D01*
X74439184Y-27748273D01*
X74334877Y-27738000D01*
X74328309Y-27737353D01*
X74321000Y-26444034D01*
X74321000Y-26081000D01*
X74575000Y-26081000D01*
X74575000Y-26930250D01*
X74733750Y-27089000D01*
X74858000Y-27092072D01*
X74982482Y-27079812D01*
X75102180Y-27043502D01*
X75212494Y-26984537D01*
X75309185Y-26905185D01*
X75388537Y-26808494D01*
X75447502Y-26698180D01*
X75483812Y-26578482D01*
X75496072Y-26454000D01*
X75493000Y-26239750D01*
X75334250Y-26081000D01*
X74575000Y-26081000D01*
X74321000Y-26081000D01*
X74318948Y-26081000D01*
X74317513Y-25827000D01*
X74321000Y-25827000D01*
X74321000Y-24181000D01*
X74575000Y-24181000D01*
X74575000Y-25827000D01*
X75334250Y-25827000D01*
X75493000Y-25668250D01*
X75496072Y-25454000D01*
X75483812Y-25329518D01*
X75447502Y-25209820D01*
X75388537Y-25099506D01*
X75310158Y-25004000D01*
X75388537Y-24908494D01*
X75447502Y-24798180D01*
X75483812Y-24678482D01*
X75496072Y-24554000D01*
X75493000Y-24339750D01*
X75334250Y-24181000D01*
X74575000Y-24181000D01*
X74321000Y-24181000D01*
X74308210Y-24181000D01*
X74306775Y-23927000D01*
X74321000Y-23927000D01*
X74321000Y-23077750D01*
X74575000Y-23077750D01*
X74575000Y-23927000D01*
X75334250Y-23927000D01*
X75493000Y-23768250D01*
X75496072Y-23554000D01*
X75483812Y-23429518D01*
X75447502Y-23309820D01*
X75388537Y-23199506D01*
X75309185Y-23102815D01*
X75212494Y-23023463D01*
X75102180Y-22964498D01*
X74982482Y-22928188D01*
X74858000Y-22915928D01*
X74733750Y-22919000D01*
X74575000Y-23077750D01*
X74321000Y-23077750D01*
X74301867Y-23058617D01*
X74295720Y-21971000D01*
X77597000Y-21971000D01*
X77597000Y-39116000D01*
G04 #@! TA.AperFunction,Conductor*
D20*
G36*
X77597000Y-39116000D02*
G01*
X77599440Y-39140776D01*
X77606667Y-39164601D01*
X77618403Y-39186557D01*
X77629825Y-39201206D01*
X81305684Y-43263997D01*
X81235750Y-43265000D01*
X81077000Y-43423750D01*
X81077000Y-45348000D01*
X81926250Y-45348000D01*
X82085000Y-45189250D01*
X82087528Y-44128142D01*
X82351928Y-44420373D01*
X82351928Y-46922154D01*
X82087977Y-47010137D01*
X82085000Y-45760750D01*
X81926250Y-45602000D01*
X81077000Y-45602000D01*
X81077000Y-45622000D01*
X80823000Y-45622000D01*
X80823000Y-45602000D01*
X79973750Y-45602000D01*
X79815000Y-45760750D01*
X79811928Y-47050000D01*
X79824188Y-47174482D01*
X79860498Y-47294180D01*
X79919463Y-47404494D01*
X79998815Y-47501185D01*
X80095506Y-47580537D01*
X80203540Y-47638283D01*
X78699839Y-48139517D01*
X78677106Y-48149667D01*
X78656789Y-48164057D01*
X78639671Y-48182134D01*
X78626408Y-48203204D01*
X78617510Y-48226456D01*
X78613000Y-48260000D01*
X78613000Y-90260639D01*
X77195259Y-92328178D01*
X77183260Y-92349992D01*
X77179293Y-92362524D01*
X76885750Y-92365000D01*
X76727000Y-92523750D01*
X76727000Y-95873000D01*
X76747000Y-95873000D01*
X76747000Y-96127000D01*
X76727000Y-96127000D01*
X76727000Y-96147000D01*
X76473000Y-96147000D01*
X76473000Y-96127000D01*
X76453000Y-96127000D01*
X76453000Y-95873000D01*
X76473000Y-95873000D01*
X76473000Y-92523750D01*
X76314250Y-92365000D01*
X76110000Y-92363277D01*
X76110000Y-91434876D01*
X76113435Y-91400000D01*
X76099727Y-91260816D01*
X76059128Y-91126980D01*
X75993200Y-91003637D01*
X75904475Y-90895525D01*
X75796363Y-90806800D01*
X75673020Y-90740872D01*
X75539184Y-90700273D01*
X75434877Y-90690000D01*
X75400000Y-90686565D01*
X75365123Y-90690000D01*
X75010000Y-90690000D01*
X75010000Y-43900000D01*
X79811928Y-43900000D01*
X79815000Y-45189250D01*
X79973750Y-45348000D01*
X80823000Y-45348000D01*
X80823000Y-43423750D01*
X80664250Y-43265000D01*
X80450000Y-43261928D01*
X80325518Y-43274188D01*
X80205820Y-43310498D01*
X80095506Y-43369463D01*
X79998815Y-43448815D01*
X79919463Y-43545506D01*
X79860498Y-43655820D01*
X79824188Y-43775518D01*
X79811928Y-43900000D01*
X75010000Y-43900000D01*
X75010000Y-28482877D01*
X75013435Y-28448000D01*
X74999727Y-28308816D01*
X74959128Y-28174980D01*
X74893200Y-28051637D01*
X74804475Y-27943525D01*
X74696363Y-27854800D01*
X74573020Y-27788872D01*
X74439184Y-27748273D01*
X74334877Y-27738000D01*
X74328309Y-27737353D01*
X74321000Y-26444034D01*
X74321000Y-26081000D01*
X74575000Y-26081000D01*
X74575000Y-26930250D01*
X74733750Y-27089000D01*
X74858000Y-27092072D01*
X74982482Y-27079812D01*
X75102180Y-27043502D01*
X75212494Y-26984537D01*
X75309185Y-26905185D01*
X75388537Y-26808494D01*
X75447502Y-26698180D01*
X75483812Y-26578482D01*
X75496072Y-26454000D01*
X75493000Y-26239750D01*
X75334250Y-26081000D01*
X74575000Y-26081000D01*
X74321000Y-26081000D01*
X74318948Y-26081000D01*
X74317513Y-25827000D01*
X74321000Y-25827000D01*
X74321000Y-24181000D01*
X74575000Y-24181000D01*
X74575000Y-25827000D01*
X75334250Y-25827000D01*
X75493000Y-25668250D01*
X75496072Y-25454000D01*
X75483812Y-25329518D01*
X75447502Y-25209820D01*
X75388537Y-25099506D01*
X75310158Y-25004000D01*
X75388537Y-24908494D01*
X75447502Y-24798180D01*
X75483812Y-24678482D01*
X75496072Y-24554000D01*
X75493000Y-24339750D01*
X75334250Y-24181000D01*
X74575000Y-24181000D01*
X74321000Y-24181000D01*
X74308210Y-24181000D01*
X74306775Y-23927000D01*
X74321000Y-23927000D01*
X74321000Y-23077750D01*
X74575000Y-23077750D01*
X74575000Y-23927000D01*
X75334250Y-23927000D01*
X75493000Y-23768250D01*
X75496072Y-23554000D01*
X75483812Y-23429518D01*
X75447502Y-23309820D01*
X75388537Y-23199506D01*
X75309185Y-23102815D01*
X75212494Y-23023463D01*
X75102180Y-22964498D01*
X74982482Y-22928188D01*
X74858000Y-22915928D01*
X74733750Y-22919000D01*
X74575000Y-23077750D01*
X74321000Y-23077750D01*
X74301867Y-23058617D01*
X74295720Y-21971000D01*
X77597000Y-21971000D01*
X77597000Y-39116000D01*
G37*
G04 #@! TD.AperFunction*
D19*
X121358263Y-31241609D02*
X121488497Y-31371843D01*
X121641636Y-31474167D01*
X121811796Y-31544649D01*
X121884418Y-31559095D01*
X121896772Y-31621200D01*
X121967254Y-31791360D01*
X122069578Y-31944499D01*
X122199812Y-32074733D01*
X122352951Y-32177057D01*
X122523111Y-32247539D01*
X122567495Y-32256368D01*
X122585392Y-32346339D01*
X122655874Y-32516499D01*
X122758198Y-32669638D01*
X122888432Y-32799872D01*
X123041571Y-32902196D01*
X123211731Y-32972678D01*
X123297174Y-32989674D01*
X123306932Y-33038729D01*
X123377414Y-33208889D01*
X123479738Y-33362028D01*
X123609972Y-33492262D01*
X123741281Y-33580000D01*
X120938877Y-33580000D01*
X120904000Y-33576565D01*
X120869123Y-33580000D01*
X120764816Y-33590273D01*
X120630980Y-33630872D01*
X120507637Y-33696800D01*
X120399525Y-33785525D01*
X120310800Y-33893637D01*
X120244872Y-34016980D01*
X120204273Y-34150816D01*
X120190565Y-34290000D01*
X120194000Y-34324876D01*
X120194001Y-42891113D01*
X120190565Y-42926000D01*
X120204273Y-43065184D01*
X120244872Y-43199020D01*
X120310800Y-43322363D01*
X120399525Y-43430475D01*
X120507637Y-43519200D01*
X120630980Y-43585128D01*
X120764816Y-43625727D01*
X120869123Y-43636000D01*
X120904000Y-43639435D01*
X120938877Y-43636000D01*
X124990001Y-43636000D01*
X124990000Y-90690000D01*
X124634877Y-90690000D01*
X124600000Y-90686565D01*
X124565123Y-90690000D01*
X124460816Y-90700273D01*
X124326980Y-90740872D01*
X124203637Y-90806800D01*
X124095525Y-90895525D01*
X124006800Y-91003637D01*
X123940872Y-91126980D01*
X123900273Y-91260816D01*
X123886565Y-91400000D01*
X123890001Y-91434887D01*
X123890001Y-92363277D01*
X123685750Y-92365000D01*
X123527000Y-92523750D01*
X123527000Y-95873000D01*
X123547000Y-95873000D01*
X123547000Y-96127000D01*
X123527000Y-96127000D01*
X123527000Y-96147000D01*
X123273000Y-96147000D01*
X123273000Y-96127000D01*
X123253000Y-96127000D01*
X123253000Y-95873000D01*
X123273000Y-95873000D01*
X123273000Y-92523750D01*
X123114250Y-92365000D01*
X122750000Y-92361928D01*
X122657769Y-92371012D01*
X122649068Y-92327271D01*
X122578586Y-92157111D01*
X122476262Y-92003972D01*
X122346028Y-91873738D01*
X122192889Y-91771414D01*
X122038214Y-91707346D01*
X118827000Y-88496133D01*
X118827000Y-53718905D01*
X118907911Y-53735000D01*
X119092089Y-53735000D01*
X119272729Y-53699068D01*
X119442889Y-53628586D01*
X119596028Y-53526262D01*
X119726262Y-53396028D01*
X119828586Y-53242889D01*
X119899068Y-53072729D01*
X119935000Y-52892089D01*
X119935000Y-52707911D01*
X119917488Y-52619873D01*
X120001185Y-52551185D01*
X120080537Y-52454494D01*
X120139502Y-52344180D01*
X120175812Y-52224482D01*
X120188072Y-52100000D01*
X120188072Y-48950000D01*
X120175812Y-48825518D01*
X120139502Y-48705820D01*
X120080537Y-48595506D01*
X120001185Y-48498815D01*
X119904494Y-48419463D01*
X119794180Y-48360498D01*
X119674482Y-48324188D01*
X119550000Y-48311928D01*
X118550000Y-48311928D01*
X118547053Y-48312218D01*
X118519439Y-48278570D01*
X118519437Y-48278568D01*
X118493291Y-48246709D01*
X118461432Y-48220563D01*
X117577051Y-47336183D01*
X117599502Y-47294180D01*
X117635812Y-47174482D01*
X117648072Y-47050000D01*
X117911928Y-47050000D01*
X117924188Y-47174482D01*
X117960498Y-47294180D01*
X118019463Y-47404494D01*
X118098815Y-47501185D01*
X118195506Y-47580537D01*
X118305820Y-47639502D01*
X118425518Y-47675812D01*
X118550000Y-47688072D01*
X118764250Y-47685000D01*
X118923000Y-47526250D01*
X118923000Y-45602000D01*
X119177000Y-45602000D01*
X119177000Y-47526250D01*
X119335750Y-47685000D01*
X119550000Y-47688072D01*
X119674482Y-47675812D01*
X119794180Y-47639502D01*
X119904494Y-47580537D01*
X120001185Y-47501185D01*
X120080537Y-47404494D01*
X120139502Y-47294180D01*
X120175812Y-47174482D01*
X120188072Y-47050000D01*
X120185000Y-45760750D01*
X120026250Y-45602000D01*
X119177000Y-45602000D01*
X118923000Y-45602000D01*
X118073750Y-45602000D01*
X117915000Y-45760750D01*
X117911928Y-47050000D01*
X117648072Y-47050000D01*
X117648072Y-43900000D01*
X117911928Y-43900000D01*
X117915000Y-45189250D01*
X118073750Y-45348000D01*
X118923000Y-45348000D01*
X118923000Y-43423750D01*
X119177000Y-43423750D01*
X119177000Y-45348000D01*
X120026250Y-45348000D01*
X120185000Y-45189250D01*
X120188072Y-43900000D01*
X120175812Y-43775518D01*
X120139502Y-43655820D01*
X120080537Y-43545506D01*
X120001185Y-43448815D01*
X119904494Y-43369463D01*
X119794180Y-43310498D01*
X119674482Y-43274188D01*
X119550000Y-43261928D01*
X119335750Y-43265000D01*
X119177000Y-43423750D01*
X118923000Y-43423750D01*
X118764250Y-43265000D01*
X118550000Y-43261928D01*
X118425518Y-43274188D01*
X118305820Y-43310498D01*
X118195506Y-43369463D01*
X118098815Y-43448815D01*
X118019463Y-43545506D01*
X117960498Y-43655820D01*
X117924188Y-43775518D01*
X117911928Y-43900000D01*
X117648072Y-43900000D01*
X117635812Y-43775518D01*
X117599502Y-43655820D01*
X117540537Y-43545506D01*
X117461185Y-43448815D01*
X117364494Y-43369463D01*
X117345000Y-43359043D01*
X117345000Y-43305906D01*
X118990733Y-33714001D01*
X121336210Y-31208605D01*
X121358263Y-31241609D01*
G04 #@! TA.AperFunction,Conductor*
D20*
G36*
X121358263Y-31241609D02*
G01*
X121488497Y-31371843D01*
X121641636Y-31474167D01*
X121811796Y-31544649D01*
X121884418Y-31559095D01*
X121896772Y-31621200D01*
X121967254Y-31791360D01*
X122069578Y-31944499D01*
X122199812Y-32074733D01*
X122352951Y-32177057D01*
X122523111Y-32247539D01*
X122567495Y-32256368D01*
X122585392Y-32346339D01*
X122655874Y-32516499D01*
X122758198Y-32669638D01*
X122888432Y-32799872D01*
X123041571Y-32902196D01*
X123211731Y-32972678D01*
X123297174Y-32989674D01*
X123306932Y-33038729D01*
X123377414Y-33208889D01*
X123479738Y-33362028D01*
X123609972Y-33492262D01*
X123741281Y-33580000D01*
X120938877Y-33580000D01*
X120904000Y-33576565D01*
X120869123Y-33580000D01*
X120764816Y-33590273D01*
X120630980Y-33630872D01*
X120507637Y-33696800D01*
X120399525Y-33785525D01*
X120310800Y-33893637D01*
X120244872Y-34016980D01*
X120204273Y-34150816D01*
X120190565Y-34290000D01*
X120194000Y-34324876D01*
X120194001Y-42891113D01*
X120190565Y-42926000D01*
X120204273Y-43065184D01*
X120244872Y-43199020D01*
X120310800Y-43322363D01*
X120399525Y-43430475D01*
X120507637Y-43519200D01*
X120630980Y-43585128D01*
X120764816Y-43625727D01*
X120869123Y-43636000D01*
X120904000Y-43639435D01*
X120938877Y-43636000D01*
X124990001Y-43636000D01*
X124990000Y-90690000D01*
X124634877Y-90690000D01*
X124600000Y-90686565D01*
X124565123Y-90690000D01*
X124460816Y-90700273D01*
X124326980Y-90740872D01*
X124203637Y-90806800D01*
X124095525Y-90895525D01*
X124006800Y-91003637D01*
X123940872Y-91126980D01*
X123900273Y-91260816D01*
X123886565Y-91400000D01*
X123890001Y-91434887D01*
X123890001Y-92363277D01*
X123685750Y-92365000D01*
X123527000Y-92523750D01*
X123527000Y-95873000D01*
X123547000Y-95873000D01*
X123547000Y-96127000D01*
X123527000Y-96127000D01*
X123527000Y-96147000D01*
X123273000Y-96147000D01*
X123273000Y-96127000D01*
X123253000Y-96127000D01*
X123253000Y-95873000D01*
X123273000Y-95873000D01*
X123273000Y-92523750D01*
X123114250Y-92365000D01*
X122750000Y-92361928D01*
X122657769Y-92371012D01*
X122649068Y-92327271D01*
X122578586Y-92157111D01*
X122476262Y-92003972D01*
X122346028Y-91873738D01*
X122192889Y-91771414D01*
X122038214Y-91707346D01*
X118827000Y-88496133D01*
X118827000Y-53718905D01*
X118907911Y-53735000D01*
X119092089Y-53735000D01*
X119272729Y-53699068D01*
X119442889Y-53628586D01*
X119596028Y-53526262D01*
X119726262Y-53396028D01*
X119828586Y-53242889D01*
X119899068Y-53072729D01*
X119935000Y-52892089D01*
X119935000Y-52707911D01*
X119917488Y-52619873D01*
X120001185Y-52551185D01*
X120080537Y-52454494D01*
X120139502Y-52344180D01*
X120175812Y-52224482D01*
X120188072Y-52100000D01*
X120188072Y-48950000D01*
X120175812Y-48825518D01*
X120139502Y-48705820D01*
X120080537Y-48595506D01*
X120001185Y-48498815D01*
X119904494Y-48419463D01*
X119794180Y-48360498D01*
X119674482Y-48324188D01*
X119550000Y-48311928D01*
X118550000Y-48311928D01*
X118547053Y-48312218D01*
X118519439Y-48278570D01*
X118519437Y-48278568D01*
X118493291Y-48246709D01*
X118461432Y-48220563D01*
X117577051Y-47336183D01*
X117599502Y-47294180D01*
X117635812Y-47174482D01*
X117648072Y-47050000D01*
X117911928Y-47050000D01*
X117924188Y-47174482D01*
X117960498Y-47294180D01*
X118019463Y-47404494D01*
X118098815Y-47501185D01*
X118195506Y-47580537D01*
X118305820Y-47639502D01*
X118425518Y-47675812D01*
X118550000Y-47688072D01*
X118764250Y-47685000D01*
X118923000Y-47526250D01*
X118923000Y-45602000D01*
X119177000Y-45602000D01*
X119177000Y-47526250D01*
X119335750Y-47685000D01*
X119550000Y-47688072D01*
X119674482Y-47675812D01*
X119794180Y-47639502D01*
X119904494Y-47580537D01*
X120001185Y-47501185D01*
X120080537Y-47404494D01*
X120139502Y-47294180D01*
X120175812Y-47174482D01*
X120188072Y-47050000D01*
X120185000Y-45760750D01*
X120026250Y-45602000D01*
X119177000Y-45602000D01*
X118923000Y-45602000D01*
X118073750Y-45602000D01*
X117915000Y-45760750D01*
X117911928Y-47050000D01*
X117648072Y-47050000D01*
X117648072Y-43900000D01*
X117911928Y-43900000D01*
X117915000Y-45189250D01*
X118073750Y-45348000D01*
X118923000Y-45348000D01*
X118923000Y-43423750D01*
X119177000Y-43423750D01*
X119177000Y-45348000D01*
X120026250Y-45348000D01*
X120185000Y-45189250D01*
X120188072Y-43900000D01*
X120175812Y-43775518D01*
X120139502Y-43655820D01*
X120080537Y-43545506D01*
X120001185Y-43448815D01*
X119904494Y-43369463D01*
X119794180Y-43310498D01*
X119674482Y-43274188D01*
X119550000Y-43261928D01*
X119335750Y-43265000D01*
X119177000Y-43423750D01*
X118923000Y-43423750D01*
X118764250Y-43265000D01*
X118550000Y-43261928D01*
X118425518Y-43274188D01*
X118305820Y-43310498D01*
X118195506Y-43369463D01*
X118098815Y-43448815D01*
X118019463Y-43545506D01*
X117960498Y-43655820D01*
X117924188Y-43775518D01*
X117911928Y-43900000D01*
X117648072Y-43900000D01*
X117635812Y-43775518D01*
X117599502Y-43655820D01*
X117540537Y-43545506D01*
X117461185Y-43448815D01*
X117364494Y-43369463D01*
X117345000Y-43359043D01*
X117345000Y-43305906D01*
X118990733Y-33714001D01*
X121336210Y-31208605D01*
X121358263Y-31241609D01*
G37*
G04 #@! TD.AperFunction*
D19*
X131370001Y-2856209D02*
X131370000Y-24157307D01*
X125815070Y-26379279D01*
X125815070Y-15801088D01*
X125819110Y-15760070D01*
X125802988Y-15596381D01*
X125755242Y-15438983D01*
X125677706Y-15293924D01*
X125599509Y-15198640D01*
X125599507Y-15198638D01*
X125573361Y-15166779D01*
X125541503Y-15140634D01*
X117447376Y-7046509D01*
X117421221Y-7014639D01*
X117294076Y-6910294D01*
X117149017Y-6832758D01*
X116991619Y-6785012D01*
X116868949Y-6772930D01*
X116868948Y-6772930D01*
X116827930Y-6768890D01*
X116786912Y-6772930D01*
X106479088Y-6772930D01*
X106438070Y-6768890D01*
X106274381Y-6785012D01*
X106116983Y-6832758D01*
X105971924Y-6910294D01*
X105923434Y-6950089D01*
X105844779Y-7014639D01*
X105818633Y-7046498D01*
X93437788Y-19427345D01*
X93283111Y-19491414D01*
X93183458Y-19558000D01*
X72390000Y-19558000D01*
X72365224Y-19560440D01*
X72341399Y-19567667D01*
X72319443Y-19579403D01*
X72300197Y-19595197D01*
X72284403Y-19614443D01*
X72272667Y-19636399D01*
X72265440Y-19660224D01*
X72263000Y-19685000D01*
X72263000Y-22943512D01*
X72193820Y-22964498D01*
X72083506Y-23023463D01*
X71986815Y-23102815D01*
X71907463Y-23199506D01*
X71848498Y-23309820D01*
X71845713Y-23319000D01*
X71420674Y-23319000D01*
X71399185Y-23292815D01*
X71302494Y-23213463D01*
X71192180Y-23154498D01*
X71072482Y-23118188D01*
X70948000Y-23105928D01*
X69948000Y-23105928D01*
X69823518Y-23118188D01*
X69703820Y-23154498D01*
X69593506Y-23213463D01*
X69496815Y-23292815D01*
X69417463Y-23389506D01*
X69358498Y-23499820D01*
X69322188Y-23619518D01*
X69309928Y-23744000D01*
X69309928Y-24564000D01*
X69322188Y-24688482D01*
X69358498Y-24808180D01*
X69417463Y-24918494D01*
X69446602Y-24954000D01*
X69417463Y-24989506D01*
X69358498Y-25099820D01*
X69322188Y-25219518D01*
X69309928Y-25344000D01*
X69313000Y-25468250D01*
X69471750Y-25627000D01*
X70321000Y-25627000D01*
X70321000Y-25607000D01*
X70575000Y-25607000D01*
X70575000Y-25627000D01*
X71424250Y-25627000D01*
X71583000Y-25468250D01*
X71586072Y-25344000D01*
X71573812Y-25219518D01*
X71537502Y-25099820D01*
X71478537Y-24989506D01*
X71478122Y-24989000D01*
X71973532Y-24989000D01*
X71985842Y-25004000D01*
X71907463Y-25099506D01*
X71848498Y-25209820D01*
X71812188Y-25329518D01*
X71799928Y-25454000D01*
X71803000Y-25668250D01*
X71961750Y-25827000D01*
X72263000Y-25827000D01*
X72263000Y-26081000D01*
X71961750Y-26081000D01*
X71803000Y-26239750D01*
X71799928Y-26454000D01*
X71812188Y-26578482D01*
X71848498Y-26698180D01*
X71907463Y-26808494D01*
X71986815Y-26905185D01*
X72083506Y-26984537D01*
X72193820Y-27043502D01*
X72263000Y-27064488D01*
X72263000Y-27738000D01*
X69290000Y-27738000D01*
X69290000Y-26164000D01*
X69309928Y-26164000D01*
X69322188Y-26288482D01*
X69358498Y-26408180D01*
X69417463Y-26518494D01*
X69496815Y-26615185D01*
X69593506Y-26694537D01*
X69703820Y-26753502D01*
X69823518Y-26789812D01*
X69948000Y-26802072D01*
X70162250Y-26799000D01*
X70321000Y-26640250D01*
X70321000Y-25881000D01*
X70575000Y-25881000D01*
X70575000Y-26640250D01*
X70733750Y-26799000D01*
X70948000Y-26802072D01*
X71072482Y-26789812D01*
X71192180Y-26753502D01*
X71302494Y-26694537D01*
X71399185Y-26615185D01*
X71478537Y-26518494D01*
X71537502Y-26408180D01*
X71573812Y-26288482D01*
X71586072Y-26164000D01*
X71583000Y-26039750D01*
X71424250Y-25881000D01*
X70575000Y-25881000D01*
X70321000Y-25881000D01*
X69471750Y-25881000D01*
X69313000Y-26039750D01*
X69309928Y-26164000D01*
X69290000Y-26164000D01*
X69290000Y-15096967D01*
X85695000Y-15096967D01*
X85695000Y-15419033D01*
X85757832Y-15734912D01*
X85881082Y-16032463D01*
X86060013Y-16300252D01*
X86287748Y-16527987D01*
X86555537Y-16706918D01*
X86853088Y-16830168D01*
X87168967Y-16893000D01*
X87491033Y-16893000D01*
X87806912Y-16830168D01*
X88104463Y-16706918D01*
X88372252Y-16527987D01*
X88599987Y-16300252D01*
X88778918Y-16032463D01*
X88902168Y-15734912D01*
X88965000Y-15419033D01*
X88965000Y-15096967D01*
X88902168Y-14781088D01*
X88778918Y-14483537D01*
X88599987Y-14215748D01*
X88372252Y-13988013D01*
X88104463Y-13809082D01*
X87806912Y-13685832D01*
X87491033Y-13623000D01*
X87168967Y-13623000D01*
X86853088Y-13685832D01*
X86555537Y-13809082D01*
X86287748Y-13988013D01*
X86060013Y-14215748D01*
X85881082Y-14483537D01*
X85757832Y-14781088D01*
X85695000Y-15096967D01*
X69290000Y-15096967D01*
X69290000Y-3209911D01*
X95839010Y-3209911D01*
X95839010Y-3394089D01*
X95874942Y-3574729D01*
X95945424Y-3744889D01*
X96047748Y-3898028D01*
X96177982Y-4028262D01*
X96331121Y-4130586D01*
X96501281Y-4201068D01*
X96681921Y-4237000D01*
X96866099Y-4237000D01*
X96955000Y-4219316D01*
X96955001Y-8462594D01*
X96890932Y-8617271D01*
X96855000Y-8797911D01*
X96855000Y-8982089D01*
X96890932Y-9162729D01*
X96961414Y-9332889D01*
X97063738Y-9486028D01*
X97193972Y-9616262D01*
X97347111Y-9718586D01*
X97517271Y-9789068D01*
X97697911Y-9825000D01*
X97882089Y-9825000D01*
X98062729Y-9789068D01*
X98217404Y-9725000D01*
X101934596Y-9725000D01*
X102089271Y-9789068D01*
X102269911Y-9825000D01*
X102454089Y-9825000D01*
X102634729Y-9789068D01*
X102804889Y-9718586D01*
X102958028Y-9616262D01*
X103088262Y-9486028D01*
X103190586Y-9332889D01*
X103226408Y-9246408D01*
X103312889Y-9210586D01*
X103466028Y-9108262D01*
X103596262Y-8978028D01*
X103698586Y-8824889D01*
X103734408Y-8738408D01*
X103820889Y-8702586D01*
X103974028Y-8600262D01*
X104104262Y-8470028D01*
X104206586Y-8316889D01*
X104277068Y-8146729D01*
X104313000Y-7966089D01*
X104313000Y-7781911D01*
X104277068Y-7601271D01*
X104213000Y-7446596D01*
X104213000Y-4219309D01*
X104301935Y-4237000D01*
X104486113Y-4237000D01*
X104666753Y-4201068D01*
X104836913Y-4130586D01*
X104990052Y-4028262D01*
X105120286Y-3898028D01*
X105222610Y-3744889D01*
X105293092Y-3574729D01*
X105329024Y-3394089D01*
X105329024Y-3209911D01*
X105293092Y-3029271D01*
X105222610Y-2859111D01*
X105120286Y-2705972D01*
X104990052Y-2575738D01*
X104836913Y-2473414D01*
X104666753Y-2402932D01*
X104486113Y-2367000D01*
X104301935Y-2367000D01*
X104213000Y-2384691D01*
X104213000Y-1189404D01*
X104277068Y-1034729D01*
X104313000Y-854089D01*
X104313000Y-669911D01*
X104277068Y-489271D01*
X104206586Y-319111D01*
X104104262Y-165972D01*
X103974028Y-35738D01*
X103820889Y66586D01*
X103650729Y137068D01*
X103470089Y173000D01*
X103285911Y173000D01*
X103105271Y137068D01*
X102950596Y73000D01*
X98217404Y73000D01*
X98062729Y137068D01*
X97882089Y173000D01*
X97697911Y173000D01*
X97517271Y137068D01*
X97347111Y66586D01*
X97193972Y-35738D01*
X97063738Y-165972D01*
X96961414Y-319111D01*
X96890932Y-489271D01*
X96855000Y-669911D01*
X96855000Y-854089D01*
X96890932Y-1034729D01*
X96955000Y-1189405D01*
X96955001Y-2384684D01*
X96866099Y-2367000D01*
X96681921Y-2367000D01*
X96501281Y-2402932D01*
X96331121Y-2473414D01*
X96177982Y-2575738D01*
X96047748Y-2705972D01*
X95945424Y-2859111D01*
X95874942Y-3029271D01*
X95839010Y-3209911D01*
X69290000Y-3209911D01*
X69290000Y-2856207D01*
X73932452Y1322000D01*
X126727549Y1322000D01*
X131370001Y-2856209D01*
G04 #@! TA.AperFunction,Conductor*
D20*
G36*
X131370001Y-2856209D02*
G01*
X131370000Y-24157307D01*
X125815070Y-26379279D01*
X125815070Y-15801088D01*
X125819110Y-15760070D01*
X125802988Y-15596381D01*
X125755242Y-15438983D01*
X125677706Y-15293924D01*
X125599509Y-15198640D01*
X125599507Y-15198638D01*
X125573361Y-15166779D01*
X125541503Y-15140634D01*
X117447376Y-7046509D01*
X117421221Y-7014639D01*
X117294076Y-6910294D01*
X117149017Y-6832758D01*
X116991619Y-6785012D01*
X116868949Y-6772930D01*
X116868948Y-6772930D01*
X116827930Y-6768890D01*
X116786912Y-6772930D01*
X106479088Y-6772930D01*
X106438070Y-6768890D01*
X106274381Y-6785012D01*
X106116983Y-6832758D01*
X105971924Y-6910294D01*
X105923434Y-6950089D01*
X105844779Y-7014639D01*
X105818633Y-7046498D01*
X93437788Y-19427345D01*
X93283111Y-19491414D01*
X93183458Y-19558000D01*
X72390000Y-19558000D01*
X72365224Y-19560440D01*
X72341399Y-19567667D01*
X72319443Y-19579403D01*
X72300197Y-19595197D01*
X72284403Y-19614443D01*
X72272667Y-19636399D01*
X72265440Y-19660224D01*
X72263000Y-19685000D01*
X72263000Y-22943512D01*
X72193820Y-22964498D01*
X72083506Y-23023463D01*
X71986815Y-23102815D01*
X71907463Y-23199506D01*
X71848498Y-23309820D01*
X71845713Y-23319000D01*
X71420674Y-23319000D01*
X71399185Y-23292815D01*
X71302494Y-23213463D01*
X71192180Y-23154498D01*
X71072482Y-23118188D01*
X70948000Y-23105928D01*
X69948000Y-23105928D01*
X69823518Y-23118188D01*
X69703820Y-23154498D01*
X69593506Y-23213463D01*
X69496815Y-23292815D01*
X69417463Y-23389506D01*
X69358498Y-23499820D01*
X69322188Y-23619518D01*
X69309928Y-23744000D01*
X69309928Y-24564000D01*
X69322188Y-24688482D01*
X69358498Y-24808180D01*
X69417463Y-24918494D01*
X69446602Y-24954000D01*
X69417463Y-24989506D01*
X69358498Y-25099820D01*
X69322188Y-25219518D01*
X69309928Y-25344000D01*
X69313000Y-25468250D01*
X69471750Y-25627000D01*
X70321000Y-25627000D01*
X70321000Y-25607000D01*
X70575000Y-25607000D01*
X70575000Y-25627000D01*
X71424250Y-25627000D01*
X71583000Y-25468250D01*
X71586072Y-25344000D01*
X71573812Y-25219518D01*
X71537502Y-25099820D01*
X71478537Y-24989506D01*
X71478122Y-24989000D01*
X71973532Y-24989000D01*
X71985842Y-25004000D01*
X71907463Y-25099506D01*
X71848498Y-25209820D01*
X71812188Y-25329518D01*
X71799928Y-25454000D01*
X71803000Y-25668250D01*
X71961750Y-25827000D01*
X72263000Y-25827000D01*
X72263000Y-26081000D01*
X71961750Y-26081000D01*
X71803000Y-26239750D01*
X71799928Y-26454000D01*
X71812188Y-26578482D01*
X71848498Y-26698180D01*
X71907463Y-26808494D01*
X71986815Y-26905185D01*
X72083506Y-26984537D01*
X72193820Y-27043502D01*
X72263000Y-27064488D01*
X72263000Y-27738000D01*
X69290000Y-27738000D01*
X69290000Y-26164000D01*
X69309928Y-26164000D01*
X69322188Y-26288482D01*
X69358498Y-26408180D01*
X69417463Y-26518494D01*
X69496815Y-26615185D01*
X69593506Y-26694537D01*
X69703820Y-26753502D01*
X69823518Y-26789812D01*
X69948000Y-26802072D01*
X70162250Y-26799000D01*
X70321000Y-26640250D01*
X70321000Y-25881000D01*
X70575000Y-25881000D01*
X70575000Y-26640250D01*
X70733750Y-26799000D01*
X70948000Y-26802072D01*
X71072482Y-26789812D01*
X71192180Y-26753502D01*
X71302494Y-26694537D01*
X71399185Y-26615185D01*
X71478537Y-26518494D01*
X71537502Y-26408180D01*
X71573812Y-26288482D01*
X71586072Y-26164000D01*
X71583000Y-26039750D01*
X71424250Y-25881000D01*
X70575000Y-25881000D01*
X70321000Y-25881000D01*
X69471750Y-25881000D01*
X69313000Y-26039750D01*
X69309928Y-26164000D01*
X69290000Y-26164000D01*
X69290000Y-15096967D01*
X85695000Y-15096967D01*
X85695000Y-15419033D01*
X85757832Y-15734912D01*
X85881082Y-16032463D01*
X86060013Y-16300252D01*
X86287748Y-16527987D01*
X86555537Y-16706918D01*
X86853088Y-16830168D01*
X87168967Y-16893000D01*
X87491033Y-16893000D01*
X87806912Y-16830168D01*
X88104463Y-16706918D01*
X88372252Y-16527987D01*
X88599987Y-16300252D01*
X88778918Y-16032463D01*
X88902168Y-15734912D01*
X88965000Y-15419033D01*
X88965000Y-15096967D01*
X88902168Y-14781088D01*
X88778918Y-14483537D01*
X88599987Y-14215748D01*
X88372252Y-13988013D01*
X88104463Y-13809082D01*
X87806912Y-13685832D01*
X87491033Y-13623000D01*
X87168967Y-13623000D01*
X86853088Y-13685832D01*
X86555537Y-13809082D01*
X86287748Y-13988013D01*
X86060013Y-14215748D01*
X85881082Y-14483537D01*
X85757832Y-14781088D01*
X85695000Y-15096967D01*
X69290000Y-15096967D01*
X69290000Y-3209911D01*
X95839010Y-3209911D01*
X95839010Y-3394089D01*
X95874942Y-3574729D01*
X95945424Y-3744889D01*
X96047748Y-3898028D01*
X96177982Y-4028262D01*
X96331121Y-4130586D01*
X96501281Y-4201068D01*
X96681921Y-4237000D01*
X96866099Y-4237000D01*
X96955000Y-4219316D01*
X96955001Y-8462594D01*
X96890932Y-8617271D01*
X96855000Y-8797911D01*
X96855000Y-8982089D01*
X96890932Y-9162729D01*
X96961414Y-9332889D01*
X97063738Y-9486028D01*
X97193972Y-9616262D01*
X97347111Y-9718586D01*
X97517271Y-9789068D01*
X97697911Y-9825000D01*
X97882089Y-9825000D01*
X98062729Y-9789068D01*
X98217404Y-9725000D01*
X101934596Y-9725000D01*
X102089271Y-9789068D01*
X102269911Y-9825000D01*
X102454089Y-9825000D01*
X102634729Y-9789068D01*
X102804889Y-9718586D01*
X102958028Y-9616262D01*
X103088262Y-9486028D01*
X103190586Y-9332889D01*
X103226408Y-9246408D01*
X103312889Y-9210586D01*
X103466028Y-9108262D01*
X103596262Y-8978028D01*
X103698586Y-8824889D01*
X103734408Y-8738408D01*
X103820889Y-8702586D01*
X103974028Y-8600262D01*
X104104262Y-8470028D01*
X104206586Y-8316889D01*
X104277068Y-8146729D01*
X104313000Y-7966089D01*
X104313000Y-7781911D01*
X104277068Y-7601271D01*
X104213000Y-7446596D01*
X104213000Y-4219309D01*
X104301935Y-4237000D01*
X104486113Y-4237000D01*
X104666753Y-4201068D01*
X104836913Y-4130586D01*
X104990052Y-4028262D01*
X105120286Y-3898028D01*
X105222610Y-3744889D01*
X105293092Y-3574729D01*
X105329024Y-3394089D01*
X105329024Y-3209911D01*
X105293092Y-3029271D01*
X105222610Y-2859111D01*
X105120286Y-2705972D01*
X104990052Y-2575738D01*
X104836913Y-2473414D01*
X104666753Y-2402932D01*
X104486113Y-2367000D01*
X104301935Y-2367000D01*
X104213000Y-2384691D01*
X104213000Y-1189404D01*
X104277068Y-1034729D01*
X104313000Y-854089D01*
X104313000Y-669911D01*
X104277068Y-489271D01*
X104206586Y-319111D01*
X104104262Y-165972D01*
X103974028Y-35738D01*
X103820889Y66586D01*
X103650729Y137068D01*
X103470089Y173000D01*
X103285911Y173000D01*
X103105271Y137068D01*
X102950596Y73000D01*
X98217404Y73000D01*
X98062729Y137068D01*
X97882089Y173000D01*
X97697911Y173000D01*
X97517271Y137068D01*
X97347111Y66586D01*
X97193972Y-35738D01*
X97063738Y-165972D01*
X96961414Y-319111D01*
X96890932Y-489271D01*
X96855000Y-669911D01*
X96855000Y-854089D01*
X96890932Y-1034729D01*
X96955000Y-1189405D01*
X96955001Y-2384684D01*
X96866099Y-2367000D01*
X96681921Y-2367000D01*
X96501281Y-2402932D01*
X96331121Y-2473414D01*
X96177982Y-2575738D01*
X96047748Y-2705972D01*
X95945424Y-2859111D01*
X95874942Y-3029271D01*
X95839010Y-3209911D01*
X69290000Y-3209911D01*
X69290000Y-2856207D01*
X73932452Y1322000D01*
X126727549Y1322000D01*
X131370001Y-2856209D01*
G37*
G04 #@! TD.AperFunction*
M02*
