G04 #@! TF.GenerationSoftware,KiCad,Pcbnew,(5.1.12)-1*
G04 #@! TF.CreationDate,2023-01-12T22:36:03-08:00*
G04 #@! TF.ProjectId,GB-BRK-CART,47422d42-524b-42d4-9341-52542e6b6963,v1.0*
G04 #@! TF.SameCoordinates,Original*
G04 #@! TF.FileFunction,Paste,Top*
G04 #@! TF.FilePolarity,Positive*
%FSLAX46Y46*%
G04 Gerber Fmt 4.6, Leading zero omitted, Abs format (unit mm)*
G04 Created by KiCad (PCBNEW (5.1.12)-1) date 2023-01-12 22:36:03*
%MOMM*%
%LPD*%
G01*
G04 APERTURE LIST*
%ADD10R,1.000000X2.400000*%
%ADD11R,6.000000X3.000000*%
%ADD12R,1.000000X3.150000*%
%ADD13R,0.820000X1.000000*%
%ADD14R,1.000000X0.820000*%
G04 APERTURE END LIST*
D10*
X123580000Y-23458000D03*
X122080000Y-23458000D03*
X120580000Y-23458000D03*
X119080000Y-23458000D03*
X117580000Y-23458000D03*
X116080000Y-23458000D03*
X114580000Y-23458000D03*
X113080000Y-23458000D03*
X111580000Y-23458000D03*
X110080000Y-23458000D03*
X108580000Y-23458000D03*
X107080000Y-23458000D03*
X105580000Y-23458000D03*
X104080000Y-23458000D03*
X102580000Y-23458000D03*
X101080000Y-23458000D03*
X99580000Y-23458000D03*
X98080000Y-23458000D03*
X96580000Y-23458000D03*
X95080000Y-23458000D03*
X93580000Y-23458000D03*
X92080000Y-23458000D03*
X90580000Y-23458000D03*
X89080000Y-23458000D03*
X87580000Y-23458000D03*
X86080000Y-23458000D03*
X84580000Y-23458000D03*
X83080000Y-23458000D03*
X81580000Y-23458000D03*
X80080000Y-23458000D03*
X78580000Y-23458000D03*
D11*
X113330000Y-3258000D03*
X87330000Y-3258000D03*
D10*
X77080000Y-23458000D03*
D12*
X119050000Y-45475000D03*
X119050000Y-50525000D03*
X116510000Y-45475000D03*
X116510000Y-50525000D03*
X113970000Y-45475000D03*
X113970000Y-50525000D03*
X111430000Y-45475000D03*
X111430000Y-50525000D03*
X108890000Y-45475000D03*
X108890000Y-50525000D03*
X106350000Y-45475000D03*
X106350000Y-50525000D03*
X103810000Y-45475000D03*
X103810000Y-50525000D03*
X101270000Y-45475000D03*
X101270000Y-50525000D03*
X98730000Y-45475000D03*
X98730000Y-50525000D03*
X96190000Y-45475000D03*
X96190000Y-50525000D03*
X93650000Y-45475000D03*
X93650000Y-50525000D03*
X91110000Y-45475000D03*
X91110000Y-50525000D03*
X88570000Y-45475000D03*
X88570000Y-50525000D03*
X86030000Y-45475000D03*
X86030000Y-50525000D03*
X83490000Y-45475000D03*
X83490000Y-50525000D03*
X80950000Y-45475000D03*
X80950000Y-50525000D03*
D13*
X72848000Y-24054000D03*
X74448000Y-24054000D03*
D14*
X70448000Y-24154000D03*
X70448000Y-25754000D03*
D13*
X74448000Y-25954000D03*
X72848000Y-25954000D03*
M02*
