G04 #@! TF.GenerationSoftware,KiCad,Pcbnew,(5.1.12)-1*
G04 #@! TF.CreationDate,2023-01-12T22:36:03-08:00*
G04 #@! TF.ProjectId,GB-BRK-CART,47422d42-524b-42d4-9341-52542e6b6963,v1.0*
G04 #@! TF.SameCoordinates,Original*
G04 #@! TF.FileFunction,Legend,Bot*
G04 #@! TF.FilePolarity,Positive*
%FSLAX46Y46*%
G04 Gerber Fmt 4.6, Leading zero omitted, Abs format (unit mm)*
G04 Created by KiCad (PCBNEW (5.1.12)-1) date 2023-01-12 22:36:03*
%MOMM*%
%LPD*%
G01*
G04 APERTURE LIST*
%ADD10C,0.300000*%
%ADD11C,0.010000*%
%ADD12C,2.000000*%
%ADD13C,2.300000*%
%ADD14C,7.200000*%
G04 APERTURE END LIST*
D10*
X116544285Y-43350571D02*
X116544285Y-41850571D01*
X115901428Y-43350571D02*
X115901428Y-42564857D01*
X115972857Y-42422000D01*
X116115714Y-42350571D01*
X116330000Y-42350571D01*
X116472857Y-42422000D01*
X116544285Y-42493428D01*
X115401428Y-42350571D02*
X114830000Y-42350571D01*
X115187142Y-41850571D02*
X115187142Y-43136285D01*
X115115714Y-43279142D01*
X114972857Y-43350571D01*
X114830000Y-43350571D01*
X114544285Y-42350571D02*
X113972857Y-42350571D01*
X114330000Y-41850571D02*
X114330000Y-43136285D01*
X114258571Y-43279142D01*
X114115714Y-43350571D01*
X113972857Y-43350571D01*
X113472857Y-42350571D02*
X113472857Y-43850571D01*
X113472857Y-42422000D02*
X113330000Y-42350571D01*
X113044285Y-42350571D01*
X112901428Y-42422000D01*
X112830000Y-42493428D01*
X112758571Y-42636285D01*
X112758571Y-43064857D01*
X112830000Y-43207714D01*
X112901428Y-43279142D01*
X113044285Y-43350571D01*
X113330000Y-43350571D01*
X113472857Y-43279142D01*
X112187142Y-43279142D02*
X112044285Y-43350571D01*
X111758571Y-43350571D01*
X111615714Y-43279142D01*
X111544285Y-43136285D01*
X111544285Y-43064857D01*
X111615714Y-42922000D01*
X111758571Y-42850571D01*
X111972857Y-42850571D01*
X112115714Y-42779142D01*
X112187142Y-42636285D01*
X112187142Y-42564857D01*
X112115714Y-42422000D01*
X111972857Y-42350571D01*
X111758571Y-42350571D01*
X111615714Y-42422000D01*
X110901428Y-43207714D02*
X110830000Y-43279142D01*
X110901428Y-43350571D01*
X110972857Y-43279142D01*
X110901428Y-43207714D01*
X110901428Y-43350571D01*
X110901428Y-42422000D02*
X110830000Y-42493428D01*
X110901428Y-42564857D01*
X110972857Y-42493428D01*
X110901428Y-42422000D01*
X110901428Y-42564857D01*
X109115714Y-41779142D02*
X110401428Y-43707714D01*
X107544285Y-41779142D02*
X108830000Y-43707714D01*
X107115714Y-43279142D02*
X106972857Y-43350571D01*
X106687142Y-43350571D01*
X106544285Y-43279142D01*
X106472857Y-43136285D01*
X106472857Y-43064857D01*
X106544285Y-42922000D01*
X106687142Y-42850571D01*
X106901428Y-42850571D01*
X107044285Y-42779142D01*
X107115714Y-42636285D01*
X107115714Y-42564857D01*
X107044285Y-42422000D01*
X106901428Y-42350571D01*
X106687142Y-42350571D01*
X106544285Y-42422000D01*
X106044285Y-42350571D02*
X105472857Y-42350571D01*
X105830000Y-41850571D02*
X105830000Y-43136285D01*
X105758571Y-43279142D01*
X105615714Y-43350571D01*
X105472857Y-43350571D01*
X104758571Y-43350571D02*
X104901428Y-43279142D01*
X104972857Y-43207714D01*
X105044285Y-43064857D01*
X105044285Y-42636285D01*
X104972857Y-42493428D01*
X104901428Y-42422000D01*
X104758571Y-42350571D01*
X104544285Y-42350571D01*
X104401428Y-42422000D01*
X104330000Y-42493428D01*
X104258571Y-42636285D01*
X104258571Y-43064857D01*
X104330000Y-43207714D01*
X104401428Y-43279142D01*
X104544285Y-43350571D01*
X104758571Y-43350571D01*
X103615714Y-43350571D02*
X103615714Y-42350571D01*
X103615714Y-42636285D02*
X103544285Y-42493428D01*
X103472857Y-42422000D01*
X103330000Y-42350571D01*
X103187142Y-42350571D01*
X102115714Y-43279142D02*
X102258571Y-43350571D01*
X102544285Y-43350571D01*
X102687142Y-43279142D01*
X102758571Y-43136285D01*
X102758571Y-42564857D01*
X102687142Y-42422000D01*
X102544285Y-42350571D01*
X102258571Y-42350571D01*
X102115714Y-42422000D01*
X102044285Y-42564857D01*
X102044285Y-42707714D01*
X102758571Y-42850571D01*
X101401428Y-43207714D02*
X101330000Y-43279142D01*
X101401428Y-43350571D01*
X101472857Y-43279142D01*
X101401428Y-43207714D01*
X101401428Y-43350571D01*
X100687142Y-43350571D02*
X100687142Y-42350571D01*
X100687142Y-41850571D02*
X100758571Y-41922000D01*
X100687142Y-41993428D01*
X100615714Y-41922000D01*
X100687142Y-41850571D01*
X100687142Y-41993428D01*
X99330000Y-43279142D02*
X99472857Y-43350571D01*
X99758571Y-43350571D01*
X99901428Y-43279142D01*
X99972857Y-43207714D01*
X100044285Y-43064857D01*
X100044285Y-42636285D01*
X99972857Y-42493428D01*
X99901428Y-42422000D01*
X99758571Y-42350571D01*
X99472857Y-42350571D01*
X99330000Y-42422000D01*
X98115714Y-43279142D02*
X98258571Y-43350571D01*
X98544285Y-43350571D01*
X98687142Y-43279142D01*
X98758571Y-43136285D01*
X98758571Y-42564857D01*
X98687142Y-42422000D01*
X98544285Y-42350571D01*
X98258571Y-42350571D01*
X98115714Y-42422000D01*
X98044285Y-42564857D01*
X98044285Y-42707714D01*
X98758571Y-42850571D01*
X97401428Y-43350571D02*
X97401428Y-41850571D01*
X97401428Y-42422000D02*
X97258571Y-42350571D01*
X96972857Y-42350571D01*
X96830000Y-42422000D01*
X96758571Y-42493428D01*
X96687142Y-42636285D01*
X96687142Y-43064857D01*
X96758571Y-43207714D01*
X96830000Y-43279142D01*
X96972857Y-43350571D01*
X97258571Y-43350571D01*
X97401428Y-43279142D01*
X95472857Y-43279142D02*
X95615714Y-43350571D01*
X95901428Y-43350571D01*
X96044285Y-43279142D01*
X96115714Y-43136285D01*
X96115714Y-42564857D01*
X96044285Y-42422000D01*
X95901428Y-42350571D01*
X95615714Y-42350571D01*
X95472857Y-42422000D01*
X95401428Y-42564857D01*
X95401428Y-42707714D01*
X96115714Y-42850571D01*
X94758571Y-43350571D02*
X94758571Y-42350571D01*
X94758571Y-42636285D02*
X94687142Y-42493428D01*
X94615714Y-42422000D01*
X94472857Y-42350571D01*
X94330000Y-42350571D01*
X93187142Y-42350571D02*
X93187142Y-43564857D01*
X93258571Y-43707714D01*
X93330000Y-43779142D01*
X93472857Y-43850571D01*
X93687142Y-43850571D01*
X93830000Y-43779142D01*
X93187142Y-43279142D02*
X93330000Y-43350571D01*
X93615714Y-43350571D01*
X93758571Y-43279142D01*
X93830000Y-43207714D01*
X93901428Y-43064857D01*
X93901428Y-42636285D01*
X93830000Y-42493428D01*
X93758571Y-42422000D01*
X93615714Y-42350571D01*
X93330000Y-42350571D01*
X93187142Y-42422000D01*
X92687142Y-42350571D02*
X92115714Y-42350571D01*
X92472857Y-41850571D02*
X92472857Y-43136285D01*
X92401428Y-43279142D01*
X92258571Y-43350571D01*
X92115714Y-43350571D01*
X91044285Y-43279142D02*
X91187142Y-43350571D01*
X91472857Y-43350571D01*
X91615714Y-43279142D01*
X91687142Y-43136285D01*
X91687142Y-42564857D01*
X91615714Y-42422000D01*
X91472857Y-42350571D01*
X91187142Y-42350571D01*
X91044285Y-42422000D01*
X90972857Y-42564857D01*
X90972857Y-42707714D01*
X91687142Y-42850571D01*
X89687142Y-43279142D02*
X89830000Y-43350571D01*
X90115714Y-43350571D01*
X90258571Y-43279142D01*
X90330000Y-43207714D01*
X90401428Y-43064857D01*
X90401428Y-42636285D01*
X90330000Y-42493428D01*
X90258571Y-42422000D01*
X90115714Y-42350571D01*
X89830000Y-42350571D01*
X89687142Y-42422000D01*
X89044285Y-43350571D02*
X89044285Y-41850571D01*
X88401428Y-43350571D02*
X88401428Y-42564857D01*
X88472857Y-42422000D01*
X88615714Y-42350571D01*
X88830000Y-42350571D01*
X88972857Y-42422000D01*
X89044285Y-42493428D01*
X87687142Y-43207714D02*
X87615714Y-43279142D01*
X87687142Y-43350571D01*
X87758571Y-43279142D01*
X87687142Y-43207714D01*
X87687142Y-43350571D01*
X87115714Y-43350571D02*
X86330000Y-42350571D01*
X87115714Y-42350571D02*
X86330000Y-43350571D01*
X85901428Y-42350571D02*
X85544285Y-43350571D01*
X85187142Y-42350571D02*
X85544285Y-43350571D01*
X85687142Y-43707714D01*
X85758571Y-43779142D01*
X85901428Y-43850571D01*
X84758571Y-42350571D02*
X83972857Y-42350571D01*
X84758571Y-43350571D01*
X83972857Y-43350571D01*
X109437142Y-79418571D02*
X109437142Y-77918571D01*
X108794285Y-79418571D02*
X108794285Y-78632857D01*
X108865714Y-78490000D01*
X109008571Y-78418571D01*
X109222857Y-78418571D01*
X109365714Y-78490000D01*
X109437142Y-78561428D01*
X108294285Y-78418571D02*
X107722857Y-78418571D01*
X108080000Y-77918571D02*
X108080000Y-79204285D01*
X108008571Y-79347142D01*
X107865714Y-79418571D01*
X107722857Y-79418571D01*
X107437142Y-78418571D02*
X106865714Y-78418571D01*
X107222857Y-77918571D02*
X107222857Y-79204285D01*
X107151428Y-79347142D01*
X107008571Y-79418571D01*
X106865714Y-79418571D01*
X106365714Y-78418571D02*
X106365714Y-79918571D01*
X106365714Y-78490000D02*
X106222857Y-78418571D01*
X105937142Y-78418571D01*
X105794285Y-78490000D01*
X105722857Y-78561428D01*
X105651428Y-78704285D01*
X105651428Y-79132857D01*
X105722857Y-79275714D01*
X105794285Y-79347142D01*
X105937142Y-79418571D01*
X106222857Y-79418571D01*
X106365714Y-79347142D01*
X105080000Y-79347142D02*
X104937142Y-79418571D01*
X104651428Y-79418571D01*
X104508571Y-79347142D01*
X104437142Y-79204285D01*
X104437142Y-79132857D01*
X104508571Y-78990000D01*
X104651428Y-78918571D01*
X104865714Y-78918571D01*
X105008571Y-78847142D01*
X105080000Y-78704285D01*
X105080000Y-78632857D01*
X105008571Y-78490000D01*
X104865714Y-78418571D01*
X104651428Y-78418571D01*
X104508571Y-78490000D01*
X103794285Y-79275714D02*
X103722857Y-79347142D01*
X103794285Y-79418571D01*
X103865714Y-79347142D01*
X103794285Y-79275714D01*
X103794285Y-79418571D01*
X103794285Y-78490000D02*
X103722857Y-78561428D01*
X103794285Y-78632857D01*
X103865714Y-78561428D01*
X103794285Y-78490000D01*
X103794285Y-78632857D01*
X102008571Y-77847142D02*
X103294285Y-79775714D01*
X100437142Y-77847142D02*
X101722857Y-79775714D01*
X99294285Y-78418571D02*
X99294285Y-79632857D01*
X99365714Y-79775714D01*
X99437142Y-79847142D01*
X99580000Y-79918571D01*
X99794285Y-79918571D01*
X99937142Y-79847142D01*
X99294285Y-79347142D02*
X99437142Y-79418571D01*
X99722857Y-79418571D01*
X99865714Y-79347142D01*
X99937142Y-79275714D01*
X100008571Y-79132857D01*
X100008571Y-78704285D01*
X99937142Y-78561428D01*
X99865714Y-78490000D01*
X99722857Y-78418571D01*
X99437142Y-78418571D01*
X99294285Y-78490000D01*
X98008571Y-79347142D02*
X98151428Y-79418571D01*
X98437142Y-79418571D01*
X98580000Y-79347142D01*
X98651428Y-79204285D01*
X98651428Y-78632857D01*
X98580000Y-78490000D01*
X98437142Y-78418571D01*
X98151428Y-78418571D01*
X98008571Y-78490000D01*
X97937142Y-78632857D01*
X97937142Y-78775714D01*
X98651428Y-78918571D01*
X97294285Y-79418571D02*
X97294285Y-77918571D01*
X97151428Y-78847142D02*
X96722857Y-79418571D01*
X96722857Y-78418571D02*
X97294285Y-78990000D01*
X96080000Y-79418571D02*
X96080000Y-77918571D01*
X95937142Y-78847142D02*
X95508571Y-79418571D01*
X95508571Y-78418571D02*
X96080000Y-78990000D01*
X94865714Y-79418571D02*
X94865714Y-78418571D01*
X94865714Y-77918571D02*
X94937142Y-77990000D01*
X94865714Y-78061428D01*
X94794285Y-77990000D01*
X94865714Y-77918571D01*
X94865714Y-78061428D01*
X93937142Y-79418571D02*
X94080000Y-79347142D01*
X94151428Y-79275714D01*
X94222857Y-79132857D01*
X94222857Y-78704285D01*
X94151428Y-78561428D01*
X94080000Y-78490000D01*
X93937142Y-78418571D01*
X93722857Y-78418571D01*
X93580000Y-78490000D01*
X93508571Y-78561428D01*
X93437142Y-78704285D01*
X93437142Y-79132857D01*
X93508571Y-79275714D01*
X93580000Y-79347142D01*
X93722857Y-79418571D01*
X93937142Y-79418571D01*
X92794285Y-79275714D02*
X92722857Y-79347142D01*
X92794285Y-79418571D01*
X92865714Y-79347142D01*
X92794285Y-79275714D01*
X92794285Y-79418571D01*
X92294285Y-78418571D02*
X91722857Y-78418571D01*
X92080000Y-79418571D02*
X92080000Y-78132857D01*
X92008571Y-77990000D01*
X91865714Y-77918571D01*
X91722857Y-77918571D01*
X91222857Y-79418571D02*
X91222857Y-78418571D01*
X91222857Y-77918571D02*
X91294285Y-77990000D01*
X91222857Y-78061428D01*
X91151428Y-77990000D01*
X91222857Y-77918571D01*
X91222857Y-78061428D01*
D11*
G36*
X78041500Y-13462000D02*
G01*
X78676500Y-13462000D01*
X78676500Y-14097000D01*
X79311500Y-14097000D01*
X79311500Y-14732000D01*
X85026500Y-14732000D01*
X85026500Y-5207000D01*
X84391500Y-5207000D01*
X84391500Y-14097000D01*
X79311500Y-14097000D01*
X79311500Y-13462000D01*
X78676500Y-13462000D01*
X78676500Y-5207000D01*
X84391500Y-5207000D01*
X85026500Y-5207000D01*
X85026500Y-4572000D01*
X78041500Y-4572000D01*
X78041500Y-13462000D01*
G37*
X78041500Y-13462000D02*
X78676500Y-13462000D01*
X78676500Y-14097000D01*
X79311500Y-14097000D01*
X79311500Y-14732000D01*
X85026500Y-14732000D01*
X85026500Y-5207000D01*
X84391500Y-5207000D01*
X84391500Y-14097000D01*
X79311500Y-14097000D01*
X79311500Y-13462000D01*
X78676500Y-13462000D01*
X78676500Y-5207000D01*
X84391500Y-5207000D01*
X85026500Y-5207000D01*
X85026500Y-4572000D01*
X78041500Y-4572000D01*
X78041500Y-13462000D01*
G36*
X81851500Y-13462000D02*
G01*
X82486500Y-13462000D01*
X82486500Y-12827000D01*
X81851500Y-12827000D01*
X81851500Y-13462000D01*
G37*
X81851500Y-13462000D02*
X82486500Y-13462000D01*
X82486500Y-12827000D01*
X81851500Y-12827000D01*
X81851500Y-13462000D01*
G36*
X80581500Y-13462000D02*
G01*
X81216500Y-13462000D01*
X81216500Y-12827000D01*
X80581500Y-12827000D01*
X80581500Y-13462000D01*
G37*
X80581500Y-13462000D02*
X81216500Y-13462000D01*
X81216500Y-12827000D01*
X80581500Y-12827000D01*
X80581500Y-13462000D01*
G36*
X82486500Y-10922000D02*
G01*
X81851500Y-10922000D01*
X81851500Y-11557000D01*
X82486500Y-11557000D01*
X82486500Y-12192000D01*
X83121500Y-12192000D01*
X83121500Y-11557000D01*
X83756500Y-11557000D01*
X83756500Y-10922000D01*
X83121500Y-10922000D01*
X83121500Y-10287000D01*
X82486500Y-10287000D01*
X82486500Y-10922000D01*
G37*
X82486500Y-10922000D02*
X81851500Y-10922000D01*
X81851500Y-11557000D01*
X82486500Y-11557000D01*
X82486500Y-12192000D01*
X83121500Y-12192000D01*
X83121500Y-11557000D01*
X83756500Y-11557000D01*
X83756500Y-10922000D01*
X83121500Y-10922000D01*
X83121500Y-10287000D01*
X82486500Y-10287000D01*
X82486500Y-10922000D01*
G36*
X79946500Y-11557000D02*
G01*
X80581500Y-11557000D01*
X80581500Y-10922000D01*
X79946500Y-10922000D01*
X79946500Y-11557000D01*
G37*
X79946500Y-11557000D02*
X80581500Y-11557000D01*
X80581500Y-10922000D01*
X79946500Y-10922000D01*
X79946500Y-11557000D01*
G36*
X79311500Y-10922000D02*
G01*
X79946500Y-10922000D01*
X79946500Y-10287000D01*
X79311500Y-10287000D01*
X79311500Y-10922000D01*
G37*
X79311500Y-10922000D02*
X79946500Y-10922000D01*
X79946500Y-10287000D01*
X79311500Y-10287000D01*
X79311500Y-10922000D01*
G36*
X79311500Y-9652000D02*
G01*
X83756500Y-9652000D01*
X83756500Y-6477000D01*
X83121500Y-6477000D01*
X83121500Y-9017000D01*
X79946500Y-9017000D01*
X79946500Y-6477000D01*
X83121500Y-6477000D01*
X83756500Y-6477000D01*
X83756500Y-5842000D01*
X79311500Y-5842000D01*
X79311500Y-9652000D01*
G37*
X79311500Y-9652000D02*
X83756500Y-9652000D01*
X83756500Y-6477000D01*
X83121500Y-6477000D01*
X83121500Y-9017000D01*
X79946500Y-9017000D01*
X79946500Y-6477000D01*
X83121500Y-6477000D01*
X83756500Y-6477000D01*
X83756500Y-5842000D01*
X79311500Y-5842000D01*
X79311500Y-9652000D01*
G36*
X85407500Y-8890000D02*
G01*
X86042500Y-8890000D01*
X86042500Y-9525000D01*
X86677500Y-9525000D01*
X86677500Y-10160000D01*
X92392500Y-10160000D01*
X92392500Y-635000D01*
X91757500Y-635000D01*
X91757500Y-9525000D01*
X86677500Y-9525000D01*
X86677500Y-8890000D01*
X86042500Y-8890000D01*
X86042500Y-635000D01*
X91757500Y-635000D01*
X92392500Y-635000D01*
X92392500Y0D01*
X85407500Y0D01*
X85407500Y-8890000D01*
G37*
X85407500Y-8890000D02*
X86042500Y-8890000D01*
X86042500Y-9525000D01*
X86677500Y-9525000D01*
X86677500Y-10160000D01*
X92392500Y-10160000D01*
X92392500Y-635000D01*
X91757500Y-635000D01*
X91757500Y-9525000D01*
X86677500Y-9525000D01*
X86677500Y-8890000D01*
X86042500Y-8890000D01*
X86042500Y-635000D01*
X91757500Y-635000D01*
X92392500Y-635000D01*
X92392500Y0D01*
X85407500Y0D01*
X85407500Y-8890000D01*
G36*
X89217500Y-8890000D02*
G01*
X89852500Y-8890000D01*
X89852500Y-8255000D01*
X89217500Y-8255000D01*
X89217500Y-8890000D01*
G37*
X89217500Y-8890000D02*
X89852500Y-8890000D01*
X89852500Y-8255000D01*
X89217500Y-8255000D01*
X89217500Y-8890000D01*
G36*
X87947500Y-8890000D02*
G01*
X88582500Y-8890000D01*
X88582500Y-8255000D01*
X87947500Y-8255000D01*
X87947500Y-8890000D01*
G37*
X87947500Y-8890000D02*
X88582500Y-8890000D01*
X88582500Y-8255000D01*
X87947500Y-8255000D01*
X87947500Y-8890000D01*
G36*
X89852500Y-6350000D02*
G01*
X89217500Y-6350000D01*
X89217500Y-6985000D01*
X89852500Y-6985000D01*
X89852500Y-7620000D01*
X90487500Y-7620000D01*
X90487500Y-6985000D01*
X91122500Y-6985000D01*
X91122500Y-6350000D01*
X90487500Y-6350000D01*
X90487500Y-5715000D01*
X89852500Y-5715000D01*
X89852500Y-6350000D01*
G37*
X89852500Y-6350000D02*
X89217500Y-6350000D01*
X89217500Y-6985000D01*
X89852500Y-6985000D01*
X89852500Y-7620000D01*
X90487500Y-7620000D01*
X90487500Y-6985000D01*
X91122500Y-6985000D01*
X91122500Y-6350000D01*
X90487500Y-6350000D01*
X90487500Y-5715000D01*
X89852500Y-5715000D01*
X89852500Y-6350000D01*
G36*
X87312500Y-6985000D02*
G01*
X87947500Y-6985000D01*
X87947500Y-6350000D01*
X87312500Y-6350000D01*
X87312500Y-6985000D01*
G37*
X87312500Y-6985000D02*
X87947500Y-6985000D01*
X87947500Y-6350000D01*
X87312500Y-6350000D01*
X87312500Y-6985000D01*
G36*
X86677500Y-6350000D02*
G01*
X87312500Y-6350000D01*
X87312500Y-5715000D01*
X86677500Y-5715000D01*
X86677500Y-6350000D01*
G37*
X86677500Y-6350000D02*
X87312500Y-6350000D01*
X87312500Y-5715000D01*
X86677500Y-5715000D01*
X86677500Y-6350000D01*
G36*
X86677500Y-5080000D02*
G01*
X91122500Y-5080000D01*
X91122500Y-1905000D01*
X90487500Y-1905000D01*
X90487500Y-4445000D01*
X87312500Y-4445000D01*
X87312500Y-1905000D01*
X90487500Y-1905000D01*
X91122500Y-1905000D01*
X91122500Y-1270000D01*
X86677500Y-1270000D01*
X86677500Y-5080000D01*
G37*
X86677500Y-5080000D02*
X91122500Y-5080000D01*
X91122500Y-1905000D01*
X90487500Y-1905000D01*
X90487500Y-4445000D01*
X87312500Y-4445000D01*
X87312500Y-1905000D01*
X90487500Y-1905000D01*
X91122500Y-1905000D01*
X91122500Y-1270000D01*
X86677500Y-1270000D01*
X86677500Y-5080000D01*
G36*
X70675500Y-18034000D02*
G01*
X71310500Y-18034000D01*
X71310500Y-18669000D01*
X71945500Y-18669000D01*
X71945500Y-19304000D01*
X77660500Y-19304000D01*
X77660500Y-9779000D01*
X77025500Y-9779000D01*
X77025500Y-18669000D01*
X71945500Y-18669000D01*
X71945500Y-18034000D01*
X71310500Y-18034000D01*
X71310500Y-9779000D01*
X77025500Y-9779000D01*
X77660500Y-9779000D01*
X77660500Y-9144000D01*
X70675500Y-9144000D01*
X70675500Y-18034000D01*
G37*
X70675500Y-18034000D02*
X71310500Y-18034000D01*
X71310500Y-18669000D01*
X71945500Y-18669000D01*
X71945500Y-19304000D01*
X77660500Y-19304000D01*
X77660500Y-9779000D01*
X77025500Y-9779000D01*
X77025500Y-18669000D01*
X71945500Y-18669000D01*
X71945500Y-18034000D01*
X71310500Y-18034000D01*
X71310500Y-9779000D01*
X77025500Y-9779000D01*
X77660500Y-9779000D01*
X77660500Y-9144000D01*
X70675500Y-9144000D01*
X70675500Y-18034000D01*
G36*
X74485500Y-18034000D02*
G01*
X75120500Y-18034000D01*
X75120500Y-17399000D01*
X74485500Y-17399000D01*
X74485500Y-18034000D01*
G37*
X74485500Y-18034000D02*
X75120500Y-18034000D01*
X75120500Y-17399000D01*
X74485500Y-17399000D01*
X74485500Y-18034000D01*
G36*
X73215500Y-18034000D02*
G01*
X73850500Y-18034000D01*
X73850500Y-17399000D01*
X73215500Y-17399000D01*
X73215500Y-18034000D01*
G37*
X73215500Y-18034000D02*
X73850500Y-18034000D01*
X73850500Y-17399000D01*
X73215500Y-17399000D01*
X73215500Y-18034000D01*
G36*
X75120500Y-15494000D02*
G01*
X74485500Y-15494000D01*
X74485500Y-16129000D01*
X75120500Y-16129000D01*
X75120500Y-16764000D01*
X75755500Y-16764000D01*
X75755500Y-16129000D01*
X76390500Y-16129000D01*
X76390500Y-15494000D01*
X75755500Y-15494000D01*
X75755500Y-14859000D01*
X75120500Y-14859000D01*
X75120500Y-15494000D01*
G37*
X75120500Y-15494000D02*
X74485500Y-15494000D01*
X74485500Y-16129000D01*
X75120500Y-16129000D01*
X75120500Y-16764000D01*
X75755500Y-16764000D01*
X75755500Y-16129000D01*
X76390500Y-16129000D01*
X76390500Y-15494000D01*
X75755500Y-15494000D01*
X75755500Y-14859000D01*
X75120500Y-14859000D01*
X75120500Y-15494000D01*
G36*
X72580500Y-16129000D02*
G01*
X73215500Y-16129000D01*
X73215500Y-15494000D01*
X72580500Y-15494000D01*
X72580500Y-16129000D01*
G37*
X72580500Y-16129000D02*
X73215500Y-16129000D01*
X73215500Y-15494000D01*
X72580500Y-15494000D01*
X72580500Y-16129000D01*
G36*
X71945500Y-15494000D02*
G01*
X72580500Y-15494000D01*
X72580500Y-14859000D01*
X71945500Y-14859000D01*
X71945500Y-15494000D01*
G37*
X71945500Y-15494000D02*
X72580500Y-15494000D01*
X72580500Y-14859000D01*
X71945500Y-14859000D01*
X71945500Y-15494000D01*
G36*
X71945500Y-14224000D02*
G01*
X76390500Y-14224000D01*
X76390500Y-11049000D01*
X75755500Y-11049000D01*
X75755500Y-13589000D01*
X72580500Y-13589000D01*
X72580500Y-11049000D01*
X75755500Y-11049000D01*
X76390500Y-11049000D01*
X76390500Y-10414000D01*
X71945500Y-10414000D01*
X71945500Y-14224000D01*
G37*
X71945500Y-14224000D02*
X76390500Y-14224000D01*
X76390500Y-11049000D01*
X75755500Y-11049000D01*
X75755500Y-13589000D01*
X72580500Y-13589000D01*
X72580500Y-11049000D01*
X75755500Y-11049000D01*
X76390500Y-11049000D01*
X76390500Y-10414000D01*
X71945500Y-10414000D01*
X71945500Y-14224000D01*
G36*
X122999500Y-18034000D02*
G01*
X123634500Y-18034000D01*
X123634500Y-18669000D01*
X124269500Y-18669000D01*
X124269500Y-19304000D01*
X129984500Y-19304000D01*
X129984500Y-9779000D01*
X129349500Y-9779000D01*
X129349500Y-18669000D01*
X124269500Y-18669000D01*
X124269500Y-18034000D01*
X123634500Y-18034000D01*
X123634500Y-9779000D01*
X129349500Y-9779000D01*
X129984500Y-9779000D01*
X129984500Y-9144000D01*
X122999500Y-9144000D01*
X122999500Y-18034000D01*
G37*
X122999500Y-18034000D02*
X123634500Y-18034000D01*
X123634500Y-18669000D01*
X124269500Y-18669000D01*
X124269500Y-19304000D01*
X129984500Y-19304000D01*
X129984500Y-9779000D01*
X129349500Y-9779000D01*
X129349500Y-18669000D01*
X124269500Y-18669000D01*
X124269500Y-18034000D01*
X123634500Y-18034000D01*
X123634500Y-9779000D01*
X129349500Y-9779000D01*
X129984500Y-9779000D01*
X129984500Y-9144000D01*
X122999500Y-9144000D01*
X122999500Y-18034000D01*
G36*
X126809500Y-18034000D02*
G01*
X127444500Y-18034000D01*
X127444500Y-17399000D01*
X126809500Y-17399000D01*
X126809500Y-18034000D01*
G37*
X126809500Y-18034000D02*
X127444500Y-18034000D01*
X127444500Y-17399000D01*
X126809500Y-17399000D01*
X126809500Y-18034000D01*
G36*
X125539500Y-18034000D02*
G01*
X126174500Y-18034000D01*
X126174500Y-17399000D01*
X125539500Y-17399000D01*
X125539500Y-18034000D01*
G37*
X125539500Y-18034000D02*
X126174500Y-18034000D01*
X126174500Y-17399000D01*
X125539500Y-17399000D01*
X125539500Y-18034000D01*
G36*
X127444500Y-15494000D02*
G01*
X126809500Y-15494000D01*
X126809500Y-16129000D01*
X127444500Y-16129000D01*
X127444500Y-16764000D01*
X128079500Y-16764000D01*
X128079500Y-16129000D01*
X128714500Y-16129000D01*
X128714500Y-15494000D01*
X128079500Y-15494000D01*
X128079500Y-14859000D01*
X127444500Y-14859000D01*
X127444500Y-15494000D01*
G37*
X127444500Y-15494000D02*
X126809500Y-15494000D01*
X126809500Y-16129000D01*
X127444500Y-16129000D01*
X127444500Y-16764000D01*
X128079500Y-16764000D01*
X128079500Y-16129000D01*
X128714500Y-16129000D01*
X128714500Y-15494000D01*
X128079500Y-15494000D01*
X128079500Y-14859000D01*
X127444500Y-14859000D01*
X127444500Y-15494000D01*
G36*
X124904500Y-16129000D02*
G01*
X125539500Y-16129000D01*
X125539500Y-15494000D01*
X124904500Y-15494000D01*
X124904500Y-16129000D01*
G37*
X124904500Y-16129000D02*
X125539500Y-16129000D01*
X125539500Y-15494000D01*
X124904500Y-15494000D01*
X124904500Y-16129000D01*
G36*
X124269500Y-15494000D02*
G01*
X124904500Y-15494000D01*
X124904500Y-14859000D01*
X124269500Y-14859000D01*
X124269500Y-15494000D01*
G37*
X124269500Y-15494000D02*
X124904500Y-15494000D01*
X124904500Y-14859000D01*
X124269500Y-14859000D01*
X124269500Y-15494000D01*
G36*
X124269500Y-14224000D02*
G01*
X128714500Y-14224000D01*
X128714500Y-11049000D01*
X128079500Y-11049000D01*
X128079500Y-13589000D01*
X124904500Y-13589000D01*
X124904500Y-11049000D01*
X128079500Y-11049000D01*
X128714500Y-11049000D01*
X128714500Y-10414000D01*
X124269500Y-10414000D01*
X124269500Y-14224000D01*
G37*
X124269500Y-14224000D02*
X128714500Y-14224000D01*
X128714500Y-11049000D01*
X128079500Y-11049000D01*
X128079500Y-13589000D01*
X124904500Y-13589000D01*
X124904500Y-11049000D01*
X128079500Y-11049000D01*
X128714500Y-11049000D01*
X128714500Y-10414000D01*
X124269500Y-10414000D01*
X124269500Y-14224000D01*
G36*
X115633500Y-13462000D02*
G01*
X116268500Y-13462000D01*
X116268500Y-14097000D01*
X116903500Y-14097000D01*
X116903500Y-14732000D01*
X122618500Y-14732000D01*
X122618500Y-5207000D01*
X121983500Y-5207000D01*
X121983500Y-14097000D01*
X116903500Y-14097000D01*
X116903500Y-13462000D01*
X116268500Y-13462000D01*
X116268500Y-5207000D01*
X121983500Y-5207000D01*
X122618500Y-5207000D01*
X122618500Y-4572000D01*
X115633500Y-4572000D01*
X115633500Y-13462000D01*
G37*
X115633500Y-13462000D02*
X116268500Y-13462000D01*
X116268500Y-14097000D01*
X116903500Y-14097000D01*
X116903500Y-14732000D01*
X122618500Y-14732000D01*
X122618500Y-5207000D01*
X121983500Y-5207000D01*
X121983500Y-14097000D01*
X116903500Y-14097000D01*
X116903500Y-13462000D01*
X116268500Y-13462000D01*
X116268500Y-5207000D01*
X121983500Y-5207000D01*
X122618500Y-5207000D01*
X122618500Y-4572000D01*
X115633500Y-4572000D01*
X115633500Y-13462000D01*
G36*
X119443500Y-13462000D02*
G01*
X120078500Y-13462000D01*
X120078500Y-12827000D01*
X119443500Y-12827000D01*
X119443500Y-13462000D01*
G37*
X119443500Y-13462000D02*
X120078500Y-13462000D01*
X120078500Y-12827000D01*
X119443500Y-12827000D01*
X119443500Y-13462000D01*
G36*
X118173500Y-13462000D02*
G01*
X118808500Y-13462000D01*
X118808500Y-12827000D01*
X118173500Y-12827000D01*
X118173500Y-13462000D01*
G37*
X118173500Y-13462000D02*
X118808500Y-13462000D01*
X118808500Y-12827000D01*
X118173500Y-12827000D01*
X118173500Y-13462000D01*
G36*
X120078500Y-10922000D02*
G01*
X119443500Y-10922000D01*
X119443500Y-11557000D01*
X120078500Y-11557000D01*
X120078500Y-12192000D01*
X120713500Y-12192000D01*
X120713500Y-11557000D01*
X121348500Y-11557000D01*
X121348500Y-10922000D01*
X120713500Y-10922000D01*
X120713500Y-10287000D01*
X120078500Y-10287000D01*
X120078500Y-10922000D01*
G37*
X120078500Y-10922000D02*
X119443500Y-10922000D01*
X119443500Y-11557000D01*
X120078500Y-11557000D01*
X120078500Y-12192000D01*
X120713500Y-12192000D01*
X120713500Y-11557000D01*
X121348500Y-11557000D01*
X121348500Y-10922000D01*
X120713500Y-10922000D01*
X120713500Y-10287000D01*
X120078500Y-10287000D01*
X120078500Y-10922000D01*
G36*
X117538500Y-11557000D02*
G01*
X118173500Y-11557000D01*
X118173500Y-10922000D01*
X117538500Y-10922000D01*
X117538500Y-11557000D01*
G37*
X117538500Y-11557000D02*
X118173500Y-11557000D01*
X118173500Y-10922000D01*
X117538500Y-10922000D01*
X117538500Y-11557000D01*
G36*
X116903500Y-10922000D02*
G01*
X117538500Y-10922000D01*
X117538500Y-10287000D01*
X116903500Y-10287000D01*
X116903500Y-10922000D01*
G37*
X116903500Y-10922000D02*
X117538500Y-10922000D01*
X117538500Y-10287000D01*
X116903500Y-10287000D01*
X116903500Y-10922000D01*
G36*
X116903500Y-9652000D02*
G01*
X121348500Y-9652000D01*
X121348500Y-6477000D01*
X120713500Y-6477000D01*
X120713500Y-9017000D01*
X117538500Y-9017000D01*
X117538500Y-6477000D01*
X120713500Y-6477000D01*
X121348500Y-6477000D01*
X121348500Y-5842000D01*
X116903500Y-5842000D01*
X116903500Y-9652000D01*
G37*
X116903500Y-9652000D02*
X121348500Y-9652000D01*
X121348500Y-6477000D01*
X120713500Y-6477000D01*
X120713500Y-9017000D01*
X117538500Y-9017000D01*
X117538500Y-6477000D01*
X120713500Y-6477000D01*
X121348500Y-6477000D01*
X121348500Y-5842000D01*
X116903500Y-5842000D01*
X116903500Y-9652000D01*
G36*
X108267500Y-8890000D02*
G01*
X108902500Y-8890000D01*
X108902500Y-9525000D01*
X109537500Y-9525000D01*
X109537500Y-10160000D01*
X115252500Y-10160000D01*
X115252500Y-635000D01*
X114617500Y-635000D01*
X114617500Y-9525000D01*
X109537500Y-9525000D01*
X109537500Y-8890000D01*
X108902500Y-8890000D01*
X108902500Y-635000D01*
X114617500Y-635000D01*
X115252500Y-635000D01*
X115252500Y0D01*
X108267500Y0D01*
X108267500Y-8890000D01*
G37*
X108267500Y-8890000D02*
X108902500Y-8890000D01*
X108902500Y-9525000D01*
X109537500Y-9525000D01*
X109537500Y-10160000D01*
X115252500Y-10160000D01*
X115252500Y-635000D01*
X114617500Y-635000D01*
X114617500Y-9525000D01*
X109537500Y-9525000D01*
X109537500Y-8890000D01*
X108902500Y-8890000D01*
X108902500Y-635000D01*
X114617500Y-635000D01*
X115252500Y-635000D01*
X115252500Y0D01*
X108267500Y0D01*
X108267500Y-8890000D01*
G36*
X112077500Y-8890000D02*
G01*
X112712500Y-8890000D01*
X112712500Y-8255000D01*
X112077500Y-8255000D01*
X112077500Y-8890000D01*
G37*
X112077500Y-8890000D02*
X112712500Y-8890000D01*
X112712500Y-8255000D01*
X112077500Y-8255000D01*
X112077500Y-8890000D01*
G36*
X110807500Y-8890000D02*
G01*
X111442500Y-8890000D01*
X111442500Y-8255000D01*
X110807500Y-8255000D01*
X110807500Y-8890000D01*
G37*
X110807500Y-8890000D02*
X111442500Y-8890000D01*
X111442500Y-8255000D01*
X110807500Y-8255000D01*
X110807500Y-8890000D01*
G36*
X112712500Y-6350000D02*
G01*
X112077500Y-6350000D01*
X112077500Y-6985000D01*
X112712500Y-6985000D01*
X112712500Y-7620000D01*
X113347500Y-7620000D01*
X113347500Y-6985000D01*
X113982500Y-6985000D01*
X113982500Y-6350000D01*
X113347500Y-6350000D01*
X113347500Y-5715000D01*
X112712500Y-5715000D01*
X112712500Y-6350000D01*
G37*
X112712500Y-6350000D02*
X112077500Y-6350000D01*
X112077500Y-6985000D01*
X112712500Y-6985000D01*
X112712500Y-7620000D01*
X113347500Y-7620000D01*
X113347500Y-6985000D01*
X113982500Y-6985000D01*
X113982500Y-6350000D01*
X113347500Y-6350000D01*
X113347500Y-5715000D01*
X112712500Y-5715000D01*
X112712500Y-6350000D01*
G36*
X110172500Y-6985000D02*
G01*
X110807500Y-6985000D01*
X110807500Y-6350000D01*
X110172500Y-6350000D01*
X110172500Y-6985000D01*
G37*
X110172500Y-6985000D02*
X110807500Y-6985000D01*
X110807500Y-6350000D01*
X110172500Y-6350000D01*
X110172500Y-6985000D01*
G36*
X109537500Y-6350000D02*
G01*
X110172500Y-6350000D01*
X110172500Y-5715000D01*
X109537500Y-5715000D01*
X109537500Y-6350000D01*
G37*
X109537500Y-6350000D02*
X110172500Y-6350000D01*
X110172500Y-5715000D01*
X109537500Y-5715000D01*
X109537500Y-6350000D01*
G36*
X109537500Y-5080000D02*
G01*
X113982500Y-5080000D01*
X113982500Y-1905000D01*
X113347500Y-1905000D01*
X113347500Y-4445000D01*
X110172500Y-4445000D01*
X110172500Y-1905000D01*
X113347500Y-1905000D01*
X113982500Y-1905000D01*
X113982500Y-1270000D01*
X109537500Y-1270000D01*
X109537500Y-5080000D01*
G37*
X109537500Y-5080000D02*
X113982500Y-5080000D01*
X113982500Y-1905000D01*
X113347500Y-1905000D01*
X113347500Y-4445000D01*
X110172500Y-4445000D01*
X110172500Y-1905000D01*
X113347500Y-1905000D01*
X113982500Y-1905000D01*
X113982500Y-1270000D01*
X109537500Y-1270000D01*
X109537500Y-5080000D01*
G36*
X112614990Y-27129496D02*
G01*
X117392487Y-22352000D01*
X113297490Y-18257003D01*
X112614990Y-18939503D01*
X116027488Y-22352000D01*
X112614990Y-25764497D01*
X109202493Y-22352000D01*
X112614990Y-18939503D01*
X113297490Y-18257003D01*
X112614990Y-17574504D01*
X107837494Y-22352000D01*
X112614990Y-27129496D01*
G37*
X112614990Y-27129496D02*
X117392487Y-22352000D01*
X113297490Y-18257003D01*
X112614990Y-18939503D01*
X116027488Y-22352000D01*
X112614990Y-25764497D01*
X109202493Y-22352000D01*
X112614990Y-18939503D01*
X113297490Y-18257003D01*
X112614990Y-17574504D01*
X107837494Y-22352000D01*
X112614990Y-27129496D01*
G36*
X96235003Y-35319490D02*
G01*
X98282502Y-33271991D01*
X97600002Y-32589492D01*
X95552504Y-34636990D01*
X96235003Y-35319490D01*
G37*
X96235003Y-35319490D02*
X98282502Y-33271991D01*
X97600002Y-32589492D01*
X95552504Y-34636990D01*
X96235003Y-35319490D01*
G36*
X107154995Y-24399498D02*
G01*
X107837494Y-23716999D01*
X106472495Y-22352000D01*
X105789996Y-23034499D01*
X107154995Y-24399498D01*
G37*
X107154995Y-24399498D02*
X107837494Y-23716999D01*
X106472495Y-22352000D01*
X105789996Y-23034499D01*
X107154995Y-24399498D01*
G36*
X96235003Y-32589492D02*
G01*
X96917503Y-31906993D01*
X96235003Y-31224493D01*
X95552504Y-31906993D01*
X96235003Y-32589492D01*
G37*
X96235003Y-32589492D02*
X96917503Y-31906993D01*
X96235003Y-31224493D01*
X95552504Y-31906993D01*
X96235003Y-32589492D01*
G36*
X108519994Y-17574504D02*
G01*
X107837494Y-18257003D01*
X107154995Y-17574504D01*
X106472495Y-18257003D01*
X107837494Y-19622002D01*
X108519994Y-18939503D01*
X109202493Y-19622002D01*
X110567492Y-18257003D01*
X108519994Y-16209505D01*
X107837494Y-16892004D01*
X108519994Y-17574504D01*
G37*
X108519994Y-17574504D02*
X107837494Y-18257003D01*
X107154995Y-17574504D01*
X106472495Y-18257003D01*
X107837494Y-19622002D01*
X108519994Y-18939503D01*
X109202493Y-19622002D01*
X110567492Y-18257003D01*
X108519994Y-16209505D01*
X107837494Y-16892004D01*
X108519994Y-17574504D01*
G36*
X90775007Y-28494495D02*
G01*
X90092508Y-29176995D01*
X92140006Y-31224493D01*
X92822506Y-30541994D01*
X93505005Y-31224493D01*
X92822506Y-31906993D01*
X94187505Y-33271991D01*
X94870004Y-32589492D01*
X94187505Y-31906993D01*
X94870004Y-31224493D01*
X93505005Y-29859494D01*
X94187505Y-29176995D01*
X93505005Y-28494495D01*
X92140006Y-29859494D01*
X91457507Y-29176995D01*
X92140006Y-28494495D01*
X90092508Y-26446997D01*
X89410009Y-27129496D01*
X90775007Y-28494495D01*
G37*
X90775007Y-28494495D02*
X90092508Y-29176995D01*
X92140006Y-31224493D01*
X92822506Y-30541994D01*
X93505005Y-31224493D01*
X92822506Y-31906993D01*
X94187505Y-33271991D01*
X94870004Y-32589492D01*
X94187505Y-31906993D01*
X94870004Y-31224493D01*
X93505005Y-29859494D01*
X94187505Y-29176995D01*
X93505005Y-28494495D01*
X92140006Y-29859494D01*
X91457507Y-29176995D01*
X92140006Y-28494495D01*
X90092508Y-26446997D01*
X89410009Y-27129496D01*
X90775007Y-28494495D01*
G36*
X107154995Y-16209505D02*
G01*
X107837494Y-15527005D01*
X107154995Y-14844506D01*
X106472495Y-15527005D01*
X107154995Y-16209505D01*
G37*
X107154995Y-16209505D02*
X107837494Y-15527005D01*
X107154995Y-14844506D01*
X106472495Y-15527005D01*
X107154995Y-16209505D01*
G36*
X97600002Y-17574504D02*
G01*
X98282502Y-16892004D01*
X96917503Y-15527005D01*
X96235003Y-16209505D01*
X97600002Y-17574504D01*
G37*
X97600002Y-17574504D02*
X98282502Y-16892004D01*
X96917503Y-15527005D01*
X96235003Y-16209505D01*
X97600002Y-17574504D01*
G36*
X92140006Y-14844506D02*
G01*
X91457507Y-15527005D01*
X92140006Y-16209505D01*
X92822506Y-15527005D01*
X93505005Y-16209505D01*
X94187505Y-15527005D01*
X95552504Y-16892004D01*
X96235003Y-16209505D01*
X94870004Y-14844506D01*
X95552504Y-14162006D01*
X96235003Y-14844506D01*
X97600002Y-13479507D01*
X96917503Y-12797007D01*
X96235003Y-13479507D01*
X95552504Y-12797007D01*
X94870004Y-13479507D01*
X94187505Y-12797007D01*
X93505005Y-13479507D01*
X94187505Y-14162006D01*
X93505005Y-14844506D01*
X92822506Y-14162006D01*
X93505005Y-13479507D01*
X92822506Y-12797007D01*
X91457507Y-14162006D01*
X92140006Y-14844506D01*
G37*
X92140006Y-14844506D02*
X91457507Y-15527005D01*
X92140006Y-16209505D01*
X92822506Y-15527005D01*
X93505005Y-16209505D01*
X94187505Y-15527005D01*
X95552504Y-16892004D01*
X96235003Y-16209505D01*
X94870004Y-14844506D01*
X95552504Y-14162006D01*
X96235003Y-14844506D01*
X97600002Y-13479507D01*
X96917503Y-12797007D01*
X96235003Y-13479507D01*
X95552504Y-12797007D01*
X94870004Y-13479507D01*
X94187505Y-12797007D01*
X93505005Y-13479507D01*
X94187505Y-14162006D01*
X93505005Y-14844506D01*
X92822506Y-14162006D01*
X93505005Y-13479507D01*
X92822506Y-12797007D01*
X91457507Y-14162006D01*
X92140006Y-14844506D01*
G36*
X90775007Y-18939503D02*
G01*
X91457507Y-18257003D01*
X92140006Y-18939503D01*
X94187505Y-16892004D01*
X93505005Y-16209505D01*
X92140006Y-17574504D01*
X90775007Y-16209505D01*
X90092508Y-16892004D01*
X89410009Y-16209505D01*
X88727509Y-16892004D01*
X90775007Y-18939503D01*
G37*
X90775007Y-18939503D02*
X91457507Y-18257003D01*
X92140006Y-18939503D01*
X94187505Y-16892004D01*
X93505005Y-16209505D01*
X92140006Y-17574504D01*
X90775007Y-16209505D01*
X90092508Y-16892004D01*
X89410009Y-16209505D01*
X88727509Y-16892004D01*
X90775007Y-18939503D01*
G36*
X95552504Y-12797007D02*
G01*
X96235003Y-12114508D01*
X95552504Y-11432009D01*
X94870004Y-12114508D01*
X95552504Y-12797007D01*
G37*
X95552504Y-12797007D02*
X96235003Y-12114508D01*
X95552504Y-11432009D01*
X94870004Y-12114508D01*
X95552504Y-12797007D01*
G36*
X105789996Y-20304502D02*
G01*
X106472495Y-19622002D01*
X105789996Y-18939503D01*
X105107496Y-19622002D01*
X105789996Y-20304502D01*
G37*
X105789996Y-20304502D02*
X106472495Y-19622002D01*
X105789996Y-18939503D01*
X105107496Y-19622002D01*
X105789996Y-20304502D01*
G36*
X102377498Y-18257003D02*
G01*
X103059998Y-18939503D01*
X103742497Y-18257003D01*
X104424997Y-18939503D01*
X105789996Y-17574504D01*
X105107496Y-16892004D01*
X105789996Y-16209505D01*
X105107496Y-15527005D01*
X103742497Y-16892004D01*
X104424997Y-17574504D01*
X103742497Y-18257003D01*
X103059998Y-17574504D01*
X103742497Y-16892004D01*
X105107496Y-15527005D01*
X104424997Y-14844506D01*
X105789996Y-13479507D01*
X107154995Y-14844506D01*
X107837494Y-14162006D01*
X108519994Y-14844506D01*
X107837494Y-15527005D01*
X108519994Y-16209505D01*
X109202493Y-15527005D01*
X111249991Y-17574504D01*
X111932491Y-16892004D01*
X107837494Y-12797007D01*
X107154995Y-13479507D01*
X105789996Y-12114508D01*
X106472495Y-11432009D01*
X105789996Y-10749509D01*
X102377498Y-14162006D01*
X103742497Y-15527005D01*
X102377498Y-16892004D01*
X103059998Y-17574504D01*
X102377498Y-18257003D01*
G37*
X102377498Y-18257003D02*
X103059998Y-18939503D01*
X103742497Y-18257003D01*
X104424997Y-18939503D01*
X105789996Y-17574504D01*
X105107496Y-16892004D01*
X105789996Y-16209505D01*
X105107496Y-15527005D01*
X103742497Y-16892004D01*
X104424997Y-17574504D01*
X103742497Y-18257003D01*
X103059998Y-17574504D01*
X103742497Y-16892004D01*
X105107496Y-15527005D01*
X104424997Y-14844506D01*
X105789996Y-13479507D01*
X107154995Y-14844506D01*
X107837494Y-14162006D01*
X108519994Y-14844506D01*
X107837494Y-15527005D01*
X108519994Y-16209505D01*
X109202493Y-15527005D01*
X111249991Y-17574504D01*
X111932491Y-16892004D01*
X107837494Y-12797007D01*
X107154995Y-13479507D01*
X105789996Y-12114508D01*
X106472495Y-11432009D01*
X105789996Y-10749509D01*
X102377498Y-14162006D01*
X103742497Y-15527005D01*
X102377498Y-16892004D01*
X103059998Y-17574504D01*
X102377498Y-18257003D01*
G36*
X109884993Y-29859494D02*
G01*
X110567492Y-29176995D01*
X109884993Y-28494495D01*
X109202493Y-29176995D01*
X109884993Y-29859494D01*
G37*
X109884993Y-29859494D02*
X110567492Y-29176995D01*
X109884993Y-28494495D01*
X109202493Y-29176995D01*
X109884993Y-29859494D01*
G36*
X97600002Y-35319490D02*
G01*
X98282502Y-36001989D01*
X97600002Y-36684489D01*
X100330000Y-39414487D01*
X104424997Y-35319490D01*
X103742497Y-34636990D01*
X104424997Y-33954491D01*
X103742497Y-33271991D01*
X104424997Y-32589492D01*
X105107496Y-33271991D01*
X106472495Y-31906993D01*
X107154995Y-32589492D01*
X109202493Y-30541994D01*
X108519994Y-29859494D01*
X109202493Y-29176995D01*
X108519994Y-28494495D01*
X109884993Y-27129496D01*
X111249991Y-28494495D01*
X111932491Y-27811996D01*
X109202493Y-25081998D01*
X108519994Y-25764497D01*
X109202493Y-26446997D01*
X107837494Y-27811996D01*
X108519994Y-28494495D01*
X107154995Y-29859494D01*
X107837494Y-30541994D01*
X107154995Y-31224493D01*
X105789996Y-29859494D01*
X105107496Y-30541994D01*
X105789996Y-31224493D01*
X104424997Y-32589492D01*
X103742497Y-31906993D01*
X103059998Y-32589492D01*
X103742497Y-33271991D01*
X101694999Y-35319490D01*
X101012499Y-36001989D01*
X101694999Y-36684489D01*
X100330000Y-38049488D01*
X98965001Y-36684489D01*
X99647501Y-36001989D01*
X100330000Y-36684489D01*
X101012499Y-36001989D01*
X101694999Y-35319490D01*
X101012499Y-34636990D01*
X101694999Y-33954491D01*
X101012499Y-33271991D01*
X101694999Y-32589492D01*
X102377498Y-33271991D01*
X103059998Y-32589492D01*
X103742497Y-31906993D01*
X103059998Y-31224493D01*
X106472495Y-27811996D01*
X107154995Y-28494495D01*
X107837494Y-27811996D01*
X107154995Y-27129496D01*
X108519994Y-25764497D01*
X109202493Y-25081998D01*
X108519994Y-24399498D01*
X107837494Y-25081998D01*
X107154995Y-24399498D01*
X105789996Y-25764497D01*
X106472495Y-26446997D01*
X105789996Y-27129496D01*
X104424997Y-25764497D01*
X105107496Y-25081998D01*
X104424997Y-24399498D01*
X103059998Y-25764497D01*
X105107496Y-27811996D01*
X103742497Y-29176995D01*
X103059998Y-28494495D01*
X103742497Y-27811996D01*
X103059998Y-27129496D01*
X102377498Y-27811996D01*
X103059998Y-28494495D01*
X102377498Y-29176995D01*
X101694999Y-28494495D01*
X102377498Y-27811996D01*
X103059998Y-27129496D01*
X102377498Y-26446997D01*
X103059998Y-25764497D01*
X104424997Y-24399498D01*
X103742497Y-23716999D01*
X104424997Y-23034499D01*
X103742497Y-22352000D01*
X104424997Y-21669501D01*
X103742497Y-20987001D01*
X105107496Y-19622002D01*
X104424997Y-18939503D01*
X103059998Y-20304502D01*
X103742497Y-20987001D01*
X103059998Y-21669501D01*
X103742497Y-22352000D01*
X102377498Y-23716999D01*
X103059998Y-24399498D01*
X101694999Y-25764497D01*
X101012499Y-25081998D01*
X100330000Y-25764497D01*
X101694999Y-27129496D01*
X101012499Y-27811996D01*
X100330000Y-28494495D01*
X102377498Y-30541994D01*
X100330000Y-32589492D01*
X99647501Y-33271991D01*
X100330000Y-33954491D01*
X99647501Y-34636990D01*
X98965001Y-33954491D01*
X99647501Y-33271991D01*
X100330000Y-32589492D01*
X98282502Y-30541994D01*
X100330000Y-28494495D01*
X101012499Y-27811996D01*
X99647501Y-26446997D01*
X100330000Y-25764497D01*
X101012499Y-25081998D01*
X102377498Y-23716999D01*
X101694999Y-23034499D01*
X98965001Y-25764497D01*
X99647501Y-26446997D01*
X98965001Y-27129496D01*
X98282502Y-26446997D01*
X97600002Y-27129496D01*
X98965001Y-28494495D01*
X98282502Y-29176995D01*
X96235003Y-27129496D01*
X95552504Y-27811996D01*
X96235003Y-28494495D01*
X95552504Y-29176995D01*
X94870004Y-28494495D01*
X95552504Y-27811996D01*
X96235003Y-27129496D01*
X97600002Y-25764497D01*
X96917503Y-25081998D01*
X96235003Y-25764497D01*
X95552504Y-25081998D01*
X96917503Y-23716999D01*
X97600002Y-24399498D01*
X98282502Y-23716999D01*
X96917503Y-22352000D01*
X97600002Y-21669501D01*
X96917503Y-20987001D01*
X96235003Y-21669501D01*
X96917503Y-22352000D01*
X96235003Y-23034499D01*
X95552504Y-22352000D01*
X96235003Y-21669501D01*
X96917503Y-20987001D01*
X97600002Y-20304502D01*
X96917503Y-19622002D01*
X97600002Y-18939503D01*
X98965001Y-20304502D01*
X99647501Y-19622002D01*
X98965001Y-18939503D01*
X99647501Y-18257003D01*
X101012499Y-19622002D01*
X100330000Y-20304502D01*
X101012499Y-20987001D01*
X101694999Y-20304502D01*
X102377498Y-20987001D01*
X103059998Y-20304502D01*
X100330000Y-17574504D01*
X102377498Y-15527005D01*
X101694999Y-14844506D01*
X97600002Y-18939503D01*
X96235003Y-17574504D01*
X95552504Y-18257003D01*
X96917503Y-19622002D01*
X96235003Y-20304502D01*
X94187505Y-18257003D01*
X92822506Y-19622002D01*
X92140006Y-18939503D01*
X91457507Y-19622002D01*
X93505005Y-21669501D01*
X94187505Y-20987001D01*
X93505005Y-20304502D01*
X94187505Y-19622002D01*
X95552504Y-20987001D01*
X94870004Y-21669501D01*
X95552504Y-22352000D01*
X94870004Y-23034499D01*
X94187505Y-22352000D01*
X93505005Y-23034499D01*
X94870004Y-24399498D01*
X94187505Y-25081998D01*
X92822506Y-23716999D01*
X92140006Y-24399498D01*
X93505005Y-25764497D01*
X92140006Y-27129496D01*
X92822506Y-27811996D01*
X94870004Y-25764497D01*
X95552504Y-26446997D01*
X94187505Y-27811996D01*
X94870004Y-28494495D01*
X94187505Y-29176995D01*
X95552504Y-30541994D01*
X96235003Y-29859494D01*
X97600002Y-31224493D01*
X96917503Y-31906993D01*
X97600002Y-32589492D01*
X98282502Y-31906993D01*
X98965001Y-32589492D01*
X98282502Y-33271991D01*
X98965001Y-33954491D01*
X97600002Y-35319490D01*
G37*
X97600002Y-35319490D02*
X98282502Y-36001989D01*
X97600002Y-36684489D01*
X100330000Y-39414487D01*
X104424997Y-35319490D01*
X103742497Y-34636990D01*
X104424997Y-33954491D01*
X103742497Y-33271991D01*
X104424997Y-32589492D01*
X105107496Y-33271991D01*
X106472495Y-31906993D01*
X107154995Y-32589492D01*
X109202493Y-30541994D01*
X108519994Y-29859494D01*
X109202493Y-29176995D01*
X108519994Y-28494495D01*
X109884993Y-27129496D01*
X111249991Y-28494495D01*
X111932491Y-27811996D01*
X109202493Y-25081998D01*
X108519994Y-25764497D01*
X109202493Y-26446997D01*
X107837494Y-27811996D01*
X108519994Y-28494495D01*
X107154995Y-29859494D01*
X107837494Y-30541994D01*
X107154995Y-31224493D01*
X105789996Y-29859494D01*
X105107496Y-30541994D01*
X105789996Y-31224493D01*
X104424997Y-32589492D01*
X103742497Y-31906993D01*
X103059998Y-32589492D01*
X103742497Y-33271991D01*
X101694999Y-35319490D01*
X101012499Y-36001989D01*
X101694999Y-36684489D01*
X100330000Y-38049488D01*
X98965001Y-36684489D01*
X99647501Y-36001989D01*
X100330000Y-36684489D01*
X101012499Y-36001989D01*
X101694999Y-35319490D01*
X101012499Y-34636990D01*
X101694999Y-33954491D01*
X101012499Y-33271991D01*
X101694999Y-32589492D01*
X102377498Y-33271991D01*
X103059998Y-32589492D01*
X103742497Y-31906993D01*
X103059998Y-31224493D01*
X106472495Y-27811996D01*
X107154995Y-28494495D01*
X107837494Y-27811996D01*
X107154995Y-27129496D01*
X108519994Y-25764497D01*
X109202493Y-25081998D01*
X108519994Y-24399498D01*
X107837494Y-25081998D01*
X107154995Y-24399498D01*
X105789996Y-25764497D01*
X106472495Y-26446997D01*
X105789996Y-27129496D01*
X104424997Y-25764497D01*
X105107496Y-25081998D01*
X104424997Y-24399498D01*
X103059998Y-25764497D01*
X105107496Y-27811996D01*
X103742497Y-29176995D01*
X103059998Y-28494495D01*
X103742497Y-27811996D01*
X103059998Y-27129496D01*
X102377498Y-27811996D01*
X103059998Y-28494495D01*
X102377498Y-29176995D01*
X101694999Y-28494495D01*
X102377498Y-27811996D01*
X103059998Y-27129496D01*
X102377498Y-26446997D01*
X103059998Y-25764497D01*
X104424997Y-24399498D01*
X103742497Y-23716999D01*
X104424997Y-23034499D01*
X103742497Y-22352000D01*
X104424997Y-21669501D01*
X103742497Y-20987001D01*
X105107496Y-19622002D01*
X104424997Y-18939503D01*
X103059998Y-20304502D01*
X103742497Y-20987001D01*
X103059998Y-21669501D01*
X103742497Y-22352000D01*
X102377498Y-23716999D01*
X103059998Y-24399498D01*
X101694999Y-25764497D01*
X101012499Y-25081998D01*
X100330000Y-25764497D01*
X101694999Y-27129496D01*
X101012499Y-27811996D01*
X100330000Y-28494495D01*
X102377498Y-30541994D01*
X100330000Y-32589492D01*
X99647501Y-33271991D01*
X100330000Y-33954491D01*
X99647501Y-34636990D01*
X98965001Y-33954491D01*
X99647501Y-33271991D01*
X100330000Y-32589492D01*
X98282502Y-30541994D01*
X100330000Y-28494495D01*
X101012499Y-27811996D01*
X99647501Y-26446997D01*
X100330000Y-25764497D01*
X101012499Y-25081998D01*
X102377498Y-23716999D01*
X101694999Y-23034499D01*
X98965001Y-25764497D01*
X99647501Y-26446997D01*
X98965001Y-27129496D01*
X98282502Y-26446997D01*
X97600002Y-27129496D01*
X98965001Y-28494495D01*
X98282502Y-29176995D01*
X96235003Y-27129496D01*
X95552504Y-27811996D01*
X96235003Y-28494495D01*
X95552504Y-29176995D01*
X94870004Y-28494495D01*
X95552504Y-27811996D01*
X96235003Y-27129496D01*
X97600002Y-25764497D01*
X96917503Y-25081998D01*
X96235003Y-25764497D01*
X95552504Y-25081998D01*
X96917503Y-23716999D01*
X97600002Y-24399498D01*
X98282502Y-23716999D01*
X96917503Y-22352000D01*
X97600002Y-21669501D01*
X96917503Y-20987001D01*
X96235003Y-21669501D01*
X96917503Y-22352000D01*
X96235003Y-23034499D01*
X95552504Y-22352000D01*
X96235003Y-21669501D01*
X96917503Y-20987001D01*
X97600002Y-20304502D01*
X96917503Y-19622002D01*
X97600002Y-18939503D01*
X98965001Y-20304502D01*
X99647501Y-19622002D01*
X98965001Y-18939503D01*
X99647501Y-18257003D01*
X101012499Y-19622002D01*
X100330000Y-20304502D01*
X101012499Y-20987001D01*
X101694999Y-20304502D01*
X102377498Y-20987001D01*
X103059998Y-20304502D01*
X100330000Y-17574504D01*
X102377498Y-15527005D01*
X101694999Y-14844506D01*
X97600002Y-18939503D01*
X96235003Y-17574504D01*
X95552504Y-18257003D01*
X96917503Y-19622002D01*
X96235003Y-20304502D01*
X94187505Y-18257003D01*
X92822506Y-19622002D01*
X92140006Y-18939503D01*
X91457507Y-19622002D01*
X93505005Y-21669501D01*
X94187505Y-20987001D01*
X93505005Y-20304502D01*
X94187505Y-19622002D01*
X95552504Y-20987001D01*
X94870004Y-21669501D01*
X95552504Y-22352000D01*
X94870004Y-23034499D01*
X94187505Y-22352000D01*
X93505005Y-23034499D01*
X94870004Y-24399498D01*
X94187505Y-25081998D01*
X92822506Y-23716999D01*
X92140006Y-24399498D01*
X93505005Y-25764497D01*
X92140006Y-27129496D01*
X92822506Y-27811996D01*
X94870004Y-25764497D01*
X95552504Y-26446997D01*
X94187505Y-27811996D01*
X94870004Y-28494495D01*
X94187505Y-29176995D01*
X95552504Y-30541994D01*
X96235003Y-29859494D01*
X97600002Y-31224493D01*
X96917503Y-31906993D01*
X97600002Y-32589492D01*
X98282502Y-31906993D01*
X98965001Y-32589492D01*
X98282502Y-33271991D01*
X98965001Y-33954491D01*
X97600002Y-35319490D01*
G36*
X107154995Y-21669501D02*
G01*
X107837494Y-20987001D01*
X107154995Y-20304502D01*
X106472495Y-20987001D01*
X107154995Y-21669501D01*
G37*
X107154995Y-21669501D02*
X107837494Y-20987001D01*
X107154995Y-20304502D01*
X106472495Y-20987001D01*
X107154995Y-21669501D01*
G36*
X91457507Y-26446997D02*
G01*
X92140006Y-25764497D01*
X91457507Y-25081998D01*
X90775007Y-25764497D01*
X91457507Y-26446997D01*
G37*
X91457507Y-26446997D02*
X92140006Y-25764497D01*
X91457507Y-25081998D01*
X90775007Y-25764497D01*
X91457507Y-26446997D01*
G36*
X100330000Y-14844506D02*
G01*
X105107496Y-10067010D01*
X101012499Y-5972013D01*
X100330000Y-6654512D01*
X103742497Y-10067010D01*
X100330000Y-13479507D01*
X96917503Y-10067010D01*
X100330000Y-6654512D01*
X101012499Y-5972013D01*
X100330000Y-5289513D01*
X95552504Y-10067010D01*
X100330000Y-14844506D01*
G37*
X100330000Y-14844506D02*
X105107496Y-10067010D01*
X101012499Y-5972013D01*
X100330000Y-6654512D01*
X103742497Y-10067010D01*
X100330000Y-13479507D01*
X96917503Y-10067010D01*
X100330000Y-6654512D01*
X101012499Y-5972013D01*
X100330000Y-5289513D01*
X95552504Y-10067010D01*
X100330000Y-14844506D01*
G36*
X98965001Y-16209505D02*
G01*
X99647501Y-15527005D01*
X98282502Y-14162006D01*
X97600002Y-14844506D01*
X98965001Y-16209505D01*
G37*
X98965001Y-16209505D02*
X99647501Y-15527005D01*
X98282502Y-14162006D01*
X97600002Y-14844506D01*
X98965001Y-16209505D01*
G36*
X88045010Y-27129496D02*
G01*
X92822506Y-22352000D01*
X88727509Y-18257003D01*
X88045010Y-18939503D01*
X91457507Y-22352000D01*
X88045010Y-25764497D01*
X84632512Y-22352000D01*
X88045010Y-18939503D01*
X88727509Y-18257003D01*
X88045010Y-17574504D01*
X83267513Y-22352000D01*
X88045010Y-27129496D01*
G37*
X88045010Y-27129496D02*
X92822506Y-22352000D01*
X88727509Y-18257003D01*
X88045010Y-18939503D01*
X91457507Y-22352000D01*
X88045010Y-25764497D01*
X84632512Y-22352000D01*
X88045010Y-18939503D01*
X88727509Y-18257003D01*
X88045010Y-17574504D01*
X83267513Y-22352000D01*
X88045010Y-27129496D01*
G36*
X112614990Y-24399498D02*
G01*
X114662489Y-22352000D01*
X112614990Y-20304502D01*
X110567492Y-22352000D01*
X112614990Y-24399498D01*
G37*
X112614990Y-24399498D02*
X114662489Y-22352000D01*
X112614990Y-20304502D01*
X110567492Y-22352000D01*
X112614990Y-24399498D01*
G36*
X100330000Y-31224493D02*
G01*
X101012499Y-30541994D01*
X100330000Y-29859494D01*
X99647501Y-30541994D01*
X100330000Y-31224493D01*
G37*
X100330000Y-31224493D02*
X101012499Y-30541994D01*
X100330000Y-29859494D01*
X99647501Y-30541994D01*
X100330000Y-31224493D01*
G36*
X101694999Y-23034499D02*
G01*
X103059998Y-21669501D01*
X102377498Y-20987001D01*
X101694999Y-21669501D01*
X101012499Y-20987001D01*
X100330000Y-21669501D01*
X101694999Y-23034499D01*
G37*
X101694999Y-23034499D02*
X103059998Y-21669501D01*
X102377498Y-20987001D01*
X101694999Y-21669501D01*
X101012499Y-20987001D01*
X100330000Y-21669501D01*
X101694999Y-23034499D01*
G36*
X98965001Y-24399498D02*
G01*
X100330000Y-23034499D01*
X99647501Y-22352000D01*
X98282502Y-23716999D01*
X98965001Y-24399498D01*
G37*
X98965001Y-24399498D02*
X100330000Y-23034499D01*
X99647501Y-22352000D01*
X98282502Y-23716999D01*
X98965001Y-24399498D01*
G36*
X98282502Y-22352000D02*
G01*
X98965001Y-21669501D01*
X99647501Y-22352000D01*
X100330000Y-21669501D01*
X98965001Y-20304502D01*
X97600002Y-21669501D01*
X98282502Y-22352000D01*
G37*
X98282502Y-22352000D02*
X98965001Y-21669501D01*
X99647501Y-22352000D01*
X100330000Y-21669501D01*
X98965001Y-20304502D01*
X97600002Y-21669501D01*
X98282502Y-22352000D01*
G36*
X98282502Y-26446997D02*
G01*
X98965001Y-25764497D01*
X98282502Y-25081998D01*
X97600002Y-25764497D01*
X98282502Y-26446997D01*
G37*
X98282502Y-26446997D02*
X98965001Y-25764497D01*
X98282502Y-25081998D01*
X97600002Y-25764497D01*
X98282502Y-26446997D01*
G36*
X100330000Y-12114508D02*
G01*
X102377498Y-10067010D01*
X100330000Y-8019511D01*
X98282502Y-10067010D01*
X100330000Y-12114508D01*
G37*
X100330000Y-12114508D02*
X102377498Y-10067010D01*
X100330000Y-8019511D01*
X98282502Y-10067010D01*
X100330000Y-12114508D01*
G36*
X88045010Y-24399498D02*
G01*
X90092508Y-22352000D01*
X88045010Y-20304502D01*
X85997511Y-22352000D01*
X88045010Y-24399498D01*
G37*
X88045010Y-24399498D02*
X90092508Y-22352000D01*
X88045010Y-20304502D01*
X85997511Y-22352000D01*
X88045010Y-24399498D01*
G36*
X94572666Y-66124667D02*
G01*
X96604666Y-66124667D01*
X96604666Y-64092667D01*
X94572666Y-64092667D01*
X94572666Y-66124667D01*
G37*
X94572666Y-66124667D02*
X96604666Y-66124667D01*
X96604666Y-64092667D01*
X94572666Y-64092667D01*
X94572666Y-66124667D01*
G36*
X104055333Y-66124667D02*
G01*
X106087333Y-66124667D01*
X106087333Y-64092667D01*
X104055333Y-64092667D01*
X104055333Y-66124667D01*
G37*
X104055333Y-66124667D02*
X106087333Y-66124667D01*
X106087333Y-64092667D01*
X104055333Y-64092667D01*
X104055333Y-66124667D01*
G36*
X97282000Y-71543334D02*
G01*
X97959333Y-71543334D01*
X97959333Y-70866000D01*
X97282000Y-70866000D01*
X97282000Y-71543334D01*
G37*
X97282000Y-71543334D02*
X97959333Y-71543334D01*
X97959333Y-70866000D01*
X97282000Y-70866000D01*
X97282000Y-71543334D01*
G36*
X96604666Y-75607334D02*
G01*
X97282000Y-75607334D01*
X97282000Y-74930000D01*
X96604666Y-74930000D01*
X96604666Y-75607334D01*
G37*
X96604666Y-75607334D02*
X97282000Y-75607334D01*
X97282000Y-74930000D01*
X96604666Y-74930000D01*
X96604666Y-75607334D01*
G36*
X104055333Y-75607334D02*
G01*
X106087333Y-75607334D01*
X106087333Y-73575334D01*
X104055333Y-73575334D01*
X104055333Y-75607334D01*
G37*
X104055333Y-75607334D02*
X106087333Y-75607334D01*
X106087333Y-73575334D01*
X104055333Y-73575334D01*
X104055333Y-75607334D01*
G36*
X98636666Y-64092667D02*
G01*
X102023333Y-64092667D01*
X102023333Y-63415334D01*
X98636666Y-63415334D01*
X98636666Y-64092667D01*
G37*
X98636666Y-64092667D02*
X102023333Y-64092667D01*
X102023333Y-63415334D01*
X98636666Y-63415334D01*
X98636666Y-64092667D01*
G36*
X93218000Y-67479334D02*
G01*
X97959333Y-67479334D01*
X97959333Y-63415334D01*
X97282000Y-63415334D01*
X97282000Y-66802000D01*
X93895333Y-66802000D01*
X93895333Y-63415334D01*
X97282000Y-63415334D01*
X97959333Y-63415334D01*
X97959333Y-62738000D01*
X93218000Y-62738000D01*
X93218000Y-67479334D01*
G37*
X93218000Y-67479334D02*
X97959333Y-67479334D01*
X97959333Y-63415334D01*
X97282000Y-63415334D01*
X97282000Y-66802000D01*
X93895333Y-66802000D01*
X93895333Y-63415334D01*
X97282000Y-63415334D01*
X97959333Y-63415334D01*
X97959333Y-62738000D01*
X93218000Y-62738000D01*
X93218000Y-67479334D01*
G36*
X102700666Y-67479334D02*
G01*
X107442000Y-67479334D01*
X107442000Y-63415334D01*
X106764666Y-63415334D01*
X106764666Y-66802000D01*
X103378000Y-66802000D01*
X103378000Y-63415334D01*
X106764666Y-63415334D01*
X107442000Y-63415334D01*
X107442000Y-62738000D01*
X102700666Y-62738000D01*
X102700666Y-67479334D01*
G37*
X102700666Y-67479334D02*
X107442000Y-67479334D01*
X107442000Y-63415334D01*
X106764666Y-63415334D01*
X106764666Y-66802000D01*
X103378000Y-66802000D01*
X103378000Y-63415334D01*
X106764666Y-63415334D01*
X107442000Y-63415334D01*
X107442000Y-62738000D01*
X102700666Y-62738000D01*
X102700666Y-67479334D01*
G36*
X101346000Y-71543334D02*
G01*
X101346000Y-72898000D01*
X102023333Y-72898000D01*
X102023333Y-70866000D01*
X100668666Y-70866000D01*
X100668666Y-71543334D01*
X99991333Y-71543334D01*
X99991333Y-72220667D01*
X98636666Y-72220667D01*
X98636666Y-71543334D01*
X97959333Y-71543334D01*
X97959333Y-72220667D01*
X97282000Y-72220667D01*
X96604666Y-72220667D01*
X96604666Y-72898000D01*
X95250000Y-72898000D01*
X95250000Y-72220667D01*
X96604666Y-72220667D01*
X97282000Y-72220667D01*
X97282000Y-71543334D01*
X96604666Y-71543334D01*
X96604666Y-70188667D01*
X97959333Y-70188667D01*
X97959333Y-70866000D01*
X100668666Y-70866000D01*
X102023333Y-70866000D01*
X102700666Y-70866000D01*
X102700666Y-71543334D01*
X103378000Y-71543334D01*
X103378000Y-70866000D01*
X104055333Y-70866000D01*
X104055333Y-71543334D01*
X107442000Y-71543334D01*
X107442000Y-70866000D01*
X105410000Y-70866000D01*
X105410000Y-70188667D01*
X107442000Y-70188667D01*
X107442000Y-69511334D01*
X106087333Y-69511334D01*
X105410000Y-69511334D01*
X105410000Y-70188667D01*
X104732666Y-70188667D01*
X104732666Y-70866000D01*
X104055333Y-70866000D01*
X104055333Y-70188667D01*
X103378000Y-70188667D01*
X103378000Y-70866000D01*
X102700666Y-70866000D01*
X102700666Y-70188667D01*
X103378000Y-70188667D01*
X104055333Y-70188667D01*
X104055333Y-68834000D01*
X104732666Y-68834000D01*
X104732666Y-69511334D01*
X105410000Y-69511334D01*
X106087333Y-69511334D01*
X106087333Y-68834000D01*
X107442000Y-68834000D01*
X107442000Y-68156667D01*
X104055333Y-68156667D01*
X104055333Y-68834000D01*
X103378000Y-68834000D01*
X103378000Y-69511334D01*
X102700666Y-69511334D01*
X102700666Y-70188667D01*
X101346000Y-70188667D01*
X101346000Y-69511334D01*
X100668666Y-69511334D01*
X100668666Y-70188667D01*
X99991333Y-70188667D01*
X99991333Y-69511334D01*
X100668666Y-69511334D01*
X100668666Y-68834000D01*
X102023333Y-68834000D01*
X102023333Y-69511334D01*
X102700666Y-69511334D01*
X102700666Y-68834000D01*
X103378000Y-68834000D01*
X103378000Y-68156667D01*
X101346000Y-68156667D01*
X101346000Y-67479334D01*
X100668666Y-67479334D01*
X100668666Y-68834000D01*
X99991333Y-68834000D01*
X99991333Y-67479334D01*
X100668666Y-67479334D01*
X100668666Y-66802000D01*
X99991333Y-66802000D01*
X99991333Y-67479334D01*
X99314000Y-67479334D01*
X99314000Y-68834000D01*
X99991333Y-68834000D01*
X99991333Y-69511334D01*
X98636666Y-69511334D01*
X96604666Y-69511334D01*
X96604666Y-70188667D01*
X95250000Y-70188667D01*
X95250000Y-69511334D01*
X96604666Y-69511334D01*
X98636666Y-69511334D01*
X98636666Y-68156667D01*
X97959333Y-68156667D01*
X97959333Y-68834000D01*
X97282000Y-68834000D01*
X97282000Y-68156667D01*
X96604666Y-68156667D01*
X96604666Y-68834000D01*
X95927333Y-68834000D01*
X95927333Y-68156667D01*
X95250000Y-68156667D01*
X95250000Y-68834000D01*
X94572666Y-68834000D01*
X94572666Y-68156667D01*
X93895333Y-68156667D01*
X93895333Y-68834000D01*
X93218000Y-68834000D01*
X93218000Y-69511334D01*
X93895333Y-69511334D01*
X93895333Y-70188667D01*
X94572666Y-70188667D01*
X94572666Y-70866000D01*
X95250000Y-70866000D01*
X95250000Y-71543334D01*
X94572666Y-71543334D01*
X94572666Y-72220667D01*
X93895333Y-72220667D01*
X93895333Y-73575334D01*
X95250000Y-73575334D01*
X95250000Y-74252667D01*
X95927333Y-74252667D01*
X95927333Y-74930000D01*
X96604666Y-74930000D01*
X96604666Y-74252667D01*
X97959333Y-74252667D01*
X97959333Y-76284667D01*
X98636666Y-76284667D01*
X98636666Y-75607334D01*
X99314000Y-75607334D01*
X99314000Y-76284667D01*
X99991333Y-76284667D01*
X99991333Y-76962000D01*
X100668666Y-76962000D01*
X100668666Y-76284667D01*
X101346000Y-76284667D01*
X101346000Y-76962000D01*
X102023333Y-76962000D01*
X102023333Y-74930000D01*
X101346000Y-74930000D01*
X101346000Y-75607334D01*
X100668666Y-75607334D01*
X100668666Y-74930000D01*
X101346000Y-74930000D01*
X102023333Y-74930000D01*
X102023333Y-74252667D01*
X100668666Y-74252667D01*
X100668666Y-74930000D01*
X98636666Y-74930000D01*
X98636666Y-74252667D01*
X97959333Y-74252667D01*
X97959333Y-73575334D01*
X98636666Y-73575334D01*
X98636666Y-72898000D01*
X97959333Y-72898000D01*
X97959333Y-73575334D01*
X97282000Y-73575334D01*
X97282000Y-72898000D01*
X97959333Y-72898000D01*
X98636666Y-72898000D01*
X99314000Y-72898000D01*
X99314000Y-73575334D01*
X99991333Y-73575334D01*
X99991333Y-74252667D01*
X100668666Y-74252667D01*
X102023333Y-74252667D01*
X102023333Y-73575334D01*
X99991333Y-73575334D01*
X99991333Y-72220667D01*
X100668666Y-72220667D01*
X100668666Y-71543334D01*
X101346000Y-71543334D01*
G37*
X101346000Y-71543334D02*
X101346000Y-72898000D01*
X102023333Y-72898000D01*
X102023333Y-70866000D01*
X100668666Y-70866000D01*
X100668666Y-71543334D01*
X99991333Y-71543334D01*
X99991333Y-72220667D01*
X98636666Y-72220667D01*
X98636666Y-71543334D01*
X97959333Y-71543334D01*
X97959333Y-72220667D01*
X97282000Y-72220667D01*
X96604666Y-72220667D01*
X96604666Y-72898000D01*
X95250000Y-72898000D01*
X95250000Y-72220667D01*
X96604666Y-72220667D01*
X97282000Y-72220667D01*
X97282000Y-71543334D01*
X96604666Y-71543334D01*
X96604666Y-70188667D01*
X97959333Y-70188667D01*
X97959333Y-70866000D01*
X100668666Y-70866000D01*
X102023333Y-70866000D01*
X102700666Y-70866000D01*
X102700666Y-71543334D01*
X103378000Y-71543334D01*
X103378000Y-70866000D01*
X104055333Y-70866000D01*
X104055333Y-71543334D01*
X107442000Y-71543334D01*
X107442000Y-70866000D01*
X105410000Y-70866000D01*
X105410000Y-70188667D01*
X107442000Y-70188667D01*
X107442000Y-69511334D01*
X106087333Y-69511334D01*
X105410000Y-69511334D01*
X105410000Y-70188667D01*
X104732666Y-70188667D01*
X104732666Y-70866000D01*
X104055333Y-70866000D01*
X104055333Y-70188667D01*
X103378000Y-70188667D01*
X103378000Y-70866000D01*
X102700666Y-70866000D01*
X102700666Y-70188667D01*
X103378000Y-70188667D01*
X104055333Y-70188667D01*
X104055333Y-68834000D01*
X104732666Y-68834000D01*
X104732666Y-69511334D01*
X105410000Y-69511334D01*
X106087333Y-69511334D01*
X106087333Y-68834000D01*
X107442000Y-68834000D01*
X107442000Y-68156667D01*
X104055333Y-68156667D01*
X104055333Y-68834000D01*
X103378000Y-68834000D01*
X103378000Y-69511334D01*
X102700666Y-69511334D01*
X102700666Y-70188667D01*
X101346000Y-70188667D01*
X101346000Y-69511334D01*
X100668666Y-69511334D01*
X100668666Y-70188667D01*
X99991333Y-70188667D01*
X99991333Y-69511334D01*
X100668666Y-69511334D01*
X100668666Y-68834000D01*
X102023333Y-68834000D01*
X102023333Y-69511334D01*
X102700666Y-69511334D01*
X102700666Y-68834000D01*
X103378000Y-68834000D01*
X103378000Y-68156667D01*
X101346000Y-68156667D01*
X101346000Y-67479334D01*
X100668666Y-67479334D01*
X100668666Y-68834000D01*
X99991333Y-68834000D01*
X99991333Y-67479334D01*
X100668666Y-67479334D01*
X100668666Y-66802000D01*
X99991333Y-66802000D01*
X99991333Y-67479334D01*
X99314000Y-67479334D01*
X99314000Y-68834000D01*
X99991333Y-68834000D01*
X99991333Y-69511334D01*
X98636666Y-69511334D01*
X96604666Y-69511334D01*
X96604666Y-70188667D01*
X95250000Y-70188667D01*
X95250000Y-69511334D01*
X96604666Y-69511334D01*
X98636666Y-69511334D01*
X98636666Y-68156667D01*
X97959333Y-68156667D01*
X97959333Y-68834000D01*
X97282000Y-68834000D01*
X97282000Y-68156667D01*
X96604666Y-68156667D01*
X96604666Y-68834000D01*
X95927333Y-68834000D01*
X95927333Y-68156667D01*
X95250000Y-68156667D01*
X95250000Y-68834000D01*
X94572666Y-68834000D01*
X94572666Y-68156667D01*
X93895333Y-68156667D01*
X93895333Y-68834000D01*
X93218000Y-68834000D01*
X93218000Y-69511334D01*
X93895333Y-69511334D01*
X93895333Y-70188667D01*
X94572666Y-70188667D01*
X94572666Y-70866000D01*
X95250000Y-70866000D01*
X95250000Y-71543334D01*
X94572666Y-71543334D01*
X94572666Y-72220667D01*
X93895333Y-72220667D01*
X93895333Y-73575334D01*
X95250000Y-73575334D01*
X95250000Y-74252667D01*
X95927333Y-74252667D01*
X95927333Y-74930000D01*
X96604666Y-74930000D01*
X96604666Y-74252667D01*
X97959333Y-74252667D01*
X97959333Y-76284667D01*
X98636666Y-76284667D01*
X98636666Y-75607334D01*
X99314000Y-75607334D01*
X99314000Y-76284667D01*
X99991333Y-76284667D01*
X99991333Y-76962000D01*
X100668666Y-76962000D01*
X100668666Y-76284667D01*
X101346000Y-76284667D01*
X101346000Y-76962000D01*
X102023333Y-76962000D01*
X102023333Y-74930000D01*
X101346000Y-74930000D01*
X101346000Y-75607334D01*
X100668666Y-75607334D01*
X100668666Y-74930000D01*
X101346000Y-74930000D01*
X102023333Y-74930000D01*
X102023333Y-74252667D01*
X100668666Y-74252667D01*
X100668666Y-74930000D01*
X98636666Y-74930000D01*
X98636666Y-74252667D01*
X97959333Y-74252667D01*
X97959333Y-73575334D01*
X98636666Y-73575334D01*
X98636666Y-72898000D01*
X97959333Y-72898000D01*
X97959333Y-73575334D01*
X97282000Y-73575334D01*
X97282000Y-72898000D01*
X97959333Y-72898000D01*
X98636666Y-72898000D01*
X99314000Y-72898000D01*
X99314000Y-73575334D01*
X99991333Y-73575334D01*
X99991333Y-74252667D01*
X100668666Y-74252667D01*
X102023333Y-74252667D01*
X102023333Y-73575334D01*
X99991333Y-73575334D01*
X99991333Y-72220667D01*
X100668666Y-72220667D01*
X100668666Y-71543334D01*
X101346000Y-71543334D01*
G36*
X96604666Y-76962000D02*
G01*
X97959333Y-76962000D01*
X97959333Y-76284667D01*
X96604666Y-76284667D01*
X96604666Y-76962000D01*
G37*
X96604666Y-76962000D02*
X97959333Y-76962000D01*
X97959333Y-76284667D01*
X96604666Y-76284667D01*
X96604666Y-76962000D01*
G36*
X99314000Y-65447334D02*
G01*
X99991333Y-65447334D01*
X99991333Y-66124667D01*
X101346000Y-66124667D01*
X101346000Y-65447334D01*
X102023333Y-65447334D01*
X102023333Y-64770000D01*
X99314000Y-64770000D01*
X99314000Y-65447334D01*
G37*
X99314000Y-65447334D02*
X99991333Y-65447334D01*
X99991333Y-66124667D01*
X101346000Y-66124667D01*
X101346000Y-65447334D01*
X102023333Y-65447334D01*
X102023333Y-64770000D01*
X99314000Y-64770000D01*
X99314000Y-65447334D01*
G36*
X98636666Y-67479334D02*
G01*
X99314000Y-67479334D01*
X99314000Y-66124667D01*
X98636666Y-66124667D01*
X98636666Y-67479334D01*
G37*
X98636666Y-67479334D02*
X99314000Y-67479334D01*
X99314000Y-66124667D01*
X98636666Y-66124667D01*
X98636666Y-67479334D01*
G36*
X101346000Y-67479334D02*
G01*
X102023333Y-67479334D01*
X102023333Y-66124667D01*
X101346000Y-66124667D01*
X101346000Y-67479334D01*
G37*
X101346000Y-67479334D02*
X102023333Y-67479334D01*
X102023333Y-66124667D01*
X101346000Y-66124667D01*
X101346000Y-67479334D01*
G36*
X93218000Y-72220667D02*
G01*
X93895333Y-72220667D01*
X93895333Y-70866000D01*
X93218000Y-70866000D01*
X93218000Y-72220667D01*
G37*
X93218000Y-72220667D02*
X93895333Y-72220667D01*
X93895333Y-70866000D01*
X93218000Y-70866000D01*
X93218000Y-72220667D01*
G36*
X93895333Y-76962000D02*
G01*
X94572666Y-76962000D01*
X94572666Y-76284667D01*
X93895333Y-76284667D01*
X93895333Y-76962000D01*
G37*
X93895333Y-76962000D02*
X94572666Y-76962000D01*
X94572666Y-76284667D01*
X93895333Y-76284667D01*
X93895333Y-76962000D01*
G36*
X96604666Y-75607334D02*
G01*
X95250000Y-75607334D01*
X95250000Y-74252667D01*
X93895333Y-74252667D01*
X93895333Y-74930000D01*
X94572666Y-74930000D01*
X94572666Y-76284667D01*
X95250000Y-76284667D01*
X95250000Y-76962000D01*
X95927333Y-76962000D01*
X95927333Y-76284667D01*
X96604666Y-76284667D01*
X96604666Y-75607334D01*
G37*
X96604666Y-75607334D02*
X95250000Y-75607334D01*
X95250000Y-74252667D01*
X93895333Y-74252667D01*
X93895333Y-74930000D01*
X94572666Y-74930000D01*
X94572666Y-76284667D01*
X95250000Y-76284667D01*
X95250000Y-76962000D01*
X95927333Y-76962000D01*
X95927333Y-76284667D01*
X96604666Y-76284667D01*
X96604666Y-75607334D01*
G36*
X102700666Y-76962000D02*
G01*
X107442000Y-76962000D01*
X107442000Y-72898000D01*
X106764666Y-72898000D01*
X106764666Y-76284667D01*
X103378000Y-76284667D01*
X103378000Y-72898000D01*
X106764666Y-72898000D01*
X107442000Y-72898000D01*
X107442000Y-72220667D01*
X102700666Y-72220667D01*
X102700666Y-76962000D01*
G37*
X102700666Y-76962000D02*
X107442000Y-76962000D01*
X107442000Y-72898000D01*
X106764666Y-72898000D01*
X106764666Y-76284667D01*
X103378000Y-76284667D01*
X103378000Y-72898000D01*
X106764666Y-72898000D01*
X107442000Y-72898000D01*
X107442000Y-72220667D01*
X102700666Y-72220667D01*
X102700666Y-76962000D01*
%LPC*%
D12*
X113330000Y-15258000D03*
X87330000Y-15258000D03*
D13*
X100000000Y-59650000D03*
D14*
X100000000Y-84650000D03*
M02*
