%FSLAX45Y45*%
G04 Gerber Fmt 4.5, Leading zero omitted, Abs format (unit mm)*
G04 Created by KiCad (PCBNEW (5.1.12)-1) date 2023-01-12 22:36:24*
%MOMM*%
%LPD*%
G01*
G04 APERTURE LIST*
%TA.AperFunction,Profile*%
%ADD10C,0.150000*%
%TD*%
%ADD11C,0.200000*%
%ADD12C,0.300000*%
G04 APERTURE END LIST*
D10*
X7366000Y203200D02*
X6858000Y-254000D01*
X12700000Y203200D02*
X7366000Y203200D01*
X6858000Y-2844800D02*
X7430000Y-2844800D01*
X6858000Y-2463800D02*
X6858000Y-2844800D01*
X6858000Y-254000D02*
X6858000Y-2463800D01*
X13208000Y-254000D02*
X12700000Y203200D01*
X13208000Y-2463800D02*
X13208000Y-254000D01*
X12573000Y-2717800D02*
X13208000Y-2463800D01*
X7430000Y-9140000D02*
X7430000Y-2844800D01*
X7540000Y-9140000D02*
X7430000Y-9140000D01*
X7540000Y-10000000D02*
X7540000Y-9140000D01*
X12570000Y-9140000D02*
X12573000Y-2717800D01*
X12460000Y-9140000D02*
X12570000Y-9140000D01*
X12460000Y-10000000D02*
X12460000Y-9140000D01*
X7540000Y-10000000D02*
X12460000Y-10000000D01*
D11*
X8633000Y-1425800D02*
X8833000Y-1625800D01*
X8833000Y-1425800D02*
X8633000Y-1625800D01*
X11233000Y-1425800D02*
X11433000Y-1625800D01*
X11433000Y-1425800D02*
X11233000Y-1625800D01*
X10115000Y-5965000D02*
G75*
G03*
X10115000Y-5965000I-115000J0D01*
G01*
X10000000Y-8105000D02*
X10000000Y-8825000D01*
X9640000Y-8465000D02*
X10360000Y-8465000D01*
D12*
X7136928Y-10473214D02*
X7136928Y-10173214D01*
X7208357Y-10173214D01*
X7251214Y-10187500D01*
X7279786Y-10216072D01*
X7294071Y-10244643D01*
X7308357Y-10301786D01*
X7308357Y-10344643D01*
X7294071Y-10401786D01*
X7279786Y-10430357D01*
X7251214Y-10458929D01*
X7208357Y-10473214D01*
X7136928Y-10473214D01*
X7436928Y-10473214D02*
X7436928Y-10273214D01*
X7436928Y-10330357D02*
X7451214Y-10301786D01*
X7465500Y-10287500D01*
X7494071Y-10273214D01*
X7522643Y-10273214D01*
X7622643Y-10473214D02*
X7622643Y-10273214D01*
X7622643Y-10173214D02*
X7608357Y-10187500D01*
X7622643Y-10201786D01*
X7636928Y-10187500D01*
X7622643Y-10173214D01*
X7622643Y-10201786D01*
X7808357Y-10473214D02*
X7779786Y-10458929D01*
X7765500Y-10430357D01*
X7765500Y-10173214D01*
X7965500Y-10473214D02*
X7936928Y-10458929D01*
X7922643Y-10430357D01*
X7922643Y-10173214D01*
X8308357Y-10473214D02*
X8308357Y-10173214D01*
X8408357Y-10387500D01*
X8508357Y-10173214D01*
X8508357Y-10473214D01*
X8779786Y-10473214D02*
X8779786Y-10316072D01*
X8765500Y-10287500D01*
X8736928Y-10273214D01*
X8679786Y-10273214D01*
X8651214Y-10287500D01*
X8779786Y-10458929D02*
X8751214Y-10473214D01*
X8679786Y-10473214D01*
X8651214Y-10458929D01*
X8636928Y-10430357D01*
X8636928Y-10401786D01*
X8651214Y-10373214D01*
X8679786Y-10358929D01*
X8751214Y-10358929D01*
X8779786Y-10344643D01*
X8922643Y-10273214D02*
X8922643Y-10573214D01*
X8922643Y-10287500D02*
X8951214Y-10273214D01*
X9008357Y-10273214D01*
X9036928Y-10287500D01*
X9051214Y-10301786D01*
X9065500Y-10330357D01*
X9065500Y-10416072D01*
X9051214Y-10444643D01*
X9036928Y-10458929D01*
X9008357Y-10473214D01*
X8951214Y-10473214D01*
X8922643Y-10458929D01*
X9194071Y-10444643D02*
X9208357Y-10458929D01*
X9194071Y-10473214D01*
X9179786Y-10458929D01*
X9194071Y-10444643D01*
X9194071Y-10473214D01*
X9194071Y-10287500D02*
X9208357Y-10301786D01*
X9194071Y-10316072D01*
X9179786Y-10301786D01*
X9194071Y-10287500D01*
X9194071Y-10316072D01*
X6650500Y-10867500D02*
X6850500Y-11067500D01*
X6850500Y-10867500D02*
X6650500Y-11067500D01*
X7122643Y-10831786D02*
X7136928Y-10817500D01*
X7165500Y-10803214D01*
X7236928Y-10803214D01*
X7265500Y-10817500D01*
X7279786Y-10831786D01*
X7294071Y-10860357D01*
X7294071Y-10888929D01*
X7279786Y-10931786D01*
X7108357Y-11103214D01*
X7294071Y-11103214D01*
X7422643Y-11074643D02*
X7436928Y-11088929D01*
X7422643Y-11103214D01*
X7408357Y-11088929D01*
X7422643Y-11074643D01*
X7422643Y-11103214D01*
X7622643Y-10803214D02*
X7651214Y-10803214D01*
X7679786Y-10817500D01*
X7694071Y-10831786D01*
X7708357Y-10860357D01*
X7722643Y-10917500D01*
X7722643Y-10988929D01*
X7708357Y-11046072D01*
X7694071Y-11074643D01*
X7679786Y-11088929D01*
X7651214Y-11103214D01*
X7622643Y-11103214D01*
X7594071Y-11088929D01*
X7579786Y-11074643D01*
X7565500Y-11046072D01*
X7551214Y-10988929D01*
X7551214Y-10917500D01*
X7565500Y-10860357D01*
X7579786Y-10831786D01*
X7594071Y-10817500D01*
X7622643Y-10803214D01*
X7908357Y-10803214D02*
X7936928Y-10803214D01*
X7965500Y-10817500D01*
X7979786Y-10831786D01*
X7994071Y-10860357D01*
X8008357Y-10917500D01*
X8008357Y-10988929D01*
X7994071Y-11046072D01*
X7979786Y-11074643D01*
X7965500Y-11088929D01*
X7936928Y-11103214D01*
X7908357Y-11103214D01*
X7879786Y-11088929D01*
X7865500Y-11074643D01*
X7851214Y-11046072D01*
X7836928Y-10988929D01*
X7836928Y-10917500D01*
X7851214Y-10860357D01*
X7865500Y-10831786D01*
X7879786Y-10817500D01*
X7908357Y-10803214D01*
X8194071Y-10803214D02*
X8222643Y-10803214D01*
X8251214Y-10817500D01*
X8265500Y-10831786D01*
X8279786Y-10860357D01*
X8294071Y-10917500D01*
X8294071Y-10988929D01*
X8279786Y-11046072D01*
X8265500Y-11074643D01*
X8251214Y-11088929D01*
X8222643Y-11103214D01*
X8194071Y-11103214D01*
X8165500Y-11088929D01*
X8151214Y-11074643D01*
X8136928Y-11046072D01*
X8122643Y-10988929D01*
X8122643Y-10917500D01*
X8136928Y-10860357D01*
X8151214Y-10831786D01*
X8165500Y-10817500D01*
X8194071Y-10803214D01*
X8422643Y-11103214D02*
X8422643Y-10903214D01*
X8422643Y-10931786D02*
X8436928Y-10917500D01*
X8465500Y-10903214D01*
X8508357Y-10903214D01*
X8536928Y-10917500D01*
X8551214Y-10946072D01*
X8551214Y-11103214D01*
X8551214Y-10946072D02*
X8565500Y-10917500D01*
X8594071Y-10903214D01*
X8636928Y-10903214D01*
X8665500Y-10917500D01*
X8679786Y-10946072D01*
X8679786Y-11103214D01*
X8822643Y-11103214D02*
X8822643Y-10903214D01*
X8822643Y-10931786D02*
X8836928Y-10917500D01*
X8865500Y-10903214D01*
X8908357Y-10903214D01*
X8936928Y-10917500D01*
X8951214Y-10946072D01*
X8951214Y-11103214D01*
X8951214Y-10946072D02*
X8965500Y-10917500D01*
X8994071Y-10903214D01*
X9036928Y-10903214D01*
X9065500Y-10917500D01*
X9079786Y-10946072D01*
X9079786Y-11103214D01*
X9665500Y-10788929D02*
X9408357Y-11174643D01*
X10051214Y-10803214D02*
X10079786Y-10803214D01*
X10108357Y-10817500D01*
X10122643Y-10831786D01*
X10136928Y-10860357D01*
X10151214Y-10917500D01*
X10151214Y-10988929D01*
X10136928Y-11046072D01*
X10122643Y-11074643D01*
X10108357Y-11088929D01*
X10079786Y-11103214D01*
X10051214Y-11103214D01*
X10022643Y-11088929D01*
X10008357Y-11074643D01*
X9994071Y-11046072D01*
X9979786Y-10988929D01*
X9979786Y-10917500D01*
X9994071Y-10860357D01*
X10008357Y-10831786D01*
X10022643Y-10817500D01*
X10051214Y-10803214D01*
X10279786Y-11074643D02*
X10294071Y-11088929D01*
X10279786Y-11103214D01*
X10265500Y-11088929D01*
X10279786Y-11074643D01*
X10279786Y-11103214D01*
X10479786Y-10803214D02*
X10508357Y-10803214D01*
X10536928Y-10817500D01*
X10551214Y-10831786D01*
X10565500Y-10860357D01*
X10579786Y-10917500D01*
X10579786Y-10988929D01*
X10565500Y-11046072D01*
X10551214Y-11074643D01*
X10536928Y-11088929D01*
X10508357Y-11103214D01*
X10479786Y-11103214D01*
X10451214Y-11088929D01*
X10436928Y-11074643D01*
X10422643Y-11046072D01*
X10408357Y-10988929D01*
X10408357Y-10917500D01*
X10422643Y-10860357D01*
X10436928Y-10831786D01*
X10451214Y-10817500D01*
X10479786Y-10803214D01*
X10679786Y-10803214D02*
X10879786Y-10803214D01*
X10751214Y-11103214D01*
X11036928Y-10931786D02*
X11008357Y-10917500D01*
X10994071Y-10903214D01*
X10979786Y-10874643D01*
X10979786Y-10860357D01*
X10994071Y-10831786D01*
X11008357Y-10817500D01*
X11036928Y-10803214D01*
X11094071Y-10803214D01*
X11122643Y-10817500D01*
X11136928Y-10831786D01*
X11151214Y-10860357D01*
X11151214Y-10874643D01*
X11136928Y-10903214D01*
X11122643Y-10917500D01*
X11094071Y-10931786D01*
X11036928Y-10931786D01*
X11008357Y-10946072D01*
X10994071Y-10960357D01*
X10979786Y-10988929D01*
X10979786Y-11046072D01*
X10994071Y-11074643D01*
X11008357Y-11088929D01*
X11036928Y-11103214D01*
X11094071Y-11103214D01*
X11122643Y-11088929D01*
X11136928Y-11074643D01*
X11151214Y-11046072D01*
X11151214Y-10988929D01*
X11136928Y-10960357D01*
X11122643Y-10946072D01*
X11094071Y-10931786D01*
X11251214Y-10803214D02*
X11451214Y-10803214D01*
X11322643Y-11103214D01*
X11551214Y-10803214D02*
X11551214Y-10860357D01*
X11665500Y-10803214D02*
X11665500Y-10860357D01*
X12108357Y-11217500D02*
X12094071Y-11203214D01*
X12065500Y-11160357D01*
X12051214Y-11131786D01*
X12036928Y-11088929D01*
X12022643Y-11017500D01*
X12022643Y-10960357D01*
X12036928Y-10888929D01*
X12051214Y-10846072D01*
X12065500Y-10817500D01*
X12094071Y-10774643D01*
X12108357Y-10760357D01*
X12208357Y-10831786D02*
X12222643Y-10817500D01*
X12251214Y-10803214D01*
X12322643Y-10803214D01*
X12351214Y-10817500D01*
X12365500Y-10831786D01*
X12379786Y-10860357D01*
X12379786Y-10888929D01*
X12365500Y-10931786D01*
X12194071Y-11103214D01*
X12379786Y-11103214D01*
X12736928Y-11103214D02*
X12736928Y-10803214D01*
X12865500Y-11103214D02*
X12865500Y-10946072D01*
X12851214Y-10917500D01*
X12822643Y-10903214D01*
X12779786Y-10903214D01*
X12751214Y-10917500D01*
X12736928Y-10931786D01*
X13051214Y-11103214D02*
X13022643Y-11088929D01*
X13008357Y-11074643D01*
X12994071Y-11046072D01*
X12994071Y-10960357D01*
X13008357Y-10931786D01*
X13022643Y-10917500D01*
X13051214Y-10903214D01*
X13094071Y-10903214D01*
X13122643Y-10917500D01*
X13136928Y-10931786D01*
X13151214Y-10960357D01*
X13151214Y-11046072D01*
X13136928Y-11074643D01*
X13122643Y-11088929D01*
X13094071Y-11103214D01*
X13051214Y-11103214D01*
X13322643Y-11103214D02*
X13294071Y-11088929D01*
X13279786Y-11060357D01*
X13279786Y-10803214D01*
X13551214Y-11088929D02*
X13522643Y-11103214D01*
X13465500Y-11103214D01*
X13436928Y-11088929D01*
X13422643Y-11060357D01*
X13422643Y-10946072D01*
X13436928Y-10917500D01*
X13465500Y-10903214D01*
X13522643Y-10903214D01*
X13551214Y-10917500D01*
X13565500Y-10946072D01*
X13565500Y-10974643D01*
X13422643Y-11003214D01*
X13679786Y-11088929D02*
X13708357Y-11103214D01*
X13765500Y-11103214D01*
X13794071Y-11088929D01*
X13808357Y-11060357D01*
X13808357Y-11046072D01*
X13794071Y-11017500D01*
X13765500Y-11003214D01*
X13722643Y-11003214D01*
X13694071Y-10988929D01*
X13679786Y-10960357D01*
X13679786Y-10946072D01*
X13694071Y-10917500D01*
X13722643Y-10903214D01*
X13765500Y-10903214D01*
X13794071Y-10917500D01*
X13908357Y-11217500D02*
X13922643Y-11203214D01*
X13951214Y-11160357D01*
X13965500Y-11131786D01*
X13979786Y-11088929D01*
X13994071Y-11017500D01*
X13994071Y-10960357D01*
X13979786Y-10888929D01*
X13965500Y-10846072D01*
X13951214Y-10817500D01*
X13922643Y-10774643D01*
X13908357Y-10760357D01*
X14451214Y-11217500D02*
X14436928Y-11203214D01*
X14408357Y-11160357D01*
X14394071Y-11131786D01*
X14379786Y-11088929D01*
X14365500Y-11017500D01*
X14365500Y-10960357D01*
X14379786Y-10888929D01*
X14394071Y-10846072D01*
X14408357Y-10817500D01*
X14436928Y-10774643D01*
X14451214Y-10760357D01*
X14565500Y-10903214D02*
X14565500Y-11103214D01*
X14565500Y-10931786D02*
X14579786Y-10917500D01*
X14608357Y-10903214D01*
X14651214Y-10903214D01*
X14679786Y-10917500D01*
X14694071Y-10946072D01*
X14694071Y-11103214D01*
X14879786Y-11103214D02*
X14851214Y-11088929D01*
X14836928Y-11074643D01*
X14822643Y-11046072D01*
X14822643Y-10960357D01*
X14836928Y-10931786D01*
X14851214Y-10917500D01*
X14879786Y-10903214D01*
X14922643Y-10903214D01*
X14951214Y-10917500D01*
X14965500Y-10931786D01*
X14979786Y-10960357D01*
X14979786Y-11046072D01*
X14965500Y-11074643D01*
X14951214Y-11088929D01*
X14922643Y-11103214D01*
X14879786Y-11103214D01*
X15065500Y-10903214D02*
X15179786Y-10903214D01*
X15108357Y-10803214D02*
X15108357Y-11060357D01*
X15122643Y-11088929D01*
X15151214Y-11103214D01*
X15179786Y-11103214D01*
X15508357Y-10903214D02*
X15508357Y-11203214D01*
X15508357Y-10917500D02*
X15536928Y-10903214D01*
X15594071Y-10903214D01*
X15622643Y-10917500D01*
X15636928Y-10931786D01*
X15651214Y-10960357D01*
X15651214Y-11046072D01*
X15636928Y-11074643D01*
X15622643Y-11088929D01*
X15594071Y-11103214D01*
X15536928Y-11103214D01*
X15508357Y-11088929D01*
X15822643Y-11103214D02*
X15794071Y-11088929D01*
X15779786Y-11060357D01*
X15779786Y-10803214D01*
X16065500Y-11103214D02*
X16065500Y-10946072D01*
X16051214Y-10917500D01*
X16022643Y-10903214D01*
X15965500Y-10903214D01*
X15936928Y-10917500D01*
X16065500Y-11088929D02*
X16036928Y-11103214D01*
X15965500Y-11103214D01*
X15936928Y-11088929D01*
X15922643Y-11060357D01*
X15922643Y-11031786D01*
X15936928Y-11003214D01*
X15965500Y-10988929D01*
X16036928Y-10988929D01*
X16065500Y-10974643D01*
X16165500Y-10903214D02*
X16279786Y-10903214D01*
X16208357Y-10803214D02*
X16208357Y-11060357D01*
X16222643Y-11088929D01*
X16251214Y-11103214D01*
X16279786Y-11103214D01*
X16494071Y-11088929D02*
X16465500Y-11103214D01*
X16408357Y-11103214D01*
X16379786Y-11088929D01*
X16365500Y-11060357D01*
X16365500Y-10946072D01*
X16379786Y-10917500D01*
X16408357Y-10903214D01*
X16465500Y-10903214D01*
X16494071Y-10917500D01*
X16508357Y-10946072D01*
X16508357Y-10974643D01*
X16365500Y-11003214D01*
X16765500Y-11103214D02*
X16765500Y-10803214D01*
X16765500Y-11088929D02*
X16736928Y-11103214D01*
X16679786Y-11103214D01*
X16651214Y-11088929D01*
X16636928Y-11074643D01*
X16622643Y-11046072D01*
X16622643Y-10960357D01*
X16636928Y-10931786D01*
X16651214Y-10917500D01*
X16679786Y-10903214D01*
X16736928Y-10903214D01*
X16765500Y-10917500D01*
X16879786Y-11217500D02*
X16894071Y-11203214D01*
X16922643Y-11160357D01*
X16936928Y-11131786D01*
X16951214Y-11088929D01*
X16965500Y-11017500D01*
X16965500Y-10960357D01*
X16951214Y-10888929D01*
X16936928Y-10846072D01*
X16922643Y-10817500D01*
X16894071Y-10774643D01*
X16879786Y-10760357D01*
X6850500Y-11363500D02*
G75*
G03*
X6850500Y-11363500I-115000J0D01*
G01*
X7122643Y-11227786D02*
X7136928Y-11213500D01*
X7165500Y-11199214D01*
X7236928Y-11199214D01*
X7265500Y-11213500D01*
X7279786Y-11227786D01*
X7294071Y-11256357D01*
X7294071Y-11284929D01*
X7279786Y-11327786D01*
X7108357Y-11499214D01*
X7294071Y-11499214D01*
X7422643Y-11470643D02*
X7436928Y-11484929D01*
X7422643Y-11499214D01*
X7408357Y-11484929D01*
X7422643Y-11470643D01*
X7422643Y-11499214D01*
X7536928Y-11199214D02*
X7722643Y-11199214D01*
X7622643Y-11313500D01*
X7665500Y-11313500D01*
X7694071Y-11327786D01*
X7708357Y-11342071D01*
X7722643Y-11370643D01*
X7722643Y-11442071D01*
X7708357Y-11470643D01*
X7694071Y-11484929D01*
X7665500Y-11499214D01*
X7579786Y-11499214D01*
X7551214Y-11484929D01*
X7536928Y-11470643D01*
X7908357Y-11199214D02*
X7936928Y-11199214D01*
X7965500Y-11213500D01*
X7979786Y-11227786D01*
X7994071Y-11256357D01*
X8008357Y-11313500D01*
X8008357Y-11384929D01*
X7994071Y-11442071D01*
X7979786Y-11470643D01*
X7965500Y-11484929D01*
X7936928Y-11499214D01*
X7908357Y-11499214D01*
X7879786Y-11484929D01*
X7865500Y-11470643D01*
X7851214Y-11442071D01*
X7836928Y-11384929D01*
X7836928Y-11313500D01*
X7851214Y-11256357D01*
X7865500Y-11227786D01*
X7879786Y-11213500D01*
X7908357Y-11199214D01*
X8194071Y-11199214D02*
X8222643Y-11199214D01*
X8251214Y-11213500D01*
X8265500Y-11227786D01*
X8279786Y-11256357D01*
X8294071Y-11313500D01*
X8294071Y-11384929D01*
X8279786Y-11442071D01*
X8265500Y-11470643D01*
X8251214Y-11484929D01*
X8222643Y-11499214D01*
X8194071Y-11499214D01*
X8165500Y-11484929D01*
X8151214Y-11470643D01*
X8136928Y-11442071D01*
X8122643Y-11384929D01*
X8122643Y-11313500D01*
X8136928Y-11256357D01*
X8151214Y-11227786D01*
X8165500Y-11213500D01*
X8194071Y-11199214D01*
X8422643Y-11499214D02*
X8422643Y-11299214D01*
X8422643Y-11327786D02*
X8436928Y-11313500D01*
X8465500Y-11299214D01*
X8508357Y-11299214D01*
X8536928Y-11313500D01*
X8551214Y-11342071D01*
X8551214Y-11499214D01*
X8551214Y-11342071D02*
X8565500Y-11313500D01*
X8594071Y-11299214D01*
X8636928Y-11299214D01*
X8665500Y-11313500D01*
X8679786Y-11342071D01*
X8679786Y-11499214D01*
X8822643Y-11499214D02*
X8822643Y-11299214D01*
X8822643Y-11327786D02*
X8836928Y-11313500D01*
X8865500Y-11299214D01*
X8908357Y-11299214D01*
X8936928Y-11313500D01*
X8951214Y-11342071D01*
X8951214Y-11499214D01*
X8951214Y-11342071D02*
X8965500Y-11313500D01*
X8994071Y-11299214D01*
X9036928Y-11299214D01*
X9065500Y-11313500D01*
X9079786Y-11342071D01*
X9079786Y-11499214D01*
X9665500Y-11184929D02*
X9408357Y-11570643D01*
X10051214Y-11199214D02*
X10079786Y-11199214D01*
X10108357Y-11213500D01*
X10122643Y-11227786D01*
X10136928Y-11256357D01*
X10151214Y-11313500D01*
X10151214Y-11384929D01*
X10136928Y-11442071D01*
X10122643Y-11470643D01*
X10108357Y-11484929D01*
X10079786Y-11499214D01*
X10051214Y-11499214D01*
X10022643Y-11484929D01*
X10008357Y-11470643D01*
X9994071Y-11442071D01*
X9979786Y-11384929D01*
X9979786Y-11313500D01*
X9994071Y-11256357D01*
X10008357Y-11227786D01*
X10022643Y-11213500D01*
X10051214Y-11199214D01*
X10279786Y-11470643D02*
X10294071Y-11484929D01*
X10279786Y-11499214D01*
X10265500Y-11484929D01*
X10279786Y-11470643D01*
X10279786Y-11499214D01*
X10479786Y-11199214D02*
X10508357Y-11199214D01*
X10536928Y-11213500D01*
X10551214Y-11227786D01*
X10565500Y-11256357D01*
X10579786Y-11313500D01*
X10579786Y-11384929D01*
X10565500Y-11442071D01*
X10551214Y-11470643D01*
X10536928Y-11484929D01*
X10508357Y-11499214D01*
X10479786Y-11499214D01*
X10451214Y-11484929D01*
X10436928Y-11470643D01*
X10422643Y-11442071D01*
X10408357Y-11384929D01*
X10408357Y-11313500D01*
X10422643Y-11256357D01*
X10436928Y-11227786D01*
X10451214Y-11213500D01*
X10479786Y-11199214D01*
X10722643Y-11499214D02*
X10779786Y-11499214D01*
X10808357Y-11484929D01*
X10822643Y-11470643D01*
X10851214Y-11427786D01*
X10865500Y-11370643D01*
X10865500Y-11256357D01*
X10851214Y-11227786D01*
X10836928Y-11213500D01*
X10808357Y-11199214D01*
X10751214Y-11199214D01*
X10722643Y-11213500D01*
X10708357Y-11227786D01*
X10694071Y-11256357D01*
X10694071Y-11327786D01*
X10708357Y-11356357D01*
X10722643Y-11370643D01*
X10751214Y-11384929D01*
X10808357Y-11384929D01*
X10836928Y-11370643D01*
X10851214Y-11356357D01*
X10865500Y-11327786D01*
X11051214Y-11199214D02*
X11079786Y-11199214D01*
X11108357Y-11213500D01*
X11122643Y-11227786D01*
X11136928Y-11256357D01*
X11151214Y-11313500D01*
X11151214Y-11384929D01*
X11136928Y-11442071D01*
X11122643Y-11470643D01*
X11108357Y-11484929D01*
X11079786Y-11499214D01*
X11051214Y-11499214D01*
X11022643Y-11484929D01*
X11008357Y-11470643D01*
X10994071Y-11442071D01*
X10979786Y-11384929D01*
X10979786Y-11313500D01*
X10994071Y-11256357D01*
X11008357Y-11227786D01*
X11022643Y-11213500D01*
X11051214Y-11199214D01*
X11408357Y-11199214D02*
X11351214Y-11199214D01*
X11322643Y-11213500D01*
X11308357Y-11227786D01*
X11279786Y-11270643D01*
X11265500Y-11327786D01*
X11265500Y-11442071D01*
X11279786Y-11470643D01*
X11294071Y-11484929D01*
X11322643Y-11499214D01*
X11379786Y-11499214D01*
X11408357Y-11484929D01*
X11422643Y-11470643D01*
X11436928Y-11442071D01*
X11436928Y-11370643D01*
X11422643Y-11342071D01*
X11408357Y-11327786D01*
X11379786Y-11313500D01*
X11322643Y-11313500D01*
X11294071Y-11327786D01*
X11279786Y-11342071D01*
X11265500Y-11370643D01*
X11551214Y-11199214D02*
X11551214Y-11256357D01*
X11665500Y-11199214D02*
X11665500Y-11256357D01*
X12108357Y-11613500D02*
X12094071Y-11599214D01*
X12065500Y-11556357D01*
X12051214Y-11527786D01*
X12036928Y-11484929D01*
X12022643Y-11413500D01*
X12022643Y-11356357D01*
X12036928Y-11284929D01*
X12051214Y-11242071D01*
X12065500Y-11213500D01*
X12094071Y-11170643D01*
X12108357Y-11156357D01*
X12379786Y-11499214D02*
X12208357Y-11499214D01*
X12294071Y-11499214D02*
X12294071Y-11199214D01*
X12265500Y-11242071D01*
X12236928Y-11270643D01*
X12208357Y-11284929D01*
X12736928Y-11499214D02*
X12736928Y-11199214D01*
X12865500Y-11499214D02*
X12865500Y-11342071D01*
X12851214Y-11313500D01*
X12822643Y-11299214D01*
X12779786Y-11299214D01*
X12751214Y-11313500D01*
X12736928Y-11327786D01*
X13051214Y-11499214D02*
X13022643Y-11484929D01*
X13008357Y-11470643D01*
X12994071Y-11442071D01*
X12994071Y-11356357D01*
X13008357Y-11327786D01*
X13022643Y-11313500D01*
X13051214Y-11299214D01*
X13094071Y-11299214D01*
X13122643Y-11313500D01*
X13136928Y-11327786D01*
X13151214Y-11356357D01*
X13151214Y-11442071D01*
X13136928Y-11470643D01*
X13122643Y-11484929D01*
X13094071Y-11499214D01*
X13051214Y-11499214D01*
X13322643Y-11499214D02*
X13294071Y-11484929D01*
X13279786Y-11456357D01*
X13279786Y-11199214D01*
X13551214Y-11484929D02*
X13522643Y-11499214D01*
X13465500Y-11499214D01*
X13436928Y-11484929D01*
X13422643Y-11456357D01*
X13422643Y-11342071D01*
X13436928Y-11313500D01*
X13465500Y-11299214D01*
X13522643Y-11299214D01*
X13551214Y-11313500D01*
X13565500Y-11342071D01*
X13565500Y-11370643D01*
X13422643Y-11399214D01*
X13665500Y-11613500D02*
X13679786Y-11599214D01*
X13708357Y-11556357D01*
X13722643Y-11527786D01*
X13736928Y-11484929D01*
X13751214Y-11413500D01*
X13751214Y-11356357D01*
X13736928Y-11284929D01*
X13722643Y-11242071D01*
X13708357Y-11213500D01*
X13679786Y-11170643D01*
X13665500Y-11156357D01*
X14208357Y-11613500D02*
X14194071Y-11599214D01*
X14165500Y-11556357D01*
X14151214Y-11527786D01*
X14136928Y-11484929D01*
X14122643Y-11413500D01*
X14122643Y-11356357D01*
X14136928Y-11284929D01*
X14151214Y-11242071D01*
X14165500Y-11213500D01*
X14194071Y-11170643D01*
X14208357Y-11156357D01*
X14322643Y-11299214D02*
X14322643Y-11499214D01*
X14322643Y-11327786D02*
X14336928Y-11313500D01*
X14365500Y-11299214D01*
X14408357Y-11299214D01*
X14436928Y-11313500D01*
X14451214Y-11342071D01*
X14451214Y-11499214D01*
X14636928Y-11499214D02*
X14608357Y-11484929D01*
X14594071Y-11470643D01*
X14579786Y-11442071D01*
X14579786Y-11356357D01*
X14594071Y-11327786D01*
X14608357Y-11313500D01*
X14636928Y-11299214D01*
X14679786Y-11299214D01*
X14708357Y-11313500D01*
X14722643Y-11327786D01*
X14736928Y-11356357D01*
X14736928Y-11442071D01*
X14722643Y-11470643D01*
X14708357Y-11484929D01*
X14679786Y-11499214D01*
X14636928Y-11499214D01*
X14822643Y-11299214D02*
X14936928Y-11299214D01*
X14865500Y-11199214D02*
X14865500Y-11456357D01*
X14879786Y-11484929D01*
X14908357Y-11499214D01*
X14936928Y-11499214D01*
X15265500Y-11299214D02*
X15265500Y-11599214D01*
X15265500Y-11313500D02*
X15294071Y-11299214D01*
X15351214Y-11299214D01*
X15379786Y-11313500D01*
X15394071Y-11327786D01*
X15408357Y-11356357D01*
X15408357Y-11442071D01*
X15394071Y-11470643D01*
X15379786Y-11484929D01*
X15351214Y-11499214D01*
X15294071Y-11499214D01*
X15265500Y-11484929D01*
X15579786Y-11499214D02*
X15551214Y-11484929D01*
X15536928Y-11456357D01*
X15536928Y-11199214D01*
X15822643Y-11499214D02*
X15822643Y-11342071D01*
X15808357Y-11313500D01*
X15779786Y-11299214D01*
X15722643Y-11299214D01*
X15694071Y-11313500D01*
X15822643Y-11484929D02*
X15794071Y-11499214D01*
X15722643Y-11499214D01*
X15694071Y-11484929D01*
X15679786Y-11456357D01*
X15679786Y-11427786D01*
X15694071Y-11399214D01*
X15722643Y-11384929D01*
X15794071Y-11384929D01*
X15822643Y-11370643D01*
X15922643Y-11299214D02*
X16036928Y-11299214D01*
X15965500Y-11199214D02*
X15965500Y-11456357D01*
X15979786Y-11484929D01*
X16008357Y-11499214D01*
X16036928Y-11499214D01*
X16251214Y-11484929D02*
X16222643Y-11499214D01*
X16165500Y-11499214D01*
X16136928Y-11484929D01*
X16122643Y-11456357D01*
X16122643Y-11342071D01*
X16136928Y-11313500D01*
X16165500Y-11299214D01*
X16222643Y-11299214D01*
X16251214Y-11313500D01*
X16265500Y-11342071D01*
X16265500Y-11370643D01*
X16122643Y-11399214D01*
X16522643Y-11499214D02*
X16522643Y-11199214D01*
X16522643Y-11484929D02*
X16494071Y-11499214D01*
X16436928Y-11499214D01*
X16408357Y-11484929D01*
X16394071Y-11470643D01*
X16379786Y-11442071D01*
X16379786Y-11356357D01*
X16394071Y-11327786D01*
X16408357Y-11313500D01*
X16436928Y-11299214D01*
X16494071Y-11299214D01*
X16522643Y-11313500D01*
X16636928Y-11613500D02*
X16651214Y-11599214D01*
X16679786Y-11556357D01*
X16694071Y-11527786D01*
X16708357Y-11484929D01*
X16722643Y-11413500D01*
X16722643Y-11356357D01*
X16708357Y-11284929D01*
X16694071Y-11242071D01*
X16679786Y-11213500D01*
X16651214Y-11170643D01*
X16636928Y-11156357D01*
X6490500Y-11399500D02*
X6490500Y-12119500D01*
X6130500Y-11759500D02*
X6850500Y-11759500D01*
X7108357Y-11595214D02*
X7308357Y-11595214D01*
X7179786Y-11895214D01*
X7422643Y-11866643D02*
X7436928Y-11880929D01*
X7422643Y-11895214D01*
X7408357Y-11880929D01*
X7422643Y-11866643D01*
X7422643Y-11895214D01*
X7551214Y-11623786D02*
X7565500Y-11609500D01*
X7594071Y-11595214D01*
X7665500Y-11595214D01*
X7694071Y-11609500D01*
X7708357Y-11623786D01*
X7722643Y-11652357D01*
X7722643Y-11680929D01*
X7708357Y-11723786D01*
X7536928Y-11895214D01*
X7722643Y-11895214D01*
X7908357Y-11595214D02*
X7936928Y-11595214D01*
X7965500Y-11609500D01*
X7979786Y-11623786D01*
X7994071Y-11652357D01*
X8008357Y-11709500D01*
X8008357Y-11780929D01*
X7994071Y-11838071D01*
X7979786Y-11866643D01*
X7965500Y-11880929D01*
X7936928Y-11895214D01*
X7908357Y-11895214D01*
X7879786Y-11880929D01*
X7865500Y-11866643D01*
X7851214Y-11838071D01*
X7836928Y-11780929D01*
X7836928Y-11709500D01*
X7851214Y-11652357D01*
X7865500Y-11623786D01*
X7879786Y-11609500D01*
X7908357Y-11595214D01*
X8194071Y-11595214D02*
X8222643Y-11595214D01*
X8251214Y-11609500D01*
X8265500Y-11623786D01*
X8279786Y-11652357D01*
X8294071Y-11709500D01*
X8294071Y-11780929D01*
X8279786Y-11838071D01*
X8265500Y-11866643D01*
X8251214Y-11880929D01*
X8222643Y-11895214D01*
X8194071Y-11895214D01*
X8165500Y-11880929D01*
X8151214Y-11866643D01*
X8136928Y-11838071D01*
X8122643Y-11780929D01*
X8122643Y-11709500D01*
X8136928Y-11652357D01*
X8151214Y-11623786D01*
X8165500Y-11609500D01*
X8194071Y-11595214D01*
X8422643Y-11895214D02*
X8422643Y-11695214D01*
X8422643Y-11723786D02*
X8436928Y-11709500D01*
X8465500Y-11695214D01*
X8508357Y-11695214D01*
X8536928Y-11709500D01*
X8551214Y-11738071D01*
X8551214Y-11895214D01*
X8551214Y-11738071D02*
X8565500Y-11709500D01*
X8594071Y-11695214D01*
X8636928Y-11695214D01*
X8665500Y-11709500D01*
X8679786Y-11738071D01*
X8679786Y-11895214D01*
X8822643Y-11895214D02*
X8822643Y-11695214D01*
X8822643Y-11723786D02*
X8836928Y-11709500D01*
X8865500Y-11695214D01*
X8908357Y-11695214D01*
X8936928Y-11709500D01*
X8951214Y-11738071D01*
X8951214Y-11895214D01*
X8951214Y-11738071D02*
X8965500Y-11709500D01*
X8994071Y-11695214D01*
X9036928Y-11695214D01*
X9065500Y-11709500D01*
X9079786Y-11738071D01*
X9079786Y-11895214D01*
X9665500Y-11580929D02*
X9408357Y-11966643D01*
X10051214Y-11595214D02*
X10079786Y-11595214D01*
X10108357Y-11609500D01*
X10122643Y-11623786D01*
X10136928Y-11652357D01*
X10151214Y-11709500D01*
X10151214Y-11780929D01*
X10136928Y-11838071D01*
X10122643Y-11866643D01*
X10108357Y-11880929D01*
X10079786Y-11895214D01*
X10051214Y-11895214D01*
X10022643Y-11880929D01*
X10008357Y-11866643D01*
X9994071Y-11838071D01*
X9979786Y-11780929D01*
X9979786Y-11709500D01*
X9994071Y-11652357D01*
X10008357Y-11623786D01*
X10022643Y-11609500D01*
X10051214Y-11595214D01*
X10279786Y-11866643D02*
X10294071Y-11880929D01*
X10279786Y-11895214D01*
X10265500Y-11880929D01*
X10279786Y-11866643D01*
X10279786Y-11895214D01*
X10408357Y-11623786D02*
X10422643Y-11609500D01*
X10451214Y-11595214D01*
X10522643Y-11595214D01*
X10551214Y-11609500D01*
X10565500Y-11623786D01*
X10579786Y-11652357D01*
X10579786Y-11680929D01*
X10565500Y-11723786D01*
X10394071Y-11895214D01*
X10579786Y-11895214D01*
X10751214Y-11723786D02*
X10722643Y-11709500D01*
X10708357Y-11695214D01*
X10694071Y-11666643D01*
X10694071Y-11652357D01*
X10708357Y-11623786D01*
X10722643Y-11609500D01*
X10751214Y-11595214D01*
X10808357Y-11595214D01*
X10836928Y-11609500D01*
X10851214Y-11623786D01*
X10865500Y-11652357D01*
X10865500Y-11666643D01*
X10851214Y-11695214D01*
X10836928Y-11709500D01*
X10808357Y-11723786D01*
X10751214Y-11723786D01*
X10722643Y-11738071D01*
X10708357Y-11752357D01*
X10694071Y-11780929D01*
X10694071Y-11838071D01*
X10708357Y-11866643D01*
X10722643Y-11880929D01*
X10751214Y-11895214D01*
X10808357Y-11895214D01*
X10836928Y-11880929D01*
X10851214Y-11866643D01*
X10865500Y-11838071D01*
X10865500Y-11780929D01*
X10851214Y-11752357D01*
X10836928Y-11738071D01*
X10808357Y-11723786D01*
X10965500Y-11595214D02*
X11151214Y-11595214D01*
X11051214Y-11709500D01*
X11094071Y-11709500D01*
X11122643Y-11723786D01*
X11136928Y-11738071D01*
X11151214Y-11766643D01*
X11151214Y-11838071D01*
X11136928Y-11866643D01*
X11122643Y-11880929D01*
X11094071Y-11895214D01*
X11008357Y-11895214D01*
X10979786Y-11880929D01*
X10965500Y-11866643D01*
X11422643Y-11595214D02*
X11279786Y-11595214D01*
X11265500Y-11738071D01*
X11279786Y-11723786D01*
X11308357Y-11709500D01*
X11379786Y-11709500D01*
X11408357Y-11723786D01*
X11422643Y-11738071D01*
X11436928Y-11766643D01*
X11436928Y-11838071D01*
X11422643Y-11866643D01*
X11408357Y-11880929D01*
X11379786Y-11895214D01*
X11308357Y-11895214D01*
X11279786Y-11880929D01*
X11265500Y-11866643D01*
X11551214Y-11595214D02*
X11551214Y-11652357D01*
X11665500Y-11595214D02*
X11665500Y-11652357D01*
X12108357Y-12009500D02*
X12094071Y-11995214D01*
X12065500Y-11952357D01*
X12051214Y-11923786D01*
X12036928Y-11880929D01*
X12022643Y-11809500D01*
X12022643Y-11752357D01*
X12036928Y-11680929D01*
X12051214Y-11638071D01*
X12065500Y-11609500D01*
X12094071Y-11566643D01*
X12108357Y-11552357D01*
X12379786Y-11895214D02*
X12208357Y-11895214D01*
X12294071Y-11895214D02*
X12294071Y-11595214D01*
X12265500Y-11638071D01*
X12236928Y-11666643D01*
X12208357Y-11680929D01*
X12736928Y-11895214D02*
X12736928Y-11595214D01*
X12865500Y-11895214D02*
X12865500Y-11738071D01*
X12851214Y-11709500D01*
X12822643Y-11695214D01*
X12779786Y-11695214D01*
X12751214Y-11709500D01*
X12736928Y-11723786D01*
X13051214Y-11895214D02*
X13022643Y-11880929D01*
X13008357Y-11866643D01*
X12994071Y-11838071D01*
X12994071Y-11752357D01*
X13008357Y-11723786D01*
X13022643Y-11709500D01*
X13051214Y-11695214D01*
X13094071Y-11695214D01*
X13122643Y-11709500D01*
X13136928Y-11723786D01*
X13151214Y-11752357D01*
X13151214Y-11838071D01*
X13136928Y-11866643D01*
X13122643Y-11880929D01*
X13094071Y-11895214D01*
X13051214Y-11895214D01*
X13322643Y-11895214D02*
X13294071Y-11880929D01*
X13279786Y-11852357D01*
X13279786Y-11595214D01*
X13551214Y-11880929D02*
X13522643Y-11895214D01*
X13465500Y-11895214D01*
X13436928Y-11880929D01*
X13422643Y-11852357D01*
X13422643Y-11738071D01*
X13436928Y-11709500D01*
X13465500Y-11695214D01*
X13522643Y-11695214D01*
X13551214Y-11709500D01*
X13565500Y-11738071D01*
X13565500Y-11766643D01*
X13422643Y-11795214D01*
X13665500Y-12009500D02*
X13679786Y-11995214D01*
X13708357Y-11952357D01*
X13722643Y-11923786D01*
X13736928Y-11880929D01*
X13751214Y-11809500D01*
X13751214Y-11752357D01*
X13736928Y-11680929D01*
X13722643Y-11638071D01*
X13708357Y-11609500D01*
X13679786Y-11566643D01*
X13665500Y-11552357D01*
X14208357Y-12009500D02*
X14194071Y-11995214D01*
X14165500Y-11952357D01*
X14151214Y-11923786D01*
X14136928Y-11880929D01*
X14122643Y-11809500D01*
X14122643Y-11752357D01*
X14136928Y-11680929D01*
X14151214Y-11638071D01*
X14165500Y-11609500D01*
X14194071Y-11566643D01*
X14208357Y-11552357D01*
X14322643Y-11695214D02*
X14322643Y-11895214D01*
X14322643Y-11723786D02*
X14336928Y-11709500D01*
X14365500Y-11695214D01*
X14408357Y-11695214D01*
X14436928Y-11709500D01*
X14451214Y-11738071D01*
X14451214Y-11895214D01*
X14636928Y-11895214D02*
X14608357Y-11880929D01*
X14594071Y-11866643D01*
X14579786Y-11838071D01*
X14579786Y-11752357D01*
X14594071Y-11723786D01*
X14608357Y-11709500D01*
X14636928Y-11695214D01*
X14679786Y-11695214D01*
X14708357Y-11709500D01*
X14722643Y-11723786D01*
X14736928Y-11752357D01*
X14736928Y-11838071D01*
X14722643Y-11866643D01*
X14708357Y-11880929D01*
X14679786Y-11895214D01*
X14636928Y-11895214D01*
X14822643Y-11695214D02*
X14936928Y-11695214D01*
X14865500Y-11595214D02*
X14865500Y-11852357D01*
X14879786Y-11880929D01*
X14908357Y-11895214D01*
X14936928Y-11895214D01*
X15265500Y-11695214D02*
X15265500Y-11995214D01*
X15265500Y-11709500D02*
X15294071Y-11695214D01*
X15351214Y-11695214D01*
X15379786Y-11709500D01*
X15394071Y-11723786D01*
X15408357Y-11752357D01*
X15408357Y-11838071D01*
X15394071Y-11866643D01*
X15379786Y-11880929D01*
X15351214Y-11895214D01*
X15294071Y-11895214D01*
X15265500Y-11880929D01*
X15579786Y-11895214D02*
X15551214Y-11880929D01*
X15536928Y-11852357D01*
X15536928Y-11595214D01*
X15822643Y-11895214D02*
X15822643Y-11738071D01*
X15808357Y-11709500D01*
X15779786Y-11695214D01*
X15722643Y-11695214D01*
X15694071Y-11709500D01*
X15822643Y-11880929D02*
X15794071Y-11895214D01*
X15722643Y-11895214D01*
X15694071Y-11880929D01*
X15679786Y-11852357D01*
X15679786Y-11823786D01*
X15694071Y-11795214D01*
X15722643Y-11780929D01*
X15794071Y-11780929D01*
X15822643Y-11766643D01*
X15922643Y-11695214D02*
X16036928Y-11695214D01*
X15965500Y-11595214D02*
X15965500Y-11852357D01*
X15979786Y-11880929D01*
X16008357Y-11895214D01*
X16036928Y-11895214D01*
X16251214Y-11880929D02*
X16222643Y-11895214D01*
X16165500Y-11895214D01*
X16136928Y-11880929D01*
X16122643Y-11852357D01*
X16122643Y-11738071D01*
X16136928Y-11709500D01*
X16165500Y-11695214D01*
X16222643Y-11695214D01*
X16251214Y-11709500D01*
X16265500Y-11738071D01*
X16265500Y-11766643D01*
X16122643Y-11795214D01*
X16522643Y-11895214D02*
X16522643Y-11595214D01*
X16522643Y-11880929D02*
X16494071Y-11895214D01*
X16436928Y-11895214D01*
X16408357Y-11880929D01*
X16394071Y-11866643D01*
X16379786Y-11838071D01*
X16379786Y-11752357D01*
X16394071Y-11723786D01*
X16408357Y-11709500D01*
X16436928Y-11695214D01*
X16494071Y-11695214D01*
X16522643Y-11709500D01*
X16636928Y-12009500D02*
X16651214Y-11995214D01*
X16679786Y-11952357D01*
X16694071Y-11923786D01*
X16708357Y-11880929D01*
X16722643Y-11809500D01*
X16722643Y-11752357D01*
X16708357Y-11680929D01*
X16694071Y-11638071D01*
X16679786Y-11609500D01*
X16651214Y-11566643D01*
X16636928Y-11552357D01*
M02*
