%FSLAX45Y45*%
G04 Gerber Fmt 4.5, Leading zero omitted, Abs format (unit mm)*
G04 Created by KiCad (PCBNEW (5.1.12)-1) date 2023-02-12 18:55:20*
%MOMM*%
%LPD*%
G01*
G04 APERTURE LIST*
%TA.AperFunction,Profile*%
%ADD10C,0.150000*%
%TD*%
%ADD11C,0.200000*%
%ADD12C,0.300000*%
G04 APERTURE END LIST*
D10*
X12090400Y-4292600D02*
X12570000Y-4292600D01*
X12090400Y-3429000D02*
X12090400Y-4292600D01*
X12573000Y-3429000D02*
X12090400Y-3429000D01*
X12573000Y-3429000D02*
X12573000Y-2717800D01*
X7366000Y203200D02*
X6858000Y-254000D01*
X12700000Y203200D02*
X7366000Y203200D01*
X6858000Y-2844800D02*
X7430000Y-2844800D01*
X6858000Y-2463800D02*
X6858000Y-2844800D01*
X6858000Y-254000D02*
X6858000Y-2463800D01*
X13208000Y-254000D02*
X12700000Y203200D01*
X13208000Y-2463800D02*
X13208000Y-254000D01*
X12573000Y-2717800D02*
X13208000Y-2463800D01*
X7430000Y-9140000D02*
X7430000Y-2844800D01*
X7540000Y-9140000D02*
X7430000Y-9140000D01*
X7540000Y-10000000D02*
X7540000Y-9140000D01*
X12570000Y-9140000D02*
X12570000Y-4292600D01*
X12460000Y-9140000D02*
X12570000Y-9140000D01*
X12460000Y-10000000D02*
X12460000Y-9140000D01*
X7540000Y-10000000D02*
X12460000Y-10000000D01*
D11*
X7810000Y-9240000D02*
X7850000Y-9280000D01*
X7850000Y-9240000D02*
X7810000Y-9280000D01*
X7854000Y-2647000D02*
X7894000Y-2687000D01*
X7894000Y-2647000D02*
X7854000Y-2687000D01*
X7917360Y-2913840D02*
X7957360Y-2953840D01*
X7957360Y-2913840D02*
X7917360Y-2953840D01*
X7930200Y-3078800D02*
X7970200Y-3118800D01*
X7970200Y-3078800D02*
X7930200Y-3118800D01*
X7930200Y-3256600D02*
X7970200Y-3296600D01*
X7970200Y-3256600D02*
X7930200Y-3296600D01*
X7930200Y-3434400D02*
X7970200Y-3474400D01*
X7970200Y-3434400D02*
X7930200Y-3474400D01*
X7960000Y-9240000D02*
X8000000Y-9280000D01*
X8000000Y-9240000D02*
X7960000Y-9280000D01*
X7981000Y-2647000D02*
X8021000Y-2687000D01*
X8021000Y-2647000D02*
X7981000Y-2687000D01*
X8075000Y-5458200D02*
X8115000Y-5498200D01*
X8115000Y-5458200D02*
X8075000Y-5498200D01*
X8110000Y-9240000D02*
X8150000Y-9280000D01*
X8150000Y-9240000D02*
X8110000Y-9280000D01*
X8158800Y-2647000D02*
X8198800Y-2687000D01*
X8198800Y-2647000D02*
X8158800Y-2687000D01*
X8260000Y-9240000D02*
X8300000Y-9280000D01*
X8300000Y-9240000D02*
X8260000Y-9280000D01*
X8311200Y-2647000D02*
X8351200Y-2687000D01*
X8351200Y-2647000D02*
X8311200Y-2687000D01*
X8329000Y-5462200D02*
X8369000Y-5502200D01*
X8369000Y-5462200D02*
X8329000Y-5502200D01*
X8410000Y-6393200D02*
X8450000Y-6433200D01*
X8450000Y-6393200D02*
X8410000Y-6433200D01*
X8410000Y-9240000D02*
X8450000Y-9280000D01*
X8450000Y-9240000D02*
X8410000Y-9280000D01*
X8412800Y-3090399D02*
X8452800Y-3130399D01*
X8452800Y-3090399D02*
X8412800Y-3130399D01*
X8417575Y-3309601D02*
X8457575Y-3349601D01*
X8457575Y-3309601D02*
X8417575Y-3349601D01*
X8430000Y-6240000D02*
X8470000Y-6280000D01*
X8470000Y-6240000D02*
X8430000Y-6280000D01*
X8438200Y-2647000D02*
X8478200Y-2687000D01*
X8478200Y-2647000D02*
X8438200Y-2687000D01*
X8438200Y-5783900D02*
X8478200Y-5823900D01*
X8478200Y-5783900D02*
X8438200Y-5823900D01*
X8438200Y-5974400D02*
X8478200Y-6014400D01*
X8478200Y-5974400D02*
X8438200Y-6014400D01*
X8515081Y-3389601D02*
X8555081Y-3429601D01*
X8555081Y-3389601D02*
X8515081Y-3429601D01*
X8539800Y-3090399D02*
X8579800Y-3130399D01*
X8579800Y-3090399D02*
X8539800Y-3130399D01*
X8550000Y-9240000D02*
X8590000Y-9280000D01*
X8590000Y-9240000D02*
X8550000Y-9280000D01*
X8590600Y-2647000D02*
X8630600Y-2687000D01*
X8630600Y-2647000D02*
X8590600Y-2687000D01*
X8590600Y-4780600D02*
X8630600Y-4820600D01*
X8630600Y-4780600D02*
X8590600Y-4820600D01*
X8628700Y-3485200D02*
X8668700Y-3525200D01*
X8668700Y-3485200D02*
X8628700Y-3525200D01*
X8641400Y-3090399D02*
X8681400Y-3130399D01*
X8681400Y-3090399D02*
X8641400Y-3130399D01*
X8705000Y-9240000D02*
X8745000Y-9280000D01*
X8745000Y-9240000D02*
X8705000Y-9280000D01*
X8717600Y-3586800D02*
X8757600Y-3626800D01*
X8757600Y-3586800D02*
X8717600Y-3626800D01*
X8720000Y-5413200D02*
X8760000Y-5453200D01*
X8760000Y-5413200D02*
X8720000Y-5453200D01*
X8743000Y-2647000D02*
X8783000Y-2687000D01*
X8783000Y-2647000D02*
X8743000Y-2687000D01*
X8743000Y-3090399D02*
X8783000Y-3130399D01*
X8783000Y-3090399D02*
X8743000Y-3130399D01*
X8819200Y-3688400D02*
X8859200Y-3728400D01*
X8859200Y-3688400D02*
X8819200Y-3728400D01*
X8819200Y-4780600D02*
X8859200Y-4820600D01*
X8859200Y-4780600D02*
X8819200Y-4820600D01*
X8860000Y-9240000D02*
X8900000Y-9280000D01*
X8900000Y-9240000D02*
X8860000Y-9280000D01*
X8870000Y-3090399D02*
X8910000Y-3130399D01*
X8910000Y-3090399D02*
X8870000Y-3130399D01*
X8895400Y-2647000D02*
X8935400Y-2687000D01*
X8935400Y-2647000D02*
X8895400Y-2687000D01*
X8920800Y-3790000D02*
X8960800Y-3830000D01*
X8960800Y-3790000D02*
X8920800Y-3830000D01*
X8946200Y-4780600D02*
X8986200Y-4820600D01*
X8986200Y-4780600D02*
X8946200Y-4820600D01*
X8971600Y-3090399D02*
X9011600Y-3130399D01*
X9011600Y-3090399D02*
X8971600Y-3130399D01*
X9000000Y-9240000D02*
X9040000Y-9280000D01*
X9040000Y-9240000D02*
X9000000Y-9280000D01*
X9000801Y-3900499D02*
X9040801Y-3940499D01*
X9040801Y-3900499D02*
X9000801Y-3940499D01*
X9047800Y-2647000D02*
X9087800Y-2687000D01*
X9087800Y-2647000D02*
X9047800Y-2687000D01*
X9073200Y-3090399D02*
X9113200Y-3130399D01*
X9113200Y-3090399D02*
X9073200Y-3130399D01*
X9091000Y-4775501D02*
X9131000Y-4815501D01*
X9131000Y-4775501D02*
X9091000Y-4815501D01*
X9094090Y-5703190D02*
X9134090Y-5743190D01*
X9134090Y-5703190D02*
X9094090Y-5743190D01*
X9098600Y-4005900D02*
X9138600Y-4045900D01*
X9138600Y-4005900D02*
X9098600Y-4045900D01*
X9160000Y-9240000D02*
X9200000Y-9280000D01*
X9200000Y-9240000D02*
X9160000Y-9280000D01*
X9174800Y-3090399D02*
X9214800Y-3130399D01*
X9214800Y-3090399D02*
X9174800Y-3130399D01*
X9187500Y-4107500D02*
X9227500Y-4147500D01*
X9227500Y-4107500D02*
X9187500Y-4147500D01*
X9200200Y-2647000D02*
X9240200Y-2687000D01*
X9240200Y-2647000D02*
X9200200Y-2687000D01*
X9310000Y-9240000D02*
X9350000Y-9280000D01*
X9350000Y-9240000D02*
X9310000Y-9280000D01*
X9327200Y-3090399D02*
X9367200Y-3130399D01*
X9367200Y-3090399D02*
X9327200Y-3130399D01*
X9352600Y-2012000D02*
X9392600Y-2052000D01*
X9392600Y-2012000D02*
X9352600Y-2052000D01*
X9377652Y-4760000D02*
X9417652Y-4800000D01*
X9417652Y-4760000D02*
X9377652Y-4800000D01*
X9450000Y-9240000D02*
X9490000Y-9280000D01*
X9490000Y-9240000D02*
X9450000Y-9280000D01*
X9451174Y-2664330D02*
X9491174Y-2704330D01*
X9491174Y-2664330D02*
X9451174Y-2704330D01*
X9453979Y-2777398D02*
X9493979Y-2817398D01*
X9493979Y-2777398D02*
X9453979Y-2817398D01*
X9459882Y-2992513D02*
X9499882Y-3032513D01*
X9499882Y-2992513D02*
X9459882Y-3032513D01*
X9470207Y-2888451D02*
X9510207Y-2928451D01*
X9510207Y-2888451D02*
X9470207Y-2928451D01*
X9479600Y-4780600D02*
X9519600Y-4820600D01*
X9519600Y-4780600D02*
X9479600Y-4820600D01*
X9505140Y-2012140D02*
X9545140Y-2052140D01*
X9545140Y-2012140D02*
X9505140Y-2052140D01*
X9530401Y-7371400D02*
X9570401Y-7411400D01*
X9570401Y-7371400D02*
X9530401Y-7411400D01*
X9600000Y-9240000D02*
X9640000Y-9280000D01*
X9640000Y-9240000D02*
X9600000Y-9280000D01*
X9608492Y-4750420D02*
X9648492Y-4790420D01*
X9648492Y-4750420D02*
X9608492Y-4790420D01*
X9632000Y-7117400D02*
X9672000Y-7157400D01*
X9672000Y-7117400D02*
X9632000Y-7157400D01*
X9632000Y-7117400D02*
X9672000Y-7157400D01*
X9672000Y-7117400D02*
X9632000Y-7157400D01*
X9632000Y-7930200D02*
X9672000Y-7970200D01*
X9672000Y-7930200D02*
X9632000Y-7970200D01*
X9657400Y-2012000D02*
X9697400Y-2052000D01*
X9697400Y-2012000D02*
X9657400Y-2052000D01*
X9657401Y-310200D02*
X9697401Y-350200D01*
X9697401Y-310200D02*
X9657401Y-350200D01*
X9733600Y-4780600D02*
X9773600Y-4820600D01*
X9773600Y-4780600D02*
X9733600Y-4820600D01*
X9733600Y-7219000D02*
X9773600Y-7259000D01*
X9773600Y-7219000D02*
X9733600Y-7259000D01*
X9733600Y-7523800D02*
X9773600Y-7563800D01*
X9773600Y-7523800D02*
X9733600Y-7563800D01*
X9733600Y-7676200D02*
X9773600Y-7716200D01*
X9773600Y-7676200D02*
X9733600Y-7716200D01*
X9750000Y-9240000D02*
X9790000Y-9280000D01*
X9790000Y-9240000D02*
X9750000Y-9280000D01*
X9759000Y-56200D02*
X9799000Y-96200D01*
X9799000Y-56200D02*
X9759000Y-96200D01*
X9759000Y-56200D02*
X9799000Y-96200D01*
X9799000Y-56200D02*
X9759000Y-96200D01*
X9759000Y-869000D02*
X9799000Y-909000D01*
X9799000Y-869000D02*
X9759000Y-909000D01*
X9784400Y-2012000D02*
X9824400Y-2052000D01*
X9824400Y-2012000D02*
X9784400Y-2052000D01*
X9784400Y-7625400D02*
X9824400Y-7665400D01*
X9824400Y-7625400D02*
X9784400Y-7665400D01*
X9784400Y-7727000D02*
X9824400Y-7767000D01*
X9824400Y-7727000D02*
X9784400Y-7767000D01*
X9835200Y-7676200D02*
X9875200Y-7716200D01*
X9875200Y-7676200D02*
X9835200Y-7716200D01*
X9847900Y-4767900D02*
X9887900Y-4807900D01*
X9887900Y-4767900D02*
X9847900Y-4807900D01*
X9860600Y-157800D02*
X9900600Y-197800D01*
X9900600Y-157800D02*
X9860600Y-197800D01*
X9860600Y-462600D02*
X9900600Y-502600D01*
X9900600Y-462600D02*
X9860600Y-502600D01*
X9860600Y-615000D02*
X9900600Y-655000D01*
X9900600Y-615000D02*
X9860600Y-655000D01*
X9860600Y-7828600D02*
X9900600Y-7868600D01*
X9900600Y-7828600D02*
X9860600Y-7868600D01*
X9910000Y-9240000D02*
X9950000Y-9280000D01*
X9950000Y-9240000D02*
X9910000Y-9280000D01*
X9911400Y-564200D02*
X9951400Y-604200D01*
X9951400Y-564200D02*
X9911400Y-604200D01*
X9911400Y-665800D02*
X9951400Y-705800D01*
X9951400Y-665800D02*
X9911400Y-705800D01*
X9936800Y-2012000D02*
X9976800Y-2052000D01*
X9976800Y-2012000D02*
X9936800Y-2052000D01*
X9936800Y-7371400D02*
X9976800Y-7411400D01*
X9976800Y-7371400D02*
X9936800Y-7411400D01*
X9962200Y-615000D02*
X10002200Y-655000D01*
X10002200Y-615000D02*
X9962200Y-655000D01*
X9962200Y-4780600D02*
X10002200Y-4820600D01*
X10002200Y-4780600D02*
X9962200Y-4820600D01*
X9987600Y-767400D02*
X10027600Y-807400D01*
X10027600Y-767400D02*
X9987600Y-807400D01*
X9987600Y-7828600D02*
X10027600Y-7868600D01*
X10027600Y-7828600D02*
X9987600Y-7868600D01*
X10038400Y-7676200D02*
X10078400Y-7716200D01*
X10078400Y-7676200D02*
X10038400Y-7716200D01*
X10060000Y-9240000D02*
X10100000Y-9280000D01*
X10100000Y-9240000D02*
X10060000Y-9280000D01*
X10063800Y-310200D02*
X10103800Y-350200D01*
X10103800Y-310200D02*
X10063800Y-350200D01*
X10063800Y-4780600D02*
X10103800Y-4820600D01*
X10103800Y-4780600D02*
X10063800Y-4820600D01*
X10089200Y-2012000D02*
X10129200Y-2052000D01*
X10129200Y-2012000D02*
X10089200Y-2052000D01*
X10089200Y-7219000D02*
X10129200Y-7259000D01*
X10129200Y-7219000D02*
X10089200Y-7259000D01*
X10089200Y-7523800D02*
X10129200Y-7563800D01*
X10129200Y-7523800D02*
X10089200Y-7563800D01*
X10089200Y-7625400D02*
X10129200Y-7665400D01*
X10129200Y-7625400D02*
X10089200Y-7665400D01*
X10089200Y-7930200D02*
X10129200Y-7970200D01*
X10129200Y-7930200D02*
X10089200Y-7970200D01*
X10114600Y-767400D02*
X10154600Y-807400D01*
X10154600Y-767400D02*
X10114600Y-807400D01*
X10135616Y-5691522D02*
X10175616Y-5731522D01*
X10175616Y-5691522D02*
X10135616Y-5731522D01*
X10140000Y-7879400D02*
X10180000Y-7919400D01*
X10180000Y-7879400D02*
X10140000Y-7919400D01*
X10165400Y-615000D02*
X10205400Y-655000D01*
X10205400Y-615000D02*
X10165400Y-655000D01*
X10171176Y-5598057D02*
X10211176Y-5638057D01*
X10211176Y-5598057D02*
X10171176Y-5638057D01*
X10190800Y-7117400D02*
X10230800Y-7157400D01*
X10230800Y-7117400D02*
X10190800Y-7157400D01*
X10190800Y-7828600D02*
X10230800Y-7868600D01*
X10230800Y-7828600D02*
X10190800Y-7868600D01*
X10210000Y-9240000D02*
X10250000Y-9280000D01*
X10250000Y-9240000D02*
X10210000Y-9280000D01*
X10216200Y-157800D02*
X10256200Y-197800D01*
X10256200Y-157800D02*
X10216200Y-197800D01*
X10216200Y-462600D02*
X10256200Y-502600D01*
X10256200Y-462600D02*
X10216200Y-502600D01*
X10216200Y-564200D02*
X10256200Y-604200D01*
X10256200Y-564200D02*
X10216200Y-604200D01*
X10216200Y-869000D02*
X10256200Y-909000D01*
X10256200Y-869000D02*
X10216200Y-909000D01*
X10216200Y-4780600D02*
X10256200Y-4820600D01*
X10256200Y-4780600D02*
X10216200Y-4820600D01*
X10241600Y-2012000D02*
X10281600Y-2052000D01*
X10281600Y-2012000D02*
X10241600Y-2052000D01*
X10267000Y-818200D02*
X10307000Y-858200D01*
X10307000Y-818200D02*
X10267000Y-858200D01*
X10292402Y-7371400D02*
X10332402Y-7411400D01*
X10332402Y-7371400D02*
X10292402Y-7411400D01*
X10310100Y-5280900D02*
X10350100Y-5320900D01*
X10350100Y-5280900D02*
X10310100Y-5320900D01*
X10317800Y-56200D02*
X10357800Y-96200D01*
X10357800Y-56200D02*
X10317800Y-96200D01*
X10317800Y-767400D02*
X10357800Y-807400D01*
X10357800Y-767400D02*
X10317800Y-807400D01*
X10360000Y-9240000D02*
X10400000Y-9280000D01*
X10400000Y-9240000D02*
X10360000Y-9280000D01*
X10381160Y-4082240D02*
X10421160Y-4122240D01*
X10421160Y-4082240D02*
X10381160Y-4122240D01*
X10390000Y-5660000D02*
X10430000Y-5700000D01*
X10430000Y-5660000D02*
X10390000Y-5700000D01*
X10394000Y-2012000D02*
X10434000Y-2052000D01*
X10434000Y-2012000D02*
X10394000Y-2052000D01*
X10419400Y-3815681D02*
X10459400Y-3855681D01*
X10459400Y-3815681D02*
X10419400Y-3855681D01*
X10419400Y-6164900D02*
X10459400Y-6204900D01*
X10459400Y-6164900D02*
X10419400Y-6204900D01*
X10419402Y-310200D02*
X10459402Y-350200D01*
X10459402Y-310200D02*
X10419402Y-350200D01*
X10420000Y-5560000D02*
X10460000Y-5600000D01*
X10460000Y-5560000D02*
X10420000Y-5600000D01*
X10444800Y-3332800D02*
X10484800Y-3372800D01*
X10484800Y-3332800D02*
X10444800Y-3372800D01*
X10444800Y-3028000D02*
X10484800Y-3068000D01*
X10484800Y-3028000D02*
X10444800Y-3068000D01*
X10495409Y-3614401D02*
X10535409Y-3654401D01*
X10535409Y-3614401D02*
X10495409Y-3654401D01*
X10495600Y-3118001D02*
X10535600Y-3158001D01*
X10535600Y-3118001D02*
X10495600Y-3158001D01*
X10495600Y-3434400D02*
X10535600Y-3474400D01*
X10535600Y-3434400D02*
X10495600Y-3474400D01*
X10510000Y-9240000D02*
X10550000Y-9280000D01*
X10550000Y-9240000D02*
X10510000Y-9280000D01*
X10514650Y-6228400D02*
X10554650Y-6268400D01*
X10554650Y-6228400D02*
X10514650Y-6268400D01*
X10571660Y-4272740D02*
X10611660Y-4312740D01*
X10611660Y-4272740D02*
X10571660Y-4312740D01*
X10597200Y-6291900D02*
X10637200Y-6331900D01*
X10637200Y-6291900D02*
X10597200Y-6331900D01*
X10610000Y-5260000D02*
X10650000Y-5300000D01*
X10650000Y-5260000D02*
X10610000Y-5300000D01*
X10660000Y-9240000D02*
X10700000Y-9280000D01*
X10700000Y-9240000D02*
X10660000Y-9280000D01*
X10686100Y-6361750D02*
X10726100Y-6401750D01*
X10726100Y-6361750D02*
X10686100Y-6401750D01*
X10759060Y-4161540D02*
X10799060Y-4201541D01*
X10799060Y-4161540D02*
X10759060Y-4201541D01*
X10776101Y-6418900D02*
X10816101Y-6458900D01*
X10816101Y-6418900D02*
X10776101Y-6458900D01*
X10805000Y-9240000D02*
X10845000Y-9280000D01*
X10845000Y-9240000D02*
X10805000Y-9280000D01*
X10870000Y-5260000D02*
X10910000Y-5300000D01*
X10910000Y-5260000D02*
X10870000Y-5300000D01*
X10880261Y-6478079D02*
X10920261Y-6518079D01*
X10920261Y-6478079D02*
X10880261Y-6518079D01*
X10952800Y-4094800D02*
X10992800Y-4134800D01*
X10992800Y-4094800D02*
X10952800Y-4134800D01*
X10955000Y-9240000D02*
X10995000Y-9280000D01*
X10995000Y-9240000D02*
X10955000Y-9280000D01*
X11105000Y-9240000D02*
X11145000Y-9280000D01*
X11145000Y-9240000D02*
X11105000Y-9280000D01*
X11120000Y-5260000D02*
X11160000Y-5300000D01*
X11160000Y-5260000D02*
X11120000Y-5300000D01*
X11130600Y-3866200D02*
X11170600Y-3906200D01*
X11170600Y-3866200D02*
X11130600Y-3906200D01*
X11232200Y-3764600D02*
X11272200Y-3804600D01*
X11272200Y-3764600D02*
X11232200Y-3804600D01*
X11255000Y-9240000D02*
X11295000Y-9280000D01*
X11295000Y-9240000D02*
X11255000Y-9280000D01*
X11322201Y-3409000D02*
X11362201Y-3449000D01*
X11362201Y-3409000D02*
X11322201Y-3449000D01*
X11359200Y-3129600D02*
X11399200Y-3169600D01*
X11399200Y-3129600D02*
X11359200Y-3169600D01*
X11380000Y-5260000D02*
X11420000Y-5300000D01*
X11420000Y-5260000D02*
X11380000Y-5300000D01*
X11405000Y-9240000D02*
X11445000Y-9280000D01*
X11445000Y-9240000D02*
X11405000Y-9280000D01*
X11422572Y-3405775D02*
X11462572Y-3445775D01*
X11462572Y-3405775D02*
X11422572Y-3445775D01*
X11460799Y-3028000D02*
X11500799Y-3068000D01*
X11500799Y-3028000D02*
X11460799Y-3068000D01*
X11537000Y-3409003D02*
X11577000Y-3449003D01*
X11577000Y-3409003D02*
X11537000Y-3449003D01*
X11555000Y-9240000D02*
X11595000Y-9280000D01*
X11595000Y-9240000D02*
X11555000Y-9280000D01*
X11562400Y-2836399D02*
X11602400Y-2876399D01*
X11602400Y-2836399D02*
X11562400Y-2876399D01*
X11562442Y-2656398D02*
X11602442Y-2696398D01*
X11602442Y-2656398D02*
X11562442Y-2696398D01*
X11613200Y-2926400D02*
X11653200Y-2966400D01*
X11653200Y-2926400D02*
X11613200Y-2966400D01*
X11630000Y-5260000D02*
X11670000Y-5300000D01*
X11670000Y-5260000D02*
X11630000Y-5300000D01*
X11664000Y-2746398D02*
X11704000Y-2786398D01*
X11704000Y-2746398D02*
X11664000Y-2786398D01*
X11705000Y-9240000D02*
X11745000Y-9280000D01*
X11745000Y-9240000D02*
X11705000Y-9280000D01*
X11791000Y-310200D02*
X11831000Y-350200D01*
X11831000Y-310200D02*
X11791000Y-350200D01*
X11855000Y-9240000D02*
X11895000Y-9280000D01*
X11895000Y-9240000D02*
X11855000Y-9280000D01*
X11880000Y-5260000D02*
X11920000Y-5300000D01*
X11920000Y-5260000D02*
X11880000Y-5300000D01*
X12005000Y-9240000D02*
X12045000Y-9280000D01*
X12045000Y-9240000D02*
X12005000Y-9280000D01*
X12121200Y-2951800D02*
X12161200Y-2991800D01*
X12161200Y-2951800D02*
X12121200Y-2991800D01*
X12155000Y-9240000D02*
X12195000Y-9280000D01*
X12195000Y-9240000D02*
X12155000Y-9280000D01*
X12188452Y-3044558D02*
X12228452Y-3084558D01*
X12228452Y-3044558D02*
X12188452Y-3084558D01*
X12259584Y-3114847D02*
X12299584Y-3154847D01*
X12299584Y-3114847D02*
X12259584Y-3154847D01*
X12320000Y-9240000D02*
X12360000Y-9280000D01*
X12360000Y-9240000D02*
X12320000Y-9280000D01*
X12328446Y-3187361D02*
X12368446Y-3227361D01*
X12368446Y-3187361D02*
X12328446Y-3227361D01*
X12400600Y-3256600D02*
X12440600Y-3296600D01*
X12440600Y-3256600D02*
X12400600Y-3296600D01*
X7484800Y-2105603D02*
G75*
G03*
X7484800Y-2105603I-40000J0D01*
G01*
X12070000Y-5900000D02*
G75*
G03*
X12070000Y-5900000I-40000J0D01*
G01*
X12070000Y-7830000D02*
G75*
G03*
X12070000Y-7830000I-40000J0D01*
G01*
X12070000Y-8610000D02*
G75*
G03*
X12070000Y-8610000I-40000J0D01*
G01*
X12110000Y-6850000D02*
G75*
G03*
X12110000Y-6850000I-40000J0D01*
G01*
X12270000Y-4880000D02*
G75*
G03*
X12270000Y-4880000I-40000J0D01*
G01*
X12340000Y-6320000D02*
G75*
G03*
X12340000Y-6320000I-40000J0D01*
G01*
X12370000Y-5490000D02*
G75*
G03*
X12370000Y-5490000I-40000J0D01*
G01*
X12370000Y-7450000D02*
G75*
G03*
X12370000Y-7450000I-40000J0D01*
G01*
X12380000Y-9020000D02*
G75*
G03*
X12380000Y-9020000I-40000J0D01*
G01*
X12430000Y-8400000D02*
G75*
G03*
X12430000Y-8400000I-40000J0D01*
G01*
D12*
X7136928Y-10473214D02*
X7136928Y-10173214D01*
X7208357Y-10173214D01*
X7251214Y-10187500D01*
X7279786Y-10216072D01*
X7294071Y-10244643D01*
X7308357Y-10301786D01*
X7308357Y-10344643D01*
X7294071Y-10401786D01*
X7279786Y-10430357D01*
X7251214Y-10458929D01*
X7208357Y-10473214D01*
X7136928Y-10473214D01*
X7436928Y-10473214D02*
X7436928Y-10273214D01*
X7436928Y-10330357D02*
X7451214Y-10301786D01*
X7465500Y-10287500D01*
X7494071Y-10273214D01*
X7522643Y-10273214D01*
X7622643Y-10473214D02*
X7622643Y-10273214D01*
X7622643Y-10173214D02*
X7608357Y-10187500D01*
X7622643Y-10201786D01*
X7636928Y-10187500D01*
X7622643Y-10173214D01*
X7622643Y-10201786D01*
X7808357Y-10473214D02*
X7779786Y-10458929D01*
X7765500Y-10430357D01*
X7765500Y-10173214D01*
X7965500Y-10473214D02*
X7936928Y-10458929D01*
X7922643Y-10430357D01*
X7922643Y-10173214D01*
X8308357Y-10473214D02*
X8308357Y-10173214D01*
X8408357Y-10387500D01*
X8508357Y-10173214D01*
X8508357Y-10473214D01*
X8779786Y-10473214D02*
X8779786Y-10316072D01*
X8765500Y-10287500D01*
X8736928Y-10273214D01*
X8679786Y-10273214D01*
X8651214Y-10287500D01*
X8779786Y-10458929D02*
X8751214Y-10473214D01*
X8679786Y-10473214D01*
X8651214Y-10458929D01*
X8636928Y-10430357D01*
X8636928Y-10401786D01*
X8651214Y-10373214D01*
X8679786Y-10358929D01*
X8751214Y-10358929D01*
X8779786Y-10344643D01*
X8922643Y-10273214D02*
X8922643Y-10573214D01*
X8922643Y-10287500D02*
X8951214Y-10273214D01*
X9008357Y-10273214D01*
X9036928Y-10287500D01*
X9051214Y-10301786D01*
X9065500Y-10330357D01*
X9065500Y-10416072D01*
X9051214Y-10444643D01*
X9036928Y-10458929D01*
X9008357Y-10473214D01*
X8951214Y-10473214D01*
X8922643Y-10458929D01*
X9194071Y-10444643D02*
X9208357Y-10458929D01*
X9194071Y-10473214D01*
X9179786Y-10458929D01*
X9194071Y-10444643D01*
X9194071Y-10473214D01*
X9194071Y-10287500D02*
X9208357Y-10301786D01*
X9194071Y-10316072D01*
X9179786Y-10301786D01*
X9194071Y-10287500D01*
X9194071Y-10316072D01*
X6810500Y-10947500D02*
X6850500Y-10987500D01*
X6850500Y-10947500D02*
X6810500Y-10987500D01*
X7194071Y-10803214D02*
X7222643Y-10803214D01*
X7251214Y-10817500D01*
X7265500Y-10831786D01*
X7279786Y-10860357D01*
X7294071Y-10917500D01*
X7294071Y-10988929D01*
X7279786Y-11046072D01*
X7265500Y-11074643D01*
X7251214Y-11088929D01*
X7222643Y-11103214D01*
X7194071Y-11103214D01*
X7165500Y-11088929D01*
X7151214Y-11074643D01*
X7136928Y-11046072D01*
X7122643Y-10988929D01*
X7122643Y-10917500D01*
X7136928Y-10860357D01*
X7151214Y-10831786D01*
X7165500Y-10817500D01*
X7194071Y-10803214D01*
X7422643Y-11074643D02*
X7436928Y-11088929D01*
X7422643Y-11103214D01*
X7408357Y-11088929D01*
X7422643Y-11074643D01*
X7422643Y-11103214D01*
X7694071Y-10903214D02*
X7694071Y-11103214D01*
X7622643Y-10788929D02*
X7551214Y-11003214D01*
X7736928Y-11003214D01*
X7908357Y-10803214D02*
X7936928Y-10803214D01*
X7965500Y-10817500D01*
X7979786Y-10831786D01*
X7994071Y-10860357D01*
X8008357Y-10917500D01*
X8008357Y-10988929D01*
X7994071Y-11046072D01*
X7979786Y-11074643D01*
X7965500Y-11088929D01*
X7936928Y-11103214D01*
X7908357Y-11103214D01*
X7879786Y-11088929D01*
X7865500Y-11074643D01*
X7851214Y-11046072D01*
X7836928Y-10988929D01*
X7836928Y-10917500D01*
X7851214Y-10860357D01*
X7865500Y-10831786D01*
X7879786Y-10817500D01*
X7908357Y-10803214D01*
X8194071Y-10803214D02*
X8222643Y-10803214D01*
X8251214Y-10817500D01*
X8265500Y-10831786D01*
X8279786Y-10860357D01*
X8294071Y-10917500D01*
X8294071Y-10988929D01*
X8279786Y-11046072D01*
X8265500Y-11074643D01*
X8251214Y-11088929D01*
X8222643Y-11103214D01*
X8194071Y-11103214D01*
X8165500Y-11088929D01*
X8151214Y-11074643D01*
X8136928Y-11046072D01*
X8122643Y-10988929D01*
X8122643Y-10917500D01*
X8136928Y-10860357D01*
X8151214Y-10831786D01*
X8165500Y-10817500D01*
X8194071Y-10803214D01*
X8422643Y-11103214D02*
X8422643Y-10903214D01*
X8422643Y-10931786D02*
X8436928Y-10917500D01*
X8465500Y-10903214D01*
X8508357Y-10903214D01*
X8536928Y-10917500D01*
X8551214Y-10946072D01*
X8551214Y-11103214D01*
X8551214Y-10946072D02*
X8565500Y-10917500D01*
X8594071Y-10903214D01*
X8636928Y-10903214D01*
X8665500Y-10917500D01*
X8679786Y-10946072D01*
X8679786Y-11103214D01*
X8822643Y-11103214D02*
X8822643Y-10903214D01*
X8822643Y-10931786D02*
X8836928Y-10917500D01*
X8865500Y-10903214D01*
X8908357Y-10903214D01*
X8936928Y-10917500D01*
X8951214Y-10946072D01*
X8951214Y-11103214D01*
X8951214Y-10946072D02*
X8965500Y-10917500D01*
X8994071Y-10903214D01*
X9036928Y-10903214D01*
X9065500Y-10917500D01*
X9079786Y-10946072D01*
X9079786Y-11103214D01*
X9665500Y-10788929D02*
X9408357Y-11174643D01*
X10051214Y-10803214D02*
X10079786Y-10803214D01*
X10108357Y-10817500D01*
X10122643Y-10831786D01*
X10136928Y-10860357D01*
X10151214Y-10917500D01*
X10151214Y-10988929D01*
X10136928Y-11046072D01*
X10122643Y-11074643D01*
X10108357Y-11088929D01*
X10079786Y-11103214D01*
X10051214Y-11103214D01*
X10022643Y-11088929D01*
X10008357Y-11074643D01*
X9994071Y-11046072D01*
X9979786Y-10988929D01*
X9979786Y-10917500D01*
X9994071Y-10860357D01*
X10008357Y-10831786D01*
X10022643Y-10817500D01*
X10051214Y-10803214D01*
X10279786Y-11074643D02*
X10294071Y-11088929D01*
X10279786Y-11103214D01*
X10265500Y-11088929D01*
X10279786Y-11074643D01*
X10279786Y-11103214D01*
X10479786Y-10803214D02*
X10508357Y-10803214D01*
X10536928Y-10817500D01*
X10551214Y-10831786D01*
X10565500Y-10860357D01*
X10579786Y-10917500D01*
X10579786Y-10988929D01*
X10565500Y-11046072D01*
X10551214Y-11074643D01*
X10536928Y-11088929D01*
X10508357Y-11103214D01*
X10479786Y-11103214D01*
X10451214Y-11088929D01*
X10436928Y-11074643D01*
X10422643Y-11046072D01*
X10408357Y-10988929D01*
X10408357Y-10917500D01*
X10422643Y-10860357D01*
X10436928Y-10831786D01*
X10451214Y-10817500D01*
X10479786Y-10803214D01*
X10865500Y-11103214D02*
X10694071Y-11103214D01*
X10779786Y-11103214D02*
X10779786Y-10803214D01*
X10751214Y-10846072D01*
X10722643Y-10874643D01*
X10694071Y-10888929D01*
X11136928Y-10803214D02*
X10994071Y-10803214D01*
X10979786Y-10946072D01*
X10994071Y-10931786D01*
X11022643Y-10917500D01*
X11094071Y-10917500D01*
X11122643Y-10931786D01*
X11136928Y-10946072D01*
X11151214Y-10974643D01*
X11151214Y-11046072D01*
X11136928Y-11074643D01*
X11122643Y-11088929D01*
X11094071Y-11103214D01*
X11022643Y-11103214D01*
X10994071Y-11088929D01*
X10979786Y-11074643D01*
X11251214Y-10803214D02*
X11451214Y-10803214D01*
X11322643Y-11103214D01*
X11551214Y-10803214D02*
X11551214Y-10860357D01*
X11665500Y-10803214D02*
X11665500Y-10860357D01*
X12108357Y-11217500D02*
X12094071Y-11203214D01*
X12065500Y-11160357D01*
X12051214Y-11131786D01*
X12036928Y-11088929D01*
X12022643Y-11017500D01*
X12022643Y-10960357D01*
X12036928Y-10888929D01*
X12051214Y-10846072D01*
X12065500Y-10817500D01*
X12094071Y-10774643D01*
X12108357Y-10760357D01*
X12379786Y-11103214D02*
X12208357Y-11103214D01*
X12294071Y-11103214D02*
X12294071Y-10803214D01*
X12265500Y-10846072D01*
X12236928Y-10874643D01*
X12208357Y-10888929D01*
X12551214Y-10931786D02*
X12522643Y-10917500D01*
X12508357Y-10903214D01*
X12494071Y-10874643D01*
X12494071Y-10860357D01*
X12508357Y-10831786D01*
X12522643Y-10817500D01*
X12551214Y-10803214D01*
X12608357Y-10803214D01*
X12636928Y-10817500D01*
X12651214Y-10831786D01*
X12665500Y-10860357D01*
X12665500Y-10874643D01*
X12651214Y-10903214D01*
X12636928Y-10917500D01*
X12608357Y-10931786D01*
X12551214Y-10931786D01*
X12522643Y-10946072D01*
X12508357Y-10960357D01*
X12494071Y-10988929D01*
X12494071Y-11046072D01*
X12508357Y-11074643D01*
X12522643Y-11088929D01*
X12551214Y-11103214D01*
X12608357Y-11103214D01*
X12636928Y-11088929D01*
X12651214Y-11074643D01*
X12665500Y-11046072D01*
X12665500Y-10988929D01*
X12651214Y-10960357D01*
X12636928Y-10946072D01*
X12608357Y-10931786D01*
X12765500Y-10803214D02*
X12951214Y-10803214D01*
X12851214Y-10917500D01*
X12894071Y-10917500D01*
X12922643Y-10931786D01*
X12936928Y-10946072D01*
X12951214Y-10974643D01*
X12951214Y-11046072D01*
X12936928Y-11074643D01*
X12922643Y-11088929D01*
X12894071Y-11103214D01*
X12808357Y-11103214D01*
X12779786Y-11088929D01*
X12765500Y-11074643D01*
X13308357Y-11103214D02*
X13308357Y-10803214D01*
X13436928Y-11103214D02*
X13436928Y-10946072D01*
X13422643Y-10917500D01*
X13394071Y-10903214D01*
X13351214Y-10903214D01*
X13322643Y-10917500D01*
X13308357Y-10931786D01*
X13622643Y-11103214D02*
X13594071Y-11088929D01*
X13579786Y-11074643D01*
X13565500Y-11046072D01*
X13565500Y-10960357D01*
X13579786Y-10931786D01*
X13594071Y-10917500D01*
X13622643Y-10903214D01*
X13665500Y-10903214D01*
X13694071Y-10917500D01*
X13708357Y-10931786D01*
X13722643Y-10960357D01*
X13722643Y-11046072D01*
X13708357Y-11074643D01*
X13694071Y-11088929D01*
X13665500Y-11103214D01*
X13622643Y-11103214D01*
X13894071Y-11103214D02*
X13865500Y-11088929D01*
X13851214Y-11060357D01*
X13851214Y-10803214D01*
X14122643Y-11088929D02*
X14094071Y-11103214D01*
X14036928Y-11103214D01*
X14008357Y-11088929D01*
X13994071Y-11060357D01*
X13994071Y-10946072D01*
X14008357Y-10917500D01*
X14036928Y-10903214D01*
X14094071Y-10903214D01*
X14122643Y-10917500D01*
X14136928Y-10946072D01*
X14136928Y-10974643D01*
X13994071Y-11003214D01*
X14251214Y-11088929D02*
X14279786Y-11103214D01*
X14336928Y-11103214D01*
X14365500Y-11088929D01*
X14379786Y-11060357D01*
X14379786Y-11046072D01*
X14365500Y-11017500D01*
X14336928Y-11003214D01*
X14294071Y-11003214D01*
X14265500Y-10988929D01*
X14251214Y-10960357D01*
X14251214Y-10946072D01*
X14265500Y-10917500D01*
X14294071Y-10903214D01*
X14336928Y-10903214D01*
X14365500Y-10917500D01*
X14479786Y-11217500D02*
X14494071Y-11203214D01*
X14522643Y-11160357D01*
X14536928Y-11131786D01*
X14551214Y-11088929D01*
X14565500Y-11017500D01*
X14565500Y-10960357D01*
X14551214Y-10888929D01*
X14536928Y-10846072D01*
X14522643Y-10817500D01*
X14494071Y-10774643D01*
X14479786Y-10760357D01*
X6850500Y-11363500D02*
G75*
G03*
X6850500Y-11363500I-40000J0D01*
G01*
X7194071Y-11199214D02*
X7222643Y-11199214D01*
X7251214Y-11213500D01*
X7265500Y-11227786D01*
X7279786Y-11256357D01*
X7294071Y-11313500D01*
X7294071Y-11384929D01*
X7279786Y-11442071D01*
X7265500Y-11470643D01*
X7251214Y-11484929D01*
X7222643Y-11499214D01*
X7194071Y-11499214D01*
X7165500Y-11484929D01*
X7151214Y-11470643D01*
X7136928Y-11442071D01*
X7122643Y-11384929D01*
X7122643Y-11313500D01*
X7136928Y-11256357D01*
X7151214Y-11227786D01*
X7165500Y-11213500D01*
X7194071Y-11199214D01*
X7422643Y-11470643D02*
X7436928Y-11484929D01*
X7422643Y-11499214D01*
X7408357Y-11484929D01*
X7422643Y-11470643D01*
X7422643Y-11499214D01*
X7608357Y-11327786D02*
X7579786Y-11313500D01*
X7565500Y-11299214D01*
X7551214Y-11270643D01*
X7551214Y-11256357D01*
X7565500Y-11227786D01*
X7579786Y-11213500D01*
X7608357Y-11199214D01*
X7665500Y-11199214D01*
X7694071Y-11213500D01*
X7708357Y-11227786D01*
X7722643Y-11256357D01*
X7722643Y-11270643D01*
X7708357Y-11299214D01*
X7694071Y-11313500D01*
X7665500Y-11327786D01*
X7608357Y-11327786D01*
X7579786Y-11342071D01*
X7565500Y-11356357D01*
X7551214Y-11384929D01*
X7551214Y-11442071D01*
X7565500Y-11470643D01*
X7579786Y-11484929D01*
X7608357Y-11499214D01*
X7665500Y-11499214D01*
X7694071Y-11484929D01*
X7708357Y-11470643D01*
X7722643Y-11442071D01*
X7722643Y-11384929D01*
X7708357Y-11356357D01*
X7694071Y-11342071D01*
X7665500Y-11327786D01*
X7908357Y-11199214D02*
X7936928Y-11199214D01*
X7965500Y-11213500D01*
X7979786Y-11227786D01*
X7994071Y-11256357D01*
X8008357Y-11313500D01*
X8008357Y-11384929D01*
X7994071Y-11442071D01*
X7979786Y-11470643D01*
X7965500Y-11484929D01*
X7936928Y-11499214D01*
X7908357Y-11499214D01*
X7879786Y-11484929D01*
X7865500Y-11470643D01*
X7851214Y-11442071D01*
X7836928Y-11384929D01*
X7836928Y-11313500D01*
X7851214Y-11256357D01*
X7865500Y-11227786D01*
X7879786Y-11213500D01*
X7908357Y-11199214D01*
X8194071Y-11199214D02*
X8222643Y-11199214D01*
X8251214Y-11213500D01*
X8265500Y-11227786D01*
X8279786Y-11256357D01*
X8294071Y-11313500D01*
X8294071Y-11384929D01*
X8279786Y-11442071D01*
X8265500Y-11470643D01*
X8251214Y-11484929D01*
X8222643Y-11499214D01*
X8194071Y-11499214D01*
X8165500Y-11484929D01*
X8151214Y-11470643D01*
X8136928Y-11442071D01*
X8122643Y-11384929D01*
X8122643Y-11313500D01*
X8136928Y-11256357D01*
X8151214Y-11227786D01*
X8165500Y-11213500D01*
X8194071Y-11199214D01*
X8422643Y-11499214D02*
X8422643Y-11299214D01*
X8422643Y-11327786D02*
X8436928Y-11313500D01*
X8465500Y-11299214D01*
X8508357Y-11299214D01*
X8536928Y-11313500D01*
X8551214Y-11342071D01*
X8551214Y-11499214D01*
X8551214Y-11342071D02*
X8565500Y-11313500D01*
X8594071Y-11299214D01*
X8636928Y-11299214D01*
X8665500Y-11313500D01*
X8679786Y-11342071D01*
X8679786Y-11499214D01*
X8822643Y-11499214D02*
X8822643Y-11299214D01*
X8822643Y-11327786D02*
X8836928Y-11313500D01*
X8865500Y-11299214D01*
X8908357Y-11299214D01*
X8936928Y-11313500D01*
X8951214Y-11342071D01*
X8951214Y-11499214D01*
X8951214Y-11342071D02*
X8965500Y-11313500D01*
X8994071Y-11299214D01*
X9036928Y-11299214D01*
X9065500Y-11313500D01*
X9079786Y-11342071D01*
X9079786Y-11499214D01*
X9665500Y-11184929D02*
X9408357Y-11570643D01*
X10051214Y-11199214D02*
X10079786Y-11199214D01*
X10108357Y-11213500D01*
X10122643Y-11227786D01*
X10136928Y-11256357D01*
X10151214Y-11313500D01*
X10151214Y-11384929D01*
X10136928Y-11442071D01*
X10122643Y-11470643D01*
X10108357Y-11484929D01*
X10079786Y-11499214D01*
X10051214Y-11499214D01*
X10022643Y-11484929D01*
X10008357Y-11470643D01*
X9994071Y-11442071D01*
X9979786Y-11384929D01*
X9979786Y-11313500D01*
X9994071Y-11256357D01*
X10008357Y-11227786D01*
X10022643Y-11213500D01*
X10051214Y-11199214D01*
X10279786Y-11470643D02*
X10294071Y-11484929D01*
X10279786Y-11499214D01*
X10265500Y-11484929D01*
X10279786Y-11470643D01*
X10279786Y-11499214D01*
X10479786Y-11199214D02*
X10508357Y-11199214D01*
X10536928Y-11213500D01*
X10551214Y-11227786D01*
X10565500Y-11256357D01*
X10579786Y-11313500D01*
X10579786Y-11384929D01*
X10565500Y-11442071D01*
X10551214Y-11470643D01*
X10536928Y-11484929D01*
X10508357Y-11499214D01*
X10479786Y-11499214D01*
X10451214Y-11484929D01*
X10436928Y-11470643D01*
X10422643Y-11442071D01*
X10408357Y-11384929D01*
X10408357Y-11313500D01*
X10422643Y-11256357D01*
X10436928Y-11227786D01*
X10451214Y-11213500D01*
X10479786Y-11199214D01*
X10679786Y-11199214D02*
X10865500Y-11199214D01*
X10765500Y-11313500D01*
X10808357Y-11313500D01*
X10836928Y-11327786D01*
X10851214Y-11342071D01*
X10865500Y-11370643D01*
X10865500Y-11442071D01*
X10851214Y-11470643D01*
X10836928Y-11484929D01*
X10808357Y-11499214D01*
X10722643Y-11499214D01*
X10694071Y-11484929D01*
X10679786Y-11470643D01*
X11151214Y-11499214D02*
X10979786Y-11499214D01*
X11065500Y-11499214D02*
X11065500Y-11199214D01*
X11036928Y-11242071D01*
X11008357Y-11270643D01*
X10979786Y-11284929D01*
X11422643Y-11199214D02*
X11279786Y-11199214D01*
X11265500Y-11342071D01*
X11279786Y-11327786D01*
X11308357Y-11313500D01*
X11379786Y-11313500D01*
X11408357Y-11327786D01*
X11422643Y-11342071D01*
X11436928Y-11370643D01*
X11436928Y-11442071D01*
X11422643Y-11470643D01*
X11408357Y-11484929D01*
X11379786Y-11499214D01*
X11308357Y-11499214D01*
X11279786Y-11484929D01*
X11265500Y-11470643D01*
X11551214Y-11199214D02*
X11551214Y-11256357D01*
X11665500Y-11199214D02*
X11665500Y-11256357D01*
X12108357Y-11613500D02*
X12094071Y-11599214D01*
X12065500Y-11556357D01*
X12051214Y-11527786D01*
X12036928Y-11484929D01*
X12022643Y-11413500D01*
X12022643Y-11356357D01*
X12036928Y-11284929D01*
X12051214Y-11242071D01*
X12065500Y-11213500D01*
X12094071Y-11170643D01*
X12108357Y-11156357D01*
X12379786Y-11499214D02*
X12208357Y-11499214D01*
X12294071Y-11499214D02*
X12294071Y-11199214D01*
X12265500Y-11242071D01*
X12236928Y-11270643D01*
X12208357Y-11284929D01*
X12665500Y-11499214D02*
X12494071Y-11499214D01*
X12579786Y-11499214D02*
X12579786Y-11199214D01*
X12551214Y-11242071D01*
X12522643Y-11270643D01*
X12494071Y-11284929D01*
X13022643Y-11499214D02*
X13022643Y-11199214D01*
X13151214Y-11499214D02*
X13151214Y-11342071D01*
X13136928Y-11313500D01*
X13108357Y-11299214D01*
X13065500Y-11299214D01*
X13036928Y-11313500D01*
X13022643Y-11327786D01*
X13336928Y-11499214D02*
X13308357Y-11484929D01*
X13294071Y-11470643D01*
X13279786Y-11442071D01*
X13279786Y-11356357D01*
X13294071Y-11327786D01*
X13308357Y-11313500D01*
X13336928Y-11299214D01*
X13379786Y-11299214D01*
X13408357Y-11313500D01*
X13422643Y-11327786D01*
X13436928Y-11356357D01*
X13436928Y-11442071D01*
X13422643Y-11470643D01*
X13408357Y-11484929D01*
X13379786Y-11499214D01*
X13336928Y-11499214D01*
X13608357Y-11499214D02*
X13579786Y-11484929D01*
X13565500Y-11456357D01*
X13565500Y-11199214D01*
X13836928Y-11484929D02*
X13808357Y-11499214D01*
X13751214Y-11499214D01*
X13722643Y-11484929D01*
X13708357Y-11456357D01*
X13708357Y-11342071D01*
X13722643Y-11313500D01*
X13751214Y-11299214D01*
X13808357Y-11299214D01*
X13836928Y-11313500D01*
X13851214Y-11342071D01*
X13851214Y-11370643D01*
X13708357Y-11399214D01*
X13965500Y-11484929D02*
X13994071Y-11499214D01*
X14051214Y-11499214D01*
X14079786Y-11484929D01*
X14094071Y-11456357D01*
X14094071Y-11442071D01*
X14079786Y-11413500D01*
X14051214Y-11399214D01*
X14008357Y-11399214D01*
X13979786Y-11384929D01*
X13965500Y-11356357D01*
X13965500Y-11342071D01*
X13979786Y-11313500D01*
X14008357Y-11299214D01*
X14051214Y-11299214D01*
X14079786Y-11313500D01*
X14194071Y-11613500D02*
X14208357Y-11599214D01*
X14236928Y-11556357D01*
X14251214Y-11527786D01*
X14265500Y-11484929D01*
X14279786Y-11413500D01*
X14279786Y-11356357D01*
X14265500Y-11284929D01*
X14251214Y-11242071D01*
X14236928Y-11213500D01*
X14208357Y-11170643D01*
X14194071Y-11156357D01*
M02*
