G04 #@! TF.GenerationSoftware,KiCad,Pcbnew,(5.1.12)-1*
G04 #@! TF.CreationDate,2023-01-12T22:36:03-08:00*
G04 #@! TF.ProjectId,GB-BRK-CART,47422d42-524b-42d4-9341-52542e6b6963,v1.0*
G04 #@! TF.SameCoordinates,Original*
G04 #@! TF.FileFunction,Copper,L1,Top*
G04 #@! TF.FilePolarity,Positive*
%FSLAX46Y46*%
G04 Gerber Fmt 4.6, Leading zero omitted, Abs format (unit mm)*
G04 Created by KiCad (PCBNEW (5.1.12)-1) date 2023-01-12 22:36:03*
%MOMM*%
%LPD*%
G01*
G04 APERTURE LIST*
G04 #@! TA.AperFunction,SMDPad,CuDef*
%ADD10R,1.000000X2.400000*%
G04 #@! TD*
G04 #@! TA.AperFunction,SMDPad,CuDef*
%ADD11R,6.000000X3.000000*%
G04 #@! TD*
G04 #@! TA.AperFunction,SMDPad,CuDef*
%ADD12R,1.000000X3.150000*%
G04 #@! TD*
G04 #@! TA.AperFunction,SMDPad,CuDef*
%ADD13R,0.820000X1.000000*%
G04 #@! TD*
G04 #@! TA.AperFunction,SMDPad,CuDef*
%ADD14R,1.000000X0.820000*%
G04 #@! TD*
G04 #@! TA.AperFunction,ConnectorPad*
%ADD15R,1.300000X6.000000*%
G04 #@! TD*
G04 #@! TA.AperFunction,ConnectorPad*
%ADD16R,1.000000X5.500000*%
G04 #@! TD*
G04 #@! TA.AperFunction,ViaPad*
%ADD17C,0.600000*%
G04 #@! TD*
G04 #@! TA.AperFunction,ViaPad*
%ADD18C,1.000000*%
G04 #@! TD*
G04 #@! TA.AperFunction,Conductor*
%ADD19C,0.400000*%
G04 #@! TD*
G04 #@! TA.AperFunction,Conductor*
%ADD20C,0.800000*%
G04 #@! TD*
G04 #@! TA.AperFunction,Conductor*
%ADD21C,0.254000*%
G04 #@! TD*
G04 #@! TA.AperFunction,Conductor*
%ADD22C,0.100000*%
G04 #@! TD*
G04 APERTURE END LIST*
D10*
X123580000Y-23458000D03*
X122080000Y-23458000D03*
X120580000Y-23458000D03*
X119080000Y-23458000D03*
X117580000Y-23458000D03*
X116080000Y-23458000D03*
X114580000Y-23458000D03*
X113080000Y-23458000D03*
X111580000Y-23458000D03*
X110080000Y-23458000D03*
X108580000Y-23458000D03*
X107080000Y-23458000D03*
X105580000Y-23458000D03*
X104080000Y-23458000D03*
X102580000Y-23458000D03*
X101080000Y-23458000D03*
X99580000Y-23458000D03*
X98080000Y-23458000D03*
X96580000Y-23458000D03*
X95080000Y-23458000D03*
X93580000Y-23458000D03*
X92080000Y-23458000D03*
X90580000Y-23458000D03*
X89080000Y-23458000D03*
X87580000Y-23458000D03*
X86080000Y-23458000D03*
X84580000Y-23458000D03*
X83080000Y-23458000D03*
X81580000Y-23458000D03*
X80080000Y-23458000D03*
X78580000Y-23458000D03*
D11*
X113330000Y-3258000D03*
X87330000Y-3258000D03*
D10*
X77080000Y-23458000D03*
D12*
X119050000Y-45475000D03*
X119050000Y-50525000D03*
X116510000Y-45475000D03*
X116510000Y-50525000D03*
X113970000Y-45475000D03*
X113970000Y-50525000D03*
X111430000Y-45475000D03*
X111430000Y-50525000D03*
X108890000Y-45475000D03*
X108890000Y-50525000D03*
X106350000Y-45475000D03*
X106350000Y-50525000D03*
X103810000Y-45475000D03*
X103810000Y-50525000D03*
X101270000Y-45475000D03*
X101270000Y-50525000D03*
X98730000Y-45475000D03*
X98730000Y-50525000D03*
X96190000Y-45475000D03*
X96190000Y-50525000D03*
X93650000Y-45475000D03*
X93650000Y-50525000D03*
X91110000Y-45475000D03*
X91110000Y-50525000D03*
X88570000Y-45475000D03*
X88570000Y-50525000D03*
X86030000Y-45475000D03*
X86030000Y-50525000D03*
X83490000Y-45475000D03*
X83490000Y-50525000D03*
X80950000Y-45475000D03*
X80950000Y-50525000D03*
D13*
X72848000Y-24054000D03*
X74448000Y-24054000D03*
D14*
X70448000Y-24154000D03*
X70448000Y-25754000D03*
D15*
X123400000Y-96000000D03*
D16*
X121750000Y-95750000D03*
X120250000Y-95750000D03*
X118750000Y-95750000D03*
X117250000Y-95750000D03*
X115750000Y-95750000D03*
X114250000Y-95750000D03*
X112750000Y-95750000D03*
X111250000Y-95750000D03*
X109750000Y-95750000D03*
X108250000Y-95750000D03*
X106750000Y-95750000D03*
X105250000Y-95750000D03*
X103750000Y-95750000D03*
X102250000Y-95750000D03*
X100750000Y-95750000D03*
X99250000Y-95750000D03*
X97750000Y-95750000D03*
X96250000Y-95750000D03*
X94750000Y-95750000D03*
X93250000Y-95750000D03*
X91750000Y-95750000D03*
X90250000Y-95750000D03*
X88750000Y-95750000D03*
X87250000Y-95750000D03*
X85750000Y-95750000D03*
X84250000Y-95750000D03*
X82750000Y-95750000D03*
X81250000Y-95750000D03*
X79750000Y-95750000D03*
D15*
X76600000Y-96000000D03*
D16*
X78250000Y-95750000D03*
D13*
X74448000Y-25954000D03*
X72848000Y-25954000D03*
D17*
X96520000Y-79502000D03*
X101092000Y-79502000D03*
X97536000Y-76962000D03*
X101600000Y-78994000D03*
X98044000Y-77470000D03*
X97536000Y-75438000D03*
X98044000Y-76454000D03*
X101092000Y-72390000D03*
X97536000Y-72390000D03*
X96520000Y-71374000D03*
X101092000Y-76454000D03*
X96520000Y-71374000D03*
X98552000Y-76962000D03*
X98552000Y-78486000D03*
X99568000Y-78486000D03*
X99568000Y-73914000D03*
X100584000Y-76962000D03*
X102108000Y-78486000D03*
X102108000Y-71374000D03*
X101092000Y-75438000D03*
X95504010Y-73914000D03*
X103124024Y-73914000D03*
X123400000Y-92600000D03*
D18*
X123400000Y-90200000D03*
X123900000Y-84000000D03*
X120200000Y-42900000D03*
X120300000Y-86100000D03*
X122300000Y-48800000D03*
X123300000Y-54900000D03*
X120300000Y-59000000D03*
X123000000Y-63200000D03*
X123300000Y-74500000D03*
X120300000Y-78300000D03*
X120700000Y-68500000D03*
D17*
X84300000Y-92600000D03*
X80950000Y-54782002D03*
X84300000Y-64131998D03*
X84328000Y-26162000D03*
X78300000Y-92600000D03*
X85700000Y-92600000D03*
X85852000Y-26162000D03*
X85700007Y-57032009D03*
X87250000Y-92600000D03*
X87400000Y-26186000D03*
X87400000Y-54332000D03*
X88800000Y-92600000D03*
X88900000Y-26162000D03*
X89378065Y-54914132D03*
X90200000Y-92600000D03*
X90424000Y-26162000D03*
X91140902Y-57231902D03*
X108250000Y-92600000D03*
X101556164Y-57115219D03*
X93976523Y-47800000D03*
X91800000Y-92600000D03*
X93650000Y-55194000D03*
X91948000Y-26162000D03*
X109750000Y-92600000D03*
X101911759Y-56180566D03*
X96284915Y-47704199D03*
X93300000Y-92600000D03*
X96190000Y-55194000D03*
X93472000Y-26162000D03*
X104100000Y-56800000D03*
X111250000Y-92600000D03*
X99563000Y-42667000D03*
X94700000Y-92600000D03*
X98730000Y-54178000D03*
X94996000Y-26162000D03*
X104400000Y-55800000D03*
X112750000Y-92600000D03*
X101484010Y-47800000D03*
X96200000Y-92600000D03*
X100056000Y-54844000D03*
X96520000Y-26162000D03*
X114250000Y-92600000D03*
X97700000Y-92600000D03*
X103301000Y-53009000D03*
X98044000Y-26162000D03*
X115750000Y-92600000D03*
X106300000Y-52800000D03*
X99300000Y-92600000D03*
X104394000Y-61849000D03*
X99568000Y-26162000D03*
X117250000Y-92600000D03*
X108900000Y-52800000D03*
X100800000Y-92600000D03*
X105346500Y-62484000D03*
X101092000Y-26162000D03*
X118750000Y-92600000D03*
X111400000Y-52800000D03*
X102300000Y-92600000D03*
X106172004Y-63119000D03*
X102616000Y-26162000D03*
X114000000Y-52800000D03*
X103800000Y-92600000D03*
X107061000Y-63817500D03*
X104140000Y-26162000D03*
X121750000Y-92600000D03*
X119000000Y-52800000D03*
X106800000Y-92600000D03*
X109002605Y-64980790D03*
X107188000Y-26161984D03*
X120250000Y-92600000D03*
X82800000Y-92600000D03*
X84499996Y-62600000D03*
X91110000Y-47955006D03*
X81300000Y-92600000D03*
X88478055Y-56000000D03*
X84582000Y-59943998D03*
X79800000Y-92600000D03*
X84582000Y-58039000D03*
X84582000Y-41783000D03*
X116500000Y-52800000D03*
X105300000Y-92600000D03*
X107961010Y-64389004D03*
X105664012Y-26162012D03*
D19*
X97536000Y-72390000D02*
X101092000Y-72390000D01*
X101092000Y-72390000D02*
X101092000Y-75438000D01*
X101092000Y-75438000D02*
X97536000Y-75438000D01*
X97536000Y-75438000D02*
X97536000Y-72390000D01*
X101092000Y-79502000D02*
X96520000Y-79502000D01*
X97536000Y-76962000D02*
X98552000Y-76962000D01*
X98044000Y-76454000D02*
X98044000Y-77470000D01*
X96520000Y-71374000D02*
X96520000Y-73914000D01*
X96520000Y-71374000D02*
X102108000Y-71374000D01*
X102108000Y-71374000D02*
X102108000Y-78486000D01*
X96520000Y-73914000D02*
X96520000Y-79502000D01*
X96520000Y-73914000D02*
X95504010Y-73914000D01*
X99568000Y-73914000D02*
X103124024Y-73914000D01*
D20*
X123400000Y-92600000D02*
X123400000Y-90200000D01*
X123400000Y-96000000D02*
X123400000Y-92600000D01*
X123400000Y-89792894D02*
X123400000Y-90200000D01*
X123400000Y-89700000D02*
X123400000Y-89792894D01*
X123900000Y-84000000D02*
X123400000Y-84500000D01*
X123400000Y-84500000D02*
X123400000Y-89792894D01*
X123900000Y-84000000D02*
X123900000Y-83800000D01*
D19*
X119050000Y-45230000D02*
X119050000Y-46230000D01*
X87330000Y-3258000D02*
X113330000Y-3258000D01*
X70548000Y-24054000D02*
X70448000Y-24154000D01*
X72748000Y-24154000D02*
X72848000Y-24054000D01*
X70448000Y-24154000D02*
X72748000Y-24154000D01*
X84250000Y-95750000D02*
X84250000Y-92650000D01*
X84250000Y-92650000D02*
X84300000Y-92600000D01*
X84328000Y-23206000D02*
X84580000Y-23458000D01*
X80950000Y-54782002D02*
X80950000Y-50525000D01*
X84300000Y-64131998D02*
X84300000Y-64131998D01*
X80950000Y-54782002D02*
X80950000Y-54782002D01*
X84328000Y-23710000D02*
X84580000Y-23458000D01*
X84328000Y-26162000D02*
X84328000Y-23710000D01*
X84300000Y-92600000D02*
X84300000Y-66576000D01*
X84300000Y-66576000D02*
X84300000Y-64131998D01*
X78250000Y-95750000D02*
X78250000Y-92650000D01*
X78250000Y-92650000D02*
X78300000Y-92600000D01*
X83490000Y-43231000D02*
X83490000Y-45475000D01*
X78580000Y-38321000D02*
X83490000Y-43231000D01*
X78580000Y-23458000D02*
X78580000Y-38321000D01*
X78300000Y-92600000D02*
X80300000Y-90600000D01*
X82200000Y-48740000D02*
X83490000Y-47450000D01*
X83490000Y-47450000D02*
X83490000Y-45475000D01*
X80300000Y-90600000D02*
X80300000Y-60670000D01*
X80300000Y-60670000D02*
X82200000Y-58770000D01*
X82200000Y-58770000D02*
X82200000Y-48740000D01*
X85750000Y-95750000D02*
X85750000Y-92650000D01*
X85750000Y-92650000D02*
X85700000Y-92600000D01*
X85852000Y-23686000D02*
X86080000Y-23458000D01*
X85852000Y-26162000D02*
X85852000Y-23686000D01*
X83490000Y-50525000D02*
X83490000Y-54822002D01*
X83490000Y-54822002D02*
X85700007Y-57032009D01*
X85700000Y-57032016D02*
X85700007Y-57032009D01*
X85700000Y-92600000D02*
X85700000Y-57032016D01*
X87250000Y-95750000D02*
X87250000Y-92600000D01*
X87400000Y-23638000D02*
X87580000Y-23458000D01*
X87400000Y-26186000D02*
X87400000Y-23638000D01*
X86030000Y-52777232D02*
X87400000Y-54147232D01*
X86030000Y-50525000D02*
X86030000Y-52777232D01*
X87400000Y-54147232D02*
X87400000Y-54332000D01*
X87400000Y-54332000D02*
X87400000Y-66524000D01*
X87400000Y-66524000D02*
X87400000Y-92450000D01*
X87400000Y-92450000D02*
X87250000Y-92600000D01*
X88750000Y-95750000D02*
X88750000Y-92650000D01*
X88750000Y-92650000D02*
X88800000Y-92600000D01*
X88900000Y-23638000D02*
X89080000Y-23458000D01*
X88900000Y-26162000D02*
X88900000Y-23638000D01*
X88570000Y-52500000D02*
X89378065Y-53308065D01*
X88570000Y-50525000D02*
X88570000Y-52500000D01*
X89378065Y-53308065D02*
X89378065Y-54914132D01*
X89378065Y-92021935D02*
X89378065Y-54914132D01*
X88800000Y-92600000D02*
X89378065Y-92021935D01*
X90250000Y-95750000D02*
X90250000Y-92650000D01*
X90250000Y-92650000D02*
X90200000Y-92600000D01*
X90424000Y-23614000D02*
X90580000Y-23458000D01*
X90424000Y-26162000D02*
X90424000Y-23614000D01*
X91046500Y-57137500D02*
X91140902Y-57231902D01*
X91110000Y-50525000D02*
X91110000Y-57201000D01*
X91110000Y-57201000D02*
X91140902Y-57231902D01*
X90200000Y-58172804D02*
X91140902Y-57231902D01*
X90200000Y-92600000D02*
X90200000Y-58172804D01*
X108250000Y-92600000D02*
X108250000Y-95750000D01*
X93650000Y-45475000D02*
X93650000Y-47473477D01*
X93650000Y-47473477D02*
X93976523Y-47800000D01*
X103340945Y-58900000D02*
X101556164Y-57115219D01*
X108250000Y-92600000D02*
X109902607Y-90947393D01*
X109902607Y-63902607D02*
X104900000Y-58900000D01*
X104900000Y-58900000D02*
X103340945Y-58900000D01*
X109902607Y-90947393D02*
X109902607Y-63902607D01*
X93650000Y-43510000D02*
X93650000Y-45475000D01*
X108580000Y-28580000D02*
X93650000Y-43510000D01*
X108580000Y-23458000D02*
X108580000Y-28580000D01*
X93650000Y-50525000D02*
X93650000Y-55194000D01*
X91750000Y-95750000D02*
X91750000Y-92650000D01*
X91750000Y-92650000D02*
X91800000Y-92600000D01*
X91948000Y-23590000D02*
X92080000Y-23458000D01*
X91948000Y-26162000D02*
X91948000Y-23590000D01*
X93650000Y-56950000D02*
X91033959Y-59566041D01*
X91033959Y-59566041D02*
X91033959Y-91833959D01*
X93650000Y-55194000D02*
X93650000Y-56950000D01*
X91033959Y-91833959D02*
X91800000Y-92600000D01*
X110700000Y-63400006D02*
X110700000Y-63400000D01*
X109750000Y-92600000D02*
X109750000Y-95750000D01*
X110080000Y-23458000D02*
X110080000Y-23778000D01*
X103731193Y-58000000D02*
X101911759Y-56180566D01*
X105299994Y-58000000D02*
X103731193Y-58000000D01*
X110700000Y-63400006D02*
X105299994Y-58000000D01*
X96190000Y-45475000D02*
X96190000Y-47609284D01*
X96190000Y-47609284D02*
X96284915Y-47704199D01*
X110702617Y-63402623D02*
X110700000Y-63400006D01*
X109750000Y-92600000D02*
X110702617Y-91647383D01*
X110702617Y-91647383D02*
X110702617Y-63402623D01*
X96190000Y-43510000D02*
X96190000Y-45475000D01*
X110080000Y-29620000D02*
X96190000Y-43510000D01*
X110080000Y-23458000D02*
X110080000Y-29620000D01*
X93250000Y-95750000D02*
X93250000Y-92650000D01*
X93250000Y-92650000D02*
X93300000Y-92600000D01*
X96190000Y-55194000D02*
X96190000Y-50525000D01*
X93472000Y-23566000D02*
X93580000Y-23458000D01*
X93472000Y-26162000D02*
X93472000Y-23566000D01*
X91833969Y-59974295D02*
X96190000Y-55618264D01*
X96190000Y-55618264D02*
X96190000Y-55194000D01*
X91833969Y-91133969D02*
X91833969Y-59974295D01*
X93300000Y-92600000D02*
X91833969Y-91133969D01*
X105500014Y-56800000D02*
X104100000Y-56800000D01*
X111549999Y-62849985D02*
X105500014Y-56800000D01*
X111549999Y-92300001D02*
X111549999Y-62849985D01*
X111250000Y-92600000D02*
X111549999Y-92300001D01*
X98700000Y-45505000D02*
X98730000Y-45475000D01*
X111250000Y-92600000D02*
X111250000Y-95750000D01*
X99563000Y-42667000D02*
X98730000Y-43500000D01*
X98730000Y-43500000D02*
X98730000Y-45475000D01*
X100789989Y-41440011D02*
X99563000Y-42667000D01*
X111580000Y-30650000D02*
X100789989Y-41440011D01*
X111580000Y-23458000D02*
X111580000Y-30650000D01*
X98730000Y-50525000D02*
X98730000Y-54178000D01*
X94750000Y-95750000D02*
X94750000Y-92650000D01*
X94750000Y-92650000D02*
X94700000Y-92600000D01*
X98730000Y-54534000D02*
X98730000Y-50525000D01*
X98730000Y-54178000D02*
X98730000Y-54534000D01*
X94996000Y-23542000D02*
X95080000Y-23458000D01*
X94996000Y-26162000D02*
X94996000Y-23542000D01*
X92633980Y-90533980D02*
X94700000Y-92600000D01*
X92633980Y-60630020D02*
X92633980Y-90533980D01*
X98730000Y-54534000D02*
X92633980Y-60630020D01*
X105899996Y-55800000D02*
X104400000Y-55800000D01*
X112450001Y-62350005D02*
X105899996Y-55800000D01*
X112450001Y-92300001D02*
X112450001Y-62350005D01*
X112750000Y-92600000D02*
X112450001Y-92300001D01*
X112750000Y-92600000D02*
X112750000Y-95750000D01*
X101270000Y-47585990D02*
X101484010Y-47800000D01*
X101270000Y-45475000D02*
X101270000Y-47585990D01*
X101270000Y-43500000D02*
X101270000Y-45475000D01*
X113080000Y-31690000D02*
X101270000Y-43500000D01*
X113080000Y-23458000D02*
X113080000Y-31690000D01*
X101270000Y-50525000D02*
X101270000Y-53630000D01*
X101270000Y-53630000D02*
X100056000Y-54844000D01*
X96250000Y-95750000D02*
X96250000Y-92650000D01*
X96250000Y-92650000D02*
X96200000Y-92600000D01*
X96520000Y-23518000D02*
X96580000Y-23458000D01*
X96520000Y-26162000D02*
X96520000Y-23518000D01*
X100056000Y-54844000D02*
X93433990Y-61466010D01*
X93433990Y-89833990D02*
X96200000Y-92600000D01*
X93433990Y-61466010D02*
X93433990Y-89833990D01*
X114250000Y-92600000D02*
X114250000Y-95750000D01*
X103810000Y-43500000D02*
X103810000Y-45475000D01*
X114580000Y-32730000D02*
X103810000Y-43500000D01*
X114580000Y-23458000D02*
X114580000Y-32730000D01*
X105100000Y-48740000D02*
X103810000Y-47450000D01*
X105100000Y-53411000D02*
X105100000Y-48740000D01*
X113400000Y-61711000D02*
X105100000Y-53411000D01*
X103810000Y-47450000D02*
X103810000Y-45475000D01*
X113400000Y-91750000D02*
X113400000Y-61711000D01*
X114250000Y-92600000D02*
X113400000Y-91750000D01*
X103810000Y-52500000D02*
X103301000Y-53009000D01*
X103810000Y-50525000D02*
X103810000Y-52500000D01*
X97750000Y-95750000D02*
X97750000Y-92650000D01*
X97750000Y-92650000D02*
X97700000Y-92600000D01*
X98080000Y-23458000D02*
X98080000Y-26126000D01*
X98080000Y-26126000D02*
X98044000Y-26162000D01*
X94234000Y-89134000D02*
X97700000Y-92600000D01*
X94234000Y-62076000D02*
X94234000Y-89134000D01*
X103301000Y-53009000D02*
X94234000Y-62076000D01*
X115750000Y-92600000D02*
X115750000Y-95750000D01*
X106350000Y-43510000D02*
X106350000Y-45475000D01*
X116080000Y-33780000D02*
X106350000Y-43510000D01*
X116080000Y-23458000D02*
X116080000Y-33780000D01*
X107450001Y-48550001D02*
X106350000Y-47450000D01*
X107450001Y-54364001D02*
X107450001Y-48550001D01*
X114300000Y-61214000D02*
X107450001Y-54364001D01*
X114300000Y-91150000D02*
X114300000Y-61214000D01*
X106350000Y-47450000D02*
X106350000Y-45475000D01*
X115750000Y-92600000D02*
X114300000Y-91150000D01*
X106350000Y-50525000D02*
X106350000Y-52750000D01*
X106350000Y-52750000D02*
X106300000Y-52800000D01*
X99250000Y-95750000D02*
X99250000Y-92650000D01*
X99250000Y-92650000D02*
X99300000Y-92600000D01*
X99580000Y-26150000D02*
X99568000Y-26162000D01*
X99580000Y-23458000D02*
X99580000Y-26150000D01*
X104394000Y-87506000D02*
X104394000Y-61849000D01*
X99300000Y-92600000D02*
X104394000Y-87506000D01*
X117250000Y-92600000D02*
X117250000Y-95750000D01*
X108890000Y-43510000D02*
X108890000Y-45475000D01*
X117580000Y-34820000D02*
X108890000Y-43510000D01*
X117580000Y-23458000D02*
X117580000Y-34820000D01*
X108890000Y-47450000D02*
X108890000Y-45475000D01*
X109990001Y-48550001D02*
X108890000Y-47450000D01*
X109990001Y-55507001D02*
X109990001Y-48550001D01*
X115200000Y-60717000D02*
X109990001Y-55507001D01*
X115200000Y-90550000D02*
X115200000Y-60717000D01*
X117250000Y-92600000D02*
X115200000Y-90550000D01*
X108890000Y-50525000D02*
X108890000Y-52790000D01*
X108890000Y-52790000D02*
X108900000Y-52800000D01*
X100750000Y-95750000D02*
X100750000Y-92650000D01*
X100750000Y-92650000D02*
X100800000Y-92600000D01*
X101080000Y-23458000D02*
X101080000Y-26150000D01*
X101080000Y-26150000D02*
X101092000Y-26162000D01*
X105219500Y-62611000D02*
X105346500Y-62484000D01*
X105219500Y-88180500D02*
X105219500Y-62611000D01*
X100800000Y-92600000D02*
X105219500Y-88180500D01*
X118750000Y-92600000D02*
X118750000Y-95750000D01*
X111430000Y-43510000D02*
X111430000Y-45475000D01*
X119080000Y-35860000D02*
X111430000Y-43510000D01*
X119080000Y-23458000D02*
X119080000Y-35860000D01*
X111430000Y-47450000D02*
X111430000Y-45475000D01*
X112700000Y-48720000D02*
X111430000Y-47450000D01*
X112700000Y-56820000D02*
X112700000Y-48720000D01*
X116100000Y-60220000D02*
X112700000Y-56820000D01*
X116100000Y-89950000D02*
X116100000Y-60220000D01*
X118750000Y-92600000D02*
X116100000Y-89950000D01*
X111430000Y-50525000D02*
X111430000Y-52770000D01*
X111430000Y-52770000D02*
X111400000Y-52800000D01*
X102250000Y-95750000D02*
X102250000Y-92650000D01*
X102250000Y-92650000D02*
X102300000Y-92600000D01*
X102580000Y-23458000D02*
X102580000Y-26126000D01*
X102580000Y-26126000D02*
X102616000Y-26162000D01*
X106108500Y-88791500D02*
X106108500Y-63182504D01*
X102300000Y-92600000D02*
X106108500Y-88791500D01*
X106108500Y-63182504D02*
X106172004Y-63119000D01*
X113970000Y-50525000D02*
X113970000Y-52770000D01*
X113970000Y-52770000D02*
X114000000Y-52800000D01*
X103750000Y-95750000D02*
X103750000Y-92650000D01*
X103750000Y-92650000D02*
X103800000Y-92600000D01*
X104080000Y-26102000D02*
X104140000Y-26162000D01*
X104080000Y-23458000D02*
X104080000Y-26102000D01*
X107061000Y-89339000D02*
X107061000Y-63817500D01*
X103800000Y-92600000D02*
X107061000Y-89339000D01*
X121750000Y-92600000D02*
X117900000Y-88750000D01*
X117900000Y-48840000D02*
X116510000Y-47450000D01*
X117900000Y-88750000D02*
X117900000Y-48840000D01*
X116510000Y-47450000D02*
X116510000Y-45475000D01*
X121750000Y-92600000D02*
X121750000Y-95750000D01*
X116510000Y-43510000D02*
X116510000Y-45475000D01*
X122080000Y-37940000D02*
X116510000Y-43510000D01*
X122080000Y-23458000D02*
X122080000Y-37940000D01*
X119050000Y-50525000D02*
X119050000Y-52750000D01*
X119050000Y-52750000D02*
X119000000Y-52800000D01*
X106750000Y-95750000D02*
X106750000Y-92650000D01*
X106750000Y-92650000D02*
X106800000Y-92600000D01*
X109002605Y-90397395D02*
X109002605Y-64980790D01*
X106800000Y-92600000D02*
X109002605Y-90397395D01*
X107080000Y-23458000D02*
X107080000Y-26053984D01*
X107080000Y-26053984D02*
X107188000Y-26161984D01*
X114520000Y-48000000D02*
X113970000Y-47450000D01*
X113970000Y-47450000D02*
X113970000Y-45475000D01*
X120250000Y-92600000D02*
X120250000Y-95750000D01*
X113970000Y-43510000D02*
X113970000Y-45475000D01*
X120580000Y-36900000D02*
X113970000Y-43510000D01*
X120580000Y-23458000D02*
X120580000Y-36900000D01*
X115300000Y-48780000D02*
X114520000Y-48000000D01*
X115300000Y-58150000D02*
X115300000Y-48780000D01*
X117000000Y-59850000D02*
X115300000Y-58150000D01*
X117000000Y-89350000D02*
X117000000Y-59850000D01*
X120250000Y-92600000D02*
X117000000Y-89350000D01*
X82750000Y-95750000D02*
X82750000Y-92650000D01*
X82750000Y-92650000D02*
X82800000Y-92600000D01*
X91110000Y-45475000D02*
X91110000Y-47955000D01*
X91110000Y-43180000D02*
X91110000Y-45475000D01*
X91110000Y-43167500D02*
X91110000Y-43180000D01*
X83080000Y-35137500D02*
X91110000Y-43167500D01*
X83080000Y-23458000D02*
X83080000Y-35137500D01*
X83300000Y-63799996D02*
X84499996Y-62600000D01*
X82800000Y-92600000D02*
X83300000Y-92100000D01*
X83300000Y-92100000D02*
X83300000Y-63799996D01*
X81250000Y-95750000D02*
X81250000Y-92650000D01*
X81250000Y-92650000D02*
X81300000Y-92600000D01*
X81580000Y-23458000D02*
X81580000Y-25106618D01*
X88500000Y-55900000D02*
X88500000Y-55978055D01*
X87200000Y-46845000D02*
X87200000Y-52815848D01*
X88570000Y-55970000D02*
X88540000Y-56000000D01*
X87200000Y-52815848D02*
X88342988Y-53958836D01*
X88570000Y-45475000D02*
X87200000Y-46845000D01*
X88342988Y-53958836D02*
X88342988Y-55864933D01*
X88500000Y-55978055D02*
X88478055Y-56000000D01*
X88540000Y-56000000D02*
X88478055Y-56000000D01*
X88342988Y-55864933D02*
X88478055Y-56000000D01*
X88570000Y-43510000D02*
X88570000Y-45475000D01*
X88570000Y-43167500D02*
X88570000Y-43510000D01*
X81580000Y-36177500D02*
X88570000Y-43167500D01*
X81580000Y-23458000D02*
X81580000Y-36177500D01*
X82300000Y-62225998D02*
X84582000Y-59943998D01*
X81300000Y-92600000D02*
X82300000Y-91600000D01*
X82300000Y-91600000D02*
X82300000Y-62225998D01*
X79750000Y-95750000D02*
X79750000Y-92650000D01*
X79750000Y-92650000D02*
X79800000Y-92600000D01*
X80080000Y-23458000D02*
X80080000Y-36576000D01*
X86030000Y-43231000D02*
X86030000Y-45475000D01*
X80080000Y-37281000D02*
X84582000Y-41783000D01*
X80080000Y-36576000D02*
X80080000Y-37281000D01*
X84582000Y-41783000D02*
X86030000Y-43231000D01*
X81100010Y-91299990D02*
X81100010Y-61520990D01*
X81100010Y-61520990D02*
X84582000Y-58039000D01*
X79800000Y-92600000D02*
X81100010Y-91299990D01*
X116510000Y-50525000D02*
X116510000Y-52790000D01*
X116510000Y-52790000D02*
X116500000Y-52800000D01*
X105250000Y-95750000D02*
X105250000Y-92650000D01*
X105250000Y-92650000D02*
X105300000Y-92600000D01*
X105580000Y-23458000D02*
X105580000Y-26078000D01*
X105580000Y-26078000D02*
X105664012Y-26162012D01*
X107961010Y-89938990D02*
X107961010Y-64389004D01*
X105300000Y-92600000D02*
X107961010Y-89938990D01*
D21*
X75990498Y-22013820D02*
X75954188Y-22133518D01*
X75941928Y-22258000D01*
X75945000Y-23172250D01*
X76103750Y-23331000D01*
X76953000Y-23331000D01*
X76953000Y-23311000D01*
X77207000Y-23311000D01*
X77207000Y-23331000D01*
X77227000Y-23331000D01*
X77227000Y-23585000D01*
X77207000Y-23585000D01*
X77207000Y-25134250D01*
X77365750Y-25293000D01*
X77580000Y-25296072D01*
X77597000Y-25294398D01*
X77597000Y-39116000D01*
X77599440Y-39140776D01*
X77606667Y-39164601D01*
X77618403Y-39186557D01*
X77629825Y-39201206D01*
X81305684Y-43263997D01*
X81235750Y-43265000D01*
X81077000Y-43423750D01*
X81077000Y-45348000D01*
X81926250Y-45348000D01*
X82085000Y-45189250D01*
X82087528Y-44128142D01*
X82351928Y-44420373D01*
X82351928Y-46922154D01*
X82087977Y-47010137D01*
X82085000Y-45760750D01*
X81926250Y-45602000D01*
X81077000Y-45602000D01*
X81077000Y-45622000D01*
X80823000Y-45622000D01*
X80823000Y-45602000D01*
X79973750Y-45602000D01*
X79815000Y-45760750D01*
X79811928Y-47050000D01*
X79824188Y-47174482D01*
X79860498Y-47294180D01*
X79919463Y-47404494D01*
X79998815Y-47501185D01*
X80095506Y-47580537D01*
X80203540Y-47638283D01*
X78699839Y-48139517D01*
X78677106Y-48149667D01*
X78656789Y-48164057D01*
X78639671Y-48182134D01*
X78626408Y-48203204D01*
X78617510Y-48226456D01*
X78613000Y-48260000D01*
X78613000Y-90260639D01*
X77195259Y-92328178D01*
X77183260Y-92349992D01*
X77179293Y-92362524D01*
X76885750Y-92365000D01*
X76727000Y-92523750D01*
X76727000Y-95873000D01*
X76747000Y-95873000D01*
X76747000Y-96127000D01*
X76727000Y-96127000D01*
X76727000Y-96147000D01*
X76473000Y-96147000D01*
X76473000Y-96127000D01*
X76453000Y-96127000D01*
X76453000Y-95873000D01*
X76473000Y-95873000D01*
X76473000Y-92523750D01*
X76314250Y-92365000D01*
X76110000Y-92363277D01*
X76110000Y-91434876D01*
X76113435Y-91400000D01*
X76099727Y-91260816D01*
X76059128Y-91126980D01*
X75993200Y-91003637D01*
X75904475Y-90895525D01*
X75796363Y-90806800D01*
X75673020Y-90740872D01*
X75539184Y-90700273D01*
X75434877Y-90690000D01*
X75400000Y-90686565D01*
X75365123Y-90690000D01*
X75010000Y-90690000D01*
X75010000Y-43900000D01*
X79811928Y-43900000D01*
X79815000Y-45189250D01*
X79973750Y-45348000D01*
X80823000Y-45348000D01*
X80823000Y-43423750D01*
X80664250Y-43265000D01*
X80450000Y-43261928D01*
X80325518Y-43274188D01*
X80205820Y-43310498D01*
X80095506Y-43369463D01*
X79998815Y-43448815D01*
X79919463Y-43545506D01*
X79860498Y-43655820D01*
X79824188Y-43775518D01*
X79811928Y-43900000D01*
X75010000Y-43900000D01*
X75010000Y-28482877D01*
X75013435Y-28448000D01*
X74999727Y-28308816D01*
X74959128Y-28174980D01*
X74893200Y-28051637D01*
X74804475Y-27943525D01*
X74696363Y-27854800D01*
X74573020Y-27788872D01*
X74439184Y-27748273D01*
X74334877Y-27738000D01*
X74328309Y-27737353D01*
X74321000Y-26444034D01*
X74321000Y-26081000D01*
X74575000Y-26081000D01*
X74575000Y-26930250D01*
X74733750Y-27089000D01*
X74858000Y-27092072D01*
X74982482Y-27079812D01*
X75102180Y-27043502D01*
X75212494Y-26984537D01*
X75309185Y-26905185D01*
X75388537Y-26808494D01*
X75447502Y-26698180D01*
X75483812Y-26578482D01*
X75496072Y-26454000D01*
X75493000Y-26239750D01*
X75334250Y-26081000D01*
X74575000Y-26081000D01*
X74321000Y-26081000D01*
X74318948Y-26081000D01*
X74317513Y-25827000D01*
X74321000Y-25827000D01*
X74321000Y-24181000D01*
X74575000Y-24181000D01*
X74575000Y-25827000D01*
X75334250Y-25827000D01*
X75493000Y-25668250D01*
X75496072Y-25454000D01*
X75483812Y-25329518D01*
X75447502Y-25209820D01*
X75388537Y-25099506D01*
X75310158Y-25004000D01*
X75388537Y-24908494D01*
X75447502Y-24798180D01*
X75483812Y-24678482D01*
X75485829Y-24658000D01*
X75941928Y-24658000D01*
X75954188Y-24782482D01*
X75990498Y-24902180D01*
X76049463Y-25012494D01*
X76128815Y-25109185D01*
X76225506Y-25188537D01*
X76335820Y-25247502D01*
X76455518Y-25283812D01*
X76580000Y-25296072D01*
X76794250Y-25293000D01*
X76953000Y-25134250D01*
X76953000Y-23585000D01*
X76103750Y-23585000D01*
X75945000Y-23743750D01*
X75941928Y-24658000D01*
X75485829Y-24658000D01*
X75496072Y-24554000D01*
X75493000Y-24339750D01*
X75334250Y-24181000D01*
X74575000Y-24181000D01*
X74321000Y-24181000D01*
X74308210Y-24181000D01*
X74306775Y-23927000D01*
X74321000Y-23927000D01*
X74321000Y-23077750D01*
X74575000Y-23077750D01*
X74575000Y-23927000D01*
X75334250Y-23927000D01*
X75493000Y-23768250D01*
X75496072Y-23554000D01*
X75483812Y-23429518D01*
X75447502Y-23309820D01*
X75388537Y-23199506D01*
X75309185Y-23102815D01*
X75212494Y-23023463D01*
X75102180Y-22964498D01*
X74982482Y-22928188D01*
X74858000Y-22915928D01*
X74733750Y-22919000D01*
X74575000Y-23077750D01*
X74321000Y-23077750D01*
X74301867Y-23058617D01*
X74295720Y-21971000D01*
X76013386Y-21971000D01*
X75990498Y-22013820D01*
G04 #@! TA.AperFunction,Conductor*
D22*
G36*
X75990498Y-22013820D02*
G01*
X75954188Y-22133518D01*
X75941928Y-22258000D01*
X75945000Y-23172250D01*
X76103750Y-23331000D01*
X76953000Y-23331000D01*
X76953000Y-23311000D01*
X77207000Y-23311000D01*
X77207000Y-23331000D01*
X77227000Y-23331000D01*
X77227000Y-23585000D01*
X77207000Y-23585000D01*
X77207000Y-25134250D01*
X77365750Y-25293000D01*
X77580000Y-25296072D01*
X77597000Y-25294398D01*
X77597000Y-39116000D01*
X77599440Y-39140776D01*
X77606667Y-39164601D01*
X77618403Y-39186557D01*
X77629825Y-39201206D01*
X81305684Y-43263997D01*
X81235750Y-43265000D01*
X81077000Y-43423750D01*
X81077000Y-45348000D01*
X81926250Y-45348000D01*
X82085000Y-45189250D01*
X82087528Y-44128142D01*
X82351928Y-44420373D01*
X82351928Y-46922154D01*
X82087977Y-47010137D01*
X82085000Y-45760750D01*
X81926250Y-45602000D01*
X81077000Y-45602000D01*
X81077000Y-45622000D01*
X80823000Y-45622000D01*
X80823000Y-45602000D01*
X79973750Y-45602000D01*
X79815000Y-45760750D01*
X79811928Y-47050000D01*
X79824188Y-47174482D01*
X79860498Y-47294180D01*
X79919463Y-47404494D01*
X79998815Y-47501185D01*
X80095506Y-47580537D01*
X80203540Y-47638283D01*
X78699839Y-48139517D01*
X78677106Y-48149667D01*
X78656789Y-48164057D01*
X78639671Y-48182134D01*
X78626408Y-48203204D01*
X78617510Y-48226456D01*
X78613000Y-48260000D01*
X78613000Y-90260639D01*
X77195259Y-92328178D01*
X77183260Y-92349992D01*
X77179293Y-92362524D01*
X76885750Y-92365000D01*
X76727000Y-92523750D01*
X76727000Y-95873000D01*
X76747000Y-95873000D01*
X76747000Y-96127000D01*
X76727000Y-96127000D01*
X76727000Y-96147000D01*
X76473000Y-96147000D01*
X76473000Y-96127000D01*
X76453000Y-96127000D01*
X76453000Y-95873000D01*
X76473000Y-95873000D01*
X76473000Y-92523750D01*
X76314250Y-92365000D01*
X76110000Y-92363277D01*
X76110000Y-91434876D01*
X76113435Y-91400000D01*
X76099727Y-91260816D01*
X76059128Y-91126980D01*
X75993200Y-91003637D01*
X75904475Y-90895525D01*
X75796363Y-90806800D01*
X75673020Y-90740872D01*
X75539184Y-90700273D01*
X75434877Y-90690000D01*
X75400000Y-90686565D01*
X75365123Y-90690000D01*
X75010000Y-90690000D01*
X75010000Y-43900000D01*
X79811928Y-43900000D01*
X79815000Y-45189250D01*
X79973750Y-45348000D01*
X80823000Y-45348000D01*
X80823000Y-43423750D01*
X80664250Y-43265000D01*
X80450000Y-43261928D01*
X80325518Y-43274188D01*
X80205820Y-43310498D01*
X80095506Y-43369463D01*
X79998815Y-43448815D01*
X79919463Y-43545506D01*
X79860498Y-43655820D01*
X79824188Y-43775518D01*
X79811928Y-43900000D01*
X75010000Y-43900000D01*
X75010000Y-28482877D01*
X75013435Y-28448000D01*
X74999727Y-28308816D01*
X74959128Y-28174980D01*
X74893200Y-28051637D01*
X74804475Y-27943525D01*
X74696363Y-27854800D01*
X74573020Y-27788872D01*
X74439184Y-27748273D01*
X74334877Y-27738000D01*
X74328309Y-27737353D01*
X74321000Y-26444034D01*
X74321000Y-26081000D01*
X74575000Y-26081000D01*
X74575000Y-26930250D01*
X74733750Y-27089000D01*
X74858000Y-27092072D01*
X74982482Y-27079812D01*
X75102180Y-27043502D01*
X75212494Y-26984537D01*
X75309185Y-26905185D01*
X75388537Y-26808494D01*
X75447502Y-26698180D01*
X75483812Y-26578482D01*
X75496072Y-26454000D01*
X75493000Y-26239750D01*
X75334250Y-26081000D01*
X74575000Y-26081000D01*
X74321000Y-26081000D01*
X74318948Y-26081000D01*
X74317513Y-25827000D01*
X74321000Y-25827000D01*
X74321000Y-24181000D01*
X74575000Y-24181000D01*
X74575000Y-25827000D01*
X75334250Y-25827000D01*
X75493000Y-25668250D01*
X75496072Y-25454000D01*
X75483812Y-25329518D01*
X75447502Y-25209820D01*
X75388537Y-25099506D01*
X75310158Y-25004000D01*
X75388537Y-24908494D01*
X75447502Y-24798180D01*
X75483812Y-24678482D01*
X75485829Y-24658000D01*
X75941928Y-24658000D01*
X75954188Y-24782482D01*
X75990498Y-24902180D01*
X76049463Y-25012494D01*
X76128815Y-25109185D01*
X76225506Y-25188537D01*
X76335820Y-25247502D01*
X76455518Y-25283812D01*
X76580000Y-25296072D01*
X76794250Y-25293000D01*
X76953000Y-25134250D01*
X76953000Y-23585000D01*
X76103750Y-23585000D01*
X75945000Y-23743750D01*
X75941928Y-24658000D01*
X75485829Y-24658000D01*
X75496072Y-24554000D01*
X75493000Y-24339750D01*
X75334250Y-24181000D01*
X74575000Y-24181000D01*
X74321000Y-24181000D01*
X74308210Y-24181000D01*
X74306775Y-23927000D01*
X74321000Y-23927000D01*
X74321000Y-23077750D01*
X74575000Y-23077750D01*
X74575000Y-23927000D01*
X75334250Y-23927000D01*
X75493000Y-23768250D01*
X75496072Y-23554000D01*
X75483812Y-23429518D01*
X75447502Y-23309820D01*
X75388537Y-23199506D01*
X75309185Y-23102815D01*
X75212494Y-23023463D01*
X75102180Y-22964498D01*
X74982482Y-22928188D01*
X74858000Y-22915928D01*
X74733750Y-22919000D01*
X74575000Y-23077750D01*
X74321000Y-23077750D01*
X74301867Y-23058617D01*
X74295720Y-21971000D01*
X76013386Y-21971000D01*
X75990498Y-22013820D01*
G37*
G04 #@! TD.AperFunction*
D21*
X84085820Y-1168498D02*
X83975506Y-1227463D01*
X83878815Y-1306815D01*
X83799463Y-1403506D01*
X83740498Y-1513820D01*
X83704188Y-1633518D01*
X83691928Y-1758000D01*
X83695000Y-2972250D01*
X83853750Y-3131000D01*
X87203000Y-3131000D01*
X87203000Y-3111000D01*
X87457000Y-3111000D01*
X87457000Y-3131000D01*
X90806250Y-3131000D01*
X90965000Y-2972250D01*
X90968072Y-1758000D01*
X90955812Y-1633518D01*
X90919502Y-1513820D01*
X90860537Y-1403506D01*
X90781185Y-1306815D01*
X90684494Y-1227463D01*
X90574180Y-1168498D01*
X90490124Y-1143000D01*
X110169876Y-1143000D01*
X110085820Y-1168498D01*
X109975506Y-1227463D01*
X109878815Y-1306815D01*
X109799463Y-1403506D01*
X109740498Y-1513820D01*
X109704188Y-1633518D01*
X109691928Y-1758000D01*
X109695000Y-2972250D01*
X109853750Y-3131000D01*
X113203000Y-3131000D01*
X113203000Y-3111000D01*
X113457000Y-3111000D01*
X113457000Y-3131000D01*
X116806250Y-3131000D01*
X116965000Y-2972250D01*
X116968072Y-1758000D01*
X116955812Y-1633518D01*
X116919502Y-1513820D01*
X116860537Y-1403506D01*
X116781185Y-1306815D01*
X116684494Y-1227463D01*
X116574180Y-1168498D01*
X116490124Y-1143000D01*
X119292301Y-1143000D01*
X125602971Y-17803169D01*
X125592057Y-26468485D01*
X125494824Y-26507378D01*
X125457288Y-26518745D01*
X125399254Y-26549730D01*
X125340899Y-26580012D01*
X125337620Y-26582637D01*
X125333915Y-26584615D01*
X125283035Y-26626331D01*
X125231714Y-26667413D01*
X125229013Y-26670624D01*
X125225761Y-26673290D01*
X125183984Y-26724147D01*
X125141678Y-26774434D01*
X125139654Y-26778112D01*
X125136986Y-26781360D01*
X125105949Y-26839361D01*
X125074250Y-26896965D01*
X125072982Y-26900970D01*
X125071000Y-26904673D01*
X125051879Y-26967602D01*
X125032023Y-27030296D01*
X125031560Y-27034470D01*
X125030339Y-27038490D01*
X125023865Y-27103914D01*
X125016618Y-27169302D01*
X125019986Y-27208378D01*
X124990332Y-90690000D01*
X124634877Y-90690000D01*
X124600000Y-90686565D01*
X124565123Y-90690000D01*
X124460816Y-90700273D01*
X124326980Y-90740872D01*
X124203637Y-90806800D01*
X124095525Y-90895525D01*
X124006800Y-91003637D01*
X123940872Y-91126980D01*
X123900273Y-91260816D01*
X123886565Y-91400000D01*
X123890001Y-91434887D01*
X123890001Y-92363277D01*
X123685750Y-92365000D01*
X123527000Y-92523750D01*
X123527000Y-95873000D01*
X123547000Y-95873000D01*
X123547000Y-96127000D01*
X123527000Y-96127000D01*
X123527000Y-96147000D01*
X123273000Y-96147000D01*
X123273000Y-96127000D01*
X123253000Y-96127000D01*
X123253000Y-95873000D01*
X123273000Y-95873000D01*
X123273000Y-92523750D01*
X123114250Y-92365000D01*
X122750000Y-92361928D01*
X122657769Y-92371012D01*
X122649068Y-92327271D01*
X122578586Y-92157111D01*
X122476262Y-92003972D01*
X122346028Y-91873738D01*
X122192889Y-91771414D01*
X122038214Y-91707346D01*
X118827000Y-88496133D01*
X118827000Y-53718905D01*
X118907911Y-53735000D01*
X119092089Y-53735000D01*
X119272729Y-53699068D01*
X119442889Y-53628586D01*
X119596028Y-53526262D01*
X119726262Y-53396028D01*
X119828586Y-53242889D01*
X119899068Y-53072729D01*
X119935000Y-52892089D01*
X119935000Y-52707911D01*
X119917488Y-52619873D01*
X120001185Y-52551185D01*
X120080537Y-52454494D01*
X120139502Y-52344180D01*
X120175812Y-52224482D01*
X120188072Y-52100000D01*
X120188072Y-48950000D01*
X120175812Y-48825518D01*
X120139502Y-48705820D01*
X120080537Y-48595506D01*
X120001185Y-48498815D01*
X119904494Y-48419463D01*
X119794180Y-48360498D01*
X119674482Y-48324188D01*
X119550000Y-48311928D01*
X118550000Y-48311928D01*
X118547053Y-48312218D01*
X118519439Y-48278570D01*
X118519437Y-48278568D01*
X118493291Y-48246709D01*
X118461432Y-48220563D01*
X117577051Y-47336183D01*
X117599502Y-47294180D01*
X117635812Y-47174482D01*
X117648072Y-47050000D01*
X117911928Y-47050000D01*
X117924188Y-47174482D01*
X117960498Y-47294180D01*
X118019463Y-47404494D01*
X118098815Y-47501185D01*
X118195506Y-47580537D01*
X118305820Y-47639502D01*
X118425518Y-47675812D01*
X118550000Y-47688072D01*
X118764250Y-47685000D01*
X118923000Y-47526250D01*
X118923000Y-45602000D01*
X119177000Y-45602000D01*
X119177000Y-47526250D01*
X119335750Y-47685000D01*
X119550000Y-47688072D01*
X119674482Y-47675812D01*
X119794180Y-47639502D01*
X119904494Y-47580537D01*
X120001185Y-47501185D01*
X120080537Y-47404494D01*
X120139502Y-47294180D01*
X120175812Y-47174482D01*
X120188072Y-47050000D01*
X120185000Y-45760750D01*
X120026250Y-45602000D01*
X119177000Y-45602000D01*
X118923000Y-45602000D01*
X118073750Y-45602000D01*
X117915000Y-45760750D01*
X117911928Y-47050000D01*
X117648072Y-47050000D01*
X117648072Y-43900000D01*
X117911928Y-43900000D01*
X117915000Y-45189250D01*
X118073750Y-45348000D01*
X118923000Y-45348000D01*
X118923000Y-43423750D01*
X119177000Y-43423750D01*
X119177000Y-45348000D01*
X120026250Y-45348000D01*
X120185000Y-45189250D01*
X120188072Y-43900000D01*
X120175812Y-43775518D01*
X120139502Y-43655820D01*
X120080537Y-43545506D01*
X120001185Y-43448815D01*
X119904494Y-43369463D01*
X119794180Y-43310498D01*
X119674482Y-43274188D01*
X119550000Y-43261928D01*
X119335750Y-43265000D01*
X119177000Y-43423750D01*
X118923000Y-43423750D01*
X118764250Y-43265000D01*
X118550000Y-43261928D01*
X118425518Y-43274188D01*
X118305820Y-43310498D01*
X118195506Y-43369463D01*
X118098815Y-43448815D01*
X118019463Y-43545506D01*
X117960498Y-43655820D01*
X117924188Y-43775518D01*
X117911928Y-43900000D01*
X117648072Y-43900000D01*
X117635812Y-43775518D01*
X117599502Y-43655820D01*
X117580534Y-43620333D01*
X122641432Y-38559437D01*
X122673291Y-38533291D01*
X122713179Y-38484688D01*
X122725251Y-38469977D01*
X122777636Y-38406146D01*
X122855172Y-38261087D01*
X122902918Y-38103689D01*
X122915000Y-37981019D01*
X122915000Y-37981018D01*
X122919040Y-37940000D01*
X122915000Y-37898982D01*
X122915000Y-37320128D01*
X123283849Y-36915564D01*
X123298739Y-36895611D01*
X123309450Y-36873137D01*
X123315570Y-36849004D01*
X123316986Y-36828105D01*
X123144852Y-25295142D01*
X123294250Y-25293000D01*
X123453000Y-25134250D01*
X123453000Y-23585000D01*
X123707000Y-23585000D01*
X123707000Y-25134250D01*
X123865750Y-25293000D01*
X124080000Y-25296072D01*
X124204482Y-25283812D01*
X124324180Y-25247502D01*
X124434494Y-25188537D01*
X124531185Y-25109185D01*
X124610537Y-25012494D01*
X124669502Y-24902180D01*
X124705812Y-24782482D01*
X124718072Y-24658000D01*
X124715000Y-23743750D01*
X124556250Y-23585000D01*
X123707000Y-23585000D01*
X123453000Y-23585000D01*
X123433000Y-23585000D01*
X123433000Y-23331000D01*
X123453000Y-23331000D01*
X123453000Y-21781750D01*
X123707000Y-21781750D01*
X123707000Y-23331000D01*
X124556250Y-23331000D01*
X124715000Y-23172250D01*
X124718072Y-22258000D01*
X124705812Y-22133518D01*
X124669502Y-22013820D01*
X124610537Y-21903506D01*
X124531185Y-21806815D01*
X124434494Y-21727463D01*
X124324180Y-21668498D01*
X124204482Y-21632188D01*
X124080000Y-21619928D01*
X123865750Y-21623000D01*
X123707000Y-21781750D01*
X123453000Y-21781750D01*
X123294250Y-21623000D01*
X123090000Y-21620071D01*
X123062986Y-19810105D01*
X123060176Y-19785367D01*
X123052594Y-19761654D01*
X123040532Y-19739875D01*
X123024452Y-19720867D01*
X123004974Y-19705362D01*
X122982844Y-19693955D01*
X122958915Y-19687084D01*
X122936000Y-19685000D01*
X72136000Y-19685000D01*
X72111224Y-19687440D01*
X72087399Y-19694667D01*
X72065443Y-19706403D01*
X72046197Y-19722197D01*
X72030403Y-19741443D01*
X72018667Y-19763399D01*
X72011440Y-19787224D01*
X72009055Y-19815734D01*
X72103092Y-23012994D01*
X72083506Y-23023463D01*
X71986815Y-23102815D01*
X71907463Y-23199506D01*
X71848498Y-23309820D01*
X71845713Y-23319000D01*
X71420674Y-23319000D01*
X71399185Y-23292815D01*
X71302494Y-23213463D01*
X71192180Y-23154498D01*
X71072482Y-23118188D01*
X70948000Y-23105928D01*
X69948000Y-23105928D01*
X69823518Y-23118188D01*
X69703820Y-23154498D01*
X69593506Y-23213463D01*
X69496815Y-23292815D01*
X69417463Y-23389506D01*
X69358498Y-23499820D01*
X69322188Y-23619518D01*
X69309928Y-23744000D01*
X69309928Y-24564000D01*
X69322188Y-24688482D01*
X69358498Y-24808180D01*
X69417463Y-24918494D01*
X69446602Y-24954000D01*
X69417463Y-24989506D01*
X69358498Y-25099820D01*
X69322188Y-25219518D01*
X69309928Y-25344000D01*
X69313000Y-25468250D01*
X69471750Y-25627000D01*
X70321000Y-25627000D01*
X70321000Y-25607000D01*
X70575000Y-25607000D01*
X70575000Y-25627000D01*
X71424250Y-25627000D01*
X71583000Y-25468250D01*
X71586072Y-25344000D01*
X71573812Y-25219518D01*
X71537502Y-25099820D01*
X71478537Y-24989506D01*
X71478122Y-24989000D01*
X71973532Y-24989000D01*
X71985842Y-25004000D01*
X71907463Y-25099506D01*
X71848498Y-25209820D01*
X71812188Y-25329518D01*
X71799928Y-25454000D01*
X71803000Y-25668250D01*
X71961750Y-25827000D01*
X72185857Y-25827000D01*
X72193328Y-26081000D01*
X71961750Y-26081000D01*
X71803000Y-26239750D01*
X71799928Y-26454000D01*
X71812188Y-26578482D01*
X71848498Y-26698180D01*
X71907463Y-26808494D01*
X71986815Y-26905185D01*
X72083506Y-26984537D01*
X72193820Y-27043502D01*
X72221887Y-27052016D01*
X72242063Y-27738000D01*
X69290000Y-27738000D01*
X69290000Y-26164000D01*
X69309928Y-26164000D01*
X69322188Y-26288482D01*
X69358498Y-26408180D01*
X69417463Y-26518494D01*
X69496815Y-26615185D01*
X69593506Y-26694537D01*
X69703820Y-26753502D01*
X69823518Y-26789812D01*
X69948000Y-26802072D01*
X70162250Y-26799000D01*
X70321000Y-26640250D01*
X70321000Y-25881000D01*
X70575000Y-25881000D01*
X70575000Y-26640250D01*
X70733750Y-26799000D01*
X70948000Y-26802072D01*
X71072482Y-26789812D01*
X71192180Y-26753502D01*
X71302494Y-26694537D01*
X71399185Y-26615185D01*
X71478537Y-26518494D01*
X71537502Y-26408180D01*
X71573812Y-26288482D01*
X71586072Y-26164000D01*
X71583000Y-26039750D01*
X71424250Y-25881000D01*
X70575000Y-25881000D01*
X70321000Y-25881000D01*
X69471750Y-25881000D01*
X69313000Y-26039750D01*
X69309928Y-26164000D01*
X69290000Y-26164000D01*
X69290000Y-15096967D01*
X85695000Y-15096967D01*
X85695000Y-15419033D01*
X85757832Y-15734912D01*
X85881082Y-16032463D01*
X86060013Y-16300252D01*
X86287748Y-16527987D01*
X86555537Y-16706918D01*
X86853088Y-16830168D01*
X87168967Y-16893000D01*
X87491033Y-16893000D01*
X87806912Y-16830168D01*
X88104463Y-16706918D01*
X88372252Y-16527987D01*
X88599987Y-16300252D01*
X88778918Y-16032463D01*
X88902168Y-15734912D01*
X88965000Y-15419033D01*
X88965000Y-15096967D01*
X111695000Y-15096967D01*
X111695000Y-15419033D01*
X111757832Y-15734912D01*
X111881082Y-16032463D01*
X112060013Y-16300252D01*
X112287748Y-16527987D01*
X112555537Y-16706918D01*
X112853088Y-16830168D01*
X113168967Y-16893000D01*
X113491033Y-16893000D01*
X113806912Y-16830168D01*
X114104463Y-16706918D01*
X114372252Y-16527987D01*
X114599987Y-16300252D01*
X114778918Y-16032463D01*
X114902168Y-15734912D01*
X114965000Y-15419033D01*
X114965000Y-15096967D01*
X114902168Y-14781088D01*
X114778918Y-14483537D01*
X114599987Y-14215748D01*
X114372252Y-13988013D01*
X114104463Y-13809082D01*
X113806912Y-13685832D01*
X113491033Y-13623000D01*
X113168967Y-13623000D01*
X112853088Y-13685832D01*
X112555537Y-13809082D01*
X112287748Y-13988013D01*
X112060013Y-14215748D01*
X111881082Y-14483537D01*
X111757832Y-14781088D01*
X111695000Y-15096967D01*
X88965000Y-15096967D01*
X88902168Y-14781088D01*
X88778918Y-14483537D01*
X88599987Y-14215748D01*
X88372252Y-13988013D01*
X88104463Y-13809082D01*
X87806912Y-13685832D01*
X87491033Y-13623000D01*
X87168967Y-13623000D01*
X86853088Y-13685832D01*
X86555537Y-13809082D01*
X86287748Y-13988013D01*
X86060013Y-14215748D01*
X85881082Y-14483537D01*
X85757832Y-14781088D01*
X85695000Y-15096967D01*
X69290000Y-15096967D01*
X69290000Y-13088476D01*
X78041207Y-4758000D01*
X83691928Y-4758000D01*
X83704188Y-4882482D01*
X83740498Y-5002180D01*
X83799463Y-5112494D01*
X83878815Y-5209185D01*
X83975506Y-5288537D01*
X84085820Y-5347502D01*
X84205518Y-5383812D01*
X84330000Y-5396072D01*
X87044250Y-5393000D01*
X87203000Y-5234250D01*
X87203000Y-3385000D01*
X87457000Y-3385000D01*
X87457000Y-5234250D01*
X87615750Y-5393000D01*
X90330000Y-5396072D01*
X90454482Y-5383812D01*
X90574180Y-5347502D01*
X90684494Y-5288537D01*
X90781185Y-5209185D01*
X90860537Y-5112494D01*
X90919502Y-5002180D01*
X90955812Y-4882482D01*
X90968072Y-4758000D01*
X109691928Y-4758000D01*
X109704188Y-4882482D01*
X109740498Y-5002180D01*
X109799463Y-5112494D01*
X109878815Y-5209185D01*
X109975506Y-5288537D01*
X110085820Y-5347502D01*
X110205518Y-5383812D01*
X110330000Y-5396072D01*
X113044250Y-5393000D01*
X113203000Y-5234250D01*
X113203000Y-3385000D01*
X113457000Y-3385000D01*
X113457000Y-5234250D01*
X113615750Y-5393000D01*
X116330000Y-5396072D01*
X116454482Y-5383812D01*
X116574180Y-5347502D01*
X116684494Y-5288537D01*
X116781185Y-5209185D01*
X116860537Y-5112494D01*
X116919502Y-5002180D01*
X116955812Y-4882482D01*
X116968072Y-4758000D01*
X116965000Y-3543750D01*
X116806250Y-3385000D01*
X113457000Y-3385000D01*
X113203000Y-3385000D01*
X109853750Y-3385000D01*
X109695000Y-3543750D01*
X109691928Y-4758000D01*
X90968072Y-4758000D01*
X90965000Y-3543750D01*
X90806250Y-3385000D01*
X87457000Y-3385000D01*
X87203000Y-3385000D01*
X83853750Y-3385000D01*
X83695000Y-3543750D01*
X83691928Y-4758000D01*
X78041207Y-4758000D01*
X81838783Y-1143000D01*
X84169876Y-1143000D01*
X84085820Y-1168498D01*
G04 #@! TA.AperFunction,Conductor*
D22*
G36*
X84085820Y-1168498D02*
G01*
X83975506Y-1227463D01*
X83878815Y-1306815D01*
X83799463Y-1403506D01*
X83740498Y-1513820D01*
X83704188Y-1633518D01*
X83691928Y-1758000D01*
X83695000Y-2972250D01*
X83853750Y-3131000D01*
X87203000Y-3131000D01*
X87203000Y-3111000D01*
X87457000Y-3111000D01*
X87457000Y-3131000D01*
X90806250Y-3131000D01*
X90965000Y-2972250D01*
X90968072Y-1758000D01*
X90955812Y-1633518D01*
X90919502Y-1513820D01*
X90860537Y-1403506D01*
X90781185Y-1306815D01*
X90684494Y-1227463D01*
X90574180Y-1168498D01*
X90490124Y-1143000D01*
X110169876Y-1143000D01*
X110085820Y-1168498D01*
X109975506Y-1227463D01*
X109878815Y-1306815D01*
X109799463Y-1403506D01*
X109740498Y-1513820D01*
X109704188Y-1633518D01*
X109691928Y-1758000D01*
X109695000Y-2972250D01*
X109853750Y-3131000D01*
X113203000Y-3131000D01*
X113203000Y-3111000D01*
X113457000Y-3111000D01*
X113457000Y-3131000D01*
X116806250Y-3131000D01*
X116965000Y-2972250D01*
X116968072Y-1758000D01*
X116955812Y-1633518D01*
X116919502Y-1513820D01*
X116860537Y-1403506D01*
X116781185Y-1306815D01*
X116684494Y-1227463D01*
X116574180Y-1168498D01*
X116490124Y-1143000D01*
X119292301Y-1143000D01*
X125602971Y-17803169D01*
X125592057Y-26468485D01*
X125494824Y-26507378D01*
X125457288Y-26518745D01*
X125399254Y-26549730D01*
X125340899Y-26580012D01*
X125337620Y-26582637D01*
X125333915Y-26584615D01*
X125283035Y-26626331D01*
X125231714Y-26667413D01*
X125229013Y-26670624D01*
X125225761Y-26673290D01*
X125183984Y-26724147D01*
X125141678Y-26774434D01*
X125139654Y-26778112D01*
X125136986Y-26781360D01*
X125105949Y-26839361D01*
X125074250Y-26896965D01*
X125072982Y-26900970D01*
X125071000Y-26904673D01*
X125051879Y-26967602D01*
X125032023Y-27030296D01*
X125031560Y-27034470D01*
X125030339Y-27038490D01*
X125023865Y-27103914D01*
X125016618Y-27169302D01*
X125019986Y-27208378D01*
X124990332Y-90690000D01*
X124634877Y-90690000D01*
X124600000Y-90686565D01*
X124565123Y-90690000D01*
X124460816Y-90700273D01*
X124326980Y-90740872D01*
X124203637Y-90806800D01*
X124095525Y-90895525D01*
X124006800Y-91003637D01*
X123940872Y-91126980D01*
X123900273Y-91260816D01*
X123886565Y-91400000D01*
X123890001Y-91434887D01*
X123890001Y-92363277D01*
X123685750Y-92365000D01*
X123527000Y-92523750D01*
X123527000Y-95873000D01*
X123547000Y-95873000D01*
X123547000Y-96127000D01*
X123527000Y-96127000D01*
X123527000Y-96147000D01*
X123273000Y-96147000D01*
X123273000Y-96127000D01*
X123253000Y-96127000D01*
X123253000Y-95873000D01*
X123273000Y-95873000D01*
X123273000Y-92523750D01*
X123114250Y-92365000D01*
X122750000Y-92361928D01*
X122657769Y-92371012D01*
X122649068Y-92327271D01*
X122578586Y-92157111D01*
X122476262Y-92003972D01*
X122346028Y-91873738D01*
X122192889Y-91771414D01*
X122038214Y-91707346D01*
X118827000Y-88496133D01*
X118827000Y-53718905D01*
X118907911Y-53735000D01*
X119092089Y-53735000D01*
X119272729Y-53699068D01*
X119442889Y-53628586D01*
X119596028Y-53526262D01*
X119726262Y-53396028D01*
X119828586Y-53242889D01*
X119899068Y-53072729D01*
X119935000Y-52892089D01*
X119935000Y-52707911D01*
X119917488Y-52619873D01*
X120001185Y-52551185D01*
X120080537Y-52454494D01*
X120139502Y-52344180D01*
X120175812Y-52224482D01*
X120188072Y-52100000D01*
X120188072Y-48950000D01*
X120175812Y-48825518D01*
X120139502Y-48705820D01*
X120080537Y-48595506D01*
X120001185Y-48498815D01*
X119904494Y-48419463D01*
X119794180Y-48360498D01*
X119674482Y-48324188D01*
X119550000Y-48311928D01*
X118550000Y-48311928D01*
X118547053Y-48312218D01*
X118519439Y-48278570D01*
X118519437Y-48278568D01*
X118493291Y-48246709D01*
X118461432Y-48220563D01*
X117577051Y-47336183D01*
X117599502Y-47294180D01*
X117635812Y-47174482D01*
X117648072Y-47050000D01*
X117911928Y-47050000D01*
X117924188Y-47174482D01*
X117960498Y-47294180D01*
X118019463Y-47404494D01*
X118098815Y-47501185D01*
X118195506Y-47580537D01*
X118305820Y-47639502D01*
X118425518Y-47675812D01*
X118550000Y-47688072D01*
X118764250Y-47685000D01*
X118923000Y-47526250D01*
X118923000Y-45602000D01*
X119177000Y-45602000D01*
X119177000Y-47526250D01*
X119335750Y-47685000D01*
X119550000Y-47688072D01*
X119674482Y-47675812D01*
X119794180Y-47639502D01*
X119904494Y-47580537D01*
X120001185Y-47501185D01*
X120080537Y-47404494D01*
X120139502Y-47294180D01*
X120175812Y-47174482D01*
X120188072Y-47050000D01*
X120185000Y-45760750D01*
X120026250Y-45602000D01*
X119177000Y-45602000D01*
X118923000Y-45602000D01*
X118073750Y-45602000D01*
X117915000Y-45760750D01*
X117911928Y-47050000D01*
X117648072Y-47050000D01*
X117648072Y-43900000D01*
X117911928Y-43900000D01*
X117915000Y-45189250D01*
X118073750Y-45348000D01*
X118923000Y-45348000D01*
X118923000Y-43423750D01*
X119177000Y-43423750D01*
X119177000Y-45348000D01*
X120026250Y-45348000D01*
X120185000Y-45189250D01*
X120188072Y-43900000D01*
X120175812Y-43775518D01*
X120139502Y-43655820D01*
X120080537Y-43545506D01*
X120001185Y-43448815D01*
X119904494Y-43369463D01*
X119794180Y-43310498D01*
X119674482Y-43274188D01*
X119550000Y-43261928D01*
X119335750Y-43265000D01*
X119177000Y-43423750D01*
X118923000Y-43423750D01*
X118764250Y-43265000D01*
X118550000Y-43261928D01*
X118425518Y-43274188D01*
X118305820Y-43310498D01*
X118195506Y-43369463D01*
X118098815Y-43448815D01*
X118019463Y-43545506D01*
X117960498Y-43655820D01*
X117924188Y-43775518D01*
X117911928Y-43900000D01*
X117648072Y-43900000D01*
X117635812Y-43775518D01*
X117599502Y-43655820D01*
X117580534Y-43620333D01*
X122641432Y-38559437D01*
X122673291Y-38533291D01*
X122713179Y-38484688D01*
X122725251Y-38469977D01*
X122777636Y-38406146D01*
X122855172Y-38261087D01*
X122902918Y-38103689D01*
X122915000Y-37981019D01*
X122915000Y-37981018D01*
X122919040Y-37940000D01*
X122915000Y-37898982D01*
X122915000Y-37320128D01*
X123283849Y-36915564D01*
X123298739Y-36895611D01*
X123309450Y-36873137D01*
X123315570Y-36849004D01*
X123316986Y-36828105D01*
X123144852Y-25295142D01*
X123294250Y-25293000D01*
X123453000Y-25134250D01*
X123453000Y-23585000D01*
X123707000Y-23585000D01*
X123707000Y-25134250D01*
X123865750Y-25293000D01*
X124080000Y-25296072D01*
X124204482Y-25283812D01*
X124324180Y-25247502D01*
X124434494Y-25188537D01*
X124531185Y-25109185D01*
X124610537Y-25012494D01*
X124669502Y-24902180D01*
X124705812Y-24782482D01*
X124718072Y-24658000D01*
X124715000Y-23743750D01*
X124556250Y-23585000D01*
X123707000Y-23585000D01*
X123453000Y-23585000D01*
X123433000Y-23585000D01*
X123433000Y-23331000D01*
X123453000Y-23331000D01*
X123453000Y-21781750D01*
X123707000Y-21781750D01*
X123707000Y-23331000D01*
X124556250Y-23331000D01*
X124715000Y-23172250D01*
X124718072Y-22258000D01*
X124705812Y-22133518D01*
X124669502Y-22013820D01*
X124610537Y-21903506D01*
X124531185Y-21806815D01*
X124434494Y-21727463D01*
X124324180Y-21668498D01*
X124204482Y-21632188D01*
X124080000Y-21619928D01*
X123865750Y-21623000D01*
X123707000Y-21781750D01*
X123453000Y-21781750D01*
X123294250Y-21623000D01*
X123090000Y-21620071D01*
X123062986Y-19810105D01*
X123060176Y-19785367D01*
X123052594Y-19761654D01*
X123040532Y-19739875D01*
X123024452Y-19720867D01*
X123004974Y-19705362D01*
X122982844Y-19693955D01*
X122958915Y-19687084D01*
X122936000Y-19685000D01*
X72136000Y-19685000D01*
X72111224Y-19687440D01*
X72087399Y-19694667D01*
X72065443Y-19706403D01*
X72046197Y-19722197D01*
X72030403Y-19741443D01*
X72018667Y-19763399D01*
X72011440Y-19787224D01*
X72009055Y-19815734D01*
X72103092Y-23012994D01*
X72083506Y-23023463D01*
X71986815Y-23102815D01*
X71907463Y-23199506D01*
X71848498Y-23309820D01*
X71845713Y-23319000D01*
X71420674Y-23319000D01*
X71399185Y-23292815D01*
X71302494Y-23213463D01*
X71192180Y-23154498D01*
X71072482Y-23118188D01*
X70948000Y-23105928D01*
X69948000Y-23105928D01*
X69823518Y-23118188D01*
X69703820Y-23154498D01*
X69593506Y-23213463D01*
X69496815Y-23292815D01*
X69417463Y-23389506D01*
X69358498Y-23499820D01*
X69322188Y-23619518D01*
X69309928Y-23744000D01*
X69309928Y-24564000D01*
X69322188Y-24688482D01*
X69358498Y-24808180D01*
X69417463Y-24918494D01*
X69446602Y-24954000D01*
X69417463Y-24989506D01*
X69358498Y-25099820D01*
X69322188Y-25219518D01*
X69309928Y-25344000D01*
X69313000Y-25468250D01*
X69471750Y-25627000D01*
X70321000Y-25627000D01*
X70321000Y-25607000D01*
X70575000Y-25607000D01*
X70575000Y-25627000D01*
X71424250Y-25627000D01*
X71583000Y-25468250D01*
X71586072Y-25344000D01*
X71573812Y-25219518D01*
X71537502Y-25099820D01*
X71478537Y-24989506D01*
X71478122Y-24989000D01*
X71973532Y-24989000D01*
X71985842Y-25004000D01*
X71907463Y-25099506D01*
X71848498Y-25209820D01*
X71812188Y-25329518D01*
X71799928Y-25454000D01*
X71803000Y-25668250D01*
X71961750Y-25827000D01*
X72185857Y-25827000D01*
X72193328Y-26081000D01*
X71961750Y-26081000D01*
X71803000Y-26239750D01*
X71799928Y-26454000D01*
X71812188Y-26578482D01*
X71848498Y-26698180D01*
X71907463Y-26808494D01*
X71986815Y-26905185D01*
X72083506Y-26984537D01*
X72193820Y-27043502D01*
X72221887Y-27052016D01*
X72242063Y-27738000D01*
X69290000Y-27738000D01*
X69290000Y-26164000D01*
X69309928Y-26164000D01*
X69322188Y-26288482D01*
X69358498Y-26408180D01*
X69417463Y-26518494D01*
X69496815Y-26615185D01*
X69593506Y-26694537D01*
X69703820Y-26753502D01*
X69823518Y-26789812D01*
X69948000Y-26802072D01*
X70162250Y-26799000D01*
X70321000Y-26640250D01*
X70321000Y-25881000D01*
X70575000Y-25881000D01*
X70575000Y-26640250D01*
X70733750Y-26799000D01*
X70948000Y-26802072D01*
X71072482Y-26789812D01*
X71192180Y-26753502D01*
X71302494Y-26694537D01*
X71399185Y-26615185D01*
X71478537Y-26518494D01*
X71537502Y-26408180D01*
X71573812Y-26288482D01*
X71586072Y-26164000D01*
X71583000Y-26039750D01*
X71424250Y-25881000D01*
X70575000Y-25881000D01*
X70321000Y-25881000D01*
X69471750Y-25881000D01*
X69313000Y-26039750D01*
X69309928Y-26164000D01*
X69290000Y-26164000D01*
X69290000Y-15096967D01*
X85695000Y-15096967D01*
X85695000Y-15419033D01*
X85757832Y-15734912D01*
X85881082Y-16032463D01*
X86060013Y-16300252D01*
X86287748Y-16527987D01*
X86555537Y-16706918D01*
X86853088Y-16830168D01*
X87168967Y-16893000D01*
X87491033Y-16893000D01*
X87806912Y-16830168D01*
X88104463Y-16706918D01*
X88372252Y-16527987D01*
X88599987Y-16300252D01*
X88778918Y-16032463D01*
X88902168Y-15734912D01*
X88965000Y-15419033D01*
X88965000Y-15096967D01*
X111695000Y-15096967D01*
X111695000Y-15419033D01*
X111757832Y-15734912D01*
X111881082Y-16032463D01*
X112060013Y-16300252D01*
X112287748Y-16527987D01*
X112555537Y-16706918D01*
X112853088Y-16830168D01*
X113168967Y-16893000D01*
X113491033Y-16893000D01*
X113806912Y-16830168D01*
X114104463Y-16706918D01*
X114372252Y-16527987D01*
X114599987Y-16300252D01*
X114778918Y-16032463D01*
X114902168Y-15734912D01*
X114965000Y-15419033D01*
X114965000Y-15096967D01*
X114902168Y-14781088D01*
X114778918Y-14483537D01*
X114599987Y-14215748D01*
X114372252Y-13988013D01*
X114104463Y-13809082D01*
X113806912Y-13685832D01*
X113491033Y-13623000D01*
X113168967Y-13623000D01*
X112853088Y-13685832D01*
X112555537Y-13809082D01*
X112287748Y-13988013D01*
X112060013Y-14215748D01*
X111881082Y-14483537D01*
X111757832Y-14781088D01*
X111695000Y-15096967D01*
X88965000Y-15096967D01*
X88902168Y-14781088D01*
X88778918Y-14483537D01*
X88599987Y-14215748D01*
X88372252Y-13988013D01*
X88104463Y-13809082D01*
X87806912Y-13685832D01*
X87491033Y-13623000D01*
X87168967Y-13623000D01*
X86853088Y-13685832D01*
X86555537Y-13809082D01*
X86287748Y-13988013D01*
X86060013Y-14215748D01*
X85881082Y-14483537D01*
X85757832Y-14781088D01*
X85695000Y-15096967D01*
X69290000Y-15096967D01*
X69290000Y-13088476D01*
X78041207Y-4758000D01*
X83691928Y-4758000D01*
X83704188Y-4882482D01*
X83740498Y-5002180D01*
X83799463Y-5112494D01*
X83878815Y-5209185D01*
X83975506Y-5288537D01*
X84085820Y-5347502D01*
X84205518Y-5383812D01*
X84330000Y-5396072D01*
X87044250Y-5393000D01*
X87203000Y-5234250D01*
X87203000Y-3385000D01*
X87457000Y-3385000D01*
X87457000Y-5234250D01*
X87615750Y-5393000D01*
X90330000Y-5396072D01*
X90454482Y-5383812D01*
X90574180Y-5347502D01*
X90684494Y-5288537D01*
X90781185Y-5209185D01*
X90860537Y-5112494D01*
X90919502Y-5002180D01*
X90955812Y-4882482D01*
X90968072Y-4758000D01*
X109691928Y-4758000D01*
X109704188Y-4882482D01*
X109740498Y-5002180D01*
X109799463Y-5112494D01*
X109878815Y-5209185D01*
X109975506Y-5288537D01*
X110085820Y-5347502D01*
X110205518Y-5383812D01*
X110330000Y-5396072D01*
X113044250Y-5393000D01*
X113203000Y-5234250D01*
X113203000Y-3385000D01*
X113457000Y-3385000D01*
X113457000Y-5234250D01*
X113615750Y-5393000D01*
X116330000Y-5396072D01*
X116454482Y-5383812D01*
X116574180Y-5347502D01*
X116684494Y-5288537D01*
X116781185Y-5209185D01*
X116860537Y-5112494D01*
X116919502Y-5002180D01*
X116955812Y-4882482D01*
X116968072Y-4758000D01*
X116965000Y-3543750D01*
X116806250Y-3385000D01*
X113457000Y-3385000D01*
X113203000Y-3385000D01*
X109853750Y-3385000D01*
X109695000Y-3543750D01*
X109691928Y-4758000D01*
X90968072Y-4758000D01*
X90965000Y-3543750D01*
X90806250Y-3385000D01*
X87457000Y-3385000D01*
X87203000Y-3385000D01*
X83853750Y-3385000D01*
X83695000Y-3543750D01*
X83691928Y-4758000D01*
X78041207Y-4758000D01*
X81838783Y-1143000D01*
X84169876Y-1143000D01*
X84085820Y-1168498D01*
G37*
G04 #@! TD.AperFunction*
M02*
