G04 #@! TF.GenerationSoftware,KiCad,Pcbnew,(5.1.12)-1*
G04 #@! TF.CreationDate,2023-02-12T19:07:51-08:00*
G04 #@! TF.ProjectId,GB-BRK-CART,47422d42-524b-42d4-9341-52542e6b6963,v1.0*
G04 #@! TF.SameCoordinates,Original*
G04 #@! TF.FileFunction,Copper,L2,Bot*
G04 #@! TF.FilePolarity,Positive*
%FSLAX46Y46*%
G04 Gerber Fmt 4.6, Leading zero omitted, Abs format (unit mm)*
G04 Created by KiCad (PCBNEW (5.1.12)-1) date 2023-02-12 19:07:51*
%MOMM*%
%LPD*%
G01*
G04 APERTURE LIST*
G04 #@! TA.AperFunction,SMDPad,CuDef*
%ADD10R,1.000000X2.400000*%
G04 #@! TD*
G04 #@! TA.AperFunction,SMDPad,CuDef*
%ADD11R,6.000000X3.000000*%
G04 #@! TD*
G04 #@! TA.AperFunction,ViaPad*
%ADD12C,0.600000*%
G04 #@! TD*
G04 #@! TA.AperFunction,ViaPad*
%ADD13C,1.000000*%
G04 #@! TD*
G04 #@! TA.AperFunction,Conductor*
%ADD14C,0.800000*%
G04 #@! TD*
G04 #@! TA.AperFunction,Conductor*
%ADD15C,0.400000*%
G04 #@! TD*
G04 #@! TA.AperFunction,Conductor*
%ADD16C,0.254000*%
G04 #@! TD*
G04 #@! TA.AperFunction,Conductor*
%ADD17C,0.100000*%
G04 #@! TD*
G04 APERTURE END LIST*
D10*
X77080000Y-23458000D03*
X78580000Y-23458000D03*
X80080000Y-23458000D03*
X81580000Y-23458000D03*
X83080000Y-23458000D03*
X84580000Y-23458000D03*
X86080000Y-23458000D03*
X87580000Y-23458000D03*
X89080000Y-23458000D03*
X90580000Y-23458000D03*
X92080000Y-23458000D03*
X93580000Y-23458000D03*
X95080000Y-23458000D03*
X96580000Y-23458000D03*
X98080000Y-23458000D03*
X99580000Y-23458000D03*
X101080000Y-23458000D03*
X102580000Y-23458000D03*
X104080000Y-23458000D03*
X105580000Y-23458000D03*
X107080000Y-23458000D03*
X108580000Y-23458000D03*
X110080000Y-23458000D03*
X111580000Y-23458000D03*
X113080000Y-23458000D03*
X114580000Y-23458000D03*
X116080000Y-23458000D03*
X117580000Y-23458000D03*
X119080000Y-23458000D03*
X120580000Y-23458000D03*
X122080000Y-23458000D03*
D11*
X87330000Y-3258000D03*
X113330000Y-3258000D03*
D10*
X123580000Y-23458000D03*
D12*
X96520000Y-79502000D03*
X101092000Y-79502000D03*
X97536000Y-76962000D03*
X101600000Y-78994000D03*
X98044000Y-77470000D03*
X97536000Y-75438000D03*
X98044000Y-76454000D03*
X101092000Y-72390000D03*
X97536000Y-72390000D03*
X96520000Y-71374000D03*
X101092000Y-76454000D03*
X96520000Y-71374000D03*
X98552000Y-76962000D03*
X99568000Y-73914000D03*
X100584000Y-76962000D03*
X102108000Y-78486000D03*
X102108000Y-71374000D03*
X101092000Y-75438000D03*
X95504010Y-73914000D03*
X103124024Y-73914000D03*
X98806000Y-78486000D03*
X100076000Y-78486000D03*
X99822000Y-6350000D03*
X99314000Y-5842000D03*
X102362000Y-1778000D03*
X98806000Y-1778000D03*
X97790000Y-762000D03*
X97790000Y-762000D03*
X98806000Y-4826000D03*
X97790000Y-8890000D03*
X98806000Y-6350000D03*
X102362000Y-8890000D03*
X102870000Y-8382000D03*
X99314000Y-6858000D03*
X102362000Y-5842000D03*
X100838000Y-3302000D03*
X103378000Y-762000D03*
X104394024Y-3302000D03*
X102362000Y-4826000D03*
X101854000Y-6350000D03*
X103378000Y-7874000D03*
X96774010Y-3302000D03*
X100076000Y-7874000D03*
X101346000Y-7874000D03*
D13*
X74448000Y-21056028D03*
D12*
X123400000Y-92600000D03*
D13*
X123400000Y-90200000D03*
X123900000Y-84000000D03*
X120300000Y-86100000D03*
X122300000Y-48800000D03*
X123300000Y-54900000D03*
X120300000Y-59000000D03*
X123000000Y-63200000D03*
X123300000Y-74500000D03*
X120300000Y-78300000D03*
X120700000Y-68500000D03*
D12*
X118110000Y-3302000D03*
X108458000Y-3302000D03*
X84300000Y-92600000D03*
X80950000Y-54782002D03*
X84300000Y-64131998D03*
X114807990Y-30480000D03*
X104648001Y-30480001D03*
X78300000Y-92600000D03*
X116332000Y-29464000D03*
X79502000Y-34544000D03*
X94798819Y-30125134D03*
X85700000Y-92600000D03*
X83490000Y-54822002D03*
X113792000Y-31496004D03*
X105156000Y-31380010D03*
X87250000Y-92600000D03*
X87400000Y-54332000D03*
X104648000Y-33528000D03*
X112522000Y-37846000D03*
X88800000Y-92600000D03*
X88392000Y-48006000D03*
X111506000Y-38862000D03*
X105156000Y-34544000D03*
X90200000Y-92600000D03*
X91140902Y-57231902D03*
X105154093Y-36344011D03*
X109728000Y-41148000D03*
X108250000Y-92600000D03*
X101556164Y-57115219D03*
X93976523Y-47800000D03*
X92075000Y-41275000D03*
X92202000Y-26670000D03*
X93472000Y-31103990D03*
X91800000Y-92600000D03*
X94996000Y-48006000D03*
X104394000Y-38356808D03*
X107790595Y-41815405D03*
X109750000Y-92600000D03*
X101911759Y-56180566D03*
X96284915Y-47704199D03*
X91186000Y-40259000D03*
X90678000Y-26670000D03*
X91948000Y-31103990D03*
X93300000Y-92600000D03*
X97536000Y-48006000D03*
X105916596Y-42927404D03*
X104011596Y-41022404D03*
X104100000Y-56800000D03*
X111250000Y-92600000D03*
X98679000Y-47879000D03*
X90208011Y-39204989D03*
X89154000Y-26670000D03*
X90932000Y-31103990D03*
X94700000Y-92600000D03*
X99822000Y-48006000D03*
X104400000Y-55800000D03*
X112750000Y-92600000D03*
X89408000Y-38100000D03*
X87630000Y-26670000D03*
X100838000Y-48006000D03*
X89916000Y-31103990D03*
X96200000Y-92600000D03*
X102362000Y-48006000D03*
X113422010Y-34290000D03*
X104140000Y-20320000D03*
X114250000Y-92600000D03*
X88392000Y-37084000D03*
X86106000Y-26670000D03*
X88900000Y-31103990D03*
X97700000Y-92600000D03*
X103301000Y-53009000D03*
X114425718Y-34257749D03*
X102616000Y-20320000D03*
X115750000Y-92600000D03*
X87376000Y-36068000D03*
X84582000Y-26670000D03*
X87630000Y-31103990D03*
X106300000Y-52800000D03*
X99300000Y-92600000D03*
X104394000Y-61849000D03*
X115570000Y-34290030D03*
X101092000Y-20320000D03*
X117250000Y-92600000D03*
X86487000Y-35052000D03*
X83312000Y-26670000D03*
X86614000Y-31103990D03*
X108900000Y-52800000D03*
X100800000Y-92600000D03*
X105346500Y-62484000D03*
X121412000Y-29718000D03*
X99568000Y-20320000D03*
X118750000Y-92600000D03*
X85350813Y-34096006D03*
X81788000Y-26670000D03*
X85598000Y-31103990D03*
X111400000Y-52800000D03*
X102300000Y-92600000D03*
X106172004Y-63119000D03*
X98044000Y-20320000D03*
X122084525Y-30645581D03*
X114000000Y-52800000D03*
X103800000Y-92600000D03*
X107061000Y-63817500D03*
X96774000Y-20320000D03*
X122795840Y-31348471D03*
X121750000Y-92600000D03*
X78740000Y-26670000D03*
X119000000Y-52800000D03*
X106800000Y-92600000D03*
X109002605Y-64980790D03*
X93726000Y-20320000D03*
X124206000Y-32766000D03*
X120250000Y-92600000D03*
X84375752Y-33296011D03*
X84328000Y-31103990D03*
X80010000Y-26670000D03*
X82800000Y-92600000D03*
X84499996Y-62600000D03*
X91110000Y-47955006D03*
X94711737Y-26843300D03*
X115824425Y-26763979D03*
X79373596Y-29338404D03*
X81300000Y-92600000D03*
X84582000Y-59943998D03*
X94739789Y-27973980D03*
X89662000Y-48006000D03*
X116840000Y-27663980D03*
X79501998Y-30988002D03*
X79800000Y-92600000D03*
X84582000Y-58039000D03*
X86106000Y-48006000D03*
X115824000Y-28563990D03*
X79502000Y-32766000D03*
X94902068Y-29084508D03*
X116500000Y-52800000D03*
X105300000Y-92600000D03*
X107961010Y-64389004D03*
X95251404Y-20321404D03*
X123484460Y-32073610D03*
D14*
X123580000Y-23458000D02*
X123580000Y-21458000D01*
X123580000Y-21458000D02*
X120951995Y-18829995D01*
X120951995Y-18829995D02*
X76674033Y-18829995D01*
X76674033Y-18829995D02*
X74448000Y-21056028D01*
D15*
X80950000Y-60781998D02*
X80950000Y-54782002D01*
X84300000Y-64131998D02*
X80950000Y-60781998D01*
X116080000Y-23458000D02*
X116080000Y-25058000D01*
X116080000Y-25058000D02*
X114807990Y-26330010D01*
X114807990Y-26330010D02*
X114807990Y-30480000D01*
X80950000Y-54782002D02*
X80950000Y-46050000D01*
X80950000Y-46050000D02*
X84824999Y-42175001D01*
X84824999Y-42175001D02*
X92953001Y-42175001D01*
X92953001Y-42175001D02*
X104648001Y-30480001D01*
X122080000Y-23458000D02*
X122080000Y-25163388D01*
X117779388Y-29464000D02*
X116332000Y-29464000D01*
X122080000Y-25163388D02*
X117779388Y-29464000D01*
X83920866Y-30125134D02*
X94798819Y-30125134D01*
X79502000Y-34544000D02*
X83920866Y-30125134D01*
X114580000Y-23458000D02*
X114580000Y-25058000D01*
X114580000Y-25058000D02*
X113792000Y-25846000D01*
X113792000Y-25846000D02*
X113792000Y-31496004D01*
X83490000Y-54822002D02*
X83490000Y-46050000D01*
X85598000Y-43942000D02*
X92594010Y-43942000D01*
X83490000Y-46050000D02*
X85598000Y-43942000D01*
X92594010Y-43942000D02*
X105156000Y-31380010D01*
X93433990Y-44742010D02*
X104648000Y-33528000D01*
X88353990Y-44742010D02*
X93433990Y-44742010D01*
X87400000Y-45696000D02*
X88353990Y-44742010D01*
X87400000Y-54332000D02*
X87400000Y-45696000D01*
X104648000Y-33528000D02*
X104648000Y-33528000D01*
X112522000Y-25296002D02*
X113080000Y-24738002D01*
X113080000Y-24738002D02*
X113080000Y-23458000D01*
X112522000Y-37846000D02*
X112522000Y-25296002D01*
X111506000Y-23532000D02*
X111580000Y-23458000D01*
X111506000Y-38862000D02*
X111506000Y-23532000D01*
X88392000Y-47581736D02*
X90253736Y-45720000D01*
X93980000Y-45720000D02*
X105156000Y-34544000D01*
X90253736Y-45720000D02*
X93980000Y-45720000D01*
X88392000Y-48006000D02*
X88392000Y-47581736D01*
X104729829Y-36344011D02*
X105154093Y-36344011D01*
X91140902Y-57231902D02*
X92710000Y-55662804D01*
X93544522Y-46899999D02*
X94173841Y-46899999D01*
X92710000Y-55662804D02*
X92710000Y-47734521D01*
X94173841Y-46899999D02*
X104729829Y-36344011D01*
X92710000Y-47734521D02*
X93544522Y-46899999D01*
X110080000Y-40796000D02*
X109728000Y-41148000D01*
X110080000Y-23458000D02*
X110080000Y-40796000D01*
X92075000Y-23463000D02*
X92080000Y-23458000D01*
X93472000Y-31242000D02*
X93472000Y-31242000D01*
X92202000Y-23580000D02*
X92080000Y-23458000D01*
X92202000Y-26670000D02*
X92202000Y-23580000D01*
X93980000Y-47803477D02*
X93976523Y-47800000D01*
X93980000Y-54864000D02*
X93980000Y-47803477D01*
X96231219Y-57115219D02*
X93980000Y-54864000D01*
X101556164Y-57115219D02*
X96231219Y-57115219D01*
X93472000Y-39878000D02*
X93472000Y-31103990D01*
X92075000Y-41275000D02*
X93472000Y-39878000D01*
X94996000Y-47668264D02*
X104307456Y-38356808D01*
X94996000Y-48006000D02*
X94996000Y-47668264D01*
X104307456Y-38356808D02*
X104394000Y-38356808D01*
X108712000Y-40894000D02*
X107790595Y-41815405D01*
X108712000Y-23590000D02*
X108712000Y-40894000D01*
X108580000Y-23458000D02*
X108712000Y-23590000D01*
X91948000Y-31242000D02*
X91948000Y-31242000D01*
X90678000Y-23556000D02*
X90580000Y-23458000D01*
X90678000Y-26670000D02*
X90678000Y-23556000D01*
X96266000Y-47723114D02*
X96284915Y-47704199D01*
X96266000Y-53594000D02*
X96266000Y-47723114D01*
X98852566Y-56180566D02*
X96266000Y-53594000D01*
X101911759Y-56180566D02*
X98852566Y-56180566D01*
X91186000Y-40259000D02*
X91948000Y-39497000D01*
X91948000Y-39497000D02*
X91948000Y-31103990D01*
X97536000Y-48006000D02*
X97536000Y-47498000D01*
X97536000Y-47498000D02*
X104011596Y-41022404D01*
X105916596Y-42357400D02*
X105916596Y-42927404D01*
X107618013Y-40655983D02*
X105916596Y-42357400D01*
X107618013Y-25596013D02*
X107618013Y-40655983D01*
X107080000Y-25058000D02*
X107618013Y-25596013D01*
X107080000Y-23458000D02*
X107080000Y-25058000D01*
X98679000Y-51379000D02*
X98679000Y-47879000D01*
X104100000Y-56800000D02*
X98679000Y-51379000D01*
X89281000Y-23659000D02*
X89080000Y-23458000D01*
X90208011Y-39204989D02*
X90932000Y-38481000D01*
X89154000Y-23532000D02*
X89080000Y-23458000D01*
X89154000Y-26670000D02*
X89154000Y-23532000D01*
X90932000Y-38354000D02*
X90932000Y-31103990D01*
X105580000Y-25058000D02*
X105580000Y-23458000D01*
X106437001Y-25915001D02*
X105580000Y-25058000D01*
X106437001Y-40705609D02*
X106437001Y-25915001D01*
X99822000Y-47320610D02*
X106437001Y-40705609D01*
X99822000Y-48006000D02*
X99822000Y-47320610D01*
X87630000Y-23508000D02*
X87580000Y-23458000D01*
X87630000Y-26670000D02*
X87630000Y-23508000D01*
X100838000Y-52238000D02*
X100838000Y-48006000D01*
X104400000Y-55800000D02*
X100838000Y-52238000D01*
X89408000Y-38100000D02*
X89916000Y-37592000D01*
X89916000Y-37592000D02*
X89916000Y-31103990D01*
X113422010Y-38977990D02*
X113422010Y-34290000D01*
X102362000Y-48006000D02*
X104394000Y-48006000D01*
X104394000Y-48006000D02*
X113422010Y-38977990D01*
X104140000Y-23398000D02*
X104080000Y-23458000D01*
X104140000Y-20320000D02*
X104140000Y-23398000D01*
X86106000Y-23484000D02*
X86080000Y-23458000D01*
X86106000Y-26670000D02*
X86106000Y-23484000D01*
X88392000Y-37084000D02*
X88900000Y-36576000D01*
X88900000Y-36576000D02*
X88900000Y-31103990D01*
X114425718Y-41884282D02*
X114425718Y-34257749D01*
X103301000Y-53009000D02*
X114425718Y-41884282D01*
X102616000Y-23422000D02*
X102580000Y-23458000D01*
X102616000Y-20320000D02*
X102616000Y-23422000D01*
X87376000Y-36068000D02*
X87675999Y-35768001D01*
X84582000Y-23460000D02*
X84580000Y-23458000D01*
X84582000Y-26670000D02*
X84582000Y-23460000D01*
X87675999Y-31149989D02*
X87630000Y-31103990D01*
X87675999Y-35814000D02*
X87675999Y-31149989D01*
X106300000Y-59943000D02*
X104394000Y-61849000D01*
X106300000Y-52800000D02*
X106300000Y-59943000D01*
X106300000Y-52800000D02*
X115570000Y-43530000D01*
X115570000Y-43530000D02*
X115570000Y-34290030D01*
X101092000Y-23446000D02*
X101080000Y-23458000D01*
X101092000Y-20320000D02*
X101092000Y-23446000D01*
X83058000Y-23480000D02*
X83080000Y-23458000D01*
X86487000Y-35052000D02*
X86614000Y-34925000D01*
X83312000Y-23690000D02*
X83080000Y-23458000D01*
X83312000Y-26670000D02*
X83312000Y-23690000D01*
X86614000Y-35179000D02*
X86614000Y-31103990D01*
X108900000Y-52800000D02*
X108900000Y-58930500D01*
X108900000Y-58930500D02*
X105346500Y-62484000D01*
X119717736Y-29718000D02*
X121412000Y-29718000D01*
X116586000Y-32849736D02*
X119717736Y-29718000D01*
X108900000Y-52800000D02*
X116586000Y-45114000D01*
X116586000Y-45114000D02*
X116586000Y-32849736D01*
X99568000Y-23446000D02*
X99580000Y-23458000D01*
X99568000Y-20320000D02*
X99568000Y-23446000D01*
X81661000Y-23539000D02*
X81580000Y-23458000D01*
X85598000Y-33848819D02*
X85350813Y-34096006D01*
X81788000Y-23666000D02*
X81580000Y-23458000D01*
X81788000Y-26670000D02*
X81788000Y-23666000D01*
X85598000Y-34102819D02*
X85598000Y-31103990D01*
X111400000Y-52800000D02*
X111400000Y-57891004D01*
X111400000Y-57891004D02*
X106172004Y-63119000D01*
X98044000Y-23422000D02*
X98080000Y-23458000D01*
X98044000Y-20320000D02*
X98044000Y-23422000D01*
X120060155Y-30645581D02*
X122084525Y-30645581D01*
X117828959Y-46371041D02*
X117828959Y-32876777D01*
X117828959Y-32876777D02*
X120060155Y-30645581D01*
X111400000Y-52800000D02*
X117828959Y-46371041D01*
X114000000Y-52800000D02*
X114000000Y-56878500D01*
X114000000Y-56878500D02*
X107061000Y-63817500D01*
X96774000Y-23264000D02*
X96580000Y-23458000D01*
X96774000Y-20320000D02*
X96774000Y-23264000D01*
X120328150Y-31648470D02*
X122495841Y-31648470D01*
X118628970Y-48171030D02*
X118628970Y-33347650D01*
X114000000Y-52800000D02*
X118628970Y-48171030D01*
X122495841Y-31648470D02*
X122795840Y-31348471D01*
X118628970Y-33347650D02*
X120328150Y-31648470D01*
X78613000Y-23491000D02*
X78580000Y-23458000D01*
X78740000Y-23618000D02*
X78580000Y-23458000D01*
X78740000Y-26670000D02*
X78740000Y-23618000D01*
X119000000Y-52800000D02*
X119000000Y-54983395D01*
X119000000Y-54983395D02*
X109002605Y-64980790D01*
X119000000Y-52800000D02*
X119000000Y-51563000D01*
X93726000Y-23312000D02*
X93580000Y-23458000D01*
X93726000Y-20320000D02*
X93726000Y-23312000D01*
X120624402Y-33614990D02*
X123357010Y-33614990D01*
X120228990Y-34010402D02*
X120624402Y-33614990D01*
X123357010Y-33614990D02*
X124206000Y-32766000D01*
X120228990Y-51571010D02*
X120228990Y-34010402D01*
X119000000Y-52800000D02*
X120228990Y-51571010D01*
X80137000Y-23515000D02*
X80080000Y-23458000D01*
X84375752Y-33296011D02*
X84375752Y-31151742D01*
X84375752Y-31151742D02*
X84328000Y-31103990D01*
X80080000Y-23458000D02*
X80080000Y-26600000D01*
X80080000Y-26600000D02*
X80010000Y-26670000D01*
X84500000Y-62600000D02*
X84499996Y-62600000D01*
X117580000Y-23458000D02*
X117580000Y-24738002D01*
X84499996Y-62600000D02*
X91110000Y-55989996D01*
X91110000Y-55989996D02*
X91110000Y-47955006D01*
X117580000Y-23458000D02*
X117580000Y-25008404D01*
X117580000Y-25008404D02*
X115824425Y-26763979D01*
X94711737Y-26843300D02*
X94275924Y-26843300D01*
X81071999Y-27640001D02*
X79373596Y-29338404D01*
X94275924Y-26843300D02*
X93479223Y-27640001D01*
X93479223Y-27640001D02*
X81071999Y-27640001D01*
X89916000Y-48260000D02*
X89662000Y-48006000D01*
X89916000Y-54356000D02*
X89916000Y-48260000D01*
X88478055Y-55793945D02*
X89916000Y-54356000D01*
X88478055Y-56000000D02*
X88478055Y-55793945D01*
X84582000Y-59896055D02*
X88478055Y-56000000D01*
X84582000Y-59943998D02*
X84582000Y-59896055D01*
X89662000Y-48006000D02*
X89662000Y-48006000D01*
X119080000Y-25423980D02*
X116840000Y-27663980D01*
X119080000Y-23458000D02*
X119080000Y-25423980D01*
X82042000Y-28448000D02*
X79501998Y-30988002D01*
X94739789Y-27973980D02*
X94265769Y-28448000D01*
X94265769Y-28448000D02*
X82042000Y-28448000D01*
X86106000Y-48006000D02*
X86106000Y-48006000D01*
X84582000Y-57614736D02*
X84582000Y-58039000D01*
X86106000Y-56090736D02*
X84582000Y-57614736D01*
X86106000Y-48006000D02*
X86106000Y-56090736D01*
X120580000Y-25532002D02*
X117548012Y-28563990D01*
X120580000Y-23458000D02*
X120580000Y-25532002D01*
X117548012Y-28563990D02*
X115824000Y-28563990D01*
X94597145Y-29248010D02*
X94760647Y-29084508D01*
X94760647Y-29084508D02*
X94902068Y-29084508D01*
X79502000Y-32766000D02*
X83019990Y-29248010D01*
X83019990Y-29248010D02*
X94597145Y-29248010D01*
X116500000Y-55850014D02*
X107961010Y-64389004D01*
X116500000Y-52800000D02*
X116500000Y-55850014D01*
X95080000Y-20492808D02*
X95251404Y-20321404D01*
X95080000Y-23458000D02*
X95080000Y-20492808D01*
X120293027Y-32814979D02*
X122743091Y-32814979D01*
X122743091Y-32814979D02*
X123484460Y-32073610D01*
X119428980Y-33679026D02*
X120293027Y-32814979D01*
X116500000Y-52800000D02*
X119428980Y-49871020D01*
X119428980Y-49871020D02*
X119428980Y-33679026D01*
D16*
X131370001Y-2856209D02*
X131370000Y-24157307D01*
X125494673Y-26507438D01*
X125456981Y-26518872D01*
X125399108Y-26549806D01*
X125340899Y-26580012D01*
X125337489Y-26582742D01*
X125333638Y-26584800D01*
X125282907Y-26626434D01*
X125231714Y-26667413D01*
X125228905Y-26670752D01*
X125225526Y-26673525D01*
X125183887Y-26724263D01*
X125141678Y-26774434D01*
X125139573Y-26778259D01*
X125136801Y-26781637D01*
X125105875Y-26839496D01*
X125074250Y-26896965D01*
X125072931Y-26901130D01*
X125070873Y-26904980D01*
X125051831Y-26967752D01*
X125032023Y-27030296D01*
X125031542Y-27034636D01*
X125030274Y-27038816D01*
X125023848Y-27104064D01*
X125016618Y-27169302D01*
X125020001Y-27208548D01*
X125020000Y-32301282D01*
X124932262Y-32169972D01*
X124802028Y-32039738D01*
X124648889Y-31937414D01*
X124478729Y-31866932D01*
X124393286Y-31849936D01*
X124383528Y-31800881D01*
X124313046Y-31630721D01*
X124210722Y-31477582D01*
X124080488Y-31347348D01*
X123927349Y-31245024D01*
X123757189Y-31174542D01*
X123712805Y-31165713D01*
X123694908Y-31075742D01*
X123624426Y-30905582D01*
X123522102Y-30752443D01*
X123391868Y-30622209D01*
X123238729Y-30519885D01*
X123068569Y-30449403D01*
X122995947Y-30434957D01*
X122983593Y-30372852D01*
X122913111Y-30202692D01*
X122810787Y-30049553D01*
X122680553Y-29919319D01*
X122527414Y-29816995D01*
X122357254Y-29746513D01*
X122347000Y-29744473D01*
X122347000Y-29625911D01*
X122311068Y-29445271D01*
X122240586Y-29275111D01*
X122138262Y-29121972D01*
X122008028Y-28991738D01*
X121854889Y-28889414D01*
X121684729Y-28818932D01*
X121504089Y-28783000D01*
X121319911Y-28783000D01*
X121139271Y-28818932D01*
X120984596Y-28883000D01*
X119758754Y-28883000D01*
X119717736Y-28878960D01*
X119676718Y-28883000D01*
X119676717Y-28883000D01*
X119554047Y-28895082D01*
X119518343Y-28905913D01*
X122641432Y-25782825D01*
X122673291Y-25756679D01*
X122714850Y-25706040D01*
X122777636Y-25629534D01*
X122855172Y-25484475D01*
X122902918Y-25327077D01*
X122908582Y-25269574D01*
X122955518Y-25283812D01*
X123080000Y-25296072D01*
X124080000Y-25296072D01*
X124204482Y-25283812D01*
X124324180Y-25247502D01*
X124434494Y-25188537D01*
X124531185Y-25109185D01*
X124610537Y-25012494D01*
X124669502Y-24902180D01*
X124705812Y-24782482D01*
X124718072Y-24658000D01*
X124718072Y-22258000D01*
X124705812Y-22133518D01*
X124669502Y-22013820D01*
X124615000Y-21911856D01*
X124615000Y-21508827D01*
X124620006Y-21457999D01*
X124615000Y-21407171D01*
X124615000Y-21407162D01*
X124600024Y-21255105D01*
X124540841Y-21060007D01*
X124486827Y-20958953D01*
X124444734Y-20880202D01*
X124347803Y-20762092D01*
X124315396Y-20722604D01*
X124275908Y-20690197D01*
X121719802Y-18134092D01*
X121687391Y-18094599D01*
X121529792Y-17965261D01*
X121349988Y-17869154D01*
X121154890Y-17809971D01*
X121002833Y-17794995D01*
X121002823Y-17794995D01*
X120951995Y-17789989D01*
X120901167Y-17794995D01*
X76724860Y-17794995D01*
X76674032Y-17789989D01*
X76623204Y-17794995D01*
X76623195Y-17794995D01*
X76471138Y-17809971D01*
X76276040Y-17869154D01*
X76192342Y-17913891D01*
X76096235Y-17965261D01*
X75978125Y-18062192D01*
X75938637Y-18094599D01*
X75906230Y-18134087D01*
X74046497Y-19993821D01*
X73910376Y-20050204D01*
X73724480Y-20174416D01*
X73566388Y-20332508D01*
X73442176Y-20518404D01*
X73356617Y-20724961D01*
X73313000Y-20944240D01*
X73313000Y-21167816D01*
X73356617Y-21387095D01*
X73442176Y-21593652D01*
X73566388Y-21779548D01*
X73724480Y-21937640D01*
X73910376Y-22061852D01*
X74116933Y-22147411D01*
X74336212Y-22191028D01*
X74559788Y-22191028D01*
X74779067Y-22147411D01*
X74985624Y-22061852D01*
X75171520Y-21937640D01*
X75329612Y-21779548D01*
X75453824Y-21593652D01*
X75510207Y-21457531D01*
X77102744Y-19864995D01*
X92905510Y-19864995D01*
X92897414Y-19877111D01*
X92826932Y-20047271D01*
X92791000Y-20227911D01*
X92791000Y-20412089D01*
X92826932Y-20592729D01*
X92891000Y-20747404D01*
X92891000Y-21651759D01*
X92835820Y-21668498D01*
X92830000Y-21671609D01*
X92824180Y-21668498D01*
X92704482Y-21632188D01*
X92580000Y-21619928D01*
X91580000Y-21619928D01*
X91455518Y-21632188D01*
X91335820Y-21668498D01*
X91330000Y-21671609D01*
X91324180Y-21668498D01*
X91204482Y-21632188D01*
X91080000Y-21619928D01*
X90080000Y-21619928D01*
X89955518Y-21632188D01*
X89835820Y-21668498D01*
X89830000Y-21671609D01*
X89824180Y-21668498D01*
X89704482Y-21632188D01*
X89580000Y-21619928D01*
X88580000Y-21619928D01*
X88455518Y-21632188D01*
X88335820Y-21668498D01*
X88330000Y-21671609D01*
X88324180Y-21668498D01*
X88204482Y-21632188D01*
X88080000Y-21619928D01*
X87080000Y-21619928D01*
X86955518Y-21632188D01*
X86835820Y-21668498D01*
X86830000Y-21671609D01*
X86824180Y-21668498D01*
X86704482Y-21632188D01*
X86580000Y-21619928D01*
X85580000Y-21619928D01*
X85455518Y-21632188D01*
X85335820Y-21668498D01*
X85330000Y-21671609D01*
X85324180Y-21668498D01*
X85204482Y-21632188D01*
X85080000Y-21619928D01*
X84080000Y-21619928D01*
X83955518Y-21632188D01*
X83835820Y-21668498D01*
X83830000Y-21671609D01*
X83824180Y-21668498D01*
X83704482Y-21632188D01*
X83580000Y-21619928D01*
X82580000Y-21619928D01*
X82455518Y-21632188D01*
X82335820Y-21668498D01*
X82330000Y-21671609D01*
X82324180Y-21668498D01*
X82204482Y-21632188D01*
X82080000Y-21619928D01*
X81080000Y-21619928D01*
X80955518Y-21632188D01*
X80835820Y-21668498D01*
X80830000Y-21671609D01*
X80824180Y-21668498D01*
X80704482Y-21632188D01*
X80580000Y-21619928D01*
X79580000Y-21619928D01*
X79455518Y-21632188D01*
X79335820Y-21668498D01*
X79330000Y-21671609D01*
X79324180Y-21668498D01*
X79204482Y-21632188D01*
X79080000Y-21619928D01*
X78080000Y-21619928D01*
X77955518Y-21632188D01*
X77835820Y-21668498D01*
X77830000Y-21671609D01*
X77824180Y-21668498D01*
X77704482Y-21632188D01*
X77580000Y-21619928D01*
X77365750Y-21623000D01*
X77207000Y-21781750D01*
X77207000Y-23331000D01*
X77227000Y-23331000D01*
X77227000Y-23585000D01*
X77207000Y-23585000D01*
X77207000Y-25134250D01*
X77365750Y-25293000D01*
X77580000Y-25296072D01*
X77704482Y-25283812D01*
X77824180Y-25247502D01*
X77830000Y-25244391D01*
X77835820Y-25247502D01*
X77905000Y-25268488D01*
X77905000Y-26242596D01*
X77840932Y-26397271D01*
X77805000Y-26577911D01*
X77805000Y-26762089D01*
X77840932Y-26942729D01*
X77911414Y-27112889D01*
X78013738Y-27266028D01*
X78143972Y-27396262D01*
X78297111Y-27498586D01*
X78467271Y-27569068D01*
X78647911Y-27605000D01*
X78832089Y-27605000D01*
X79012729Y-27569068D01*
X79182889Y-27498586D01*
X79336028Y-27396262D01*
X79375000Y-27357290D01*
X79413972Y-27396262D01*
X79567111Y-27498586D01*
X79737271Y-27569068D01*
X79917911Y-27605000D01*
X79926132Y-27605000D01*
X79085383Y-28445750D01*
X78930707Y-28509818D01*
X78777568Y-28612142D01*
X78647334Y-28742376D01*
X78545010Y-28895515D01*
X78474528Y-29065675D01*
X78438596Y-29246315D01*
X78438596Y-29430493D01*
X78474528Y-29611133D01*
X78545010Y-29781293D01*
X78647334Y-29934432D01*
X78777568Y-30064666D01*
X78930707Y-30166990D01*
X79002974Y-30196924D01*
X78905970Y-30261740D01*
X78775736Y-30391974D01*
X78673412Y-30545113D01*
X78602930Y-30715273D01*
X78566998Y-30895913D01*
X78566998Y-31080091D01*
X78602930Y-31260731D01*
X78673412Y-31430891D01*
X78775736Y-31584030D01*
X78905970Y-31714264D01*
X79059109Y-31816588D01*
X79204961Y-31877001D01*
X79059111Y-31937414D01*
X78905972Y-32039738D01*
X78775738Y-32169972D01*
X78673414Y-32323111D01*
X78602932Y-32493271D01*
X78567000Y-32673911D01*
X78567000Y-32858089D01*
X78602932Y-33038729D01*
X78673414Y-33208889D01*
X78775738Y-33362028D01*
X78905972Y-33492262D01*
X79059111Y-33594586D01*
X79204964Y-33655000D01*
X79059111Y-33715414D01*
X78905972Y-33817738D01*
X78775738Y-33947972D01*
X78673414Y-34101111D01*
X78602932Y-34271271D01*
X78567000Y-34451911D01*
X78567000Y-34636089D01*
X78602932Y-34816729D01*
X78673414Y-34986889D01*
X78775738Y-35140028D01*
X78905972Y-35270262D01*
X79059111Y-35372586D01*
X79229271Y-35443068D01*
X79409911Y-35479000D01*
X79594089Y-35479000D01*
X79774729Y-35443068D01*
X79944889Y-35372586D01*
X80098028Y-35270262D01*
X80228262Y-35140028D01*
X80330586Y-34986889D01*
X80394655Y-34832212D01*
X83540753Y-31686115D01*
X83540752Y-32868606D01*
X83476684Y-33023282D01*
X83440752Y-33203922D01*
X83440752Y-33388100D01*
X83476684Y-33568740D01*
X83547166Y-33738900D01*
X83649490Y-33892039D01*
X83779724Y-34022273D01*
X83932863Y-34124597D01*
X84103023Y-34195079D01*
X84283663Y-34231011D01*
X84424350Y-34231011D01*
X84451745Y-34368735D01*
X84522227Y-34538895D01*
X84624551Y-34692034D01*
X84754785Y-34822268D01*
X84907924Y-34924592D01*
X85078084Y-34995074D01*
X85258724Y-35031006D01*
X85442902Y-35031006D01*
X85552000Y-35009305D01*
X85552000Y-35144089D01*
X85587932Y-35324729D01*
X85658414Y-35494889D01*
X85760738Y-35648028D01*
X85890972Y-35778262D01*
X86044111Y-35880586D01*
X86214271Y-35951068D01*
X86394911Y-35987000D01*
X86401133Y-35987000D01*
X86441000Y-35999094D01*
X86441000Y-36160089D01*
X86476932Y-36340729D01*
X86547414Y-36510889D01*
X86649738Y-36664028D01*
X86779972Y-36794262D01*
X86933111Y-36896586D01*
X87103271Y-36967068D01*
X87283911Y-37003000D01*
X87457000Y-37003000D01*
X87457000Y-37176089D01*
X87492932Y-37356729D01*
X87563414Y-37526889D01*
X87665738Y-37680028D01*
X87795972Y-37810262D01*
X87949111Y-37912586D01*
X88119271Y-37983068D01*
X88299911Y-38019000D01*
X88473000Y-38019000D01*
X88473000Y-38192089D01*
X88508932Y-38372729D01*
X88579414Y-38542889D01*
X88681738Y-38696028D01*
X88811972Y-38826262D01*
X88965111Y-38928586D01*
X89135271Y-38999068D01*
X89289550Y-39029756D01*
X89273011Y-39112900D01*
X89273011Y-39297078D01*
X89308943Y-39477718D01*
X89379425Y-39647878D01*
X89481749Y-39801017D01*
X89611983Y-39931251D01*
X89765122Y-40033575D01*
X89935282Y-40104057D01*
X90115922Y-40139989D01*
X90256355Y-40139989D01*
X90251000Y-40166911D01*
X90251000Y-40351089D01*
X90286932Y-40531729D01*
X90357414Y-40701889D01*
X90459738Y-40855028D01*
X90589972Y-40985262D01*
X90743111Y-41087586D01*
X90913271Y-41158068D01*
X91093911Y-41194000D01*
X91140000Y-41194000D01*
X91140000Y-41340001D01*
X84866017Y-41340001D01*
X84824998Y-41335961D01*
X84689972Y-41349260D01*
X84661310Y-41352083D01*
X84503912Y-41399829D01*
X84358853Y-41477365D01*
X84231708Y-41581710D01*
X84205560Y-41613572D01*
X80388574Y-45430559D01*
X80356710Y-45456709D01*
X80330562Y-45488571D01*
X80252364Y-45583855D01*
X80174828Y-45728914D01*
X80127082Y-45886312D01*
X80110960Y-46050000D01*
X80115001Y-46091029D01*
X80115000Y-54354598D01*
X80050932Y-54509273D01*
X80015000Y-54689913D01*
X80015000Y-54874091D01*
X80050932Y-55054731D01*
X80115001Y-55209408D01*
X80115000Y-60740979D01*
X80110960Y-60781998D01*
X80115000Y-60823016D01*
X80127082Y-60945686D01*
X80174828Y-61103084D01*
X80252364Y-61248143D01*
X80356709Y-61375289D01*
X80388579Y-61401444D01*
X83407346Y-64420212D01*
X83471414Y-64574887D01*
X83573738Y-64728026D01*
X83703972Y-64858260D01*
X83857111Y-64960584D01*
X84027271Y-65031066D01*
X84207911Y-65066998D01*
X84392089Y-65066998D01*
X84572729Y-65031066D01*
X84742889Y-64960584D01*
X84896028Y-64858260D01*
X85026262Y-64728026D01*
X85128586Y-64574887D01*
X85199068Y-64404727D01*
X85235000Y-64224087D01*
X85235000Y-64039909D01*
X85199068Y-63859269D01*
X85128586Y-63689109D01*
X85026262Y-63535970D01*
X84925909Y-63435617D01*
X84942885Y-63428586D01*
X85096024Y-63326262D01*
X85226258Y-63196028D01*
X85328582Y-63042889D01*
X85392651Y-62888212D01*
X90433787Y-57847077D01*
X90544874Y-57958164D01*
X90698013Y-58060488D01*
X90868173Y-58130970D01*
X91048813Y-58166902D01*
X91232991Y-58166902D01*
X91413631Y-58130970D01*
X91583791Y-58060488D01*
X91736930Y-57958164D01*
X91867164Y-57827930D01*
X91969488Y-57674791D01*
X92033556Y-57520115D01*
X93271433Y-56282240D01*
X93303291Y-56256095D01*
X93365032Y-56180864D01*
X93407636Y-56128950D01*
X93485172Y-55983891D01*
X93522912Y-55859479D01*
X93532918Y-55826493D01*
X93545000Y-55703823D01*
X93545000Y-55703822D01*
X93549040Y-55662804D01*
X93545000Y-55621786D01*
X93545000Y-55609867D01*
X95611778Y-57676646D01*
X95637928Y-57708510D01*
X95765073Y-57812855D01*
X95910132Y-57890391D01*
X96067530Y-57938137D01*
X96190200Y-57950219D01*
X96190210Y-57950219D01*
X96231218Y-57954258D01*
X96272226Y-57950219D01*
X99439203Y-57950219D01*
X99154485Y-58068153D01*
X98862129Y-58263500D01*
X98613500Y-58512129D01*
X98418153Y-58804485D01*
X98283596Y-59129335D01*
X98215000Y-59474193D01*
X98215000Y-59825807D01*
X98283596Y-60170665D01*
X98418153Y-60495515D01*
X98613500Y-60787871D01*
X98862129Y-61036500D01*
X99154485Y-61231847D01*
X99479335Y-61366404D01*
X99824193Y-61435000D01*
X100175807Y-61435000D01*
X100520665Y-61366404D01*
X100845515Y-61231847D01*
X101137871Y-61036500D01*
X101386500Y-60787871D01*
X101581847Y-60495515D01*
X101716404Y-60170665D01*
X101785000Y-59825807D01*
X101785000Y-59474193D01*
X101716404Y-59129335D01*
X101581847Y-58804485D01*
X101386500Y-58512129D01*
X101137871Y-58263500D01*
X100845515Y-58068153D01*
X100560797Y-57950219D01*
X101128760Y-57950219D01*
X101283435Y-58014287D01*
X101464075Y-58050219D01*
X101648253Y-58050219D01*
X101828893Y-58014287D01*
X101999053Y-57943805D01*
X102152192Y-57841481D01*
X102282426Y-57711247D01*
X102384750Y-57558108D01*
X102455232Y-57387948D01*
X102491164Y-57207308D01*
X102491164Y-57023130D01*
X102472694Y-56930276D01*
X102507787Y-56906828D01*
X102638021Y-56776594D01*
X102740345Y-56623455D01*
X102741001Y-56621870D01*
X103207347Y-57088216D01*
X103271414Y-57242889D01*
X103373738Y-57396028D01*
X103503972Y-57526262D01*
X103657111Y-57628586D01*
X103827271Y-57699068D01*
X104007911Y-57735000D01*
X104192089Y-57735000D01*
X104372729Y-57699068D01*
X104542889Y-57628586D01*
X104696028Y-57526262D01*
X104826262Y-57396028D01*
X104928586Y-57242889D01*
X104999068Y-57072729D01*
X105035000Y-56892089D01*
X105035000Y-56707911D01*
X104999068Y-56527271D01*
X104997882Y-56524408D01*
X105126262Y-56396028D01*
X105228586Y-56242889D01*
X105299068Y-56072729D01*
X105335000Y-55892089D01*
X105335000Y-55707911D01*
X105299068Y-55527271D01*
X105228586Y-55357111D01*
X105126262Y-55203972D01*
X104996028Y-55073738D01*
X104842889Y-54971414D01*
X104688215Y-54907347D01*
X103655193Y-53874325D01*
X103743889Y-53837586D01*
X103897028Y-53735262D01*
X104027262Y-53605028D01*
X104129586Y-53451889D01*
X104193655Y-53297212D01*
X114735000Y-42755868D01*
X114735000Y-43184131D01*
X106011788Y-51907345D01*
X105857111Y-51971414D01*
X105703972Y-52073738D01*
X105573738Y-52203972D01*
X105471414Y-52357111D01*
X105400932Y-52527271D01*
X105365000Y-52707911D01*
X105365000Y-52892089D01*
X105400932Y-53072729D01*
X105465000Y-53227404D01*
X105465001Y-59597131D01*
X104105787Y-60956345D01*
X103951111Y-61020414D01*
X103797972Y-61122738D01*
X103667738Y-61252972D01*
X103565414Y-61406111D01*
X103494932Y-61576271D01*
X103459000Y-61756911D01*
X103459000Y-61941089D01*
X103494932Y-62121729D01*
X103565414Y-62291889D01*
X103667738Y-62445028D01*
X103797972Y-62575262D01*
X103951111Y-62677586D01*
X104121271Y-62748068D01*
X104301911Y-62784000D01*
X104458728Y-62784000D01*
X104517914Y-62926889D01*
X104620238Y-63080028D01*
X104750472Y-63210262D01*
X104903611Y-63312586D01*
X105073771Y-63383068D01*
X105254411Y-63419000D01*
X105284232Y-63419000D01*
X105343418Y-63561889D01*
X105445742Y-63715028D01*
X105575976Y-63845262D01*
X105729115Y-63947586D01*
X105899275Y-64018068D01*
X106079915Y-64054000D01*
X106154726Y-64054000D01*
X106161932Y-64090229D01*
X106232414Y-64260389D01*
X106334738Y-64413528D01*
X106464972Y-64543762D01*
X106618111Y-64646086D01*
X106788271Y-64716568D01*
X106968911Y-64752500D01*
X107099539Y-64752500D01*
X107132424Y-64831893D01*
X107234748Y-64985032D01*
X107364982Y-65115266D01*
X107518121Y-65217590D01*
X107688281Y-65288072D01*
X107868921Y-65324004D01*
X108053099Y-65324004D01*
X108126671Y-65309369D01*
X108174019Y-65423679D01*
X108276343Y-65576818D01*
X108406577Y-65707052D01*
X108559716Y-65809376D01*
X108729876Y-65879858D01*
X108910516Y-65915790D01*
X109094694Y-65915790D01*
X109275334Y-65879858D01*
X109445494Y-65809376D01*
X109598633Y-65707052D01*
X109728867Y-65576818D01*
X109831191Y-65423679D01*
X109895260Y-65269002D01*
X119561432Y-55602832D01*
X119593291Y-55576686D01*
X119628442Y-55533855D01*
X119697636Y-55449541D01*
X119775172Y-55304482D01*
X119782144Y-55281498D01*
X119822918Y-55147084D01*
X119835000Y-55024414D01*
X119835000Y-55024413D01*
X119839040Y-54983395D01*
X119835000Y-54942377D01*
X119835000Y-53227404D01*
X119892654Y-53088213D01*
X120790418Y-52190450D01*
X120822281Y-52164301D01*
X120926626Y-52037156D01*
X121004162Y-51892097D01*
X121051908Y-51734699D01*
X121063990Y-51612029D01*
X121063990Y-51612019D01*
X121068029Y-51571011D01*
X121063990Y-51530003D01*
X121063990Y-43636000D01*
X124990001Y-43636000D01*
X124990000Y-90690000D01*
X124634877Y-90690000D01*
X124600000Y-90686565D01*
X124565123Y-90690000D01*
X124460816Y-90700273D01*
X124326980Y-90740872D01*
X124203637Y-90806800D01*
X124095525Y-90895525D01*
X124006800Y-91003637D01*
X123940872Y-91126980D01*
X123900273Y-91260816D01*
X123886565Y-91400000D01*
X123890001Y-91434887D01*
X123890000Y-99290000D01*
X76110000Y-99290000D01*
X76110000Y-92507911D01*
X77365000Y-92507911D01*
X77365000Y-92692089D01*
X77400932Y-92872729D01*
X77471414Y-93042889D01*
X77573738Y-93196028D01*
X77703972Y-93326262D01*
X77857111Y-93428586D01*
X78027271Y-93499068D01*
X78207911Y-93535000D01*
X78392089Y-93535000D01*
X78572729Y-93499068D01*
X78742889Y-93428586D01*
X78896028Y-93326262D01*
X79026262Y-93196028D01*
X79050000Y-93160502D01*
X79073738Y-93196028D01*
X79203972Y-93326262D01*
X79357111Y-93428586D01*
X79527271Y-93499068D01*
X79707911Y-93535000D01*
X79892089Y-93535000D01*
X80072729Y-93499068D01*
X80242889Y-93428586D01*
X80396028Y-93326262D01*
X80526262Y-93196028D01*
X80550000Y-93160502D01*
X80573738Y-93196028D01*
X80703972Y-93326262D01*
X80857111Y-93428586D01*
X81027271Y-93499068D01*
X81207911Y-93535000D01*
X81392089Y-93535000D01*
X81572729Y-93499068D01*
X81742889Y-93428586D01*
X81896028Y-93326262D01*
X82026262Y-93196028D01*
X82050000Y-93160502D01*
X82073738Y-93196028D01*
X82203972Y-93326262D01*
X82357111Y-93428586D01*
X82527271Y-93499068D01*
X82707911Y-93535000D01*
X82892089Y-93535000D01*
X83072729Y-93499068D01*
X83242889Y-93428586D01*
X83396028Y-93326262D01*
X83526262Y-93196028D01*
X83550000Y-93160502D01*
X83573738Y-93196028D01*
X83703972Y-93326262D01*
X83857111Y-93428586D01*
X84027271Y-93499068D01*
X84207911Y-93535000D01*
X84392089Y-93535000D01*
X84572729Y-93499068D01*
X84742889Y-93428586D01*
X84896028Y-93326262D01*
X85000000Y-93222290D01*
X85103972Y-93326262D01*
X85257111Y-93428586D01*
X85427271Y-93499068D01*
X85607911Y-93535000D01*
X85792089Y-93535000D01*
X85972729Y-93499068D01*
X86142889Y-93428586D01*
X86296028Y-93326262D01*
X86426262Y-93196028D01*
X86475000Y-93123086D01*
X86523738Y-93196028D01*
X86653972Y-93326262D01*
X86807111Y-93428586D01*
X86977271Y-93499068D01*
X87157911Y-93535000D01*
X87342089Y-93535000D01*
X87522729Y-93499068D01*
X87692889Y-93428586D01*
X87846028Y-93326262D01*
X87976262Y-93196028D01*
X88025000Y-93123086D01*
X88073738Y-93196028D01*
X88203972Y-93326262D01*
X88357111Y-93428586D01*
X88527271Y-93499068D01*
X88707911Y-93535000D01*
X88892089Y-93535000D01*
X89072729Y-93499068D01*
X89242889Y-93428586D01*
X89396028Y-93326262D01*
X89500000Y-93222290D01*
X89603972Y-93326262D01*
X89757111Y-93428586D01*
X89927271Y-93499068D01*
X90107911Y-93535000D01*
X90292089Y-93535000D01*
X90472729Y-93499068D01*
X90642889Y-93428586D01*
X90796028Y-93326262D01*
X90926262Y-93196028D01*
X91000000Y-93085671D01*
X91073738Y-93196028D01*
X91203972Y-93326262D01*
X91357111Y-93428586D01*
X91527271Y-93499068D01*
X91707911Y-93535000D01*
X91892089Y-93535000D01*
X92072729Y-93499068D01*
X92242889Y-93428586D01*
X92396028Y-93326262D01*
X92526262Y-93196028D01*
X92550000Y-93160502D01*
X92573738Y-93196028D01*
X92703972Y-93326262D01*
X92857111Y-93428586D01*
X93027271Y-93499068D01*
X93207911Y-93535000D01*
X93392089Y-93535000D01*
X93572729Y-93499068D01*
X93742889Y-93428586D01*
X93896028Y-93326262D01*
X94000000Y-93222290D01*
X94103972Y-93326262D01*
X94257111Y-93428586D01*
X94427271Y-93499068D01*
X94607911Y-93535000D01*
X94792089Y-93535000D01*
X94972729Y-93499068D01*
X95142889Y-93428586D01*
X95296028Y-93326262D01*
X95426262Y-93196028D01*
X95450000Y-93160502D01*
X95473738Y-93196028D01*
X95603972Y-93326262D01*
X95757111Y-93428586D01*
X95927271Y-93499068D01*
X96107911Y-93535000D01*
X96292089Y-93535000D01*
X96472729Y-93499068D01*
X96642889Y-93428586D01*
X96796028Y-93326262D01*
X96926262Y-93196028D01*
X96950000Y-93160502D01*
X96973738Y-93196028D01*
X97103972Y-93326262D01*
X97257111Y-93428586D01*
X97427271Y-93499068D01*
X97607911Y-93535000D01*
X97792089Y-93535000D01*
X97972729Y-93499068D01*
X98142889Y-93428586D01*
X98296028Y-93326262D01*
X98426262Y-93196028D01*
X98500000Y-93085671D01*
X98573738Y-93196028D01*
X98703972Y-93326262D01*
X98857111Y-93428586D01*
X99027271Y-93499068D01*
X99207911Y-93535000D01*
X99392089Y-93535000D01*
X99572729Y-93499068D01*
X99742889Y-93428586D01*
X99896028Y-93326262D01*
X100026262Y-93196028D01*
X100050000Y-93160502D01*
X100073738Y-93196028D01*
X100203972Y-93326262D01*
X100357111Y-93428586D01*
X100527271Y-93499068D01*
X100707911Y-93535000D01*
X100892089Y-93535000D01*
X101072729Y-93499068D01*
X101242889Y-93428586D01*
X101396028Y-93326262D01*
X101526262Y-93196028D01*
X101550000Y-93160502D01*
X101573738Y-93196028D01*
X101703972Y-93326262D01*
X101857111Y-93428586D01*
X102027271Y-93499068D01*
X102207911Y-93535000D01*
X102392089Y-93535000D01*
X102572729Y-93499068D01*
X102742889Y-93428586D01*
X102896028Y-93326262D01*
X103026262Y-93196028D01*
X103050000Y-93160502D01*
X103073738Y-93196028D01*
X103203972Y-93326262D01*
X103357111Y-93428586D01*
X103527271Y-93499068D01*
X103707911Y-93535000D01*
X103892089Y-93535000D01*
X104072729Y-93499068D01*
X104242889Y-93428586D01*
X104396028Y-93326262D01*
X104526262Y-93196028D01*
X104550000Y-93160502D01*
X104573738Y-93196028D01*
X104703972Y-93326262D01*
X104857111Y-93428586D01*
X105027271Y-93499068D01*
X105207911Y-93535000D01*
X105392089Y-93535000D01*
X105572729Y-93499068D01*
X105742889Y-93428586D01*
X105896028Y-93326262D01*
X106026262Y-93196028D01*
X106050000Y-93160502D01*
X106073738Y-93196028D01*
X106203972Y-93326262D01*
X106357111Y-93428586D01*
X106527271Y-93499068D01*
X106707911Y-93535000D01*
X106892089Y-93535000D01*
X107072729Y-93499068D01*
X107242889Y-93428586D01*
X107396028Y-93326262D01*
X107525000Y-93197290D01*
X107653972Y-93326262D01*
X107807111Y-93428586D01*
X107977271Y-93499068D01*
X108157911Y-93535000D01*
X108342089Y-93535000D01*
X108522729Y-93499068D01*
X108692889Y-93428586D01*
X108846028Y-93326262D01*
X108976262Y-93196028D01*
X109000000Y-93160502D01*
X109023738Y-93196028D01*
X109153972Y-93326262D01*
X109307111Y-93428586D01*
X109477271Y-93499068D01*
X109657911Y-93535000D01*
X109842089Y-93535000D01*
X110022729Y-93499068D01*
X110192889Y-93428586D01*
X110346028Y-93326262D01*
X110476262Y-93196028D01*
X110500000Y-93160502D01*
X110523738Y-93196028D01*
X110653972Y-93326262D01*
X110807111Y-93428586D01*
X110977271Y-93499068D01*
X111157911Y-93535000D01*
X111342089Y-93535000D01*
X111522729Y-93499068D01*
X111692889Y-93428586D01*
X111846028Y-93326262D01*
X111976262Y-93196028D01*
X112000000Y-93160502D01*
X112023738Y-93196028D01*
X112153972Y-93326262D01*
X112307111Y-93428586D01*
X112477271Y-93499068D01*
X112657911Y-93535000D01*
X112842089Y-93535000D01*
X113022729Y-93499068D01*
X113192889Y-93428586D01*
X113346028Y-93326262D01*
X113476262Y-93196028D01*
X113500000Y-93160502D01*
X113523738Y-93196028D01*
X113653972Y-93326262D01*
X113807111Y-93428586D01*
X113977271Y-93499068D01*
X114157911Y-93535000D01*
X114342089Y-93535000D01*
X114522729Y-93499068D01*
X114692889Y-93428586D01*
X114846028Y-93326262D01*
X114976262Y-93196028D01*
X115000000Y-93160502D01*
X115023738Y-93196028D01*
X115153972Y-93326262D01*
X115307111Y-93428586D01*
X115477271Y-93499068D01*
X115657911Y-93535000D01*
X115842089Y-93535000D01*
X116022729Y-93499068D01*
X116192889Y-93428586D01*
X116346028Y-93326262D01*
X116476262Y-93196028D01*
X116500000Y-93160502D01*
X116523738Y-93196028D01*
X116653972Y-93326262D01*
X116807111Y-93428586D01*
X116977271Y-93499068D01*
X117157911Y-93535000D01*
X117342089Y-93535000D01*
X117522729Y-93499068D01*
X117692889Y-93428586D01*
X117846028Y-93326262D01*
X117976262Y-93196028D01*
X118000000Y-93160502D01*
X118023738Y-93196028D01*
X118153972Y-93326262D01*
X118307111Y-93428586D01*
X118477271Y-93499068D01*
X118657911Y-93535000D01*
X118842089Y-93535000D01*
X119022729Y-93499068D01*
X119192889Y-93428586D01*
X119346028Y-93326262D01*
X119476262Y-93196028D01*
X119500000Y-93160502D01*
X119523738Y-93196028D01*
X119653972Y-93326262D01*
X119807111Y-93428586D01*
X119977271Y-93499068D01*
X120157911Y-93535000D01*
X120342089Y-93535000D01*
X120522729Y-93499068D01*
X120692889Y-93428586D01*
X120846028Y-93326262D01*
X120976262Y-93196028D01*
X121000000Y-93160502D01*
X121023738Y-93196028D01*
X121153972Y-93326262D01*
X121307111Y-93428586D01*
X121477271Y-93499068D01*
X121657911Y-93535000D01*
X121842089Y-93535000D01*
X122022729Y-93499068D01*
X122192889Y-93428586D01*
X122346028Y-93326262D01*
X122476262Y-93196028D01*
X122578586Y-93042889D01*
X122649068Y-92872729D01*
X122685000Y-92692089D01*
X122685000Y-92507911D01*
X122649068Y-92327271D01*
X122578586Y-92157111D01*
X122476262Y-92003972D01*
X122346028Y-91873738D01*
X122192889Y-91771414D01*
X122022729Y-91700932D01*
X121842089Y-91665000D01*
X121657911Y-91665000D01*
X121477271Y-91700932D01*
X121307111Y-91771414D01*
X121153972Y-91873738D01*
X121023738Y-92003972D01*
X121000000Y-92039498D01*
X120976262Y-92003972D01*
X120846028Y-91873738D01*
X120692889Y-91771414D01*
X120522729Y-91700932D01*
X120342089Y-91665000D01*
X120157911Y-91665000D01*
X119977271Y-91700932D01*
X119807111Y-91771414D01*
X119653972Y-91873738D01*
X119523738Y-92003972D01*
X119500000Y-92039498D01*
X119476262Y-92003972D01*
X119346028Y-91873738D01*
X119192889Y-91771414D01*
X119022729Y-91700932D01*
X118842089Y-91665000D01*
X118657911Y-91665000D01*
X118477271Y-91700932D01*
X118307111Y-91771414D01*
X118153972Y-91873738D01*
X118023738Y-92003972D01*
X118000000Y-92039498D01*
X117976262Y-92003972D01*
X117846028Y-91873738D01*
X117692889Y-91771414D01*
X117522729Y-91700932D01*
X117342089Y-91665000D01*
X117157911Y-91665000D01*
X116977271Y-91700932D01*
X116807111Y-91771414D01*
X116653972Y-91873738D01*
X116523738Y-92003972D01*
X116500000Y-92039498D01*
X116476262Y-92003972D01*
X116346028Y-91873738D01*
X116192889Y-91771414D01*
X116022729Y-91700932D01*
X115842089Y-91665000D01*
X115657911Y-91665000D01*
X115477271Y-91700932D01*
X115307111Y-91771414D01*
X115153972Y-91873738D01*
X115023738Y-92003972D01*
X115000000Y-92039498D01*
X114976262Y-92003972D01*
X114846028Y-91873738D01*
X114692889Y-91771414D01*
X114522729Y-91700932D01*
X114342089Y-91665000D01*
X114157911Y-91665000D01*
X113977271Y-91700932D01*
X113807111Y-91771414D01*
X113653972Y-91873738D01*
X113523738Y-92003972D01*
X113500000Y-92039498D01*
X113476262Y-92003972D01*
X113346028Y-91873738D01*
X113192889Y-91771414D01*
X113022729Y-91700932D01*
X112842089Y-91665000D01*
X112657911Y-91665000D01*
X112477271Y-91700932D01*
X112307111Y-91771414D01*
X112153972Y-91873738D01*
X112023738Y-92003972D01*
X112000000Y-92039498D01*
X111976262Y-92003972D01*
X111846028Y-91873738D01*
X111692889Y-91771414D01*
X111522729Y-91700932D01*
X111342089Y-91665000D01*
X111157911Y-91665000D01*
X110977271Y-91700932D01*
X110807111Y-91771414D01*
X110653972Y-91873738D01*
X110523738Y-92003972D01*
X110500000Y-92039498D01*
X110476262Y-92003972D01*
X110346028Y-91873738D01*
X110192889Y-91771414D01*
X110022729Y-91700932D01*
X109842089Y-91665000D01*
X109657911Y-91665000D01*
X109477271Y-91700932D01*
X109307111Y-91771414D01*
X109153972Y-91873738D01*
X109023738Y-92003972D01*
X109000000Y-92039498D01*
X108976262Y-92003972D01*
X108846028Y-91873738D01*
X108692889Y-91771414D01*
X108522729Y-91700932D01*
X108342089Y-91665000D01*
X108157911Y-91665000D01*
X107977271Y-91700932D01*
X107807111Y-91771414D01*
X107653972Y-91873738D01*
X107525000Y-92002710D01*
X107396028Y-91873738D01*
X107242889Y-91771414D01*
X107072729Y-91700932D01*
X106892089Y-91665000D01*
X106707911Y-91665000D01*
X106527271Y-91700932D01*
X106357111Y-91771414D01*
X106203972Y-91873738D01*
X106073738Y-92003972D01*
X106050000Y-92039498D01*
X106026262Y-92003972D01*
X105896028Y-91873738D01*
X105742889Y-91771414D01*
X105572729Y-91700932D01*
X105392089Y-91665000D01*
X105207911Y-91665000D01*
X105027271Y-91700932D01*
X104857111Y-91771414D01*
X104703972Y-91873738D01*
X104573738Y-92003972D01*
X104550000Y-92039498D01*
X104526262Y-92003972D01*
X104396028Y-91873738D01*
X104242889Y-91771414D01*
X104072729Y-91700932D01*
X103892089Y-91665000D01*
X103707911Y-91665000D01*
X103527271Y-91700932D01*
X103357111Y-91771414D01*
X103203972Y-91873738D01*
X103073738Y-92003972D01*
X103050000Y-92039498D01*
X103026262Y-92003972D01*
X102896028Y-91873738D01*
X102742889Y-91771414D01*
X102572729Y-91700932D01*
X102392089Y-91665000D01*
X102207911Y-91665000D01*
X102027271Y-91700932D01*
X101857111Y-91771414D01*
X101703972Y-91873738D01*
X101573738Y-92003972D01*
X101550000Y-92039498D01*
X101526262Y-92003972D01*
X101396028Y-91873738D01*
X101242889Y-91771414D01*
X101072729Y-91700932D01*
X100892089Y-91665000D01*
X100707911Y-91665000D01*
X100527271Y-91700932D01*
X100357111Y-91771414D01*
X100203972Y-91873738D01*
X100073738Y-92003972D01*
X100050000Y-92039498D01*
X100026262Y-92003972D01*
X99896028Y-91873738D01*
X99742889Y-91771414D01*
X99572729Y-91700932D01*
X99392089Y-91665000D01*
X99207911Y-91665000D01*
X99027271Y-91700932D01*
X98857111Y-91771414D01*
X98703972Y-91873738D01*
X98573738Y-92003972D01*
X98500000Y-92114329D01*
X98426262Y-92003972D01*
X98296028Y-91873738D01*
X98142889Y-91771414D01*
X97972729Y-91700932D01*
X97792089Y-91665000D01*
X97607911Y-91665000D01*
X97427271Y-91700932D01*
X97257111Y-91771414D01*
X97103972Y-91873738D01*
X96973738Y-92003972D01*
X96950000Y-92039498D01*
X96926262Y-92003972D01*
X96796028Y-91873738D01*
X96642889Y-91771414D01*
X96472729Y-91700932D01*
X96292089Y-91665000D01*
X96107911Y-91665000D01*
X95927271Y-91700932D01*
X95757111Y-91771414D01*
X95603972Y-91873738D01*
X95473738Y-92003972D01*
X95450000Y-92039498D01*
X95426262Y-92003972D01*
X95296028Y-91873738D01*
X95142889Y-91771414D01*
X94972729Y-91700932D01*
X94792089Y-91665000D01*
X94607911Y-91665000D01*
X94427271Y-91700932D01*
X94257111Y-91771414D01*
X94103972Y-91873738D01*
X94000000Y-91977710D01*
X93896028Y-91873738D01*
X93742889Y-91771414D01*
X93572729Y-91700932D01*
X93392089Y-91665000D01*
X93207911Y-91665000D01*
X93027271Y-91700932D01*
X92857111Y-91771414D01*
X92703972Y-91873738D01*
X92573738Y-92003972D01*
X92550000Y-92039498D01*
X92526262Y-92003972D01*
X92396028Y-91873738D01*
X92242889Y-91771414D01*
X92072729Y-91700932D01*
X91892089Y-91665000D01*
X91707911Y-91665000D01*
X91527271Y-91700932D01*
X91357111Y-91771414D01*
X91203972Y-91873738D01*
X91073738Y-92003972D01*
X91000000Y-92114329D01*
X90926262Y-92003972D01*
X90796028Y-91873738D01*
X90642889Y-91771414D01*
X90472729Y-91700932D01*
X90292089Y-91665000D01*
X90107911Y-91665000D01*
X89927271Y-91700932D01*
X89757111Y-91771414D01*
X89603972Y-91873738D01*
X89500000Y-91977710D01*
X89396028Y-91873738D01*
X89242889Y-91771414D01*
X89072729Y-91700932D01*
X88892089Y-91665000D01*
X88707911Y-91665000D01*
X88527271Y-91700932D01*
X88357111Y-91771414D01*
X88203972Y-91873738D01*
X88073738Y-92003972D01*
X88025000Y-92076914D01*
X87976262Y-92003972D01*
X87846028Y-91873738D01*
X87692889Y-91771414D01*
X87522729Y-91700932D01*
X87342089Y-91665000D01*
X87157911Y-91665000D01*
X86977271Y-91700932D01*
X86807111Y-91771414D01*
X86653972Y-91873738D01*
X86523738Y-92003972D01*
X86475000Y-92076914D01*
X86426262Y-92003972D01*
X86296028Y-91873738D01*
X86142889Y-91771414D01*
X85972729Y-91700932D01*
X85792089Y-91665000D01*
X85607911Y-91665000D01*
X85427271Y-91700932D01*
X85257111Y-91771414D01*
X85103972Y-91873738D01*
X85000000Y-91977710D01*
X84896028Y-91873738D01*
X84742889Y-91771414D01*
X84572729Y-91700932D01*
X84392089Y-91665000D01*
X84207911Y-91665000D01*
X84027271Y-91700932D01*
X83857111Y-91771414D01*
X83703972Y-91873738D01*
X83573738Y-92003972D01*
X83550000Y-92039498D01*
X83526262Y-92003972D01*
X83396028Y-91873738D01*
X83242889Y-91771414D01*
X83072729Y-91700932D01*
X82892089Y-91665000D01*
X82707911Y-91665000D01*
X82527271Y-91700932D01*
X82357111Y-91771414D01*
X82203972Y-91873738D01*
X82073738Y-92003972D01*
X82050000Y-92039498D01*
X82026262Y-92003972D01*
X81896028Y-91873738D01*
X81742889Y-91771414D01*
X81572729Y-91700932D01*
X81392089Y-91665000D01*
X81207911Y-91665000D01*
X81027271Y-91700932D01*
X80857111Y-91771414D01*
X80703972Y-91873738D01*
X80573738Y-92003972D01*
X80550000Y-92039498D01*
X80526262Y-92003972D01*
X80396028Y-91873738D01*
X80242889Y-91771414D01*
X80072729Y-91700932D01*
X79892089Y-91665000D01*
X79707911Y-91665000D01*
X79527271Y-91700932D01*
X79357111Y-91771414D01*
X79203972Y-91873738D01*
X79073738Y-92003972D01*
X79050000Y-92039498D01*
X79026262Y-92003972D01*
X78896028Y-91873738D01*
X78742889Y-91771414D01*
X78572729Y-91700932D01*
X78392089Y-91665000D01*
X78207911Y-91665000D01*
X78027271Y-91700932D01*
X77857111Y-91771414D01*
X77703972Y-91873738D01*
X77573738Y-92003972D01*
X77471414Y-92157111D01*
X77400932Y-92327271D01*
X77365000Y-92507911D01*
X76110000Y-92507911D01*
X76110000Y-91434876D01*
X76113435Y-91400000D01*
X76099727Y-91260816D01*
X76059128Y-91126980D01*
X75993200Y-91003637D01*
X75904475Y-90895525D01*
X75796363Y-90806800D01*
X75673020Y-90740872D01*
X75539184Y-90700273D01*
X75434877Y-90690000D01*
X75400000Y-90686565D01*
X75365123Y-90690000D01*
X75010000Y-90690000D01*
X75010000Y-84232889D01*
X95765000Y-84232889D01*
X95765000Y-85067111D01*
X95927749Y-85885304D01*
X96246992Y-86656025D01*
X96710461Y-87349655D01*
X97300345Y-87939539D01*
X97993975Y-88403008D01*
X98764696Y-88722251D01*
X99582889Y-88885000D01*
X100417111Y-88885000D01*
X101235304Y-88722251D01*
X102006025Y-88403008D01*
X102699655Y-87939539D01*
X103289539Y-87349655D01*
X103753008Y-86656025D01*
X104072251Y-85885304D01*
X104235000Y-85067111D01*
X104235000Y-84232889D01*
X104072251Y-83414696D01*
X103753008Y-82643975D01*
X103289539Y-81950345D01*
X102699655Y-81360461D01*
X102006025Y-80896992D01*
X101235304Y-80577749D01*
X100417111Y-80415000D01*
X99582889Y-80415000D01*
X98764696Y-80577749D01*
X97993975Y-80896992D01*
X97300345Y-81360461D01*
X96710461Y-81950345D01*
X96246992Y-82643975D01*
X95927749Y-83414696D01*
X95765000Y-84232889D01*
X75010000Y-84232889D01*
X75010000Y-79409911D01*
X95585000Y-79409911D01*
X95585000Y-79594089D01*
X95620932Y-79774729D01*
X95691414Y-79944889D01*
X95793738Y-80098028D01*
X95923972Y-80228262D01*
X96077111Y-80330586D01*
X96247271Y-80401068D01*
X96427911Y-80437000D01*
X96612089Y-80437000D01*
X96792729Y-80401068D01*
X96962889Y-80330586D01*
X97116028Y-80228262D01*
X97246262Y-80098028D01*
X97348586Y-79944889D01*
X97419068Y-79774729D01*
X97455000Y-79594089D01*
X97455000Y-79409911D01*
X97419068Y-79229271D01*
X97348586Y-79059111D01*
X97246262Y-78905972D01*
X97116028Y-78775738D01*
X96962889Y-78673414D01*
X96792729Y-78602932D01*
X96612089Y-78567000D01*
X96427911Y-78567000D01*
X96247271Y-78602932D01*
X96077111Y-78673414D01*
X95923972Y-78775738D01*
X95793738Y-78905972D01*
X95691414Y-79059111D01*
X95620932Y-79229271D01*
X95585000Y-79409911D01*
X75010000Y-79409911D01*
X75010000Y-75345911D01*
X96601000Y-75345911D01*
X96601000Y-75530089D01*
X96636932Y-75710729D01*
X96707414Y-75880889D01*
X96809738Y-76034028D01*
X96939972Y-76164262D01*
X96993458Y-76200000D01*
X96939972Y-76235738D01*
X96809738Y-76365972D01*
X96707414Y-76519111D01*
X96636932Y-76689271D01*
X96601000Y-76869911D01*
X96601000Y-77054089D01*
X96636932Y-77234729D01*
X96707414Y-77404889D01*
X96809738Y-77558028D01*
X96939972Y-77688262D01*
X97093111Y-77790586D01*
X97179592Y-77826408D01*
X97215414Y-77912889D01*
X97317738Y-78066028D01*
X97447972Y-78196262D01*
X97601111Y-78298586D01*
X97771271Y-78369068D01*
X97871958Y-78389096D01*
X97871000Y-78393911D01*
X97871000Y-78578089D01*
X97906932Y-78758729D01*
X97977414Y-78928889D01*
X98079738Y-79082028D01*
X98209972Y-79212262D01*
X98363111Y-79314586D01*
X98533271Y-79385068D01*
X98713911Y-79421000D01*
X98898089Y-79421000D01*
X99078729Y-79385068D01*
X99248889Y-79314586D01*
X99402028Y-79212262D01*
X99441000Y-79173290D01*
X99479972Y-79212262D01*
X99633111Y-79314586D01*
X99803271Y-79385068D01*
X99983911Y-79421000D01*
X100157000Y-79421000D01*
X100157000Y-79594089D01*
X100192932Y-79774729D01*
X100263414Y-79944889D01*
X100365738Y-80098028D01*
X100495972Y-80228262D01*
X100649111Y-80330586D01*
X100819271Y-80401068D01*
X100999911Y-80437000D01*
X101184089Y-80437000D01*
X101364729Y-80401068D01*
X101534889Y-80330586D01*
X101688028Y-80228262D01*
X101818262Y-80098028D01*
X101920586Y-79944889D01*
X101956408Y-79858408D01*
X102042889Y-79822586D01*
X102196028Y-79720262D01*
X102326262Y-79590028D01*
X102428586Y-79436889D01*
X102464408Y-79350408D01*
X102550889Y-79314586D01*
X102704028Y-79212262D01*
X102834262Y-79082028D01*
X102936586Y-78928889D01*
X103007068Y-78758729D01*
X103043000Y-78578089D01*
X103043000Y-78393911D01*
X103007068Y-78213271D01*
X102936586Y-78043111D01*
X102834262Y-77889972D01*
X102704028Y-77759738D01*
X102550889Y-77657414D01*
X102380729Y-77586932D01*
X102200089Y-77551000D01*
X102015911Y-77551000D01*
X101835271Y-77586932D01*
X101665111Y-77657414D01*
X101511972Y-77759738D01*
X101381738Y-77889972D01*
X101279414Y-78043111D01*
X101243592Y-78129592D01*
X101157111Y-78165414D01*
X101003972Y-78267738D01*
X100988900Y-78282810D01*
X100975068Y-78213271D01*
X100904586Y-78043111D01*
X100802262Y-77889972D01*
X100787190Y-77874900D01*
X100856729Y-77861068D01*
X101026889Y-77790586D01*
X101180028Y-77688262D01*
X101310262Y-77558028D01*
X101412586Y-77404889D01*
X101448408Y-77318408D01*
X101534889Y-77282586D01*
X101688028Y-77180262D01*
X101818262Y-77050028D01*
X101920586Y-76896889D01*
X101991068Y-76726729D01*
X102027000Y-76546089D01*
X102027000Y-76361911D01*
X101991068Y-76181271D01*
X101920586Y-76011111D01*
X101877080Y-75946000D01*
X101920586Y-75880889D01*
X101991068Y-75710729D01*
X102027000Y-75530089D01*
X102027000Y-75345911D01*
X101991068Y-75165271D01*
X101920586Y-74995111D01*
X101818262Y-74841972D01*
X101688028Y-74711738D01*
X101534889Y-74609414D01*
X101364729Y-74538932D01*
X101184089Y-74503000D01*
X100999911Y-74503000D01*
X100819271Y-74538932D01*
X100649111Y-74609414D01*
X100495972Y-74711738D01*
X100365738Y-74841972D01*
X100263414Y-74995111D01*
X100192932Y-75165271D01*
X100157000Y-75345911D01*
X100157000Y-75530089D01*
X100192932Y-75710729D01*
X100263414Y-75880889D01*
X100306920Y-75946000D01*
X100263414Y-76011111D01*
X100227592Y-76097592D01*
X100141111Y-76133414D01*
X99987972Y-76235738D01*
X99857738Y-76365972D01*
X99755414Y-76519111D01*
X99684932Y-76689271D01*
X99649000Y-76869911D01*
X99649000Y-77054089D01*
X99684932Y-77234729D01*
X99755414Y-77404889D01*
X99857738Y-77558028D01*
X99872810Y-77573100D01*
X99803271Y-77586932D01*
X99633111Y-77657414D01*
X99479972Y-77759738D01*
X99441000Y-77798710D01*
X99402028Y-77759738D01*
X99248889Y-77657414D01*
X99199382Y-77636908D01*
X99278262Y-77558028D01*
X99380586Y-77404889D01*
X99451068Y-77234729D01*
X99487000Y-77054089D01*
X99487000Y-76869911D01*
X99451068Y-76689271D01*
X99380586Y-76519111D01*
X99278262Y-76365972D01*
X99148028Y-76235738D01*
X98994889Y-76133414D01*
X98908408Y-76097592D01*
X98872586Y-76011111D01*
X98770262Y-75857972D01*
X98640028Y-75727738D01*
X98486889Y-75625414D01*
X98454691Y-75612077D01*
X98471000Y-75530089D01*
X98471000Y-75345911D01*
X98435068Y-75165271D01*
X98364586Y-74995111D01*
X98262262Y-74841972D01*
X98132028Y-74711738D01*
X97978889Y-74609414D01*
X97808729Y-74538932D01*
X97628089Y-74503000D01*
X97443911Y-74503000D01*
X97263271Y-74538932D01*
X97093111Y-74609414D01*
X96939972Y-74711738D01*
X96809738Y-74841972D01*
X96707414Y-74995111D01*
X96636932Y-75165271D01*
X96601000Y-75345911D01*
X75010000Y-75345911D01*
X75010000Y-73821911D01*
X94569010Y-73821911D01*
X94569010Y-74006089D01*
X94604942Y-74186729D01*
X94675424Y-74356889D01*
X94777748Y-74510028D01*
X94907982Y-74640262D01*
X95061121Y-74742586D01*
X95231281Y-74813068D01*
X95411921Y-74849000D01*
X95596099Y-74849000D01*
X95776739Y-74813068D01*
X95946899Y-74742586D01*
X96100038Y-74640262D01*
X96230272Y-74510028D01*
X96332596Y-74356889D01*
X96403078Y-74186729D01*
X96439010Y-74006089D01*
X96439010Y-73821911D01*
X98633000Y-73821911D01*
X98633000Y-74006089D01*
X98668932Y-74186729D01*
X98739414Y-74356889D01*
X98841738Y-74510028D01*
X98971972Y-74640262D01*
X99125111Y-74742586D01*
X99295271Y-74813068D01*
X99475911Y-74849000D01*
X99660089Y-74849000D01*
X99840729Y-74813068D01*
X100010889Y-74742586D01*
X100164028Y-74640262D01*
X100294262Y-74510028D01*
X100396586Y-74356889D01*
X100467068Y-74186729D01*
X100503000Y-74006089D01*
X100503000Y-73821911D01*
X102189024Y-73821911D01*
X102189024Y-74006089D01*
X102224956Y-74186729D01*
X102295438Y-74356889D01*
X102397762Y-74510028D01*
X102527996Y-74640262D01*
X102681135Y-74742586D01*
X102851295Y-74813068D01*
X103031935Y-74849000D01*
X103216113Y-74849000D01*
X103396753Y-74813068D01*
X103566913Y-74742586D01*
X103720052Y-74640262D01*
X103850286Y-74510028D01*
X103952610Y-74356889D01*
X104023092Y-74186729D01*
X104059024Y-74006089D01*
X104059024Y-73821911D01*
X104023092Y-73641271D01*
X103952610Y-73471111D01*
X103850286Y-73317972D01*
X103720052Y-73187738D01*
X103566913Y-73085414D01*
X103396753Y-73014932D01*
X103216113Y-72979000D01*
X103031935Y-72979000D01*
X102851295Y-73014932D01*
X102681135Y-73085414D01*
X102527996Y-73187738D01*
X102397762Y-73317972D01*
X102295438Y-73471111D01*
X102224956Y-73641271D01*
X102189024Y-73821911D01*
X100503000Y-73821911D01*
X100467068Y-73641271D01*
X100396586Y-73471111D01*
X100294262Y-73317972D01*
X100164028Y-73187738D01*
X100010889Y-73085414D01*
X99840729Y-73014932D01*
X99660089Y-72979000D01*
X99475911Y-72979000D01*
X99295271Y-73014932D01*
X99125111Y-73085414D01*
X98971972Y-73187738D01*
X98841738Y-73317972D01*
X98739414Y-73471111D01*
X98668932Y-73641271D01*
X98633000Y-73821911D01*
X96439010Y-73821911D01*
X96403078Y-73641271D01*
X96332596Y-73471111D01*
X96230272Y-73317972D01*
X96100038Y-73187738D01*
X95946899Y-73085414D01*
X95776739Y-73014932D01*
X95596099Y-72979000D01*
X95411921Y-72979000D01*
X95231281Y-73014932D01*
X95061121Y-73085414D01*
X94907982Y-73187738D01*
X94777748Y-73317972D01*
X94675424Y-73471111D01*
X94604942Y-73641271D01*
X94569010Y-73821911D01*
X75010000Y-73821911D01*
X75010000Y-71281911D01*
X95585000Y-71281911D01*
X95585000Y-71466089D01*
X95620932Y-71646729D01*
X95691414Y-71816889D01*
X95793738Y-71970028D01*
X95923972Y-72100262D01*
X96077111Y-72202586D01*
X96247271Y-72273068D01*
X96427911Y-72309000D01*
X96601000Y-72309000D01*
X96601000Y-72482089D01*
X96636932Y-72662729D01*
X96707414Y-72832889D01*
X96809738Y-72986028D01*
X96939972Y-73116262D01*
X97093111Y-73218586D01*
X97263271Y-73289068D01*
X97443911Y-73325000D01*
X97628089Y-73325000D01*
X97808729Y-73289068D01*
X97978889Y-73218586D01*
X98132028Y-73116262D01*
X98262262Y-72986028D01*
X98364586Y-72832889D01*
X98435068Y-72662729D01*
X98471000Y-72482089D01*
X98471000Y-72297911D01*
X100157000Y-72297911D01*
X100157000Y-72482089D01*
X100192932Y-72662729D01*
X100263414Y-72832889D01*
X100365738Y-72986028D01*
X100495972Y-73116262D01*
X100649111Y-73218586D01*
X100819271Y-73289068D01*
X100999911Y-73325000D01*
X101184089Y-73325000D01*
X101364729Y-73289068D01*
X101534889Y-73218586D01*
X101688028Y-73116262D01*
X101818262Y-72986028D01*
X101920586Y-72832889D01*
X101991068Y-72662729D01*
X102027000Y-72482089D01*
X102027000Y-72309000D01*
X102200089Y-72309000D01*
X102380729Y-72273068D01*
X102550889Y-72202586D01*
X102704028Y-72100262D01*
X102834262Y-71970028D01*
X102936586Y-71816889D01*
X103007068Y-71646729D01*
X103043000Y-71466089D01*
X103043000Y-71281911D01*
X103007068Y-71101271D01*
X102936586Y-70931111D01*
X102834262Y-70777972D01*
X102704028Y-70647738D01*
X102550889Y-70545414D01*
X102380729Y-70474932D01*
X102200089Y-70439000D01*
X102015911Y-70439000D01*
X101835271Y-70474932D01*
X101665111Y-70545414D01*
X101511972Y-70647738D01*
X101381738Y-70777972D01*
X101279414Y-70931111D01*
X101208932Y-71101271D01*
X101173000Y-71281911D01*
X101173000Y-71455000D01*
X100999911Y-71455000D01*
X100819271Y-71490932D01*
X100649111Y-71561414D01*
X100495972Y-71663738D01*
X100365738Y-71793972D01*
X100263414Y-71947111D01*
X100192932Y-72117271D01*
X100157000Y-72297911D01*
X98471000Y-72297911D01*
X98435068Y-72117271D01*
X98364586Y-71947111D01*
X98262262Y-71793972D01*
X98132028Y-71663738D01*
X97978889Y-71561414D01*
X97808729Y-71490932D01*
X97628089Y-71455000D01*
X97455000Y-71455000D01*
X97455000Y-71281911D01*
X97419068Y-71101271D01*
X97348586Y-70931111D01*
X97246262Y-70777972D01*
X97116028Y-70647738D01*
X96962889Y-70545414D01*
X96792729Y-70474932D01*
X96612089Y-70439000D01*
X96427911Y-70439000D01*
X96247271Y-70474932D01*
X96077111Y-70545414D01*
X95923972Y-70647738D01*
X95793738Y-70777972D01*
X95691414Y-70931111D01*
X95620932Y-71101271D01*
X95585000Y-71281911D01*
X75010000Y-71281911D01*
X75010000Y-28482877D01*
X75013435Y-28448000D01*
X74999727Y-28308816D01*
X74959128Y-28174980D01*
X74893200Y-28051637D01*
X74804475Y-27943525D01*
X74696363Y-27854800D01*
X74573020Y-27788872D01*
X74439184Y-27748273D01*
X74334877Y-27738000D01*
X74300000Y-27734565D01*
X74265123Y-27738000D01*
X69290000Y-27738000D01*
X69290000Y-24658000D01*
X75941928Y-24658000D01*
X75954188Y-24782482D01*
X75990498Y-24902180D01*
X76049463Y-25012494D01*
X76128815Y-25109185D01*
X76225506Y-25188537D01*
X76335820Y-25247502D01*
X76455518Y-25283812D01*
X76580000Y-25296072D01*
X76794250Y-25293000D01*
X76953000Y-25134250D01*
X76953000Y-23585000D01*
X76103750Y-23585000D01*
X75945000Y-23743750D01*
X75941928Y-24658000D01*
X69290000Y-24658000D01*
X69290000Y-22258000D01*
X75941928Y-22258000D01*
X75945000Y-23172250D01*
X76103750Y-23331000D01*
X76953000Y-23331000D01*
X76953000Y-21781750D01*
X76794250Y-21623000D01*
X76580000Y-21619928D01*
X76455518Y-21632188D01*
X76335820Y-21668498D01*
X76225506Y-21727463D01*
X76128815Y-21806815D01*
X76049463Y-21903506D01*
X75990498Y-22013820D01*
X75954188Y-22133518D01*
X75941928Y-22258000D01*
X69290000Y-22258000D01*
X69290000Y-15096967D01*
X85695000Y-15096967D01*
X85695000Y-15419033D01*
X85757832Y-15734912D01*
X85881082Y-16032463D01*
X86060013Y-16300252D01*
X86287748Y-16527987D01*
X86555537Y-16706918D01*
X86853088Y-16830168D01*
X87168967Y-16893000D01*
X87491033Y-16893000D01*
X87806912Y-16830168D01*
X88104463Y-16706918D01*
X88372252Y-16527987D01*
X88599987Y-16300252D01*
X88778918Y-16032463D01*
X88902168Y-15734912D01*
X88965000Y-15419033D01*
X88965000Y-15096967D01*
X111695000Y-15096967D01*
X111695000Y-15419033D01*
X111757832Y-15734912D01*
X111881082Y-16032463D01*
X112060013Y-16300252D01*
X112287748Y-16527987D01*
X112555537Y-16706918D01*
X112853088Y-16830168D01*
X113168967Y-16893000D01*
X113491033Y-16893000D01*
X113806912Y-16830168D01*
X114104463Y-16706918D01*
X114372252Y-16527987D01*
X114599987Y-16300252D01*
X114778918Y-16032463D01*
X114902168Y-15734912D01*
X114965000Y-15419033D01*
X114965000Y-15096967D01*
X114902168Y-14781088D01*
X114778918Y-14483537D01*
X114599987Y-14215748D01*
X114372252Y-13988013D01*
X114104463Y-13809082D01*
X113806912Y-13685832D01*
X113491033Y-13623000D01*
X113168967Y-13623000D01*
X112853088Y-13685832D01*
X112555537Y-13809082D01*
X112287748Y-13988013D01*
X112060013Y-14215748D01*
X111881082Y-14483537D01*
X111757832Y-14781088D01*
X111695000Y-15096967D01*
X88965000Y-15096967D01*
X88902168Y-14781088D01*
X88778918Y-14483537D01*
X88599987Y-14215748D01*
X88372252Y-13988013D01*
X88104463Y-13809082D01*
X87806912Y-13685832D01*
X87491033Y-13623000D01*
X87168967Y-13623000D01*
X86853088Y-13685832D01*
X86555537Y-13809082D01*
X86287748Y-13988013D01*
X86060013Y-14215748D01*
X85881082Y-14483537D01*
X85757832Y-14781088D01*
X85695000Y-15096967D01*
X69290000Y-15096967D01*
X69290000Y-8797911D01*
X96855000Y-8797911D01*
X96855000Y-8982089D01*
X96890932Y-9162729D01*
X96961414Y-9332889D01*
X97063738Y-9486028D01*
X97193972Y-9616262D01*
X97347111Y-9718586D01*
X97517271Y-9789068D01*
X97697911Y-9825000D01*
X97882089Y-9825000D01*
X98062729Y-9789068D01*
X98232889Y-9718586D01*
X98386028Y-9616262D01*
X98516262Y-9486028D01*
X98618586Y-9332889D01*
X98689068Y-9162729D01*
X98725000Y-8982089D01*
X98725000Y-8797911D01*
X98689068Y-8617271D01*
X98618586Y-8447111D01*
X98516262Y-8293972D01*
X98386028Y-8163738D01*
X98232889Y-8061414D01*
X98062729Y-7990932D01*
X97882089Y-7955000D01*
X97697911Y-7955000D01*
X97517271Y-7990932D01*
X97347111Y-8061414D01*
X97193972Y-8163738D01*
X97063738Y-8293972D01*
X96961414Y-8447111D01*
X96890932Y-8617271D01*
X96855000Y-8797911D01*
X69290000Y-8797911D01*
X69290000Y-4758000D01*
X83691928Y-4758000D01*
X83704188Y-4882482D01*
X83740498Y-5002180D01*
X83799463Y-5112494D01*
X83878815Y-5209185D01*
X83975506Y-5288537D01*
X84085820Y-5347502D01*
X84205518Y-5383812D01*
X84330000Y-5396072D01*
X87044250Y-5393000D01*
X87203000Y-5234250D01*
X87203000Y-3385000D01*
X87457000Y-3385000D01*
X87457000Y-5234250D01*
X87615750Y-5393000D01*
X90330000Y-5396072D01*
X90454482Y-5383812D01*
X90574180Y-5347502D01*
X90684494Y-5288537D01*
X90781185Y-5209185D01*
X90860537Y-5112494D01*
X90919502Y-5002180D01*
X90955812Y-4882482D01*
X90968072Y-4758000D01*
X90968012Y-4733911D01*
X97871000Y-4733911D01*
X97871000Y-4918089D01*
X97906932Y-5098729D01*
X97977414Y-5268889D01*
X98079738Y-5422028D01*
X98209972Y-5552262D01*
X98263458Y-5588000D01*
X98209972Y-5623738D01*
X98079738Y-5753972D01*
X97977414Y-5907111D01*
X97906932Y-6077271D01*
X97871000Y-6257911D01*
X97871000Y-6442089D01*
X97906932Y-6622729D01*
X97977414Y-6792889D01*
X98079738Y-6946028D01*
X98209972Y-7076262D01*
X98363111Y-7178586D01*
X98449592Y-7214408D01*
X98485414Y-7300889D01*
X98587738Y-7454028D01*
X98717972Y-7584262D01*
X98871111Y-7686586D01*
X99041271Y-7757068D01*
X99141958Y-7777096D01*
X99141000Y-7781911D01*
X99141000Y-7966089D01*
X99176932Y-8146729D01*
X99247414Y-8316889D01*
X99349738Y-8470028D01*
X99479972Y-8600262D01*
X99633111Y-8702586D01*
X99803271Y-8773068D01*
X99983911Y-8809000D01*
X100168089Y-8809000D01*
X100348729Y-8773068D01*
X100518889Y-8702586D01*
X100672028Y-8600262D01*
X100711000Y-8561290D01*
X100749972Y-8600262D01*
X100903111Y-8702586D01*
X101073271Y-8773068D01*
X101253911Y-8809000D01*
X101427000Y-8809000D01*
X101427000Y-8982089D01*
X101462932Y-9162729D01*
X101533414Y-9332889D01*
X101635738Y-9486028D01*
X101765972Y-9616262D01*
X101919111Y-9718586D01*
X102089271Y-9789068D01*
X102269911Y-9825000D01*
X102454089Y-9825000D01*
X102634729Y-9789068D01*
X102804889Y-9718586D01*
X102958028Y-9616262D01*
X103088262Y-9486028D01*
X103190586Y-9332889D01*
X103226408Y-9246408D01*
X103312889Y-9210586D01*
X103466028Y-9108262D01*
X103596262Y-8978028D01*
X103698586Y-8824889D01*
X103734408Y-8738408D01*
X103820889Y-8702586D01*
X103974028Y-8600262D01*
X104104262Y-8470028D01*
X104206586Y-8316889D01*
X104277068Y-8146729D01*
X104313000Y-7966089D01*
X104313000Y-7781911D01*
X104277068Y-7601271D01*
X104206586Y-7431111D01*
X104104262Y-7277972D01*
X103974028Y-7147738D01*
X103820889Y-7045414D01*
X103650729Y-6974932D01*
X103470089Y-6939000D01*
X103285911Y-6939000D01*
X103105271Y-6974932D01*
X102935111Y-7045414D01*
X102781972Y-7147738D01*
X102651738Y-7277972D01*
X102549414Y-7431111D01*
X102513592Y-7517592D01*
X102427111Y-7553414D01*
X102273972Y-7655738D01*
X102258900Y-7670810D01*
X102245068Y-7601271D01*
X102174586Y-7431111D01*
X102072262Y-7277972D01*
X102057190Y-7262900D01*
X102126729Y-7249068D01*
X102296889Y-7178586D01*
X102450028Y-7076262D01*
X102580262Y-6946028D01*
X102682586Y-6792889D01*
X102718408Y-6706408D01*
X102804889Y-6670586D01*
X102958028Y-6568262D01*
X103088262Y-6438028D01*
X103190586Y-6284889D01*
X103261068Y-6114729D01*
X103297000Y-5934089D01*
X103297000Y-5749911D01*
X103261068Y-5569271D01*
X103190586Y-5399111D01*
X103147080Y-5334000D01*
X103190586Y-5268889D01*
X103261068Y-5098729D01*
X103297000Y-4918089D01*
X103297000Y-4758000D01*
X109691928Y-4758000D01*
X109704188Y-4882482D01*
X109740498Y-5002180D01*
X109799463Y-5112494D01*
X109878815Y-5209185D01*
X109975506Y-5288537D01*
X110085820Y-5347502D01*
X110205518Y-5383812D01*
X110330000Y-5396072D01*
X113044250Y-5393000D01*
X113203000Y-5234250D01*
X113203000Y-3385000D01*
X113457000Y-3385000D01*
X113457000Y-5234250D01*
X113615750Y-5393000D01*
X116330000Y-5396072D01*
X116454482Y-5383812D01*
X116574180Y-5347502D01*
X116684494Y-5288537D01*
X116781185Y-5209185D01*
X116860537Y-5112494D01*
X116919502Y-5002180D01*
X116955812Y-4882482D01*
X116968072Y-4758000D01*
X116965000Y-3543750D01*
X116806250Y-3385000D01*
X113457000Y-3385000D01*
X113203000Y-3385000D01*
X109853750Y-3385000D01*
X109695000Y-3543750D01*
X109691928Y-4758000D01*
X103297000Y-4758000D01*
X103297000Y-4733911D01*
X103261068Y-4553271D01*
X103190586Y-4383111D01*
X103088262Y-4229972D01*
X102958028Y-4099738D01*
X102804889Y-3997414D01*
X102634729Y-3926932D01*
X102454089Y-3891000D01*
X102269911Y-3891000D01*
X102089271Y-3926932D01*
X101919111Y-3997414D01*
X101765972Y-4099738D01*
X101635738Y-4229972D01*
X101533414Y-4383111D01*
X101462932Y-4553271D01*
X101427000Y-4733911D01*
X101427000Y-4918089D01*
X101462932Y-5098729D01*
X101533414Y-5268889D01*
X101576920Y-5334000D01*
X101533414Y-5399111D01*
X101497592Y-5485592D01*
X101411111Y-5521414D01*
X101257972Y-5623738D01*
X101127738Y-5753972D01*
X101025414Y-5907111D01*
X100954932Y-6077271D01*
X100919000Y-6257911D01*
X100919000Y-6442089D01*
X100954932Y-6622729D01*
X101025414Y-6792889D01*
X101127738Y-6946028D01*
X101142810Y-6961100D01*
X101073271Y-6974932D01*
X100903111Y-7045414D01*
X100749972Y-7147738D01*
X100711000Y-7186710D01*
X100672028Y-7147738D01*
X100518889Y-7045414D01*
X100469382Y-7024908D01*
X100548262Y-6946028D01*
X100650586Y-6792889D01*
X100721068Y-6622729D01*
X100757000Y-6442089D01*
X100757000Y-6257911D01*
X100721068Y-6077271D01*
X100650586Y-5907111D01*
X100548262Y-5753972D01*
X100418028Y-5623738D01*
X100264889Y-5521414D01*
X100178408Y-5485592D01*
X100142586Y-5399111D01*
X100040262Y-5245972D01*
X99910028Y-5115738D01*
X99756889Y-5013414D01*
X99724691Y-5000077D01*
X99741000Y-4918089D01*
X99741000Y-4733911D01*
X99705068Y-4553271D01*
X99634586Y-4383111D01*
X99532262Y-4229972D01*
X99402028Y-4099738D01*
X99248889Y-3997414D01*
X99078729Y-3926932D01*
X98898089Y-3891000D01*
X98713911Y-3891000D01*
X98533271Y-3926932D01*
X98363111Y-3997414D01*
X98209972Y-4099738D01*
X98079738Y-4229972D01*
X97977414Y-4383111D01*
X97906932Y-4553271D01*
X97871000Y-4733911D01*
X90968012Y-4733911D01*
X90965000Y-3543750D01*
X90806250Y-3385000D01*
X87457000Y-3385000D01*
X87203000Y-3385000D01*
X83853750Y-3385000D01*
X83695000Y-3543750D01*
X83691928Y-4758000D01*
X69290000Y-4758000D01*
X69290000Y-3209911D01*
X95839010Y-3209911D01*
X95839010Y-3394089D01*
X95874942Y-3574729D01*
X95945424Y-3744889D01*
X96047748Y-3898028D01*
X96177982Y-4028262D01*
X96331121Y-4130586D01*
X96501281Y-4201068D01*
X96681921Y-4237000D01*
X96866099Y-4237000D01*
X97046739Y-4201068D01*
X97216899Y-4130586D01*
X97370038Y-4028262D01*
X97500272Y-3898028D01*
X97602596Y-3744889D01*
X97673078Y-3574729D01*
X97709010Y-3394089D01*
X97709010Y-3209911D01*
X99903000Y-3209911D01*
X99903000Y-3394089D01*
X99938932Y-3574729D01*
X100009414Y-3744889D01*
X100111738Y-3898028D01*
X100241972Y-4028262D01*
X100395111Y-4130586D01*
X100565271Y-4201068D01*
X100745911Y-4237000D01*
X100930089Y-4237000D01*
X101110729Y-4201068D01*
X101280889Y-4130586D01*
X101434028Y-4028262D01*
X101564262Y-3898028D01*
X101666586Y-3744889D01*
X101737068Y-3574729D01*
X101773000Y-3394089D01*
X101773000Y-3209911D01*
X103459024Y-3209911D01*
X103459024Y-3394089D01*
X103494956Y-3574729D01*
X103565438Y-3744889D01*
X103667762Y-3898028D01*
X103797996Y-4028262D01*
X103951135Y-4130586D01*
X104121295Y-4201068D01*
X104301935Y-4237000D01*
X104486113Y-4237000D01*
X104666753Y-4201068D01*
X104836913Y-4130586D01*
X104990052Y-4028262D01*
X105120286Y-3898028D01*
X105222610Y-3744889D01*
X105293092Y-3574729D01*
X105329024Y-3394089D01*
X105329024Y-3209911D01*
X105293092Y-3029271D01*
X105222610Y-2859111D01*
X105120286Y-2705972D01*
X104990052Y-2575738D01*
X104836913Y-2473414D01*
X104666753Y-2402932D01*
X104486113Y-2367000D01*
X104301935Y-2367000D01*
X104121295Y-2402932D01*
X103951135Y-2473414D01*
X103797996Y-2575738D01*
X103667762Y-2705972D01*
X103565438Y-2859111D01*
X103494956Y-3029271D01*
X103459024Y-3209911D01*
X101773000Y-3209911D01*
X101737068Y-3029271D01*
X101666586Y-2859111D01*
X101564262Y-2705972D01*
X101434028Y-2575738D01*
X101280889Y-2473414D01*
X101110729Y-2402932D01*
X100930089Y-2367000D01*
X100745911Y-2367000D01*
X100565271Y-2402932D01*
X100395111Y-2473414D01*
X100241972Y-2575738D01*
X100111738Y-2705972D01*
X100009414Y-2859111D01*
X99938932Y-3029271D01*
X99903000Y-3209911D01*
X97709010Y-3209911D01*
X97673078Y-3029271D01*
X97602596Y-2859111D01*
X97500272Y-2705972D01*
X97370038Y-2575738D01*
X97216899Y-2473414D01*
X97046739Y-2402932D01*
X96866099Y-2367000D01*
X96681921Y-2367000D01*
X96501281Y-2402932D01*
X96331121Y-2473414D01*
X96177982Y-2575738D01*
X96047748Y-2705972D01*
X95945424Y-2859111D01*
X95874942Y-3029271D01*
X95839010Y-3209911D01*
X69290000Y-3209911D01*
X69290000Y-2856207D01*
X70510229Y-1758000D01*
X83691928Y-1758000D01*
X83695000Y-2972250D01*
X83853750Y-3131000D01*
X87203000Y-3131000D01*
X87203000Y-1281750D01*
X87457000Y-1281750D01*
X87457000Y-3131000D01*
X90806250Y-3131000D01*
X90965000Y-2972250D01*
X90968072Y-1758000D01*
X90955812Y-1633518D01*
X90919502Y-1513820D01*
X90860537Y-1403506D01*
X90781185Y-1306815D01*
X90684494Y-1227463D01*
X90574180Y-1168498D01*
X90454482Y-1132188D01*
X90330000Y-1119928D01*
X87615750Y-1123000D01*
X87457000Y-1281750D01*
X87203000Y-1281750D01*
X87044250Y-1123000D01*
X84330000Y-1119928D01*
X84205518Y-1132188D01*
X84085820Y-1168498D01*
X83975506Y-1227463D01*
X83878815Y-1306815D01*
X83799463Y-1403506D01*
X83740498Y-1513820D01*
X83704188Y-1633518D01*
X83691928Y-1758000D01*
X70510229Y-1758000D01*
X71719217Y-669911D01*
X96855000Y-669911D01*
X96855000Y-854089D01*
X96890932Y-1034729D01*
X96961414Y-1204889D01*
X97063738Y-1358028D01*
X97193972Y-1488262D01*
X97347111Y-1590586D01*
X97517271Y-1661068D01*
X97697911Y-1697000D01*
X97871000Y-1697000D01*
X97871000Y-1870089D01*
X97906932Y-2050729D01*
X97977414Y-2220889D01*
X98079738Y-2374028D01*
X98209972Y-2504262D01*
X98363111Y-2606586D01*
X98533271Y-2677068D01*
X98713911Y-2713000D01*
X98898089Y-2713000D01*
X99078729Y-2677068D01*
X99248889Y-2606586D01*
X99402028Y-2504262D01*
X99532262Y-2374028D01*
X99634586Y-2220889D01*
X99705068Y-2050729D01*
X99741000Y-1870089D01*
X99741000Y-1685911D01*
X101427000Y-1685911D01*
X101427000Y-1870089D01*
X101462932Y-2050729D01*
X101533414Y-2220889D01*
X101635738Y-2374028D01*
X101765972Y-2504262D01*
X101919111Y-2606586D01*
X102089271Y-2677068D01*
X102269911Y-2713000D01*
X102454089Y-2713000D01*
X102634729Y-2677068D01*
X102804889Y-2606586D01*
X102958028Y-2504262D01*
X103088262Y-2374028D01*
X103190586Y-2220889D01*
X103261068Y-2050729D01*
X103297000Y-1870089D01*
X103297000Y-1758000D01*
X109691928Y-1758000D01*
X109695000Y-2972250D01*
X109853750Y-3131000D01*
X113203000Y-3131000D01*
X113203000Y-1281750D01*
X113457000Y-1281750D01*
X113457000Y-3131000D01*
X116806250Y-3131000D01*
X116965000Y-2972250D01*
X116968072Y-1758000D01*
X116955812Y-1633518D01*
X116919502Y-1513820D01*
X116860537Y-1403506D01*
X116781185Y-1306815D01*
X116684494Y-1227463D01*
X116574180Y-1168498D01*
X116454482Y-1132188D01*
X116330000Y-1119928D01*
X113615750Y-1123000D01*
X113457000Y-1281750D01*
X113203000Y-1281750D01*
X113044250Y-1123000D01*
X110330000Y-1119928D01*
X110205518Y-1132188D01*
X110085820Y-1168498D01*
X109975506Y-1227463D01*
X109878815Y-1306815D01*
X109799463Y-1403506D01*
X109740498Y-1513820D01*
X109704188Y-1633518D01*
X109691928Y-1758000D01*
X103297000Y-1758000D01*
X103297000Y-1697000D01*
X103470089Y-1697000D01*
X103650729Y-1661068D01*
X103820889Y-1590586D01*
X103974028Y-1488262D01*
X104104262Y-1358028D01*
X104206586Y-1204889D01*
X104277068Y-1034729D01*
X104313000Y-854089D01*
X104313000Y-669911D01*
X104277068Y-489271D01*
X104206586Y-319111D01*
X104104262Y-165972D01*
X103974028Y-35738D01*
X103820889Y66586D01*
X103650729Y137068D01*
X103470089Y173000D01*
X103285911Y173000D01*
X103105271Y137068D01*
X102935111Y66586D01*
X102781972Y-35738D01*
X102651738Y-165972D01*
X102549414Y-319111D01*
X102478932Y-489271D01*
X102443000Y-669911D01*
X102443000Y-843000D01*
X102269911Y-843000D01*
X102089271Y-878932D01*
X101919111Y-949414D01*
X101765972Y-1051738D01*
X101635738Y-1181972D01*
X101533414Y-1335111D01*
X101462932Y-1505271D01*
X101427000Y-1685911D01*
X99741000Y-1685911D01*
X99705068Y-1505271D01*
X99634586Y-1335111D01*
X99532262Y-1181972D01*
X99402028Y-1051738D01*
X99248889Y-949414D01*
X99078729Y-878932D01*
X98898089Y-843000D01*
X98725000Y-843000D01*
X98725000Y-669911D01*
X98689068Y-489271D01*
X98618586Y-319111D01*
X98516262Y-165972D01*
X98386028Y-35738D01*
X98232889Y66586D01*
X98062729Y137068D01*
X97882089Y173000D01*
X97697911Y173000D01*
X97517271Y137068D01*
X97347111Y66586D01*
X97193972Y-35738D01*
X97063738Y-165972D01*
X96961414Y-319111D01*
X96890932Y-489271D01*
X96855000Y-669911D01*
X71719217Y-669911D01*
X73932452Y1322000D01*
X126727549Y1322000D01*
X131370001Y-2856209D01*
G04 #@! TA.AperFunction,Conductor*
D17*
G36*
X131370001Y-2856209D02*
G01*
X131370000Y-24157307D01*
X125494673Y-26507438D01*
X125456981Y-26518872D01*
X125399108Y-26549806D01*
X125340899Y-26580012D01*
X125337489Y-26582742D01*
X125333638Y-26584800D01*
X125282907Y-26626434D01*
X125231714Y-26667413D01*
X125228905Y-26670752D01*
X125225526Y-26673525D01*
X125183887Y-26724263D01*
X125141678Y-26774434D01*
X125139573Y-26778259D01*
X125136801Y-26781637D01*
X125105875Y-26839496D01*
X125074250Y-26896965D01*
X125072931Y-26901130D01*
X125070873Y-26904980D01*
X125051831Y-26967752D01*
X125032023Y-27030296D01*
X125031542Y-27034636D01*
X125030274Y-27038816D01*
X125023848Y-27104064D01*
X125016618Y-27169302D01*
X125020001Y-27208548D01*
X125020000Y-32301282D01*
X124932262Y-32169972D01*
X124802028Y-32039738D01*
X124648889Y-31937414D01*
X124478729Y-31866932D01*
X124393286Y-31849936D01*
X124383528Y-31800881D01*
X124313046Y-31630721D01*
X124210722Y-31477582D01*
X124080488Y-31347348D01*
X123927349Y-31245024D01*
X123757189Y-31174542D01*
X123712805Y-31165713D01*
X123694908Y-31075742D01*
X123624426Y-30905582D01*
X123522102Y-30752443D01*
X123391868Y-30622209D01*
X123238729Y-30519885D01*
X123068569Y-30449403D01*
X122995947Y-30434957D01*
X122983593Y-30372852D01*
X122913111Y-30202692D01*
X122810787Y-30049553D01*
X122680553Y-29919319D01*
X122527414Y-29816995D01*
X122357254Y-29746513D01*
X122347000Y-29744473D01*
X122347000Y-29625911D01*
X122311068Y-29445271D01*
X122240586Y-29275111D01*
X122138262Y-29121972D01*
X122008028Y-28991738D01*
X121854889Y-28889414D01*
X121684729Y-28818932D01*
X121504089Y-28783000D01*
X121319911Y-28783000D01*
X121139271Y-28818932D01*
X120984596Y-28883000D01*
X119758754Y-28883000D01*
X119717736Y-28878960D01*
X119676718Y-28883000D01*
X119676717Y-28883000D01*
X119554047Y-28895082D01*
X119518343Y-28905913D01*
X122641432Y-25782825D01*
X122673291Y-25756679D01*
X122714850Y-25706040D01*
X122777636Y-25629534D01*
X122855172Y-25484475D01*
X122902918Y-25327077D01*
X122908582Y-25269574D01*
X122955518Y-25283812D01*
X123080000Y-25296072D01*
X124080000Y-25296072D01*
X124204482Y-25283812D01*
X124324180Y-25247502D01*
X124434494Y-25188537D01*
X124531185Y-25109185D01*
X124610537Y-25012494D01*
X124669502Y-24902180D01*
X124705812Y-24782482D01*
X124718072Y-24658000D01*
X124718072Y-22258000D01*
X124705812Y-22133518D01*
X124669502Y-22013820D01*
X124615000Y-21911856D01*
X124615000Y-21508827D01*
X124620006Y-21457999D01*
X124615000Y-21407171D01*
X124615000Y-21407162D01*
X124600024Y-21255105D01*
X124540841Y-21060007D01*
X124486827Y-20958953D01*
X124444734Y-20880202D01*
X124347803Y-20762092D01*
X124315396Y-20722604D01*
X124275908Y-20690197D01*
X121719802Y-18134092D01*
X121687391Y-18094599D01*
X121529792Y-17965261D01*
X121349988Y-17869154D01*
X121154890Y-17809971D01*
X121002833Y-17794995D01*
X121002823Y-17794995D01*
X120951995Y-17789989D01*
X120901167Y-17794995D01*
X76724860Y-17794995D01*
X76674032Y-17789989D01*
X76623204Y-17794995D01*
X76623195Y-17794995D01*
X76471138Y-17809971D01*
X76276040Y-17869154D01*
X76192342Y-17913891D01*
X76096235Y-17965261D01*
X75978125Y-18062192D01*
X75938637Y-18094599D01*
X75906230Y-18134087D01*
X74046497Y-19993821D01*
X73910376Y-20050204D01*
X73724480Y-20174416D01*
X73566388Y-20332508D01*
X73442176Y-20518404D01*
X73356617Y-20724961D01*
X73313000Y-20944240D01*
X73313000Y-21167816D01*
X73356617Y-21387095D01*
X73442176Y-21593652D01*
X73566388Y-21779548D01*
X73724480Y-21937640D01*
X73910376Y-22061852D01*
X74116933Y-22147411D01*
X74336212Y-22191028D01*
X74559788Y-22191028D01*
X74779067Y-22147411D01*
X74985624Y-22061852D01*
X75171520Y-21937640D01*
X75329612Y-21779548D01*
X75453824Y-21593652D01*
X75510207Y-21457531D01*
X77102744Y-19864995D01*
X92905510Y-19864995D01*
X92897414Y-19877111D01*
X92826932Y-20047271D01*
X92791000Y-20227911D01*
X92791000Y-20412089D01*
X92826932Y-20592729D01*
X92891000Y-20747404D01*
X92891000Y-21651759D01*
X92835820Y-21668498D01*
X92830000Y-21671609D01*
X92824180Y-21668498D01*
X92704482Y-21632188D01*
X92580000Y-21619928D01*
X91580000Y-21619928D01*
X91455518Y-21632188D01*
X91335820Y-21668498D01*
X91330000Y-21671609D01*
X91324180Y-21668498D01*
X91204482Y-21632188D01*
X91080000Y-21619928D01*
X90080000Y-21619928D01*
X89955518Y-21632188D01*
X89835820Y-21668498D01*
X89830000Y-21671609D01*
X89824180Y-21668498D01*
X89704482Y-21632188D01*
X89580000Y-21619928D01*
X88580000Y-21619928D01*
X88455518Y-21632188D01*
X88335820Y-21668498D01*
X88330000Y-21671609D01*
X88324180Y-21668498D01*
X88204482Y-21632188D01*
X88080000Y-21619928D01*
X87080000Y-21619928D01*
X86955518Y-21632188D01*
X86835820Y-21668498D01*
X86830000Y-21671609D01*
X86824180Y-21668498D01*
X86704482Y-21632188D01*
X86580000Y-21619928D01*
X85580000Y-21619928D01*
X85455518Y-21632188D01*
X85335820Y-21668498D01*
X85330000Y-21671609D01*
X85324180Y-21668498D01*
X85204482Y-21632188D01*
X85080000Y-21619928D01*
X84080000Y-21619928D01*
X83955518Y-21632188D01*
X83835820Y-21668498D01*
X83830000Y-21671609D01*
X83824180Y-21668498D01*
X83704482Y-21632188D01*
X83580000Y-21619928D01*
X82580000Y-21619928D01*
X82455518Y-21632188D01*
X82335820Y-21668498D01*
X82330000Y-21671609D01*
X82324180Y-21668498D01*
X82204482Y-21632188D01*
X82080000Y-21619928D01*
X81080000Y-21619928D01*
X80955518Y-21632188D01*
X80835820Y-21668498D01*
X80830000Y-21671609D01*
X80824180Y-21668498D01*
X80704482Y-21632188D01*
X80580000Y-21619928D01*
X79580000Y-21619928D01*
X79455518Y-21632188D01*
X79335820Y-21668498D01*
X79330000Y-21671609D01*
X79324180Y-21668498D01*
X79204482Y-21632188D01*
X79080000Y-21619928D01*
X78080000Y-21619928D01*
X77955518Y-21632188D01*
X77835820Y-21668498D01*
X77830000Y-21671609D01*
X77824180Y-21668498D01*
X77704482Y-21632188D01*
X77580000Y-21619928D01*
X77365750Y-21623000D01*
X77207000Y-21781750D01*
X77207000Y-23331000D01*
X77227000Y-23331000D01*
X77227000Y-23585000D01*
X77207000Y-23585000D01*
X77207000Y-25134250D01*
X77365750Y-25293000D01*
X77580000Y-25296072D01*
X77704482Y-25283812D01*
X77824180Y-25247502D01*
X77830000Y-25244391D01*
X77835820Y-25247502D01*
X77905000Y-25268488D01*
X77905000Y-26242596D01*
X77840932Y-26397271D01*
X77805000Y-26577911D01*
X77805000Y-26762089D01*
X77840932Y-26942729D01*
X77911414Y-27112889D01*
X78013738Y-27266028D01*
X78143972Y-27396262D01*
X78297111Y-27498586D01*
X78467271Y-27569068D01*
X78647911Y-27605000D01*
X78832089Y-27605000D01*
X79012729Y-27569068D01*
X79182889Y-27498586D01*
X79336028Y-27396262D01*
X79375000Y-27357290D01*
X79413972Y-27396262D01*
X79567111Y-27498586D01*
X79737271Y-27569068D01*
X79917911Y-27605000D01*
X79926132Y-27605000D01*
X79085383Y-28445750D01*
X78930707Y-28509818D01*
X78777568Y-28612142D01*
X78647334Y-28742376D01*
X78545010Y-28895515D01*
X78474528Y-29065675D01*
X78438596Y-29246315D01*
X78438596Y-29430493D01*
X78474528Y-29611133D01*
X78545010Y-29781293D01*
X78647334Y-29934432D01*
X78777568Y-30064666D01*
X78930707Y-30166990D01*
X79002974Y-30196924D01*
X78905970Y-30261740D01*
X78775736Y-30391974D01*
X78673412Y-30545113D01*
X78602930Y-30715273D01*
X78566998Y-30895913D01*
X78566998Y-31080091D01*
X78602930Y-31260731D01*
X78673412Y-31430891D01*
X78775736Y-31584030D01*
X78905970Y-31714264D01*
X79059109Y-31816588D01*
X79204961Y-31877001D01*
X79059111Y-31937414D01*
X78905972Y-32039738D01*
X78775738Y-32169972D01*
X78673414Y-32323111D01*
X78602932Y-32493271D01*
X78567000Y-32673911D01*
X78567000Y-32858089D01*
X78602932Y-33038729D01*
X78673414Y-33208889D01*
X78775738Y-33362028D01*
X78905972Y-33492262D01*
X79059111Y-33594586D01*
X79204964Y-33655000D01*
X79059111Y-33715414D01*
X78905972Y-33817738D01*
X78775738Y-33947972D01*
X78673414Y-34101111D01*
X78602932Y-34271271D01*
X78567000Y-34451911D01*
X78567000Y-34636089D01*
X78602932Y-34816729D01*
X78673414Y-34986889D01*
X78775738Y-35140028D01*
X78905972Y-35270262D01*
X79059111Y-35372586D01*
X79229271Y-35443068D01*
X79409911Y-35479000D01*
X79594089Y-35479000D01*
X79774729Y-35443068D01*
X79944889Y-35372586D01*
X80098028Y-35270262D01*
X80228262Y-35140028D01*
X80330586Y-34986889D01*
X80394655Y-34832212D01*
X83540753Y-31686115D01*
X83540752Y-32868606D01*
X83476684Y-33023282D01*
X83440752Y-33203922D01*
X83440752Y-33388100D01*
X83476684Y-33568740D01*
X83547166Y-33738900D01*
X83649490Y-33892039D01*
X83779724Y-34022273D01*
X83932863Y-34124597D01*
X84103023Y-34195079D01*
X84283663Y-34231011D01*
X84424350Y-34231011D01*
X84451745Y-34368735D01*
X84522227Y-34538895D01*
X84624551Y-34692034D01*
X84754785Y-34822268D01*
X84907924Y-34924592D01*
X85078084Y-34995074D01*
X85258724Y-35031006D01*
X85442902Y-35031006D01*
X85552000Y-35009305D01*
X85552000Y-35144089D01*
X85587932Y-35324729D01*
X85658414Y-35494889D01*
X85760738Y-35648028D01*
X85890972Y-35778262D01*
X86044111Y-35880586D01*
X86214271Y-35951068D01*
X86394911Y-35987000D01*
X86401133Y-35987000D01*
X86441000Y-35999094D01*
X86441000Y-36160089D01*
X86476932Y-36340729D01*
X86547414Y-36510889D01*
X86649738Y-36664028D01*
X86779972Y-36794262D01*
X86933111Y-36896586D01*
X87103271Y-36967068D01*
X87283911Y-37003000D01*
X87457000Y-37003000D01*
X87457000Y-37176089D01*
X87492932Y-37356729D01*
X87563414Y-37526889D01*
X87665738Y-37680028D01*
X87795972Y-37810262D01*
X87949111Y-37912586D01*
X88119271Y-37983068D01*
X88299911Y-38019000D01*
X88473000Y-38019000D01*
X88473000Y-38192089D01*
X88508932Y-38372729D01*
X88579414Y-38542889D01*
X88681738Y-38696028D01*
X88811972Y-38826262D01*
X88965111Y-38928586D01*
X89135271Y-38999068D01*
X89289550Y-39029756D01*
X89273011Y-39112900D01*
X89273011Y-39297078D01*
X89308943Y-39477718D01*
X89379425Y-39647878D01*
X89481749Y-39801017D01*
X89611983Y-39931251D01*
X89765122Y-40033575D01*
X89935282Y-40104057D01*
X90115922Y-40139989D01*
X90256355Y-40139989D01*
X90251000Y-40166911D01*
X90251000Y-40351089D01*
X90286932Y-40531729D01*
X90357414Y-40701889D01*
X90459738Y-40855028D01*
X90589972Y-40985262D01*
X90743111Y-41087586D01*
X90913271Y-41158068D01*
X91093911Y-41194000D01*
X91140000Y-41194000D01*
X91140000Y-41340001D01*
X84866017Y-41340001D01*
X84824998Y-41335961D01*
X84689972Y-41349260D01*
X84661310Y-41352083D01*
X84503912Y-41399829D01*
X84358853Y-41477365D01*
X84231708Y-41581710D01*
X84205560Y-41613572D01*
X80388574Y-45430559D01*
X80356710Y-45456709D01*
X80330562Y-45488571D01*
X80252364Y-45583855D01*
X80174828Y-45728914D01*
X80127082Y-45886312D01*
X80110960Y-46050000D01*
X80115001Y-46091029D01*
X80115000Y-54354598D01*
X80050932Y-54509273D01*
X80015000Y-54689913D01*
X80015000Y-54874091D01*
X80050932Y-55054731D01*
X80115001Y-55209408D01*
X80115000Y-60740979D01*
X80110960Y-60781998D01*
X80115000Y-60823016D01*
X80127082Y-60945686D01*
X80174828Y-61103084D01*
X80252364Y-61248143D01*
X80356709Y-61375289D01*
X80388579Y-61401444D01*
X83407346Y-64420212D01*
X83471414Y-64574887D01*
X83573738Y-64728026D01*
X83703972Y-64858260D01*
X83857111Y-64960584D01*
X84027271Y-65031066D01*
X84207911Y-65066998D01*
X84392089Y-65066998D01*
X84572729Y-65031066D01*
X84742889Y-64960584D01*
X84896028Y-64858260D01*
X85026262Y-64728026D01*
X85128586Y-64574887D01*
X85199068Y-64404727D01*
X85235000Y-64224087D01*
X85235000Y-64039909D01*
X85199068Y-63859269D01*
X85128586Y-63689109D01*
X85026262Y-63535970D01*
X84925909Y-63435617D01*
X84942885Y-63428586D01*
X85096024Y-63326262D01*
X85226258Y-63196028D01*
X85328582Y-63042889D01*
X85392651Y-62888212D01*
X90433787Y-57847077D01*
X90544874Y-57958164D01*
X90698013Y-58060488D01*
X90868173Y-58130970D01*
X91048813Y-58166902D01*
X91232991Y-58166902D01*
X91413631Y-58130970D01*
X91583791Y-58060488D01*
X91736930Y-57958164D01*
X91867164Y-57827930D01*
X91969488Y-57674791D01*
X92033556Y-57520115D01*
X93271433Y-56282240D01*
X93303291Y-56256095D01*
X93365032Y-56180864D01*
X93407636Y-56128950D01*
X93485172Y-55983891D01*
X93522912Y-55859479D01*
X93532918Y-55826493D01*
X93545000Y-55703823D01*
X93545000Y-55703822D01*
X93549040Y-55662804D01*
X93545000Y-55621786D01*
X93545000Y-55609867D01*
X95611778Y-57676646D01*
X95637928Y-57708510D01*
X95765073Y-57812855D01*
X95910132Y-57890391D01*
X96067530Y-57938137D01*
X96190200Y-57950219D01*
X96190210Y-57950219D01*
X96231218Y-57954258D01*
X96272226Y-57950219D01*
X99439203Y-57950219D01*
X99154485Y-58068153D01*
X98862129Y-58263500D01*
X98613500Y-58512129D01*
X98418153Y-58804485D01*
X98283596Y-59129335D01*
X98215000Y-59474193D01*
X98215000Y-59825807D01*
X98283596Y-60170665D01*
X98418153Y-60495515D01*
X98613500Y-60787871D01*
X98862129Y-61036500D01*
X99154485Y-61231847D01*
X99479335Y-61366404D01*
X99824193Y-61435000D01*
X100175807Y-61435000D01*
X100520665Y-61366404D01*
X100845515Y-61231847D01*
X101137871Y-61036500D01*
X101386500Y-60787871D01*
X101581847Y-60495515D01*
X101716404Y-60170665D01*
X101785000Y-59825807D01*
X101785000Y-59474193D01*
X101716404Y-59129335D01*
X101581847Y-58804485D01*
X101386500Y-58512129D01*
X101137871Y-58263500D01*
X100845515Y-58068153D01*
X100560797Y-57950219D01*
X101128760Y-57950219D01*
X101283435Y-58014287D01*
X101464075Y-58050219D01*
X101648253Y-58050219D01*
X101828893Y-58014287D01*
X101999053Y-57943805D01*
X102152192Y-57841481D01*
X102282426Y-57711247D01*
X102384750Y-57558108D01*
X102455232Y-57387948D01*
X102491164Y-57207308D01*
X102491164Y-57023130D01*
X102472694Y-56930276D01*
X102507787Y-56906828D01*
X102638021Y-56776594D01*
X102740345Y-56623455D01*
X102741001Y-56621870D01*
X103207347Y-57088216D01*
X103271414Y-57242889D01*
X103373738Y-57396028D01*
X103503972Y-57526262D01*
X103657111Y-57628586D01*
X103827271Y-57699068D01*
X104007911Y-57735000D01*
X104192089Y-57735000D01*
X104372729Y-57699068D01*
X104542889Y-57628586D01*
X104696028Y-57526262D01*
X104826262Y-57396028D01*
X104928586Y-57242889D01*
X104999068Y-57072729D01*
X105035000Y-56892089D01*
X105035000Y-56707911D01*
X104999068Y-56527271D01*
X104997882Y-56524408D01*
X105126262Y-56396028D01*
X105228586Y-56242889D01*
X105299068Y-56072729D01*
X105335000Y-55892089D01*
X105335000Y-55707911D01*
X105299068Y-55527271D01*
X105228586Y-55357111D01*
X105126262Y-55203972D01*
X104996028Y-55073738D01*
X104842889Y-54971414D01*
X104688215Y-54907347D01*
X103655193Y-53874325D01*
X103743889Y-53837586D01*
X103897028Y-53735262D01*
X104027262Y-53605028D01*
X104129586Y-53451889D01*
X104193655Y-53297212D01*
X114735000Y-42755868D01*
X114735000Y-43184131D01*
X106011788Y-51907345D01*
X105857111Y-51971414D01*
X105703972Y-52073738D01*
X105573738Y-52203972D01*
X105471414Y-52357111D01*
X105400932Y-52527271D01*
X105365000Y-52707911D01*
X105365000Y-52892089D01*
X105400932Y-53072729D01*
X105465000Y-53227404D01*
X105465001Y-59597131D01*
X104105787Y-60956345D01*
X103951111Y-61020414D01*
X103797972Y-61122738D01*
X103667738Y-61252972D01*
X103565414Y-61406111D01*
X103494932Y-61576271D01*
X103459000Y-61756911D01*
X103459000Y-61941089D01*
X103494932Y-62121729D01*
X103565414Y-62291889D01*
X103667738Y-62445028D01*
X103797972Y-62575262D01*
X103951111Y-62677586D01*
X104121271Y-62748068D01*
X104301911Y-62784000D01*
X104458728Y-62784000D01*
X104517914Y-62926889D01*
X104620238Y-63080028D01*
X104750472Y-63210262D01*
X104903611Y-63312586D01*
X105073771Y-63383068D01*
X105254411Y-63419000D01*
X105284232Y-63419000D01*
X105343418Y-63561889D01*
X105445742Y-63715028D01*
X105575976Y-63845262D01*
X105729115Y-63947586D01*
X105899275Y-64018068D01*
X106079915Y-64054000D01*
X106154726Y-64054000D01*
X106161932Y-64090229D01*
X106232414Y-64260389D01*
X106334738Y-64413528D01*
X106464972Y-64543762D01*
X106618111Y-64646086D01*
X106788271Y-64716568D01*
X106968911Y-64752500D01*
X107099539Y-64752500D01*
X107132424Y-64831893D01*
X107234748Y-64985032D01*
X107364982Y-65115266D01*
X107518121Y-65217590D01*
X107688281Y-65288072D01*
X107868921Y-65324004D01*
X108053099Y-65324004D01*
X108126671Y-65309369D01*
X108174019Y-65423679D01*
X108276343Y-65576818D01*
X108406577Y-65707052D01*
X108559716Y-65809376D01*
X108729876Y-65879858D01*
X108910516Y-65915790D01*
X109094694Y-65915790D01*
X109275334Y-65879858D01*
X109445494Y-65809376D01*
X109598633Y-65707052D01*
X109728867Y-65576818D01*
X109831191Y-65423679D01*
X109895260Y-65269002D01*
X119561432Y-55602832D01*
X119593291Y-55576686D01*
X119628442Y-55533855D01*
X119697636Y-55449541D01*
X119775172Y-55304482D01*
X119782144Y-55281498D01*
X119822918Y-55147084D01*
X119835000Y-55024414D01*
X119835000Y-55024413D01*
X119839040Y-54983395D01*
X119835000Y-54942377D01*
X119835000Y-53227404D01*
X119892654Y-53088213D01*
X120790418Y-52190450D01*
X120822281Y-52164301D01*
X120926626Y-52037156D01*
X121004162Y-51892097D01*
X121051908Y-51734699D01*
X121063990Y-51612029D01*
X121063990Y-51612019D01*
X121068029Y-51571011D01*
X121063990Y-51530003D01*
X121063990Y-43636000D01*
X124990001Y-43636000D01*
X124990000Y-90690000D01*
X124634877Y-90690000D01*
X124600000Y-90686565D01*
X124565123Y-90690000D01*
X124460816Y-90700273D01*
X124326980Y-90740872D01*
X124203637Y-90806800D01*
X124095525Y-90895525D01*
X124006800Y-91003637D01*
X123940872Y-91126980D01*
X123900273Y-91260816D01*
X123886565Y-91400000D01*
X123890001Y-91434887D01*
X123890000Y-99290000D01*
X76110000Y-99290000D01*
X76110000Y-92507911D01*
X77365000Y-92507911D01*
X77365000Y-92692089D01*
X77400932Y-92872729D01*
X77471414Y-93042889D01*
X77573738Y-93196028D01*
X77703972Y-93326262D01*
X77857111Y-93428586D01*
X78027271Y-93499068D01*
X78207911Y-93535000D01*
X78392089Y-93535000D01*
X78572729Y-93499068D01*
X78742889Y-93428586D01*
X78896028Y-93326262D01*
X79026262Y-93196028D01*
X79050000Y-93160502D01*
X79073738Y-93196028D01*
X79203972Y-93326262D01*
X79357111Y-93428586D01*
X79527271Y-93499068D01*
X79707911Y-93535000D01*
X79892089Y-93535000D01*
X80072729Y-93499068D01*
X80242889Y-93428586D01*
X80396028Y-93326262D01*
X80526262Y-93196028D01*
X80550000Y-93160502D01*
X80573738Y-93196028D01*
X80703972Y-93326262D01*
X80857111Y-93428586D01*
X81027271Y-93499068D01*
X81207911Y-93535000D01*
X81392089Y-93535000D01*
X81572729Y-93499068D01*
X81742889Y-93428586D01*
X81896028Y-93326262D01*
X82026262Y-93196028D01*
X82050000Y-93160502D01*
X82073738Y-93196028D01*
X82203972Y-93326262D01*
X82357111Y-93428586D01*
X82527271Y-93499068D01*
X82707911Y-93535000D01*
X82892089Y-93535000D01*
X83072729Y-93499068D01*
X83242889Y-93428586D01*
X83396028Y-93326262D01*
X83526262Y-93196028D01*
X83550000Y-93160502D01*
X83573738Y-93196028D01*
X83703972Y-93326262D01*
X83857111Y-93428586D01*
X84027271Y-93499068D01*
X84207911Y-93535000D01*
X84392089Y-93535000D01*
X84572729Y-93499068D01*
X84742889Y-93428586D01*
X84896028Y-93326262D01*
X85000000Y-93222290D01*
X85103972Y-93326262D01*
X85257111Y-93428586D01*
X85427271Y-93499068D01*
X85607911Y-93535000D01*
X85792089Y-93535000D01*
X85972729Y-93499068D01*
X86142889Y-93428586D01*
X86296028Y-93326262D01*
X86426262Y-93196028D01*
X86475000Y-93123086D01*
X86523738Y-93196028D01*
X86653972Y-93326262D01*
X86807111Y-93428586D01*
X86977271Y-93499068D01*
X87157911Y-93535000D01*
X87342089Y-93535000D01*
X87522729Y-93499068D01*
X87692889Y-93428586D01*
X87846028Y-93326262D01*
X87976262Y-93196028D01*
X88025000Y-93123086D01*
X88073738Y-93196028D01*
X88203972Y-93326262D01*
X88357111Y-93428586D01*
X88527271Y-93499068D01*
X88707911Y-93535000D01*
X88892089Y-93535000D01*
X89072729Y-93499068D01*
X89242889Y-93428586D01*
X89396028Y-93326262D01*
X89500000Y-93222290D01*
X89603972Y-93326262D01*
X89757111Y-93428586D01*
X89927271Y-93499068D01*
X90107911Y-93535000D01*
X90292089Y-93535000D01*
X90472729Y-93499068D01*
X90642889Y-93428586D01*
X90796028Y-93326262D01*
X90926262Y-93196028D01*
X91000000Y-93085671D01*
X91073738Y-93196028D01*
X91203972Y-93326262D01*
X91357111Y-93428586D01*
X91527271Y-93499068D01*
X91707911Y-93535000D01*
X91892089Y-93535000D01*
X92072729Y-93499068D01*
X92242889Y-93428586D01*
X92396028Y-93326262D01*
X92526262Y-93196028D01*
X92550000Y-93160502D01*
X92573738Y-93196028D01*
X92703972Y-93326262D01*
X92857111Y-93428586D01*
X93027271Y-93499068D01*
X93207911Y-93535000D01*
X93392089Y-93535000D01*
X93572729Y-93499068D01*
X93742889Y-93428586D01*
X93896028Y-93326262D01*
X94000000Y-93222290D01*
X94103972Y-93326262D01*
X94257111Y-93428586D01*
X94427271Y-93499068D01*
X94607911Y-93535000D01*
X94792089Y-93535000D01*
X94972729Y-93499068D01*
X95142889Y-93428586D01*
X95296028Y-93326262D01*
X95426262Y-93196028D01*
X95450000Y-93160502D01*
X95473738Y-93196028D01*
X95603972Y-93326262D01*
X95757111Y-93428586D01*
X95927271Y-93499068D01*
X96107911Y-93535000D01*
X96292089Y-93535000D01*
X96472729Y-93499068D01*
X96642889Y-93428586D01*
X96796028Y-93326262D01*
X96926262Y-93196028D01*
X96950000Y-93160502D01*
X96973738Y-93196028D01*
X97103972Y-93326262D01*
X97257111Y-93428586D01*
X97427271Y-93499068D01*
X97607911Y-93535000D01*
X97792089Y-93535000D01*
X97972729Y-93499068D01*
X98142889Y-93428586D01*
X98296028Y-93326262D01*
X98426262Y-93196028D01*
X98500000Y-93085671D01*
X98573738Y-93196028D01*
X98703972Y-93326262D01*
X98857111Y-93428586D01*
X99027271Y-93499068D01*
X99207911Y-93535000D01*
X99392089Y-93535000D01*
X99572729Y-93499068D01*
X99742889Y-93428586D01*
X99896028Y-93326262D01*
X100026262Y-93196028D01*
X100050000Y-93160502D01*
X100073738Y-93196028D01*
X100203972Y-93326262D01*
X100357111Y-93428586D01*
X100527271Y-93499068D01*
X100707911Y-93535000D01*
X100892089Y-93535000D01*
X101072729Y-93499068D01*
X101242889Y-93428586D01*
X101396028Y-93326262D01*
X101526262Y-93196028D01*
X101550000Y-93160502D01*
X101573738Y-93196028D01*
X101703972Y-93326262D01*
X101857111Y-93428586D01*
X102027271Y-93499068D01*
X102207911Y-93535000D01*
X102392089Y-93535000D01*
X102572729Y-93499068D01*
X102742889Y-93428586D01*
X102896028Y-93326262D01*
X103026262Y-93196028D01*
X103050000Y-93160502D01*
X103073738Y-93196028D01*
X103203972Y-93326262D01*
X103357111Y-93428586D01*
X103527271Y-93499068D01*
X103707911Y-93535000D01*
X103892089Y-93535000D01*
X104072729Y-93499068D01*
X104242889Y-93428586D01*
X104396028Y-93326262D01*
X104526262Y-93196028D01*
X104550000Y-93160502D01*
X104573738Y-93196028D01*
X104703972Y-93326262D01*
X104857111Y-93428586D01*
X105027271Y-93499068D01*
X105207911Y-93535000D01*
X105392089Y-93535000D01*
X105572729Y-93499068D01*
X105742889Y-93428586D01*
X105896028Y-93326262D01*
X106026262Y-93196028D01*
X106050000Y-93160502D01*
X106073738Y-93196028D01*
X106203972Y-93326262D01*
X106357111Y-93428586D01*
X106527271Y-93499068D01*
X106707911Y-93535000D01*
X106892089Y-93535000D01*
X107072729Y-93499068D01*
X107242889Y-93428586D01*
X107396028Y-93326262D01*
X107525000Y-93197290D01*
X107653972Y-93326262D01*
X107807111Y-93428586D01*
X107977271Y-93499068D01*
X108157911Y-93535000D01*
X108342089Y-93535000D01*
X108522729Y-93499068D01*
X108692889Y-93428586D01*
X108846028Y-93326262D01*
X108976262Y-93196028D01*
X109000000Y-93160502D01*
X109023738Y-93196028D01*
X109153972Y-93326262D01*
X109307111Y-93428586D01*
X109477271Y-93499068D01*
X109657911Y-93535000D01*
X109842089Y-93535000D01*
X110022729Y-93499068D01*
X110192889Y-93428586D01*
X110346028Y-93326262D01*
X110476262Y-93196028D01*
X110500000Y-93160502D01*
X110523738Y-93196028D01*
X110653972Y-93326262D01*
X110807111Y-93428586D01*
X110977271Y-93499068D01*
X111157911Y-93535000D01*
X111342089Y-93535000D01*
X111522729Y-93499068D01*
X111692889Y-93428586D01*
X111846028Y-93326262D01*
X111976262Y-93196028D01*
X112000000Y-93160502D01*
X112023738Y-93196028D01*
X112153972Y-93326262D01*
X112307111Y-93428586D01*
X112477271Y-93499068D01*
X112657911Y-93535000D01*
X112842089Y-93535000D01*
X113022729Y-93499068D01*
X113192889Y-93428586D01*
X113346028Y-93326262D01*
X113476262Y-93196028D01*
X113500000Y-93160502D01*
X113523738Y-93196028D01*
X113653972Y-93326262D01*
X113807111Y-93428586D01*
X113977271Y-93499068D01*
X114157911Y-93535000D01*
X114342089Y-93535000D01*
X114522729Y-93499068D01*
X114692889Y-93428586D01*
X114846028Y-93326262D01*
X114976262Y-93196028D01*
X115000000Y-93160502D01*
X115023738Y-93196028D01*
X115153972Y-93326262D01*
X115307111Y-93428586D01*
X115477271Y-93499068D01*
X115657911Y-93535000D01*
X115842089Y-93535000D01*
X116022729Y-93499068D01*
X116192889Y-93428586D01*
X116346028Y-93326262D01*
X116476262Y-93196028D01*
X116500000Y-93160502D01*
X116523738Y-93196028D01*
X116653972Y-93326262D01*
X116807111Y-93428586D01*
X116977271Y-93499068D01*
X117157911Y-93535000D01*
X117342089Y-93535000D01*
X117522729Y-93499068D01*
X117692889Y-93428586D01*
X117846028Y-93326262D01*
X117976262Y-93196028D01*
X118000000Y-93160502D01*
X118023738Y-93196028D01*
X118153972Y-93326262D01*
X118307111Y-93428586D01*
X118477271Y-93499068D01*
X118657911Y-93535000D01*
X118842089Y-93535000D01*
X119022729Y-93499068D01*
X119192889Y-93428586D01*
X119346028Y-93326262D01*
X119476262Y-93196028D01*
X119500000Y-93160502D01*
X119523738Y-93196028D01*
X119653972Y-93326262D01*
X119807111Y-93428586D01*
X119977271Y-93499068D01*
X120157911Y-93535000D01*
X120342089Y-93535000D01*
X120522729Y-93499068D01*
X120692889Y-93428586D01*
X120846028Y-93326262D01*
X120976262Y-93196028D01*
X121000000Y-93160502D01*
X121023738Y-93196028D01*
X121153972Y-93326262D01*
X121307111Y-93428586D01*
X121477271Y-93499068D01*
X121657911Y-93535000D01*
X121842089Y-93535000D01*
X122022729Y-93499068D01*
X122192889Y-93428586D01*
X122346028Y-93326262D01*
X122476262Y-93196028D01*
X122578586Y-93042889D01*
X122649068Y-92872729D01*
X122685000Y-92692089D01*
X122685000Y-92507911D01*
X122649068Y-92327271D01*
X122578586Y-92157111D01*
X122476262Y-92003972D01*
X122346028Y-91873738D01*
X122192889Y-91771414D01*
X122022729Y-91700932D01*
X121842089Y-91665000D01*
X121657911Y-91665000D01*
X121477271Y-91700932D01*
X121307111Y-91771414D01*
X121153972Y-91873738D01*
X121023738Y-92003972D01*
X121000000Y-92039498D01*
X120976262Y-92003972D01*
X120846028Y-91873738D01*
X120692889Y-91771414D01*
X120522729Y-91700932D01*
X120342089Y-91665000D01*
X120157911Y-91665000D01*
X119977271Y-91700932D01*
X119807111Y-91771414D01*
X119653972Y-91873738D01*
X119523738Y-92003972D01*
X119500000Y-92039498D01*
X119476262Y-92003972D01*
X119346028Y-91873738D01*
X119192889Y-91771414D01*
X119022729Y-91700932D01*
X118842089Y-91665000D01*
X118657911Y-91665000D01*
X118477271Y-91700932D01*
X118307111Y-91771414D01*
X118153972Y-91873738D01*
X118023738Y-92003972D01*
X118000000Y-92039498D01*
X117976262Y-92003972D01*
X117846028Y-91873738D01*
X117692889Y-91771414D01*
X117522729Y-91700932D01*
X117342089Y-91665000D01*
X117157911Y-91665000D01*
X116977271Y-91700932D01*
X116807111Y-91771414D01*
X116653972Y-91873738D01*
X116523738Y-92003972D01*
X116500000Y-92039498D01*
X116476262Y-92003972D01*
X116346028Y-91873738D01*
X116192889Y-91771414D01*
X116022729Y-91700932D01*
X115842089Y-91665000D01*
X115657911Y-91665000D01*
X115477271Y-91700932D01*
X115307111Y-91771414D01*
X115153972Y-91873738D01*
X115023738Y-92003972D01*
X115000000Y-92039498D01*
X114976262Y-92003972D01*
X114846028Y-91873738D01*
X114692889Y-91771414D01*
X114522729Y-91700932D01*
X114342089Y-91665000D01*
X114157911Y-91665000D01*
X113977271Y-91700932D01*
X113807111Y-91771414D01*
X113653972Y-91873738D01*
X113523738Y-92003972D01*
X113500000Y-92039498D01*
X113476262Y-92003972D01*
X113346028Y-91873738D01*
X113192889Y-91771414D01*
X113022729Y-91700932D01*
X112842089Y-91665000D01*
X112657911Y-91665000D01*
X112477271Y-91700932D01*
X112307111Y-91771414D01*
X112153972Y-91873738D01*
X112023738Y-92003972D01*
X112000000Y-92039498D01*
X111976262Y-92003972D01*
X111846028Y-91873738D01*
X111692889Y-91771414D01*
X111522729Y-91700932D01*
X111342089Y-91665000D01*
X111157911Y-91665000D01*
X110977271Y-91700932D01*
X110807111Y-91771414D01*
X110653972Y-91873738D01*
X110523738Y-92003972D01*
X110500000Y-92039498D01*
X110476262Y-92003972D01*
X110346028Y-91873738D01*
X110192889Y-91771414D01*
X110022729Y-91700932D01*
X109842089Y-91665000D01*
X109657911Y-91665000D01*
X109477271Y-91700932D01*
X109307111Y-91771414D01*
X109153972Y-91873738D01*
X109023738Y-92003972D01*
X109000000Y-92039498D01*
X108976262Y-92003972D01*
X108846028Y-91873738D01*
X108692889Y-91771414D01*
X108522729Y-91700932D01*
X108342089Y-91665000D01*
X108157911Y-91665000D01*
X107977271Y-91700932D01*
X107807111Y-91771414D01*
X107653972Y-91873738D01*
X107525000Y-92002710D01*
X107396028Y-91873738D01*
X107242889Y-91771414D01*
X107072729Y-91700932D01*
X106892089Y-91665000D01*
X106707911Y-91665000D01*
X106527271Y-91700932D01*
X106357111Y-91771414D01*
X106203972Y-91873738D01*
X106073738Y-92003972D01*
X106050000Y-92039498D01*
X106026262Y-92003972D01*
X105896028Y-91873738D01*
X105742889Y-91771414D01*
X105572729Y-91700932D01*
X105392089Y-91665000D01*
X105207911Y-91665000D01*
X105027271Y-91700932D01*
X104857111Y-91771414D01*
X104703972Y-91873738D01*
X104573738Y-92003972D01*
X104550000Y-92039498D01*
X104526262Y-92003972D01*
X104396028Y-91873738D01*
X104242889Y-91771414D01*
X104072729Y-91700932D01*
X103892089Y-91665000D01*
X103707911Y-91665000D01*
X103527271Y-91700932D01*
X103357111Y-91771414D01*
X103203972Y-91873738D01*
X103073738Y-92003972D01*
X103050000Y-92039498D01*
X103026262Y-92003972D01*
X102896028Y-91873738D01*
X102742889Y-91771414D01*
X102572729Y-91700932D01*
X102392089Y-91665000D01*
X102207911Y-91665000D01*
X102027271Y-91700932D01*
X101857111Y-91771414D01*
X101703972Y-91873738D01*
X101573738Y-92003972D01*
X101550000Y-92039498D01*
X101526262Y-92003972D01*
X101396028Y-91873738D01*
X101242889Y-91771414D01*
X101072729Y-91700932D01*
X100892089Y-91665000D01*
X100707911Y-91665000D01*
X100527271Y-91700932D01*
X100357111Y-91771414D01*
X100203972Y-91873738D01*
X100073738Y-92003972D01*
X100050000Y-92039498D01*
X100026262Y-92003972D01*
X99896028Y-91873738D01*
X99742889Y-91771414D01*
X99572729Y-91700932D01*
X99392089Y-91665000D01*
X99207911Y-91665000D01*
X99027271Y-91700932D01*
X98857111Y-91771414D01*
X98703972Y-91873738D01*
X98573738Y-92003972D01*
X98500000Y-92114329D01*
X98426262Y-92003972D01*
X98296028Y-91873738D01*
X98142889Y-91771414D01*
X97972729Y-91700932D01*
X97792089Y-91665000D01*
X97607911Y-91665000D01*
X97427271Y-91700932D01*
X97257111Y-91771414D01*
X97103972Y-91873738D01*
X96973738Y-92003972D01*
X96950000Y-92039498D01*
X96926262Y-92003972D01*
X96796028Y-91873738D01*
X96642889Y-91771414D01*
X96472729Y-91700932D01*
X96292089Y-91665000D01*
X96107911Y-91665000D01*
X95927271Y-91700932D01*
X95757111Y-91771414D01*
X95603972Y-91873738D01*
X95473738Y-92003972D01*
X95450000Y-92039498D01*
X95426262Y-92003972D01*
X95296028Y-91873738D01*
X95142889Y-91771414D01*
X94972729Y-91700932D01*
X94792089Y-91665000D01*
X94607911Y-91665000D01*
X94427271Y-91700932D01*
X94257111Y-91771414D01*
X94103972Y-91873738D01*
X94000000Y-91977710D01*
X93896028Y-91873738D01*
X93742889Y-91771414D01*
X93572729Y-91700932D01*
X93392089Y-91665000D01*
X93207911Y-91665000D01*
X93027271Y-91700932D01*
X92857111Y-91771414D01*
X92703972Y-91873738D01*
X92573738Y-92003972D01*
X92550000Y-92039498D01*
X92526262Y-92003972D01*
X92396028Y-91873738D01*
X92242889Y-91771414D01*
X92072729Y-91700932D01*
X91892089Y-91665000D01*
X91707911Y-91665000D01*
X91527271Y-91700932D01*
X91357111Y-91771414D01*
X91203972Y-91873738D01*
X91073738Y-92003972D01*
X91000000Y-92114329D01*
X90926262Y-92003972D01*
X90796028Y-91873738D01*
X90642889Y-91771414D01*
X90472729Y-91700932D01*
X90292089Y-91665000D01*
X90107911Y-91665000D01*
X89927271Y-91700932D01*
X89757111Y-91771414D01*
X89603972Y-91873738D01*
X89500000Y-91977710D01*
X89396028Y-91873738D01*
X89242889Y-91771414D01*
X89072729Y-91700932D01*
X88892089Y-91665000D01*
X88707911Y-91665000D01*
X88527271Y-91700932D01*
X88357111Y-91771414D01*
X88203972Y-91873738D01*
X88073738Y-92003972D01*
X88025000Y-92076914D01*
X87976262Y-92003972D01*
X87846028Y-91873738D01*
X87692889Y-91771414D01*
X87522729Y-91700932D01*
X87342089Y-91665000D01*
X87157911Y-91665000D01*
X86977271Y-91700932D01*
X86807111Y-91771414D01*
X86653972Y-91873738D01*
X86523738Y-92003972D01*
X86475000Y-92076914D01*
X86426262Y-92003972D01*
X86296028Y-91873738D01*
X86142889Y-91771414D01*
X85972729Y-91700932D01*
X85792089Y-91665000D01*
X85607911Y-91665000D01*
X85427271Y-91700932D01*
X85257111Y-91771414D01*
X85103972Y-91873738D01*
X85000000Y-91977710D01*
X84896028Y-91873738D01*
X84742889Y-91771414D01*
X84572729Y-91700932D01*
X84392089Y-91665000D01*
X84207911Y-91665000D01*
X84027271Y-91700932D01*
X83857111Y-91771414D01*
X83703972Y-91873738D01*
X83573738Y-92003972D01*
X83550000Y-92039498D01*
X83526262Y-92003972D01*
X83396028Y-91873738D01*
X83242889Y-91771414D01*
X83072729Y-91700932D01*
X82892089Y-91665000D01*
X82707911Y-91665000D01*
X82527271Y-91700932D01*
X82357111Y-91771414D01*
X82203972Y-91873738D01*
X82073738Y-92003972D01*
X82050000Y-92039498D01*
X82026262Y-92003972D01*
X81896028Y-91873738D01*
X81742889Y-91771414D01*
X81572729Y-91700932D01*
X81392089Y-91665000D01*
X81207911Y-91665000D01*
X81027271Y-91700932D01*
X80857111Y-91771414D01*
X80703972Y-91873738D01*
X80573738Y-92003972D01*
X80550000Y-92039498D01*
X80526262Y-92003972D01*
X80396028Y-91873738D01*
X80242889Y-91771414D01*
X80072729Y-91700932D01*
X79892089Y-91665000D01*
X79707911Y-91665000D01*
X79527271Y-91700932D01*
X79357111Y-91771414D01*
X79203972Y-91873738D01*
X79073738Y-92003972D01*
X79050000Y-92039498D01*
X79026262Y-92003972D01*
X78896028Y-91873738D01*
X78742889Y-91771414D01*
X78572729Y-91700932D01*
X78392089Y-91665000D01*
X78207911Y-91665000D01*
X78027271Y-91700932D01*
X77857111Y-91771414D01*
X77703972Y-91873738D01*
X77573738Y-92003972D01*
X77471414Y-92157111D01*
X77400932Y-92327271D01*
X77365000Y-92507911D01*
X76110000Y-92507911D01*
X76110000Y-91434876D01*
X76113435Y-91400000D01*
X76099727Y-91260816D01*
X76059128Y-91126980D01*
X75993200Y-91003637D01*
X75904475Y-90895525D01*
X75796363Y-90806800D01*
X75673020Y-90740872D01*
X75539184Y-90700273D01*
X75434877Y-90690000D01*
X75400000Y-90686565D01*
X75365123Y-90690000D01*
X75010000Y-90690000D01*
X75010000Y-84232889D01*
X95765000Y-84232889D01*
X95765000Y-85067111D01*
X95927749Y-85885304D01*
X96246992Y-86656025D01*
X96710461Y-87349655D01*
X97300345Y-87939539D01*
X97993975Y-88403008D01*
X98764696Y-88722251D01*
X99582889Y-88885000D01*
X100417111Y-88885000D01*
X101235304Y-88722251D01*
X102006025Y-88403008D01*
X102699655Y-87939539D01*
X103289539Y-87349655D01*
X103753008Y-86656025D01*
X104072251Y-85885304D01*
X104235000Y-85067111D01*
X104235000Y-84232889D01*
X104072251Y-83414696D01*
X103753008Y-82643975D01*
X103289539Y-81950345D01*
X102699655Y-81360461D01*
X102006025Y-80896992D01*
X101235304Y-80577749D01*
X100417111Y-80415000D01*
X99582889Y-80415000D01*
X98764696Y-80577749D01*
X97993975Y-80896992D01*
X97300345Y-81360461D01*
X96710461Y-81950345D01*
X96246992Y-82643975D01*
X95927749Y-83414696D01*
X95765000Y-84232889D01*
X75010000Y-84232889D01*
X75010000Y-79409911D01*
X95585000Y-79409911D01*
X95585000Y-79594089D01*
X95620932Y-79774729D01*
X95691414Y-79944889D01*
X95793738Y-80098028D01*
X95923972Y-80228262D01*
X96077111Y-80330586D01*
X96247271Y-80401068D01*
X96427911Y-80437000D01*
X96612089Y-80437000D01*
X96792729Y-80401068D01*
X96962889Y-80330586D01*
X97116028Y-80228262D01*
X97246262Y-80098028D01*
X97348586Y-79944889D01*
X97419068Y-79774729D01*
X97455000Y-79594089D01*
X97455000Y-79409911D01*
X97419068Y-79229271D01*
X97348586Y-79059111D01*
X97246262Y-78905972D01*
X97116028Y-78775738D01*
X96962889Y-78673414D01*
X96792729Y-78602932D01*
X96612089Y-78567000D01*
X96427911Y-78567000D01*
X96247271Y-78602932D01*
X96077111Y-78673414D01*
X95923972Y-78775738D01*
X95793738Y-78905972D01*
X95691414Y-79059111D01*
X95620932Y-79229271D01*
X95585000Y-79409911D01*
X75010000Y-79409911D01*
X75010000Y-75345911D01*
X96601000Y-75345911D01*
X96601000Y-75530089D01*
X96636932Y-75710729D01*
X96707414Y-75880889D01*
X96809738Y-76034028D01*
X96939972Y-76164262D01*
X96993458Y-76200000D01*
X96939972Y-76235738D01*
X96809738Y-76365972D01*
X96707414Y-76519111D01*
X96636932Y-76689271D01*
X96601000Y-76869911D01*
X96601000Y-77054089D01*
X96636932Y-77234729D01*
X96707414Y-77404889D01*
X96809738Y-77558028D01*
X96939972Y-77688262D01*
X97093111Y-77790586D01*
X97179592Y-77826408D01*
X97215414Y-77912889D01*
X97317738Y-78066028D01*
X97447972Y-78196262D01*
X97601111Y-78298586D01*
X97771271Y-78369068D01*
X97871958Y-78389096D01*
X97871000Y-78393911D01*
X97871000Y-78578089D01*
X97906932Y-78758729D01*
X97977414Y-78928889D01*
X98079738Y-79082028D01*
X98209972Y-79212262D01*
X98363111Y-79314586D01*
X98533271Y-79385068D01*
X98713911Y-79421000D01*
X98898089Y-79421000D01*
X99078729Y-79385068D01*
X99248889Y-79314586D01*
X99402028Y-79212262D01*
X99441000Y-79173290D01*
X99479972Y-79212262D01*
X99633111Y-79314586D01*
X99803271Y-79385068D01*
X99983911Y-79421000D01*
X100157000Y-79421000D01*
X100157000Y-79594089D01*
X100192932Y-79774729D01*
X100263414Y-79944889D01*
X100365738Y-80098028D01*
X100495972Y-80228262D01*
X100649111Y-80330586D01*
X100819271Y-80401068D01*
X100999911Y-80437000D01*
X101184089Y-80437000D01*
X101364729Y-80401068D01*
X101534889Y-80330586D01*
X101688028Y-80228262D01*
X101818262Y-80098028D01*
X101920586Y-79944889D01*
X101956408Y-79858408D01*
X102042889Y-79822586D01*
X102196028Y-79720262D01*
X102326262Y-79590028D01*
X102428586Y-79436889D01*
X102464408Y-79350408D01*
X102550889Y-79314586D01*
X102704028Y-79212262D01*
X102834262Y-79082028D01*
X102936586Y-78928889D01*
X103007068Y-78758729D01*
X103043000Y-78578089D01*
X103043000Y-78393911D01*
X103007068Y-78213271D01*
X102936586Y-78043111D01*
X102834262Y-77889972D01*
X102704028Y-77759738D01*
X102550889Y-77657414D01*
X102380729Y-77586932D01*
X102200089Y-77551000D01*
X102015911Y-77551000D01*
X101835271Y-77586932D01*
X101665111Y-77657414D01*
X101511972Y-77759738D01*
X101381738Y-77889972D01*
X101279414Y-78043111D01*
X101243592Y-78129592D01*
X101157111Y-78165414D01*
X101003972Y-78267738D01*
X100988900Y-78282810D01*
X100975068Y-78213271D01*
X100904586Y-78043111D01*
X100802262Y-77889972D01*
X100787190Y-77874900D01*
X100856729Y-77861068D01*
X101026889Y-77790586D01*
X101180028Y-77688262D01*
X101310262Y-77558028D01*
X101412586Y-77404889D01*
X101448408Y-77318408D01*
X101534889Y-77282586D01*
X101688028Y-77180262D01*
X101818262Y-77050028D01*
X101920586Y-76896889D01*
X101991068Y-76726729D01*
X102027000Y-76546089D01*
X102027000Y-76361911D01*
X101991068Y-76181271D01*
X101920586Y-76011111D01*
X101877080Y-75946000D01*
X101920586Y-75880889D01*
X101991068Y-75710729D01*
X102027000Y-75530089D01*
X102027000Y-75345911D01*
X101991068Y-75165271D01*
X101920586Y-74995111D01*
X101818262Y-74841972D01*
X101688028Y-74711738D01*
X101534889Y-74609414D01*
X101364729Y-74538932D01*
X101184089Y-74503000D01*
X100999911Y-74503000D01*
X100819271Y-74538932D01*
X100649111Y-74609414D01*
X100495972Y-74711738D01*
X100365738Y-74841972D01*
X100263414Y-74995111D01*
X100192932Y-75165271D01*
X100157000Y-75345911D01*
X100157000Y-75530089D01*
X100192932Y-75710729D01*
X100263414Y-75880889D01*
X100306920Y-75946000D01*
X100263414Y-76011111D01*
X100227592Y-76097592D01*
X100141111Y-76133414D01*
X99987972Y-76235738D01*
X99857738Y-76365972D01*
X99755414Y-76519111D01*
X99684932Y-76689271D01*
X99649000Y-76869911D01*
X99649000Y-77054089D01*
X99684932Y-77234729D01*
X99755414Y-77404889D01*
X99857738Y-77558028D01*
X99872810Y-77573100D01*
X99803271Y-77586932D01*
X99633111Y-77657414D01*
X99479972Y-77759738D01*
X99441000Y-77798710D01*
X99402028Y-77759738D01*
X99248889Y-77657414D01*
X99199382Y-77636908D01*
X99278262Y-77558028D01*
X99380586Y-77404889D01*
X99451068Y-77234729D01*
X99487000Y-77054089D01*
X99487000Y-76869911D01*
X99451068Y-76689271D01*
X99380586Y-76519111D01*
X99278262Y-76365972D01*
X99148028Y-76235738D01*
X98994889Y-76133414D01*
X98908408Y-76097592D01*
X98872586Y-76011111D01*
X98770262Y-75857972D01*
X98640028Y-75727738D01*
X98486889Y-75625414D01*
X98454691Y-75612077D01*
X98471000Y-75530089D01*
X98471000Y-75345911D01*
X98435068Y-75165271D01*
X98364586Y-74995111D01*
X98262262Y-74841972D01*
X98132028Y-74711738D01*
X97978889Y-74609414D01*
X97808729Y-74538932D01*
X97628089Y-74503000D01*
X97443911Y-74503000D01*
X97263271Y-74538932D01*
X97093111Y-74609414D01*
X96939972Y-74711738D01*
X96809738Y-74841972D01*
X96707414Y-74995111D01*
X96636932Y-75165271D01*
X96601000Y-75345911D01*
X75010000Y-75345911D01*
X75010000Y-73821911D01*
X94569010Y-73821911D01*
X94569010Y-74006089D01*
X94604942Y-74186729D01*
X94675424Y-74356889D01*
X94777748Y-74510028D01*
X94907982Y-74640262D01*
X95061121Y-74742586D01*
X95231281Y-74813068D01*
X95411921Y-74849000D01*
X95596099Y-74849000D01*
X95776739Y-74813068D01*
X95946899Y-74742586D01*
X96100038Y-74640262D01*
X96230272Y-74510028D01*
X96332596Y-74356889D01*
X96403078Y-74186729D01*
X96439010Y-74006089D01*
X96439010Y-73821911D01*
X98633000Y-73821911D01*
X98633000Y-74006089D01*
X98668932Y-74186729D01*
X98739414Y-74356889D01*
X98841738Y-74510028D01*
X98971972Y-74640262D01*
X99125111Y-74742586D01*
X99295271Y-74813068D01*
X99475911Y-74849000D01*
X99660089Y-74849000D01*
X99840729Y-74813068D01*
X100010889Y-74742586D01*
X100164028Y-74640262D01*
X100294262Y-74510028D01*
X100396586Y-74356889D01*
X100467068Y-74186729D01*
X100503000Y-74006089D01*
X100503000Y-73821911D01*
X102189024Y-73821911D01*
X102189024Y-74006089D01*
X102224956Y-74186729D01*
X102295438Y-74356889D01*
X102397762Y-74510028D01*
X102527996Y-74640262D01*
X102681135Y-74742586D01*
X102851295Y-74813068D01*
X103031935Y-74849000D01*
X103216113Y-74849000D01*
X103396753Y-74813068D01*
X103566913Y-74742586D01*
X103720052Y-74640262D01*
X103850286Y-74510028D01*
X103952610Y-74356889D01*
X104023092Y-74186729D01*
X104059024Y-74006089D01*
X104059024Y-73821911D01*
X104023092Y-73641271D01*
X103952610Y-73471111D01*
X103850286Y-73317972D01*
X103720052Y-73187738D01*
X103566913Y-73085414D01*
X103396753Y-73014932D01*
X103216113Y-72979000D01*
X103031935Y-72979000D01*
X102851295Y-73014932D01*
X102681135Y-73085414D01*
X102527996Y-73187738D01*
X102397762Y-73317972D01*
X102295438Y-73471111D01*
X102224956Y-73641271D01*
X102189024Y-73821911D01*
X100503000Y-73821911D01*
X100467068Y-73641271D01*
X100396586Y-73471111D01*
X100294262Y-73317972D01*
X100164028Y-73187738D01*
X100010889Y-73085414D01*
X99840729Y-73014932D01*
X99660089Y-72979000D01*
X99475911Y-72979000D01*
X99295271Y-73014932D01*
X99125111Y-73085414D01*
X98971972Y-73187738D01*
X98841738Y-73317972D01*
X98739414Y-73471111D01*
X98668932Y-73641271D01*
X98633000Y-73821911D01*
X96439010Y-73821911D01*
X96403078Y-73641271D01*
X96332596Y-73471111D01*
X96230272Y-73317972D01*
X96100038Y-73187738D01*
X95946899Y-73085414D01*
X95776739Y-73014932D01*
X95596099Y-72979000D01*
X95411921Y-72979000D01*
X95231281Y-73014932D01*
X95061121Y-73085414D01*
X94907982Y-73187738D01*
X94777748Y-73317972D01*
X94675424Y-73471111D01*
X94604942Y-73641271D01*
X94569010Y-73821911D01*
X75010000Y-73821911D01*
X75010000Y-71281911D01*
X95585000Y-71281911D01*
X95585000Y-71466089D01*
X95620932Y-71646729D01*
X95691414Y-71816889D01*
X95793738Y-71970028D01*
X95923972Y-72100262D01*
X96077111Y-72202586D01*
X96247271Y-72273068D01*
X96427911Y-72309000D01*
X96601000Y-72309000D01*
X96601000Y-72482089D01*
X96636932Y-72662729D01*
X96707414Y-72832889D01*
X96809738Y-72986028D01*
X96939972Y-73116262D01*
X97093111Y-73218586D01*
X97263271Y-73289068D01*
X97443911Y-73325000D01*
X97628089Y-73325000D01*
X97808729Y-73289068D01*
X97978889Y-73218586D01*
X98132028Y-73116262D01*
X98262262Y-72986028D01*
X98364586Y-72832889D01*
X98435068Y-72662729D01*
X98471000Y-72482089D01*
X98471000Y-72297911D01*
X100157000Y-72297911D01*
X100157000Y-72482089D01*
X100192932Y-72662729D01*
X100263414Y-72832889D01*
X100365738Y-72986028D01*
X100495972Y-73116262D01*
X100649111Y-73218586D01*
X100819271Y-73289068D01*
X100999911Y-73325000D01*
X101184089Y-73325000D01*
X101364729Y-73289068D01*
X101534889Y-73218586D01*
X101688028Y-73116262D01*
X101818262Y-72986028D01*
X101920586Y-72832889D01*
X101991068Y-72662729D01*
X102027000Y-72482089D01*
X102027000Y-72309000D01*
X102200089Y-72309000D01*
X102380729Y-72273068D01*
X102550889Y-72202586D01*
X102704028Y-72100262D01*
X102834262Y-71970028D01*
X102936586Y-71816889D01*
X103007068Y-71646729D01*
X103043000Y-71466089D01*
X103043000Y-71281911D01*
X103007068Y-71101271D01*
X102936586Y-70931111D01*
X102834262Y-70777972D01*
X102704028Y-70647738D01*
X102550889Y-70545414D01*
X102380729Y-70474932D01*
X102200089Y-70439000D01*
X102015911Y-70439000D01*
X101835271Y-70474932D01*
X101665111Y-70545414D01*
X101511972Y-70647738D01*
X101381738Y-70777972D01*
X101279414Y-70931111D01*
X101208932Y-71101271D01*
X101173000Y-71281911D01*
X101173000Y-71455000D01*
X100999911Y-71455000D01*
X100819271Y-71490932D01*
X100649111Y-71561414D01*
X100495972Y-71663738D01*
X100365738Y-71793972D01*
X100263414Y-71947111D01*
X100192932Y-72117271D01*
X100157000Y-72297911D01*
X98471000Y-72297911D01*
X98435068Y-72117271D01*
X98364586Y-71947111D01*
X98262262Y-71793972D01*
X98132028Y-71663738D01*
X97978889Y-71561414D01*
X97808729Y-71490932D01*
X97628089Y-71455000D01*
X97455000Y-71455000D01*
X97455000Y-71281911D01*
X97419068Y-71101271D01*
X97348586Y-70931111D01*
X97246262Y-70777972D01*
X97116028Y-70647738D01*
X96962889Y-70545414D01*
X96792729Y-70474932D01*
X96612089Y-70439000D01*
X96427911Y-70439000D01*
X96247271Y-70474932D01*
X96077111Y-70545414D01*
X95923972Y-70647738D01*
X95793738Y-70777972D01*
X95691414Y-70931111D01*
X95620932Y-71101271D01*
X95585000Y-71281911D01*
X75010000Y-71281911D01*
X75010000Y-28482877D01*
X75013435Y-28448000D01*
X74999727Y-28308816D01*
X74959128Y-28174980D01*
X74893200Y-28051637D01*
X74804475Y-27943525D01*
X74696363Y-27854800D01*
X74573020Y-27788872D01*
X74439184Y-27748273D01*
X74334877Y-27738000D01*
X74300000Y-27734565D01*
X74265123Y-27738000D01*
X69290000Y-27738000D01*
X69290000Y-24658000D01*
X75941928Y-24658000D01*
X75954188Y-24782482D01*
X75990498Y-24902180D01*
X76049463Y-25012494D01*
X76128815Y-25109185D01*
X76225506Y-25188537D01*
X76335820Y-25247502D01*
X76455518Y-25283812D01*
X76580000Y-25296072D01*
X76794250Y-25293000D01*
X76953000Y-25134250D01*
X76953000Y-23585000D01*
X76103750Y-23585000D01*
X75945000Y-23743750D01*
X75941928Y-24658000D01*
X69290000Y-24658000D01*
X69290000Y-22258000D01*
X75941928Y-22258000D01*
X75945000Y-23172250D01*
X76103750Y-23331000D01*
X76953000Y-23331000D01*
X76953000Y-21781750D01*
X76794250Y-21623000D01*
X76580000Y-21619928D01*
X76455518Y-21632188D01*
X76335820Y-21668498D01*
X76225506Y-21727463D01*
X76128815Y-21806815D01*
X76049463Y-21903506D01*
X75990498Y-22013820D01*
X75954188Y-22133518D01*
X75941928Y-22258000D01*
X69290000Y-22258000D01*
X69290000Y-15096967D01*
X85695000Y-15096967D01*
X85695000Y-15419033D01*
X85757832Y-15734912D01*
X85881082Y-16032463D01*
X86060013Y-16300252D01*
X86287748Y-16527987D01*
X86555537Y-16706918D01*
X86853088Y-16830168D01*
X87168967Y-16893000D01*
X87491033Y-16893000D01*
X87806912Y-16830168D01*
X88104463Y-16706918D01*
X88372252Y-16527987D01*
X88599987Y-16300252D01*
X88778918Y-16032463D01*
X88902168Y-15734912D01*
X88965000Y-15419033D01*
X88965000Y-15096967D01*
X111695000Y-15096967D01*
X111695000Y-15419033D01*
X111757832Y-15734912D01*
X111881082Y-16032463D01*
X112060013Y-16300252D01*
X112287748Y-16527987D01*
X112555537Y-16706918D01*
X112853088Y-16830168D01*
X113168967Y-16893000D01*
X113491033Y-16893000D01*
X113806912Y-16830168D01*
X114104463Y-16706918D01*
X114372252Y-16527987D01*
X114599987Y-16300252D01*
X114778918Y-16032463D01*
X114902168Y-15734912D01*
X114965000Y-15419033D01*
X114965000Y-15096967D01*
X114902168Y-14781088D01*
X114778918Y-14483537D01*
X114599987Y-14215748D01*
X114372252Y-13988013D01*
X114104463Y-13809082D01*
X113806912Y-13685832D01*
X113491033Y-13623000D01*
X113168967Y-13623000D01*
X112853088Y-13685832D01*
X112555537Y-13809082D01*
X112287748Y-13988013D01*
X112060013Y-14215748D01*
X111881082Y-14483537D01*
X111757832Y-14781088D01*
X111695000Y-15096967D01*
X88965000Y-15096967D01*
X88902168Y-14781088D01*
X88778918Y-14483537D01*
X88599987Y-14215748D01*
X88372252Y-13988013D01*
X88104463Y-13809082D01*
X87806912Y-13685832D01*
X87491033Y-13623000D01*
X87168967Y-13623000D01*
X86853088Y-13685832D01*
X86555537Y-13809082D01*
X86287748Y-13988013D01*
X86060013Y-14215748D01*
X85881082Y-14483537D01*
X85757832Y-14781088D01*
X85695000Y-15096967D01*
X69290000Y-15096967D01*
X69290000Y-8797911D01*
X96855000Y-8797911D01*
X96855000Y-8982089D01*
X96890932Y-9162729D01*
X96961414Y-9332889D01*
X97063738Y-9486028D01*
X97193972Y-9616262D01*
X97347111Y-9718586D01*
X97517271Y-9789068D01*
X97697911Y-9825000D01*
X97882089Y-9825000D01*
X98062729Y-9789068D01*
X98232889Y-9718586D01*
X98386028Y-9616262D01*
X98516262Y-9486028D01*
X98618586Y-9332889D01*
X98689068Y-9162729D01*
X98725000Y-8982089D01*
X98725000Y-8797911D01*
X98689068Y-8617271D01*
X98618586Y-8447111D01*
X98516262Y-8293972D01*
X98386028Y-8163738D01*
X98232889Y-8061414D01*
X98062729Y-7990932D01*
X97882089Y-7955000D01*
X97697911Y-7955000D01*
X97517271Y-7990932D01*
X97347111Y-8061414D01*
X97193972Y-8163738D01*
X97063738Y-8293972D01*
X96961414Y-8447111D01*
X96890932Y-8617271D01*
X96855000Y-8797911D01*
X69290000Y-8797911D01*
X69290000Y-4758000D01*
X83691928Y-4758000D01*
X83704188Y-4882482D01*
X83740498Y-5002180D01*
X83799463Y-5112494D01*
X83878815Y-5209185D01*
X83975506Y-5288537D01*
X84085820Y-5347502D01*
X84205518Y-5383812D01*
X84330000Y-5396072D01*
X87044250Y-5393000D01*
X87203000Y-5234250D01*
X87203000Y-3385000D01*
X87457000Y-3385000D01*
X87457000Y-5234250D01*
X87615750Y-5393000D01*
X90330000Y-5396072D01*
X90454482Y-5383812D01*
X90574180Y-5347502D01*
X90684494Y-5288537D01*
X90781185Y-5209185D01*
X90860537Y-5112494D01*
X90919502Y-5002180D01*
X90955812Y-4882482D01*
X90968072Y-4758000D01*
X90968012Y-4733911D01*
X97871000Y-4733911D01*
X97871000Y-4918089D01*
X97906932Y-5098729D01*
X97977414Y-5268889D01*
X98079738Y-5422028D01*
X98209972Y-5552262D01*
X98263458Y-5588000D01*
X98209972Y-5623738D01*
X98079738Y-5753972D01*
X97977414Y-5907111D01*
X97906932Y-6077271D01*
X97871000Y-6257911D01*
X97871000Y-6442089D01*
X97906932Y-6622729D01*
X97977414Y-6792889D01*
X98079738Y-6946028D01*
X98209972Y-7076262D01*
X98363111Y-7178586D01*
X98449592Y-7214408D01*
X98485414Y-7300889D01*
X98587738Y-7454028D01*
X98717972Y-7584262D01*
X98871111Y-7686586D01*
X99041271Y-7757068D01*
X99141958Y-7777096D01*
X99141000Y-7781911D01*
X99141000Y-7966089D01*
X99176932Y-8146729D01*
X99247414Y-8316889D01*
X99349738Y-8470028D01*
X99479972Y-8600262D01*
X99633111Y-8702586D01*
X99803271Y-8773068D01*
X99983911Y-8809000D01*
X100168089Y-8809000D01*
X100348729Y-8773068D01*
X100518889Y-8702586D01*
X100672028Y-8600262D01*
X100711000Y-8561290D01*
X100749972Y-8600262D01*
X100903111Y-8702586D01*
X101073271Y-8773068D01*
X101253911Y-8809000D01*
X101427000Y-8809000D01*
X101427000Y-8982089D01*
X101462932Y-9162729D01*
X101533414Y-9332889D01*
X101635738Y-9486028D01*
X101765972Y-9616262D01*
X101919111Y-9718586D01*
X102089271Y-9789068D01*
X102269911Y-9825000D01*
X102454089Y-9825000D01*
X102634729Y-9789068D01*
X102804889Y-9718586D01*
X102958028Y-9616262D01*
X103088262Y-9486028D01*
X103190586Y-9332889D01*
X103226408Y-9246408D01*
X103312889Y-9210586D01*
X103466028Y-9108262D01*
X103596262Y-8978028D01*
X103698586Y-8824889D01*
X103734408Y-8738408D01*
X103820889Y-8702586D01*
X103974028Y-8600262D01*
X104104262Y-8470028D01*
X104206586Y-8316889D01*
X104277068Y-8146729D01*
X104313000Y-7966089D01*
X104313000Y-7781911D01*
X104277068Y-7601271D01*
X104206586Y-7431111D01*
X104104262Y-7277972D01*
X103974028Y-7147738D01*
X103820889Y-7045414D01*
X103650729Y-6974932D01*
X103470089Y-6939000D01*
X103285911Y-6939000D01*
X103105271Y-6974932D01*
X102935111Y-7045414D01*
X102781972Y-7147738D01*
X102651738Y-7277972D01*
X102549414Y-7431111D01*
X102513592Y-7517592D01*
X102427111Y-7553414D01*
X102273972Y-7655738D01*
X102258900Y-7670810D01*
X102245068Y-7601271D01*
X102174586Y-7431111D01*
X102072262Y-7277972D01*
X102057190Y-7262900D01*
X102126729Y-7249068D01*
X102296889Y-7178586D01*
X102450028Y-7076262D01*
X102580262Y-6946028D01*
X102682586Y-6792889D01*
X102718408Y-6706408D01*
X102804889Y-6670586D01*
X102958028Y-6568262D01*
X103088262Y-6438028D01*
X103190586Y-6284889D01*
X103261068Y-6114729D01*
X103297000Y-5934089D01*
X103297000Y-5749911D01*
X103261068Y-5569271D01*
X103190586Y-5399111D01*
X103147080Y-5334000D01*
X103190586Y-5268889D01*
X103261068Y-5098729D01*
X103297000Y-4918089D01*
X103297000Y-4758000D01*
X109691928Y-4758000D01*
X109704188Y-4882482D01*
X109740498Y-5002180D01*
X109799463Y-5112494D01*
X109878815Y-5209185D01*
X109975506Y-5288537D01*
X110085820Y-5347502D01*
X110205518Y-5383812D01*
X110330000Y-5396072D01*
X113044250Y-5393000D01*
X113203000Y-5234250D01*
X113203000Y-3385000D01*
X113457000Y-3385000D01*
X113457000Y-5234250D01*
X113615750Y-5393000D01*
X116330000Y-5396072D01*
X116454482Y-5383812D01*
X116574180Y-5347502D01*
X116684494Y-5288537D01*
X116781185Y-5209185D01*
X116860537Y-5112494D01*
X116919502Y-5002180D01*
X116955812Y-4882482D01*
X116968072Y-4758000D01*
X116965000Y-3543750D01*
X116806250Y-3385000D01*
X113457000Y-3385000D01*
X113203000Y-3385000D01*
X109853750Y-3385000D01*
X109695000Y-3543750D01*
X109691928Y-4758000D01*
X103297000Y-4758000D01*
X103297000Y-4733911D01*
X103261068Y-4553271D01*
X103190586Y-4383111D01*
X103088262Y-4229972D01*
X102958028Y-4099738D01*
X102804889Y-3997414D01*
X102634729Y-3926932D01*
X102454089Y-3891000D01*
X102269911Y-3891000D01*
X102089271Y-3926932D01*
X101919111Y-3997414D01*
X101765972Y-4099738D01*
X101635738Y-4229972D01*
X101533414Y-4383111D01*
X101462932Y-4553271D01*
X101427000Y-4733911D01*
X101427000Y-4918089D01*
X101462932Y-5098729D01*
X101533414Y-5268889D01*
X101576920Y-5334000D01*
X101533414Y-5399111D01*
X101497592Y-5485592D01*
X101411111Y-5521414D01*
X101257972Y-5623738D01*
X101127738Y-5753972D01*
X101025414Y-5907111D01*
X100954932Y-6077271D01*
X100919000Y-6257911D01*
X100919000Y-6442089D01*
X100954932Y-6622729D01*
X101025414Y-6792889D01*
X101127738Y-6946028D01*
X101142810Y-6961100D01*
X101073271Y-6974932D01*
X100903111Y-7045414D01*
X100749972Y-7147738D01*
X100711000Y-7186710D01*
X100672028Y-7147738D01*
X100518889Y-7045414D01*
X100469382Y-7024908D01*
X100548262Y-6946028D01*
X100650586Y-6792889D01*
X100721068Y-6622729D01*
X100757000Y-6442089D01*
X100757000Y-6257911D01*
X100721068Y-6077271D01*
X100650586Y-5907111D01*
X100548262Y-5753972D01*
X100418028Y-5623738D01*
X100264889Y-5521414D01*
X100178408Y-5485592D01*
X100142586Y-5399111D01*
X100040262Y-5245972D01*
X99910028Y-5115738D01*
X99756889Y-5013414D01*
X99724691Y-5000077D01*
X99741000Y-4918089D01*
X99741000Y-4733911D01*
X99705068Y-4553271D01*
X99634586Y-4383111D01*
X99532262Y-4229972D01*
X99402028Y-4099738D01*
X99248889Y-3997414D01*
X99078729Y-3926932D01*
X98898089Y-3891000D01*
X98713911Y-3891000D01*
X98533271Y-3926932D01*
X98363111Y-3997414D01*
X98209972Y-4099738D01*
X98079738Y-4229972D01*
X97977414Y-4383111D01*
X97906932Y-4553271D01*
X97871000Y-4733911D01*
X90968012Y-4733911D01*
X90965000Y-3543750D01*
X90806250Y-3385000D01*
X87457000Y-3385000D01*
X87203000Y-3385000D01*
X83853750Y-3385000D01*
X83695000Y-3543750D01*
X83691928Y-4758000D01*
X69290000Y-4758000D01*
X69290000Y-3209911D01*
X95839010Y-3209911D01*
X95839010Y-3394089D01*
X95874942Y-3574729D01*
X95945424Y-3744889D01*
X96047748Y-3898028D01*
X96177982Y-4028262D01*
X96331121Y-4130586D01*
X96501281Y-4201068D01*
X96681921Y-4237000D01*
X96866099Y-4237000D01*
X97046739Y-4201068D01*
X97216899Y-4130586D01*
X97370038Y-4028262D01*
X97500272Y-3898028D01*
X97602596Y-3744889D01*
X97673078Y-3574729D01*
X97709010Y-3394089D01*
X97709010Y-3209911D01*
X99903000Y-3209911D01*
X99903000Y-3394089D01*
X99938932Y-3574729D01*
X100009414Y-3744889D01*
X100111738Y-3898028D01*
X100241972Y-4028262D01*
X100395111Y-4130586D01*
X100565271Y-4201068D01*
X100745911Y-4237000D01*
X100930089Y-4237000D01*
X101110729Y-4201068D01*
X101280889Y-4130586D01*
X101434028Y-4028262D01*
X101564262Y-3898028D01*
X101666586Y-3744889D01*
X101737068Y-3574729D01*
X101773000Y-3394089D01*
X101773000Y-3209911D01*
X103459024Y-3209911D01*
X103459024Y-3394089D01*
X103494956Y-3574729D01*
X103565438Y-3744889D01*
X103667762Y-3898028D01*
X103797996Y-4028262D01*
X103951135Y-4130586D01*
X104121295Y-4201068D01*
X104301935Y-4237000D01*
X104486113Y-4237000D01*
X104666753Y-4201068D01*
X104836913Y-4130586D01*
X104990052Y-4028262D01*
X105120286Y-3898028D01*
X105222610Y-3744889D01*
X105293092Y-3574729D01*
X105329024Y-3394089D01*
X105329024Y-3209911D01*
X105293092Y-3029271D01*
X105222610Y-2859111D01*
X105120286Y-2705972D01*
X104990052Y-2575738D01*
X104836913Y-2473414D01*
X104666753Y-2402932D01*
X104486113Y-2367000D01*
X104301935Y-2367000D01*
X104121295Y-2402932D01*
X103951135Y-2473414D01*
X103797996Y-2575738D01*
X103667762Y-2705972D01*
X103565438Y-2859111D01*
X103494956Y-3029271D01*
X103459024Y-3209911D01*
X101773000Y-3209911D01*
X101737068Y-3029271D01*
X101666586Y-2859111D01*
X101564262Y-2705972D01*
X101434028Y-2575738D01*
X101280889Y-2473414D01*
X101110729Y-2402932D01*
X100930089Y-2367000D01*
X100745911Y-2367000D01*
X100565271Y-2402932D01*
X100395111Y-2473414D01*
X100241972Y-2575738D01*
X100111738Y-2705972D01*
X100009414Y-2859111D01*
X99938932Y-3029271D01*
X99903000Y-3209911D01*
X97709010Y-3209911D01*
X97673078Y-3029271D01*
X97602596Y-2859111D01*
X97500272Y-2705972D01*
X97370038Y-2575738D01*
X97216899Y-2473414D01*
X97046739Y-2402932D01*
X96866099Y-2367000D01*
X96681921Y-2367000D01*
X96501281Y-2402932D01*
X96331121Y-2473414D01*
X96177982Y-2575738D01*
X96047748Y-2705972D01*
X95945424Y-2859111D01*
X95874942Y-3029271D01*
X95839010Y-3209911D01*
X69290000Y-3209911D01*
X69290000Y-2856207D01*
X70510229Y-1758000D01*
X83691928Y-1758000D01*
X83695000Y-2972250D01*
X83853750Y-3131000D01*
X87203000Y-3131000D01*
X87203000Y-1281750D01*
X87457000Y-1281750D01*
X87457000Y-3131000D01*
X90806250Y-3131000D01*
X90965000Y-2972250D01*
X90968072Y-1758000D01*
X90955812Y-1633518D01*
X90919502Y-1513820D01*
X90860537Y-1403506D01*
X90781185Y-1306815D01*
X90684494Y-1227463D01*
X90574180Y-1168498D01*
X90454482Y-1132188D01*
X90330000Y-1119928D01*
X87615750Y-1123000D01*
X87457000Y-1281750D01*
X87203000Y-1281750D01*
X87044250Y-1123000D01*
X84330000Y-1119928D01*
X84205518Y-1132188D01*
X84085820Y-1168498D01*
X83975506Y-1227463D01*
X83878815Y-1306815D01*
X83799463Y-1403506D01*
X83740498Y-1513820D01*
X83704188Y-1633518D01*
X83691928Y-1758000D01*
X70510229Y-1758000D01*
X71719217Y-669911D01*
X96855000Y-669911D01*
X96855000Y-854089D01*
X96890932Y-1034729D01*
X96961414Y-1204889D01*
X97063738Y-1358028D01*
X97193972Y-1488262D01*
X97347111Y-1590586D01*
X97517271Y-1661068D01*
X97697911Y-1697000D01*
X97871000Y-1697000D01*
X97871000Y-1870089D01*
X97906932Y-2050729D01*
X97977414Y-2220889D01*
X98079738Y-2374028D01*
X98209972Y-2504262D01*
X98363111Y-2606586D01*
X98533271Y-2677068D01*
X98713911Y-2713000D01*
X98898089Y-2713000D01*
X99078729Y-2677068D01*
X99248889Y-2606586D01*
X99402028Y-2504262D01*
X99532262Y-2374028D01*
X99634586Y-2220889D01*
X99705068Y-2050729D01*
X99741000Y-1870089D01*
X99741000Y-1685911D01*
X101427000Y-1685911D01*
X101427000Y-1870089D01*
X101462932Y-2050729D01*
X101533414Y-2220889D01*
X101635738Y-2374028D01*
X101765972Y-2504262D01*
X101919111Y-2606586D01*
X102089271Y-2677068D01*
X102269911Y-2713000D01*
X102454089Y-2713000D01*
X102634729Y-2677068D01*
X102804889Y-2606586D01*
X102958028Y-2504262D01*
X103088262Y-2374028D01*
X103190586Y-2220889D01*
X103261068Y-2050729D01*
X103297000Y-1870089D01*
X103297000Y-1758000D01*
X109691928Y-1758000D01*
X109695000Y-2972250D01*
X109853750Y-3131000D01*
X113203000Y-3131000D01*
X113203000Y-1281750D01*
X113457000Y-1281750D01*
X113457000Y-3131000D01*
X116806250Y-3131000D01*
X116965000Y-2972250D01*
X116968072Y-1758000D01*
X116955812Y-1633518D01*
X116919502Y-1513820D01*
X116860537Y-1403506D01*
X116781185Y-1306815D01*
X116684494Y-1227463D01*
X116574180Y-1168498D01*
X116454482Y-1132188D01*
X116330000Y-1119928D01*
X113615750Y-1123000D01*
X113457000Y-1281750D01*
X113203000Y-1281750D01*
X113044250Y-1123000D01*
X110330000Y-1119928D01*
X110205518Y-1132188D01*
X110085820Y-1168498D01*
X109975506Y-1227463D01*
X109878815Y-1306815D01*
X109799463Y-1403506D01*
X109740498Y-1513820D01*
X109704188Y-1633518D01*
X109691928Y-1758000D01*
X103297000Y-1758000D01*
X103297000Y-1697000D01*
X103470089Y-1697000D01*
X103650729Y-1661068D01*
X103820889Y-1590586D01*
X103974028Y-1488262D01*
X104104262Y-1358028D01*
X104206586Y-1204889D01*
X104277068Y-1034729D01*
X104313000Y-854089D01*
X104313000Y-669911D01*
X104277068Y-489271D01*
X104206586Y-319111D01*
X104104262Y-165972D01*
X103974028Y-35738D01*
X103820889Y66586D01*
X103650729Y137068D01*
X103470089Y173000D01*
X103285911Y173000D01*
X103105271Y137068D01*
X102935111Y66586D01*
X102781972Y-35738D01*
X102651738Y-165972D01*
X102549414Y-319111D01*
X102478932Y-489271D01*
X102443000Y-669911D01*
X102443000Y-843000D01*
X102269911Y-843000D01*
X102089271Y-878932D01*
X101919111Y-949414D01*
X101765972Y-1051738D01*
X101635738Y-1181972D01*
X101533414Y-1335111D01*
X101462932Y-1505271D01*
X101427000Y-1685911D01*
X99741000Y-1685911D01*
X99705068Y-1505271D01*
X99634586Y-1335111D01*
X99532262Y-1181972D01*
X99402028Y-1051738D01*
X99248889Y-949414D01*
X99078729Y-878932D01*
X98898089Y-843000D01*
X98725000Y-843000D01*
X98725000Y-669911D01*
X98689068Y-489271D01*
X98618586Y-319111D01*
X98516262Y-165972D01*
X98386028Y-35738D01*
X98232889Y66586D01*
X98062729Y137068D01*
X97882089Y173000D01*
X97697911Y173000D01*
X97517271Y137068D01*
X97347111Y66586D01*
X97193972Y-35738D01*
X97063738Y-165972D01*
X96961414Y-319111D01*
X96890932Y-489271D01*
X96855000Y-669911D01*
X71719217Y-669911D01*
X73932452Y1322000D01*
X126727549Y1322000D01*
X131370001Y-2856209D01*
G37*
G04 #@! TD.AperFunction*
M02*
