M48
; DRILL file {KiCad (5.1.12)-1} date 02/12/23 18:55:20
; FORMAT={-:-/ absolute / metric / decimal}
; #@! TF.CreationDate,2023-02-12T18:55:20-08:00
; #@! TF.GenerationSoftware,Kicad,Pcbnew,(5.1.12)-1
; #@! TF.FileFunction,Plated,1,2,PTH
FMAT,2
METRIC
T1C0.400
T2C0.800
%
G90
G05
T1
X78.3Y-92.6
X78.74Y-26.67
X79.374Y-29.338
X79.502Y-30.988
X79.502Y-32.766
X79.502Y-34.544
X79.8Y-92.6
X80.01Y-26.67
X80.95Y-54.782
X81.3Y-92.6
X81.788Y-26.67
X82.8Y-92.6
X83.312Y-26.67
X83.49Y-54.822
X84.3Y-64.132
X84.3Y-92.6
X84.328Y-31.104
X84.376Y-33.296
X84.5Y-62.6
X84.582Y-26.67
X84.582Y-58.039
X84.582Y-59.944
X85.351Y-34.096
X85.598Y-31.104
X85.7Y-92.6
X86.106Y-26.67
X86.106Y-48.006
X86.487Y-35.052
X86.614Y-31.104
X87.25Y-92.6
X87.376Y-36.068
X87.4Y-54.332
X87.63Y-26.67
X87.63Y-31.104
X88.392Y-37.084
X88.392Y-48.006
X88.8Y-92.6
X88.9Y-31.104
X89.154Y-26.67
X89.408Y-38.1
X89.662Y-48.006
X89.916Y-31.104
X90.2Y-92.6
X90.208Y-39.205
X90.678Y-26.67
X90.932Y-31.104
X91.11Y-47.955
X91.141Y-57.232
X91.186Y-40.259
X91.8Y-92.6
X91.948Y-31.104
X92.075Y-41.275
X92.202Y-26.67
X93.3Y-92.6
X93.472Y-31.104
X93.726Y-20.32
X93.977Y-47.8
X94.7Y-92.6
X94.712Y-26.843
X94.74Y-27.974
X94.799Y-30.125
X94.902Y-29.085
X94.996Y-48.006
X95.251Y-20.321
X95.504Y-73.914
X96.2Y-92.6
X96.285Y-47.704
X96.52Y-71.374
X96.52Y-71.374
X96.52Y-79.502
X96.774Y-20.32
X96.774Y-3.302
X97.536Y-48.006
X97.536Y-72.39
X97.536Y-75.438
X97.536Y-76.962
X97.7Y-92.6
X97.79Y-0.762
X97.79Y-0.762
X97.79Y-8.89
X98.044Y-20.32
X98.044Y-76.454
X98.044Y-77.47
X98.552Y-76.962
X98.679Y-47.879
X98.806Y-1.778
X98.806Y-4.826
X98.806Y-6.35
X98.806Y-78.486
X99.3Y-92.6
X99.314Y-5.842
X99.314Y-6.858
X99.568Y-20.32
X99.568Y-73.914
X99.822Y-6.35
X99.822Y-48.006
X100.076Y-7.874
X100.076Y-78.486
X100.584Y-76.962
X100.8Y-92.6
X100.838Y-3.302
X100.838Y-48.006
X101.092Y-20.32
X101.092Y-72.39
X101.092Y-75.438
X101.092Y-76.454
X101.092Y-79.502
X101.346Y-7.874
X101.556Y-57.115
X101.6Y-78.994
X101.854Y-6.35
X101.912Y-56.181
X102.108Y-71.374
X102.108Y-78.486
X102.3Y-92.6
X102.362Y-1.778
X102.362Y-4.826
X102.362Y-5.842
X102.362Y-8.89
X102.362Y-48.006
X102.616Y-20.32
X102.87Y-8.382
X103.124Y-73.914
X103.301Y-53.009
X103.378Y-0.762
X103.378Y-7.874
X103.8Y-92.6
X104.012Y-41.022
X104.1Y-56.8
X104.14Y-20.32
X104.394Y-38.357
X104.394Y-61.849
X104.394Y-3.302
X104.4Y-55.8
X104.648Y-33.528
X104.648Y-30.48
X105.154Y-36.344
X105.156Y-31.38
X105.156Y-34.544
X105.3Y-92.6
X105.346Y-62.484
X105.917Y-42.927
X106.172Y-63.119
X106.3Y-52.8
X106.8Y-92.6
X107.061Y-63.817
X107.791Y-41.815
X107.961Y-64.389
X108.25Y-92.6
X108.9Y-52.8
X109.003Y-64.981
X109.728Y-41.148
X109.75Y-92.6
X111.25Y-92.6
X111.4Y-52.8
X111.506Y-38.862
X112.522Y-37.846
X112.75Y-92.6
X113.422Y-34.29
X113.792Y-31.496
X114.0Y-52.8
X114.25Y-92.6
X114.426Y-34.258
X114.808Y-30.48
X115.57Y-34.29
X115.75Y-92.6
X115.824Y-28.564
X115.824Y-26.764
X116.332Y-29.464
X116.5Y-52.8
X116.84Y-27.664
X117.25Y-92.6
X118.11Y-3.302
X118.75Y-92.6
X119.0Y-52.8
X120.25Y-92.6
X121.412Y-29.718
X121.75Y-92.6
X122.085Y-30.646
X122.796Y-31.348
X123.4Y-92.6
X123.484Y-32.074
X124.206Y-32.766
T2
X74.448Y-21.056
X120.3Y-59.0
X120.3Y-78.3
X120.3Y-86.1
X120.7Y-68.5
X122.3Y-48.8
X123.0Y-63.2
X123.3Y-54.9
X123.3Y-74.5
X123.4Y-90.2
X123.9Y-84.0
T0
M30
