M48
; DRILL file {KiCad (5.1.12)-1} date 01/12/23 22:36:17
; FORMAT={-:-/ absolute / metric / decimal}
; #@! TF.CreationDate,2023-01-12T22:36:17-08:00
; #@! TF.GenerationSoftware,Kicad,Pcbnew,(5.1.12)-1
; #@! TF.FileFunction,Plated,1,2,PTH
FMAT,2
METRIC
T1C0.400
T2C0.800
%
G90
G05
T1
X78.3Y-92.6
X79.8Y-92.6
X80.95Y-54.782
X81.3Y-92.6
X82.8Y-92.6
X84.3Y-64.132
X84.3Y-92.6
X84.328Y-26.162
X84.5Y-62.6
X84.582Y-41.783
X84.582Y-58.039
X84.582Y-59.944
X85.7Y-92.6
X85.7Y-57.032
X85.852Y-26.162
X87.25Y-92.6
X87.4Y-26.186
X87.4Y-54.332
X88.478Y-56.0
X88.8Y-92.6
X88.9Y-26.162
X89.378Y-54.914
X90.2Y-92.6
X90.424Y-26.162
X91.11Y-47.955
X91.141Y-57.232
X91.8Y-92.6
X91.948Y-26.162
X93.3Y-92.6
X93.472Y-26.162
X93.65Y-55.194
X93.977Y-47.8
X94.7Y-92.6
X94.996Y-26.162
X95.504Y-73.914
X96.19Y-55.194
X96.2Y-92.6
X96.285Y-47.704
X96.52Y-26.162
X96.52Y-71.374
X96.52Y-71.374
X96.52Y-79.502
X97.536Y-72.39
X97.536Y-75.438
X97.536Y-76.962
X97.7Y-92.6
X98.044Y-26.162
X98.044Y-76.454
X98.044Y-77.47
X98.552Y-76.962
X98.552Y-78.486
X98.73Y-54.178
X99.3Y-92.6
X99.563Y-42.667
X99.568Y-26.162
X99.568Y-73.914
X99.568Y-78.486
X100.056Y-54.844
X100.584Y-76.962
X100.8Y-92.6
X101.092Y-26.162
X101.092Y-72.39
X101.092Y-75.438
X101.092Y-76.454
X101.092Y-79.502
X101.484Y-47.8
X101.556Y-57.115
X101.6Y-78.994
X101.912Y-56.181
X102.108Y-71.374
X102.108Y-78.486
X102.3Y-92.6
X102.616Y-26.162
X103.124Y-73.914
X103.301Y-53.009
X103.8Y-92.6
X104.1Y-56.8
X104.14Y-26.162
X104.394Y-61.849
X104.4Y-55.8
X105.3Y-92.6
X105.346Y-62.484
X105.664Y-26.162
X106.172Y-63.119
X106.3Y-52.8
X106.8Y-92.6
X107.061Y-63.817
X107.188Y-26.162
X107.961Y-64.389
X108.25Y-92.6
X108.9Y-52.8
X109.003Y-64.981
X109.75Y-92.6
X111.25Y-92.6
X111.4Y-52.8
X112.75Y-92.6
X114.0Y-52.8
X114.25Y-92.6
X115.75Y-92.6
X116.5Y-52.8
X117.25Y-92.6
X118.75Y-92.6
X119.0Y-52.8
X120.25Y-92.6
X121.75Y-92.6
X123.4Y-92.6
T2
X120.2Y-42.9
X120.3Y-59.0
X120.3Y-78.3
X120.3Y-86.1
X120.7Y-68.5
X122.3Y-48.8
X123.0Y-63.2
X123.3Y-54.9
X123.3Y-74.5
X123.4Y-90.2
X123.9Y-84.0
T0
M30
