M48
; DRILL file {KiCad (5.1.12)-1} date 06/15/22 00:08:02
; FORMAT={-:-/ absolute / inch / decimal}
; #@! TF.CreationDate,2022-06-15T00:08:02-07:00
; #@! TF.GenerationSoftware,Kicad,Pcbnew,(5.1.12)-1
; #@! TF.FileFunction,Plated,1,2,PTH
FMAT,2
INCH
T1C0.0157
T2C0.0315
%
G90
G05
T1
X3.0827Y-3.6457
X3.1417Y-3.6457
X3.187Y-2.1568
X3.2008Y-3.6457
X3.2598Y-3.6457
X3.3011Y-2.321
X3.3189Y-2.5249
X3.3189Y-3.6457
X3.32Y-1.46
X3.3243Y-2.1957
X3.3268Y-2.4646
X3.3307Y-2.3898
X3.374Y-3.6457
X3.38Y-1.46
X3.3937Y-2.1811
X3.435Y-3.6457
X3.4409Y-1.4609
X3.4409Y-2.1391
X3.4843Y-2.2047
X3.4961Y-3.6457
X3.5Y-1.46
X3.5236Y-2.1564
X3.5512Y-3.6457
X3.56Y-1.46
X3.5669Y-2.2047
X3.6102Y-2.1698
X3.6142Y-3.6457
X3.62Y-1.46
X3.6732Y-3.6457
X3.68Y-1.46
X3.687Y-2.173
X3.689Y-1.8819
X3.7283Y-3.6457
X3.74Y-1.46
X3.787Y-2.173
X3.7874Y-1.8819
X3.7874Y-3.6457
X3.8Y-1.46
X3.8465Y-3.6457
X3.86Y-1.44
X3.887Y-2.133
X3.9094Y-3.6457
X3.9198Y-1.6798
X3.92Y-1.44
X3.9392Y-2.1592
X3.9685Y-3.6457
X3.98Y-1.44
X3.9954Y-1.8819
X3.9983Y-2.2486
X4.0123Y-2.2118
X4.0276Y-3.6457
X4.04Y-1.44
X4.067Y-2.087
X4.0748Y-2.4449
X4.0866Y-3.6457
X4.0984Y-2.2362
X4.1Y-1.44
X4.1102Y-2.1969
X4.1142Y-2.4685
X4.1457Y-3.6457
X4.1535Y-2.4921
X4.16Y-1.44
X4.16Y-1.44
X4.185Y-2.0787
X4.1929Y-2.5157
X4.2047Y-3.6457
X4.22Y-1.44
X4.2326Y-2.5397
X4.2618Y-3.6457
X4.2717Y-2.563
X4.2874Y-2.0787
X4.3209Y-3.6457
X4.3799Y-3.6457
X4.3858Y-2.0787
X4.439Y-3.6457
X4.4882Y-2.0787
X4.498Y-3.6457
X4.5087Y-1.8898
X4.5571Y-3.6457
X4.5866Y-2.0787
X4.6161Y-3.6457
X4.6752Y-3.6457
X4.685Y-2.0787
X4.7343Y-3.6457
X4.7933Y-3.6457
X4.8583Y-3.6457
T2
X4.7323Y-1.689
X4.7362Y-2.3228
X4.7362Y-3.0827
X4.7362Y-3.3898
X4.752Y-2.6969
X4.815Y-1.9213
X4.8425Y-2.4882
X4.8543Y-2.1614
X4.8543Y-2.9331
X4.8583Y-3.5512
X4.878Y-3.3071
T0
M30
